<svg xmlns="http://www.w3.org/2000/svg" viewBox="0 0 192 192" role="img">
  <desc>Generated vector SVG from cloud_infra.png</desc>
  <path fill="#081840" d="M49 67h1v1H49zM67 85h1v1H67zM74 106h1v1H74zM130 111h1v1H130zM103 119h1v1H103zM103 120h1v1H103zM104 123h1v1H104zM96 126h1v1H96zM145 144h1v1H145zM59 175h1v1H59z"/>
  <path fill="#082040" d="M18 38h1v1H18zM19 41h1v1H19zM19 42h1v1H19zM19 43h1v1H19zM42 43h1v1H42zM19 44h1v1H19zM46 44h1v1H46zM18 46h2v1H18zM39 46h1v1H39zM48 46h1v1H48zM81 46h1v1H81zM106 46h1v1H106zM112 46h1v1H112zM18 47h1v1H18zM19 48h1v1H19zM117 49h1v1H117zM39 50h1v1H39zM108 50h1v1H108zM120 50h1v1H120zM108 51h1v1H108zM85 52h1v1H85zM50 54h1v1H50zM111 54h1v1H111zM119 56h1v1H119zM52 57h2v1H52zM75 63h1v1H75zM127 63h1v1H127zM127 64h1v1H127zM173 64h1v1H173zM127 65h1v1H127zM76 66h1v1H76zM70 67h1v1H70zM52 70h1v1H52zM100 70h1v1H100zM52 71h1v1H52zM66 71h1v1H66zM104 71h1v1H104zM54 72h1v1H54zM79 72h1v1H79zM102 73h1v1H102zM55 74h2v1H55zM19 77h1v1H19zM72 77h2v1H72zM18 78h2v1H18zM75 78h2v1H75zM73 79h1v1H73zM75 79h1v1H75zM64 83h2v1H64zM18 84h2v1H18zM18 85h1v1H18zM66 85h1v1H66zM18 86h1v1H18zM67 86h1v1H67zM19 89h1v1H19zM19 90h1v1H19zM69 90h1v1H69zM19 91h1v1H19zM19 92h1v1H19zM19 93h1v1H19zM18 94h2v1H18zM18 95h2v1H18zM19 96h1v1H19zM67 97h1v1H67zM66 104h1v1H66zM66 105h1v1H66zM66 106h1v1H66zM19 108h1v1H19zM113 108h1v1H113zM19 109h1v1H19zM19 110h1v1H19zM19 111h1v1H19zM18 112h2v1H18zM18 113h2v1H18zM108 113h1v1H108zM81 114h1v1H81zM119 114h1v1H119zM132 114h1v1H132zM19 115h1v1H19zM119 115h1v1H119zM19 116h1v1H19zM65 116h1v1H65zM107 116h1v1H107zM19 117h1v1H19zM65 117h1v1H65zM78 117h1v1H78zM65 118h1v1H65zM76 118h2v1H76zM19 119h1v1H19zM65 119h1v1H65zM102 119h1v1H102zM104 119h1v1H104zM65 120h1v1H65zM87 120h1v1H87zM104 120h1v1H104zM114 120h1v1H114zM18 121h1v1H18zM65 121h1v1H65zM86 121h2v1H86zM92 121h1v1H92zM65 122h1v1H65zM74 122h1v1H74zM104 122h1v1H104zM65 123h1v1H65zM74 123h1v1H74zM84 123h1v1H84zM94 123h1v1H94zM65 124h1v1H65zM65 125h1v1H65zM18 128h1v1H18zM19 129h1v1H19zM19 136h1v1H19zM19 137h1v1H19zM18 138h3v1H18zM18 139h2v1H18zM18 140h2v1H18zM141 140h1v1H141zM19 141h1v1H19zM99 141h1v1H99zM132 142h1v1H132zM100 144h1v1H100zM148 146h1v1H148zM18 153h1v1H18zM60 175h1v1H60zM68 175h1v1H68zM81 175h2v1H81zM84 175h3v1H84zM90 175h1v1H90zM93 175h4v1H93zM100 175h1v1H100zM114 175h9v1H114zM143 175h3v1H143z"/>
  <path fill="#082048" d="M37 17h118v1H37zM34 18h124v1H34zM32 19h128v1H32zM31 20h131v1H31zM29 21h134v1H29zM28 22h137v1H28zM27 23h139v1H27zM25 24h142v1H25zM25 25h143v1H25zM24 26h145v1H24zM23 27h146v1H23zM22 28h148v1H22zM22 29h149v1H22zM21 30h150v1H21zM21 31h151v1H21zM20 32h152v1H20zM20 33h153v1H20zM19 34h154v1H19zM19 35h154v1H19zM19 36h76v1H19zM100 36h73v1H100zM19 37h72v1H19zM104 37h70v1H104zM19 38h70v1H19zM106 38h68v1H106zM18 39h69v1H18zM107 39h67v1H107zM18 40h68v1H18zM108 40h66v1H108zM18 41h1v1H18zM20 41h65v1H20zM95 41h5v1H95zM109 41h65v1H109zM18 42h1v1H18zM20 42h64v1H20zM92 42h10v1H92zM110 42h64v1H110zM18 43h1v1H18zM20 43h22v1H20zM43 43h40v1H43zM90 43h14v1H90zM111 43h63v1H111zM18 44h1v1H18zM20 44h21v1H20zM47 44h36v1H47zM89 44h16v1H89zM112 44h62v1H112zM18 45h22v1H18zM47 45h35v1H47zM88 45h18v1H88zM112 45h62v1H112zM20 46h19v1H20zM47 46h1v1H47zM49 46h32v1H49zM87 46h19v1H87zM113 46h61v1H113zM19 47h20v1H19zM48 47h33v1H48zM87 47h20v1H87zM113 47h61v1H113zM18 48h1v1H18zM20 48h19v1H20zM48 48h33v1H48zM87 48h21v1H87zM113 48h61v1H113zM18 49h22v1H18zM48 49h33v1H48zM86 49h22v1H86zM118 49h56v1H118zM18 50h21v1H18zM48 50h30v1H48zM86 50h22v1H86zM121 50h53v1H121zM18 51h22v1H18zM49 51h27v1H49zM85 51h23v1H85zM122 51h52v1H122zM18 52h23v1H18zM49 52h25v1H49zM86 52h23v1H86zM123 52h51v1H123zM18 53h23v1H18zM50 53h23v1H50zM85 53h24v1H85zM124 53h50v1H124zM18 54h23v1H18zM51 54h22v1H51zM81 54h30v1H81zM112 54h1v1H112zM114 54h1v1H114zM125 54h49v1H125zM18 55h24v1H18zM51 55h21v1H51zM79 55h39v1H79zM125 55h49v1H125zM18 56h24v1H18zM52 56h19v1H52zM78 56h41v1H78zM126 56h48v1H126zM18 57h25v1H18zM54 57h17v1H54zM77 57h44v1H77zM126 57h48v1H126zM18 58h25v1H18zM53 58h18v1H53zM76 58h45v1H76zM127 58h47v1H127zM18 59h26v1H18zM54 59h16v1H54zM75 59h47v1H75zM127 59h47v1H127zM18 60h26v1H18zM55 60h15v1H55zM75 60h47v1H75zM127 60h47v1H127zM18 61h27v1H18zM56 61h14v1H56zM75 61h47v1H75zM127 61h47v1H127zM18 62h28v1H18zM57 62h13v1H57zM75 62h47v1H75zM127 62h47v1H127zM18 63h28v1H18zM58 63h12v1H58zM76 63h46v1H76zM128 63h46v1H128zM18 64h29v1H18zM59 64h11v1H59zM75 64h20v1H75zM98 64h24v1H98zM128 64h45v1H128zM18 65h30v1H18zM60 65h10v1H60zM76 65h17v1H76zM100 65h22v1H100zM128 65h46v1H128zM18 66h31v1H18zM61 66h10v1H61zM77 66h14v1H77zM100 66h22v1H100zM127 66h47v1H127zM18 67h31v1H18zM62 67h8v1H62zM77 67h13v1H77zM101 67h20v1H101zM127 67h47v1H127zM18 68h33v1H18zM63 68h8v1H63zM77 68h11v1H77zM101 68h19v1H101zM126 68h48v1H126zM18 69h34v1H18zM64 69h8v1H64zM77 69h9v1H77zM100 69h19v1H100zM126 69h48v1H126zM18 70h34v1H18zM65 70h8v1H65zM76 70h9v1H76zM101 70h17v1H101zM125 70h49v1H125zM18 71h34v1H18zM53 71h1v1H53zM67 71h17v1H67zM99 71h5v1H99zM105 71h10v1H105zM124 71h50v1H124zM18 72h36v1H18zM67 72h12v1H67zM80 72h3v1H80zM97 72h7v1H97zM124 72h50v1H124zM18 73h38v1H18zM68 73h13v1H68zM95 73h7v1H95zM123 73h51v1H123zM18 74h37v1H18zM68 74h12v1H68zM93 74h10v1H93zM121 74h53v1H121zM18 75h40v1H18zM70 75h9v1H70zM92 75h11v1H92zM119 75h55v1H119zM18 76h41v1H18zM70 76h9v1H70zM90 76h14v1H90zM116 76h58v1H116zM18 77h1v1H18zM20 77h40v1H20zM71 77h1v1H71zM74 77h4v1H74zM89 77h85v1H89zM20 78h41v1H20zM72 78h3v1H72zM88 78h86v1H88zM18 79h44v1H18zM74 79h1v1H74zM87 79h87v1H87zM18 80h45v1H18zM74 80h1v1H74zM86 80h88v1H86zM18 81h46v1H18zM85 81h89v1H85zM18 82h47v1H18zM84 82h90v1H84zM18 83h46v1H18zM83 83h91v1H83zM20 84h47v1H20zM82 84h92v1H82zM19 85h47v1H19zM81 85h93v1H81zM19 86h48v1H19zM68 86h1v1H68zM81 86h93v1H81zM18 87h52v1H18zM80 87h94v1H80zM18 88h52v1H18zM80 88h94v1H80zM18 89h1v1H18zM20 89h51v1H20zM79 89h95v1H79zM18 90h1v1H18zM20 90h49v1H20zM79 90h95v1H79zM18 91h1v1H18zM20 91h50v1H20zM78 91h96v1H78zM18 92h1v1H18zM20 92h49v1H20zM78 92h96v1H78zM18 93h1v1H18zM20 93h49v1H20zM77 93h97v1H77zM20 94h49v1H20zM77 94h97v1H77zM20 95h49v1H20zM77 95h97v1H77zM18 96h1v1H18zM20 96h48v1H20zM76 96h98v1H76zM18 97h49v1H18zM76 97h98v1H76zM18 98h50v1H18zM76 98h98v1H76zM18 99h50v1H18zM76 99h98v1H76zM18 100h49v1H18zM75 100h99v1H75zM18 101h49v1H18zM75 101h99v1H75zM18 102h49v1H18zM75 102h99v1H75zM18 103h49v1H18zM75 103h99v1H75zM18 104h48v1H18zM75 104h99v1H75zM18 105h48v1H18zM75 105h99v1H75zM18 106h48v1H18zM75 106h44v1H75zM123 106h51v1H123zM18 107h48v1H18zM74 107h42v1H74zM126 107h48v1H126zM18 108h1v1H18zM20 108h46v1H20zM74 108h39v1H74zM127 108h47v1H127zM18 109h1v1H18zM20 109h46v1H20zM74 109h39v1H74zM128 109h46v1H128zM18 110h1v1H18zM20 110h46v1H20zM74 110h38v1H74zM130 110h44v1H130zM18 111h1v1H18zM20 111h46v1H20zM74 111h13v1H74zM94 111h17v1H94zM131 111h43v1H131zM20 112h46v1H20zM74 112h10v1H74zM96 112h14v1H96zM131 112h43v1H131zM20 113h46v1H20zM74 113h9v1H74zM98 113h10v1H98zM109 113h1v1H109zM131 113h43v1H131zM18 114h48v1H18zM74 114h7v1H74zM99 114h10v1H99zM120 114h2v1H120zM133 114h41v1H133zM18 115h1v1H18zM20 115h46v1H20zM74 115h7v1H74zM100 115h8v1H100zM118 115h1v1H118zM120 115h3v1H120zM132 115h42v1H132zM18 116h1v1H18zM20 116h45v1H20zM74 116h6v1H74zM100 116h7v1H100zM117 116h7v1H117zM133 116h41v1H133zM18 117h1v1H18zM20 117h45v1H20zM74 117h4v1H74zM101 117h6v1H101zM116 117h8v1H116zM133 117h41v1H133zM18 118h47v1H18zM74 118h2v1H74zM102 118h5v1H102zM115 118h10v1H115zM134 118h40v1H134zM18 119h1v1H18zM20 119h45v1H20zM74 119h3v1H74zM89 119h3v1H89zM105 119h1v1H105zM115 119h10v1H115zM134 119h40v1H134zM18 120h47v1H18zM74 120h2v1H74zM88 120h5v1H88zM105 120h1v1H105zM115 120h11v1H115zM134 120h40v1H134zM19 121h46v1H19zM74 121h2v1H74zM88 121h4v1H88zM93 121h1v1H93zM103 121h2v1H103zM114 121h12v1H114zM134 121h40v1H134zM18 122h47v1H18zM85 122h10v1H85zM113 122h13v1H113zM135 122h39v1H135zM18 123h47v1H18zM85 123h9v1H85zM113 123h14v1H113zM135 123h39v1H135zM18 124h47v1H18zM83 124h13v1H83zM112 124h15v1H112zM135 124h39v1H135zM18 125h47v1H18zM83 125h13v1H83zM112 125h15v1H112zM136 125h38v1H136zM18 126h48v1H18zM82 126h14v1H82zM112 126h16v1H112zM136 126h38v1H136zM18 127h48v1H18zM81 127h16v1H81zM111 127h17v1H111zM136 127h38v1H136zM19 128h47v1H19zM81 128h16v1H81zM111 128h17v1H111zM136 128h38v1H136zM18 129h1v1H18zM20 129h46v1H20zM80 129h18v1H80zM111 129h17v1H111zM137 129h37v1H137zM18 130h48v1H18zM80 130h18v1H80zM110 130h19v1H110zM137 130h37v1H137zM18 131h48v1H18zM79 131h19v1H79zM110 131h19v1H110zM137 131h37v1H137zM18 132h48v1H18zM79 132h19v1H79zM110 132h19v1H110zM138 132h36v1H138zM18 133h48v1H18zM78 133h21v1H78zM109 133h20v1H109zM138 133h36v1H138zM18 134h48v1H18zM78 134h21v1H78zM109 134h21v1H109zM138 134h36v1H138zM18 135h48v1H18zM78 135h21v1H78zM109 135h21v1H109zM138 135h36v1H138zM18 136h1v1H18zM20 136h46v1H20zM77 136h22v1H77zM109 136h21v1H109zM139 136h35v1H139zM18 137h1v1H18zM20 137h46v1H20zM77 137h22v1H77zM108 137h23v1H108zM139 137h35v1H139zM21 138h45v1H21zM77 138h22v1H77zM108 138h23v1H108zM140 138h34v1H140zM20 139h46v1H20zM76 139h23v1H76zM108 139h23v1H108zM140 139h34v1H140zM20 140h46v1H20zM76 140h23v1H76zM108 140h24v1H108zM142 140h32v1H142zM18 141h1v1H18zM20 141h46v1H20zM76 141h23v1H76zM108 141h24v1H108zM142 141h32v1H142zM18 142h48v1H18zM76 142h24v1H76zM108 142h24v1H108zM142 142h32v1H142zM18 143h48v1H18zM75 143h25v1H75zM107 143h26v1H107zM143 143h31v1H143zM18 144h48v1H18zM75 144h25v1H75zM106 144h28v1H106zM146 144h28v1H146zM18 145h48v1H18zM75 145h28v1H75zM105 145h29v1H105zM147 145h27v1H147zM18 146h48v1H18zM75 146h60v1H75zM149 146h25v1H149zM18 147h48v1H18zM74 147h62v1H74zM149 147h25v1H149zM18 148h48v1H18zM74 148h63v1H74zM149 148h25v1H149zM18 149h48v1H18zM74 149h64v1H74zM149 149h25v1H149zM18 150h48v1H18zM74 150h65v1H74zM148 150h26v1H148zM18 151h49v1H18zM74 151h67v1H74zM148 151h26v1H148zM18 152h49v1H18zM73 152h70v1H73zM146 152h28v1H146zM19 153h50v1H19zM70 153h104v1H70zM19 154h155v1H19zM19 155h154v1H19zM19 156h154v1H19zM19 157h154v1H19zM20 158h152v1H20zM20 159h152v1H20zM21 160h151v1H21zM21 161h150v1H21zM22 162h149v1H22zM22 163h148v1H22zM23 164h146v1H23zM24 165h144v1H24zM25 166h143v1H25zM25 167h142v1H25zM26 168h140v1H26zM28 169h137v1H28zM29 170h134v1H29zM30 171h132v1H30zM32 172h128v1H32zM34 173h124v1H34zM37 174h118v1H37zM43 175h16v1H43zM61 175h7v1H61zM69 175h12v1H69zM83 175h1v1H83zM87 175h3v1H87zM91 175h2v1H91zM97 175h3v1H97zM101 175h13v1H101zM123 175h20v1H123zM146 175h3v1H146z"/>
  <path fill="#082050" d="M102 42h1v1H102zM111 44h1v1H111zM86 48h1v1H86zM121 51h1v1H121zM113 54h1v1H113zM115 54h1v1H115zM126 67h1v1H126zM71 68h1v1H71zM123 72h1v1H123zM122 73h1v1H122zM129 110h1v1H129zM88 119h1v1H88zM104 145h1v1H104zM69 153h1v1H69z"/>
  <path fill="#102048" d="M26 23h1v1H26zM46 63h1v1H46zM91 66h1v1H91zM81 73h1v1H81zM74 105h1v1H74zM93 120h1v1H93zM128 129h1v1H128zM129 133h1v1H129zM141 141h1v1H141zM73 151h1v1H73zM172 158h1v1H172zM20 160h1v1H20zM168 165h1v1H168zM24 166h1v1H24zM155 174h1v1H155zM149 175h1v1H149z"/>
  <path fill="#082850" d="M115 71h1v1H115z"/>
  <path fill="#102050" d="M155 17h1v1H155zM30 20h1v1H30zM76 120h1v1H76zM67 152h1v1H67z"/>
  <path fill="#102848" d="M80 74h1v1H80zM79 75h1v1H79zM70 88h1v1H70zM21 162h1v1H21z"/>
  <path fill="#102850" d="M163 21h1v1H163zM24 25h1v1H24zM21 29h1v1H21zM20 31h1v1H20zM103 37h1v1H103zM105 38h1v1H105zM39 48h1v1H39zM116 49h1v1H116zM74 52h1v1H74zM77 56h1v1H77zM76 57h1v1H76zM100 67h1v1H100zM86 69h1v1H86zM64 70h1v1H64zM66 72h1v1H66zM69 75h1v1H69zM85 80h1v1H85zM66 107h1v1H66zM84 112h1v1H84zM133 118h1v1H133zM82 125h1v1H82zM110 129h1v1H110zM137 132h1v1H137zM130 136h1v1H130zM99 140h1v1H99zM107 142h1v1H107zM74 146h1v1H74zM72 152h1v1H72zM27 169h1v1H27zM42 175h1v1H42z"/>
  <path fill="#102858" d="M94 41h1v1H94zM85 50h1v1H85zM73 53h1v1H73zM118 55h1v1H118zM70 65h1v1H70z"/>
  <path fill="#103050" d="M81 47h1v1H81z"/>
  <path fill="#182850" d="M160 19h1v1H160zM47 47h1v1H47zM51 56h1v1H51zM59 65h1v1H59zM122 106h1v1H122zM108 136h1v1H108zM18 154h1v1H18z"/>
  <path fill="#103058" d="M99 36h1v1H99zM91 42h1v1H91zM83 43h1v1H83zM107 47h1v1H107zM119 50h1v1H119zM78 55h1v1H78zM119 69h1v1H119zM125 69h1v1H125zM115 76h1v1H115z"/>
  <path fill="#183050" d="M27 22h1v1H27zM18 37h1v1H18zM44 60h1v1H44zM55 61h1v1H55zM56 62h1v1H56zM58 64h1v1H58zM95 64h1v1H95zM60 66h1v1H60zM63 69h1v1H63zM65 71h1v1H65zM67 100h1v1H67zM97 113h1v1H97zM85 121h1v1H85zM103 122h1v1H103zM75 142h1v1H75zM143 152h1v1H143zM23 165h1v1H23zM36 174h1v1H36zM150 175h1v1H150z"/>
  <path fill="#103060" d="M75 65h1v1H75z"/>
  <path fill="#183058" d="M57 63h1v1H57zM99 65h1v1H99zM61 67h1v1H61zM67 73h1v1H67zM84 81h1v1H84zM92 119h1v1H92zM147 151h1v1H147z"/>
  <path fill="#203050" d="M125 107h1v1H125zM87 111h1v1H87zM124 117h1v1H124zM102 120h1v1H102zM140 140h1v1H140zM134 145h1v1H134zM163 170h1v1H163z"/>
  <path fill="#183060" d="M116 54h1v1H116z"/>
  <path fill="#203058" d="M44 16h81v1H44zM126 16h23v1H126zM158 18h1v1H158zM23 26h1v1H23zM169 27h1v1H169zM19 33h1v1H19zM173 36h1v1H173zM39 47h1v1H39zM62 68h1v1H62zM100 68h1v1H100zM87 78h1v1H87zM86 79h1v1H86zM83 82h1v1H83zM69 92h1v1H69zM119 106h1v1H119zM114 108h1v1H114zM99 115h1v1H99zM126 122h1v1H126zM95 123h1v1H95zM139 138h1v1H139zM131 139h1v1H131zM103 145h1v1H103zM19 158h1v1H19zM41 175h1v1H41z"/>
  <path fill="#183860" d="M95 36h1v1H95zM105 44h1v1H105zM86 47h1v1H86zM108 49h1v1H108zM84 53h1v1H84zM109 53h1v1H109zM123 53h1v1H123zM124 54h1v1H124zM71 56h1v1H71zM120 68h1v1H120zM104 76h1v1H104z"/>
  <path fill="#203858" d="M125 16h1v1H125zM149 16h1v1H149zM47 64h1v1H47zM78 90h1v1H78zM98 114h1v1H98zM108 115h1v1H108zM101 118h1v1H101zM144 144h1v1H144zM160 172h1v1H160z"/>
  <path fill="#183868" d="M122 52h1v1H122z"/>
  <path fill="#203860" d="M43 16h1v1H43zM36 17h1v1H36zM93 65h1v1H93zM91 75h1v1H91zM110 112h1v1H110z"/>
  <path fill="#283858" d="M45 44h1v1H45zM97 64h1v1H97zM86 120h1v1H86z"/>
  <path fill="#184068" d="M104 43h1v1H104zM80 54h1v1H80zM126 58h1v1H126zM122 62h1v1H122zM122 63h1v1H122zM72 69h1v1H72z"/>
  <path fill="#283860" d="M85 70h1v1H85zM75 80h1v1H75zM79 88h1v1H79zM93 111h1v1H93zM105 121h1v1H105zM84 122h1v1H84zM109 132h1v1H109zM173 155h1v1H173zM28 170h1v1H28z"/>
  <path fill="#204068" d="M98 36h1v1H98zM87 39h1v1H87zM100 41h1v1H100zM106 45h1v1H106zM121 58h1v1H121z"/>
  <path fill="#284060" d="M42 16h1v1H42zM41 54h1v1H41zM76 95h1v1H76zM68 96h1v1H68zM74 104h1v1H74zM66 108h1v1H66zM125 119h1v1H125zM94 121h1v1H94zM80 128h1v1H80zM99 139h1v1H99zM145 152h1v1H145zM158 173h1v1H158z"/>
  <path fill="#204070" d="M70 59h1v1H70zM122 61h1v1H122zM118 70h1v1H118zM120 74h1v1H120z"/>
  <path fill="#304060" d="M49 53h1v1H49zM54 60h1v1H54zM80 86h1v1H80zM75 99h1v1H75zM130 112h1v1H130zM96 125h1v1H96zM135 125h1v1H135zM111 126h1v1H111zM136 129h1v1H136zM76 138h1v1H76zM169 164h1v1H169zM31 172h1v1H31z"/>
  <path fill="#204870" d="M96 36h2v1H96zM91 37h1v1H91zM88 44h1v1H88zM112 47h1v1H112zM115 49h1v1H115zM76 67h1v1H76zM114 76h1v1H114z"/>
  <path fill="#304068" d="M150 16h1v1H150zM28 21h1v1H28zM41 44h1v1H41zM40 51h1v1H40zM88 68h1v1H88zM113 121h1v1H113zM148 147h1v1H148zM151 175h1v1H151z"/>
  <path fill="#204878" d="M110 43h1v1H110zM125 56h1v1H125zM118 75h1v1H118z"/>
  <path fill="#284870" d="M73 70h1v1H73z"/>
  <path fill="#304868" d="M31 19h1v1H31zM96 72h1v1H96zM77 119h1v1H77zM98 132h1v1H98zM107 141h1v1H107z"/>
  <path fill="#384860" d="M111 111h1v1H111z"/>
  <path fill="#384868" d="M46 45h1v1H46zM42 56h1v1H42zM43 58h1v1H43zM121 106h1v1H121zM117 115h1v1H117zM132 116h1v1H132zM106 119h1v1H106zM75 122h1v1H75zM127 125h1v1H127zM77 135h1v1H77zM138 136h1v1H138zM33 173h1v1H33zM40 175h1v1H40z"/>
  <path fill="#285078" d="M76 51h1v1H76zM122 64h1v1H122zM116 71h1v1H116z"/>
  <path fill="#384870" d="M64 81h1v1H64zM83 113h1v1H83zM144 152h1v1H144z"/>
  <path fill="#404868" d="M120 106h1v1H120z"/>
  <path fill="#285080" d="M93 41h1v1H93zM82 45h1v1H82zM85 49h1v1H85zM126 66h1v1H126zM76 69h1v1H76zM103 75h1v1H103z"/>
  <path fill="#385070" d="M41 16h1v1H41z"/>
  <path fill="#405068" d="M74 81h1v1H74z"/>
  <path fill="#285880" d="M89 43h1v1H89zM75 58h1v1H75zM70 64h1v1H70z"/>
  <path fill="#305080" d="M86 40h1v1H86z"/>
  <path fill="#405070" d="M33 18h1v1H33zM162 20h1v1H162zM53 59h1v1H53zM96 64h1v1H96zM59 76h1v1H59zM60 77h1v1H60zM88 77h1v1H88zM61 78h1v1H61zM62 79h1v1H62zM76 79h1v1H76zM63 80h1v1H63zM65 82h1v1H65zM82 83h1v1H82zM67 101h1v1H67zM116 107h1v1H116zM66 109h1v1H66zM113 109h1v1H113zM107 117h1v1H107zM83 123h1v1H83zM97 128h1v1H97zM79 130h1v1H79zM129 132h1v1H129zM99 138h1v1H99zM132 141h1v1H132zM74 145h1v1H74zM148 149h1v1H148zM66 150h1v1H66z"/>
  <path fill="#305880" d="M89 38h1v1H89zM106 39h1v1H106zM84 42h1v1H84zM78 50h1v1H78zM71 67h1v1H71zM105 76h1v1H105zM113 76h1v1H113z"/>
  <path fill="#405078" d="M123 115h1v1H123z"/>
  <path fill="#405870" d="M22 164h1v1H22z"/>
  <path fill="#485070" d="M104 124h1v1H104zM18 155h1v1H18z"/>
  <path fill="#305888" d="M87 45h1v1H87zM121 67h1v1H121zM75 70h1v1H75zM106 76h4v1H106zM112 76h1v1H112z"/>
  <path fill="#405878" d="M98 71h1v1H98z"/>
  <path fill="#485870" d="M151 16h1v1H151zM171 30h1v1H171zM18 36h1v1H18zM114 119h1v1H114zM73 120h1v1H73zM112 123h1v1H112zM73 125h1v1H73zM128 128h1v1H128z"/>
  <path fill="#306088" d="M113 49h2v1H113zM122 60h1v1H122zM74 62h1v1H74zM110 76h2v1H110z"/>
  <path fill="#485878" d="M40 45h1v1H40zM48 65h1v1H48zM57 74h1v1H57zM66 83h1v1H66zM77 92h1v1H77zM122 114h1v1H122zM73 117h1v1H73zM73 118h1v1H73zM73 119h1v1H73zM73 121h1v1H73zM73 122h1v1H73zM134 122h1v1H134zM73 123h1v1H73zM73 124h1v1H73zM81 126h1v1H81zM137 133h1v1H137zM139 150h1v1H139z"/>
  <path fill="#306090" d="M102 37h1v1H102zM74 61h1v1H74zM124 70h1v1H124z"/>
  <path fill="#505878" d="M58 75h1v1H58z"/>
  <path fill="#386090" d="M85 41h1v1H85z"/>
  <path fill="#506078" d="M22 27h1v1H22zM172 32h1v1H172zM73 116h1v1H73zM116 116h1v1H116zM152 175h1v1H152z"/>
  <path fill="#386890" d="M117 54h1v1H117z"/>
  <path fill="#506080" d="M40 16h1v1H40zM156 17h1v1H156zM47 48h1v1H47zM48 51h1v1H48zM50 55h1v1H50zM94 73h1v1H94zM70 90h1v1H70zM74 103h1v1H74zM112 110h1v1H112zM88 111h1v1H88zM131 114h1v1H131zM73 115h1v1H73zM108 135h1v1H108zM107 140h1v1H107zM75 141h1v1H75zM133 143h1v1H133zM162 171h1v1H162zM156 174h1v1H156z"/>
  <path fill="#386898" d="M126 59h1v1H126zM74 63h1v1H74zM103 73h1v1H103z"/>
  <path fill="#586080" d="M49 66h1v1H49zM99 70h1v1H99zM55 72h1v1H55zM56 73h1v1H56zM67 84h1v1H67zM95 112h1v1H95zM78 132h1v1H78zM141 151h1v1H141zM171 161h1v1H171z"/>
  <path fill="#387098" d="M70 60h1v1H70z"/>
  <path fill="#586880" d="M170 28h1v1H170zM173 35h1v1H173zM45 61h1v1H45zM84 71h1v1H84zM66 110h1v1H66zM92 111h1v1H92zM73 114h1v1H73zM87 119h1v1H87zM74 124h1v1H74zM130 135h1v1H130z"/>
  <path fill="#407098" d="M111 45h1v1H111zM70 63h1v1H70zM104 72h1v1H104z"/>
  <path fill="#606880" d="M53 70h1v1H53zM103 123h1v1H103z"/>
  <path fill="#4070a0" d="M103 42h1v1H103zM107 46h1v1H107zM81 48h1v1H81zM118 50h1v1H118zM72 55h1v1H72zM126 65h1v1H126z"/>
  <path fill="#606888" d="M78 118h1v1H78zM133 119h1v1H133zM99 137h1v1H99zM148 148h1v1H148zM73 150h1v1H73zM39 175h1v1H39z"/>
  <path fill="#4078a0" d="M104 38h1v1H104zM101 41h1v1H101zM109 42h1v1H109z"/>
  <path fill="#607088" d="M152 16h1v1H152zM166 23h1v1H166zM54 71h1v1H54zM73 80h1v1H73zM69 93h1v1H69zM75 98h1v1H75zM73 113h1v1H73zM110 128h1v1H110zM135 146h1v1H135zM173 156h1v1H173z"/>
  <path fill="#4078a8" d="M107 40h1v1H107zM108 48h1v1H108zM120 51h1v1H120zM122 65h1v1H122zM76 68h1v1H76zM125 68h1v1H125zM121 73h1v1H121z"/>
  <path fill="#687088" d="M68 85h1v1H68zM67 102h1v1H67zM126 121h1v1H126z"/>
  <path fill="#4080a8" d="M92 37h1v1H92z"/>
  <path fill="#4878a8" d="M79 54h1v1H79z"/>
  <path fill="#687090" d="M50 67h1v1H50zM51 68h1v1H51zM118 114h1v1H118zM172 159h1v1H172zM35 174h1v1H35z"/>
  <path fill="#687888" d="M68 97h1v1H68z"/>
  <path fill="#4080b0" d="M120 56h1v1H120zM75 66h1v1H75z"/>
  <path fill="#4880a8" d="M74 60h1v1H74z"/>
  <path fill="#687890" d="M167 24h1v1H167zM174 43h1v1H174zM52 69h1v1H52zM174 72h1v1H174zM174 76h1v1H174zM174 77h1v1H174zM72 79h1v1H72zM174 79h1v1H174zM174 80h1v1H174zM174 83h1v1H174zM174 84h1v1H174zM174 85h1v1H174zM174 91h1v1H174zM174 92h1v1H174zM174 94h1v1H174zM174 97h1v1H174zM174 98h1v1H174zM174 106h1v1H174zM85 112h1v1H85zM174 113h1v1H174zM174 116h1v1H174zM174 117h1v1H174zM90 118h1v1H90zM174 118h1v1H174zM174 121h1v1H174zM174 122h1v1H174zM174 123h1v1H174zM135 126h1v1H135zM174 129h1v1H174zM131 138h1v1H131zM146 145h1v1H146zM29 171h1v1H29z"/>
  <path fill="#707888" d="M174 64h1v1H174z"/>
  <path fill="#4880b0" d="M112 48h1v1H112zM71 57h1v1H71zM70 61h1v1H70zM70 62h1v1H70z"/>
  <path fill="#707890" d="M174 41h1v1H174zM174 42h1v1H174zM174 44h1v1H174zM174 45h1v1H174zM174 46h1v1H174zM174 47h1v1H174zM174 48h1v1H174zM174 49h1v1H174zM174 50h1v1H174zM174 51h1v1H174zM174 52h1v1H174zM174 53h1v1H174zM174 54h1v1H174zM174 55h1v1H174zM174 56h1v1H174zM174 57h1v1H174zM52 58h1v1H52zM174 58h1v1H174zM174 59h1v1H174zM174 60h1v1H174zM174 61h1v1H174zM174 62h1v1H174zM174 63h1v1H174zM174 65h1v1H174zM174 66h1v1H174zM90 67h1v1H90zM174 67h1v1H174zM174 68h1v1H174zM174 69h1v1H174zM174 70h1v1H174zM174 71h1v1H174zM174 73h1v1H174zM92 74h1v1H92zM174 74h1v1H174zM174 75h1v1H174zM89 76h1v1H89zM174 78h1v1H174zM174 81h1v1H174zM174 82h1v1H174zM174 86h1v1H174zM174 87h1v1H174zM174 88h1v1H174zM174 89h1v1H174zM174 90h1v1H174zM174 93h1v1H174zM174 95h1v1H174zM174 96h1v1H174zM174 99h1v1H174zM174 100h1v1H174zM174 101h1v1H174zM174 102h1v1H174zM174 103h1v1H174zM174 104h1v1H174zM174 105h1v1H174zM174 107h1v1H174zM174 108h1v1H174zM174 109h1v1H174zM174 110h1v1H174zM66 111h1v1H66zM89 111h1v1H89zM174 111h1v1H174zM73 112h1v1H73zM174 112h1v1H174zM174 114h1v1H174zM174 115h1v1H174zM174 119h1v1H174zM174 120h1v1H174zM174 124h1v1H174zM174 125h1v1H174zM174 126h1v1H174zM174 127h1v1H174zM174 128h1v1H174zM174 130h1v1H174zM98 131h1v1H98zM109 131h1v1H109zM174 131h1v1H174zM174 132h1v1H174zM174 133h1v1H174zM174 134h1v1H174zM174 135h1v1H174zM174 136h1v1H174zM174 137h1v1H174zM174 138h1v1H174zM174 139h1v1H174zM174 140h1v1H174zM174 141h1v1H174zM174 142h1v1H174zM100 143h1v1H100zM174 143h1v1H174zM174 144h1v1H174zM174 145h1v1H174zM174 146h1v1H174zM66 147h1v1H66zM174 147h1v1H174zM66 148h1v1H66zM174 148h1v1H174zM66 149h1v1H66zM174 149h1v1H174z"/>
  <path fill="#4888b0" d="M126 60h1v1H126zM117 75h1v1H117z"/>
  <path fill="#708090" d="M129 111h1v1H129zM109 114h1v1H109zM66 146h1v1H66zM174 150h1v1H174zM170 163h1v1H170z"/>
  <path fill="#4888b8" d="M86 46h1v1H86zM79 50h1v1H79z"/>
  <path fill="#708098" d="M39 16h1v1H39zM35 17h1v1H35zM29 20h1v1H29zM77 78h1v1H77zM100 117h1v1H100zM142 143h1v1H142zM101 144h1v1H101zM66 145h1v1H66zM20 161h1v1H20z"/>
  <path fill="#5088b8" d="M92 41h1v1H92zM108 41h1v1H108zM90 42h1v1H90zM75 52h1v1H75zM113 53h1v1H113zM74 70h1v1H74zM123 71h1v1H123z"/>
  <path fill="#788098" d="M165 22h1v1H165zM20 30h1v1H20zM126 108h1v1H126zM91 111h1v1H91zM136 130h1v1H136zM68 152h1v1H68z"/>
  <path fill="#5088c0" d="M117 71h1v1H117zM103 74h1v1H103z"/>
  <path fill="#7880a0" d="M81 84h1v1H81z"/>
  <path fill="#788898" d="M40 50h1v1H40zM73 111h1v1H73zM127 124h1v1H127z"/>
  <path fill="#5090c0" d="M85 48h1v1H85zM109 52h1v1H109zM83 53h1v1H83zM112 53h1v1H112zM114 53h1v1H114zM119 55h1v1H119zM122 59h1v1H122zM126 64h1v1H126zM105 72h1v1H105zM108 72h5v1H108z"/>
  <path fill="#7888a0" d="M66 143h1v1H66z"/>
  <path fill="#808898" d="M174 40h1v1H174z"/>
  <path fill="#5890c0" d="M101 37h1v1H101zM110 53h1v1H110zM106 72h2v1H106zM122 72h1v1H122z"/>
  <path fill="#8088a0" d="M168 25h1v1H168zM19 32h1v1H19zM18 35h1v1H18zM41 53h1v1H41zM74 102h1v1H74zM90 111h1v1H90zM82 114h1v1H82zM115 117h1v1H115zM129 131h1v1H129zM99 136h1v1H99zM76 137h1v1H76zM107 139h1v1H107zM66 142h1v1H66zM66 144h1v1H66zM105 144h1v1H105zM138 149h1v1H138zM174 151h1v1H174zM18 156h1v1H18zM153 175h1v1H153z"/>
  <path fill="#5898c0" d="M74 64h1v1H74zM113 72h1v1H113z"/>
  <path fill="#8090a0" d="M87 69h1v1H87zM71 78h1v1H71zM69 86h1v1H69zM76 94h1v1H76zM66 112h1v1H66zM79 117h1v1H79zM89 118h1v1H89zM105 122h1v1H105zM111 125h1v1H111zM97 127h1v1H97zM66 140h1v1H66zM66 141h1v1H66zM141 142h1v1H141zM74 144h1v1H74zM71 152h1v1H71zM167 167h1v1H167zM166 168h1v1H166z"/>
  <path fill="#5898c8" d="M83 44h1v1H83zM73 54h1v1H73zM124 55h1v1H124zM76 56h1v1H76zM126 61h1v1H126zM71 66h1v1H71z"/>
  <path fill="#8890a0" d="M83 72h1v1H83zM67 103h1v1H67zM124 107h1v1H124zM19 159h1v1H19z"/>
  <path fill="#6098c8" d="M82 46h1v1H82z"/>
  <path fill="#8890a8" d="M153 16h1v1H153zM159 18h1v1H159zM92 66h1v1H92zM73 110h1v1H73zM76 121h1v1H76zM95 122h1v1H95zM82 124h1v1H82zM139 139h1v1H139zM38 175h1v1H38z"/>
  <path fill="#58a0d0" d="M111 53h1v1H111zM125 57h1v1H125zM126 63h1v1H126z"/>
  <path fill="#8898a8" d="M77 134h1v1H77zM66 139h1v1H66zM106 143h1v1H106z"/>
  <path fill="#60a0d0" d="M88 39h1v1H88zM96 40h2v1H96zM81 49h1v1H81zM109 51h1v1H109zM82 53h1v1H82zM77 55h1v1H77zM126 62h1v1H126z"/>
  <path fill="#9098a8" d="M17 42h1v1H17zM17 43h1v1H17zM17 44h1v1H17zM17 45h1v1H17zM17 46h1v1H17zM17 47h1v1H17zM17 48h1v1H17zM17 49h1v1H17zM17 50h1v1H17zM17 51h1v1H17zM17 52h1v1H17zM17 53h1v1H17zM17 54h1v1H17zM17 55h1v1H17zM17 56h1v1H17zM17 57h1v1H17zM17 58h1v1H17zM17 59h1v1H17zM17 60h1v1H17zM17 61h1v1H17zM17 62h1v1H17zM17 63h1v1H17zM17 64h1v1H17zM17 65h1v1H17zM94 65h1v1H94zM17 66h1v1H17zM17 67h1v1H17zM17 68h1v1H17zM17 69h1v1H17zM17 70h1v1H17zM17 71h1v1H17zM17 72h1v1H17zM17 73h1v1H17zM17 74h1v1H17zM17 75h1v1H17zM17 76h1v1H17zM17 77h1v1H17zM17 78h1v1H17zM17 79h1v1H17zM17 80h1v1H17zM17 81h1v1H17zM17 82h1v1H17zM17 83h1v1H17zM17 84h1v1H17zM17 85h1v1H17zM17 86h1v1H17zM17 87h1v1H17zM17 88h1v1H17zM17 89h1v1H17zM17 90h1v1H17zM17 91h1v1H17zM17 92h1v1H17zM17 93h1v1H17zM17 94h1v1H17zM17 95h1v1H17zM17 96h1v1H17zM17 97h1v1H17zM17 98h1v1H17zM17 99h1v1H17zM17 100h1v1H17zM17 101h1v1H17zM17 102h1v1H17zM17 103h1v1H17zM17 104h1v1H17zM17 105h1v1H17zM17 106h1v1H17zM17 107h1v1H17zM17 108h1v1H17zM17 109h1v1H17zM17 110h1v1H17zM17 111h1v1H17zM17 112h1v1H17zM17 113h1v1H17zM66 113h1v1H66zM17 114h1v1H17zM17 115h1v1H17zM17 116h1v1H17zM124 116h1v1H124zM17 117h1v1H17zM17 118h1v1H17zM91 118h1v1H91zM17 119h1v1H17zM17 120h1v1H17zM17 121h1v1H17zM102 121h1v1H102zM17 122h1v1H17zM17 123h1v1H17zM17 124h1v1H17zM17 125h1v1H17zM17 126h1v1H17zM17 127h1v1H17zM17 128h1v1H17zM17 129h1v1H17zM17 130h1v1H17zM17 131h1v1H17zM17 132h1v1H17zM17 133h1v1H17zM17 134h1v1H17zM137 134h1v1H137zM17 135h1v1H17zM17 136h1v1H17zM17 137h1v1H17zM17 138h1v1H17zM66 138h1v1H66zM17 139h1v1H17zM17 140h1v1H17zM17 141h1v1H17zM17 142h1v1H17zM17 143h1v1H17zM17 144h1v1H17zM17 145h1v1H17zM17 146h1v1H17zM147 146h1v1H147zM17 147h1v1H17zM136 147h1v1H136zM17 148h1v1H17zM17 149h1v1H17zM73 149h1v1H73zM21 163h1v1H21z"/>
  <path fill="#60a0d8" d="M117 50h1v1H117z"/>
  <path fill="#9098b0" d="M174 39h1v1H174zM128 127h1v1H128zM66 134h1v1H66zM108 134h1v1H108zM66 135h1v1H66zM66 136h1v1H66zM66 137h1v1H66zM75 140h1v1H75zM165 169h1v1H165z"/>
  <path fill="#60a8d8" d="M93 37h1v1H93zM84 52h1v1H84zM74 53h1v1H74zM72 68h1v1H72zM119 74h1v1H119z"/>
  <path fill="#90a0b0" d="M17 150h1v1H17z"/>
  <path fill="#68a8d8" d="M121 57h1v1H121zM120 69h1v1H120zM114 72h1v1H114z"/>
  <path fill="#98a0b0" d="M38 16h1v1H38zM161 19h1v1H161zM21 28h1v1H21zM173 34h1v1H173zM17 41h1v1H17zM42 44h1v1H42zM44 44h1v1H44zM47 49h1v1H47zM70 77h1v1H70zM78 77h1v1H78zM79 87h1v1H79zM78 89h1v1H78zM75 97h1v1H75zM127 109h1v1H127zM66 114h1v1H66zM125 118h1v1H125zM134 123h1v1H134zM66 131h1v1H66zM66 132h1v1H66zM66 133h1v1H66zM137 148h1v1H137zM174 152h1v1H174zM159 173h1v1H159z"/>
  <path fill="#98a0b8" d="M101 119h1v1H101z"/>
  <path fill="#a0a0b0" d="M66 128h1v1H66zM66 129h1v1H66zM66 130h1v1H66z"/>
  <path fill="#68b0e0" d="M90 38h1v1H90zM98 40h1v1H98zM105 43h1v1H105zM112 49h1v1H112zM77 51h1v1H77zM121 52h1v1H121zM115 53h1v1H115zM75 57h1v1H75zM116 75h1v1H116z"/>
  <path fill="#68b0e8" d="M95 40h1v1H95zM110 44h1v1H110zM111 46h1v1H111zM119 70h1v1H119z"/>
  <path fill="#a0a8b8" d="M164 21h1v1H164zM17 40h1v1H17zM44 59h1v1H44zM46 62h1v1H46zM82 73h1v1H82zM69 94h1v1H69zM68 98h1v1H68zM117 107h1v1H117zM73 109h1v1H73zM128 110h1v1H128zM66 115h1v1H66zM81 115h1v1H81zM66 116h1v1H66zM132 117h1v1H132zM96 124h1v1H96zM66 125h1v1H66zM66 126h1v1H66zM73 126h1v1H73zM66 127h1v1H66zM80 127h1v1H80zM99 135h1v1H99zM138 137h1v1H138zM107 138h1v1H107zM17 151h1v1H17zM173 157h1v1H173zM168 166h1v1H168zM24 167h1v1H24zM25 168h1v1H25zM32 173h1v1H32z"/>
  <path fill="#68b8e8" d="M74 59h1v1H74z"/>
  <path fill="#70b0e8" d="M122 66h1v1H122z"/>
  <path fill="#a0b0b8" d="M99 66h1v1H99zM66 117h1v1H66zM66 118h1v1H66zM66 119h1v1H66zM66 120h1v1H66zM66 121h1v1H66zM66 122h1v1H66zM66 123h1v1H66z"/>
  <path fill="#68b8f0" d="M88 43h1v1H88zM125 67h1v1H125z"/>
  <path fill="#70b8e8" d="M105 39h1v1H105zM102 41h1v1H102zM109 50h1v1H109zM118 54h1v1H118zM123 54h1v1H123zM71 58h1v1H71z"/>
  <path fill="#a8b0b8" d="M80 116h1v1H80zM66 124h1v1H66z"/>
  <path fill="#70b8f0" d="M100 37h1v1H100zM84 43h1v1H84zM80 50h1v1H80zM81 53h1v1H81zM122 53h1v1H122zM121 68h1v1H121z"/>
  <path fill="#a8b0c0" d="M157 17h1v1H157zM32 18h1v1H32zM24 24h1v1H24zM51 57h1v1H51zM69 76h1v1H69zM79 76h1v1H79zM77 91h1v1H77zM67 104h1v1H67zM133 120h1v1H133zM103 124h1v1H103zM135 127h1v1H135zM79 129h1v1H79zM130 134h1v1H130zM132 140h1v1H132zM143 144h1v1H143zM26 169h1v1H26z"/>
  <path fill="#70c0f0" d="M103 38h1v1H103zM107 45h1v1H107zM84 51h1v1H84zM78 54h1v1H78zM124 69h1v1H124z"/>
  <path fill="#b0b0c0" d="M25 23h1v1H25zM169 26h1v1H169zM48 52h1v1H48zM42 55h1v1H42zM108 116h1v1H108zM106 120h1v1H106zM104 125h1v1H104zM98 130h1v1H98zM73 148h1v1H73zM67 151h1v1H67z"/>
  <path fill="#70c0f8" d="M87 40h1v1H87zM86 41h1v1H86zM91 41h1v1H91zM104 42h1v1H104zM82 47h1v1H82zM116 50h1v1H116zM119 51h1v1H119zM71 65h1v1H71zM75 69h1v1H75zM116 72h1v1H116zM120 73h1v1H120zM115 75h1v1H115z"/>
  <path fill="#78c0f0" d="M99 40h1v1H99zM106 44h1v1H106zM108 47h1v1H108z"/>
  <path fill="#b0b8c0" d="M68 75h1v1H68zM90 75h1v1H90zM73 108h1v1H73zM120 113h1v1H120zM99 116h1v1H99zM113 120h1v1H113zM112 122h1v1H112zM134 144h1v1H134zM161 172h1v1H161z"/>
  <path fill="#70c0ff" d="M96 37h1v1H96zM109 48h1v1H109zM113 50h1v1H113zM79 51h1v1H79zM112 52h1v1H112zM120 55h1v1H120zM123 70h1v1H123zM119 71h2v1H119zM119 72h3v1H119zM107 73h2v1H107zM116 73h1v1H116zM116 74h1v1H116zM105 75h1v1H105z"/>
  <path fill="#70c8f8" d="M106 40h1v1H106zM109 49h1v1H109zM84 50h1v1H84z"/>
  <path fill="#78c0f8" d="M94 37h1v1H94zM72 56h1v1H72zM122 58h1v1H122zM75 67h1v1H75zM73 69h1v1H73zM118 71h1v1H118z"/>
  <path fill="#b0b8c8" d="M43 57h1v1H43zM97 71h1v1H97zM70 87h1v1H70zM70 91h1v1H70zM115 108h1v1H115zM109 130h1v1H109zM131 137h1v1H131zM157 174h1v1H157z"/>
  <path fill="#70c8ff" d="M111 47h1v1H111zM84 49h1v1H84zM83 50h1v1H83zM74 58h1v1H74zM73 63h1v1H73z"/>
  <path fill="#78c0ff" d="M97 37h1v1H97zM112 51h1v1H112zM115 51h1v1H115zM111 52h1v1H111zM113 52h2v1H113zM117 53h1v1H117zM117 72h1v1H117zM106 73h1v1H106zM109 73h2v1H109zM112 73h1v1H112z"/>
  <path fill="#78c8f8" d="M94 40h1v1H94zM100 40h1v1H100zM109 43h1v1H109zM86 45h1v1H86zM115 50h1v1H115zM125 58h1v1H125zM71 59h1v1H71zM74 65h1v1H74zM115 72h1v1H115zM104 75h1v1H104z"/>
  <path fill="#b8b8c8" d="M26 22h1v1H26zM174 38h1v1H174zM74 101h1v1H74zM107 118h1v1H107zM154 175h1v1H154z"/>
  <path fill="#78c8ff" d="M95 37h1v1H95zM98 37h2v1H98zM91 38h12v1H91zM89 39h16v1H89zM88 40h6v1H88zM101 40h5v1H101zM87 41h4v1H87zM103 41h5v1H103zM86 42h4v1H86zM105 42h4v1H105zM85 43h3v1H85zM107 43h2v1H107zM84 44h3v1H84zM107 44h3v1H107zM84 45h2v1H84zM108 45h3v1H108zM83 46h3v1H83zM108 46h3v1H108zM83 47h2v1H83zM109 47h2v1H109zM82 48h3v1H82zM110 48h2v1H110zM82 49h2v1H82zM110 49h2v1H110zM81 50h2v1H81zM110 50h3v1H110zM114 50h1v1H114zM78 51h1v1H78zM80 51h4v1H80zM110 51h2v1H110zM113 51h2v1H113zM116 51h3v1H116zM76 52h8v1H76zM110 52h1v1H110zM115 52h6v1H115zM75 53h5v1H75zM118 53h4v1H118zM75 54h3v1H75zM119 54h4v1H119zM73 55h4v1H73zM121 55h3v1H121zM73 56h3v1H73zM121 56h4v1H121zM72 57h3v1H72zM122 57h3v1H122zM72 58h2v1H72zM123 58h2v1H123zM72 59h2v1H72zM123 59h3v1H123zM71 60h3v1H71zM123 60h3v1H123zM71 61h3v1H71zM123 61h3v1H123zM71 62h2v1H71zM124 62h2v1H124zM71 63h2v1H71zM123 63h3v1H123zM72 64h2v1H72zM123 64h3v1H123zM72 65h2v1H72zM123 65h3v1H123zM72 66h3v1H72zM123 66h3v1H123zM73 67h2v1H73zM122 67h3v1H122zM73 68h3v1H73zM122 68h3v1H122zM74 69h1v1H74zM121 69h3v1H121zM120 70h3v1H120zM121 71h2v1H121zM118 72h1v1H118zM104 73h2v1H104zM111 73h1v1H111zM113 73h3v1H113zM117 73h3v1H117zM104 74h12v1H104zM117 74h2v1H117zM106 75h9v1H106z"/>
  <path fill="#80c8f8" d="M87 44h1v1H87zM85 47h1v1H85zM116 53h1v1H116zM123 62h1v1H123z"/>
  <path fill="#b8c0c8" d="M154 16h1v1H154zM49 54h1v1H49zM98 65h1v1H98zM95 72h1v1H95zM67 74h1v1H67zM80 75h1v1H80zM84 80h1v1H84zM75 81h1v1H75zM80 85h1v1H80zM96 113h1v1H96zM93 119h1v1H93zM126 120h1v1H126zM129 130h1v1H129zM140 141h1v1H140zM146 151h1v1H146zM17 152h1v1H17zM174 153h1v1H174z"/>
  <path fill="#80c8ff" d="M85 42h1v1H85zM106 43h1v1H106zM83 45h1v1H83zM80 53h1v1H80zM74 54h1v1H74zM73 62h1v1H73zM71 64h1v1H71zM72 67h1v1H72z"/>
  <path fill="#b8c0d0" d="M81 74h1v1H81z"/>
  <path fill="#c0c0d0" d="M171 29h1v1H171zM172 31h1v1H172zM18 34h1v1H18zM17 39h1v1H17zM43 44h1v1H43zM40 49h1v1H40zM94 120h1v1H94zM75 123h1v1H75zM110 127h1v1H110zM136 131h1v1H136zM142 151h1v1H142zM18 157h1v1H18z"/>
  <path fill="#c0c8d0" d="M47 63h1v1H47zM58 65h1v1H58zM65 72h1v1H65zM66 73h1v1H66zM110 113h1v1H110zM130 113h1v1H130zM131 115h1v1H131zM127 123h1v1H127zM78 131h1v1H78zM99 134h1v1H99zM69 152h2v1H69zM23 166h1v1H23zM164 170h1v1H164zM30 172h1v1H30zM37 175h1v1H37z"/>
  <path fill="#c8c8d0" d="M60 67h1v1H60zM63 70h1v1H63zM85 79h1v1H85zM73 107h1v1H73zM133 142h1v1H133zM74 143h1v1H74zM72 151h1v1H72z"/>
  <path fill="#c8c8d8" d="M147 150h1v1H147z"/>
  <path fill="#c8d0d8" d="M23 25h1v1H23zM46 46h1v1H46zM89 68h1v1H89zM64 71h1v1H64zM67 105h1v1H67zM86 112h1v1H86zM94 112h1v1H94zM114 118h1v1H114zM77 120h1v1H77zM145 145h1v1H145zM169 165h1v1H169zM34 174h1v1H34z"/>
  <path fill="#d0d0d8" d="M34 17h1v1H34zM30 19h1v1H30zM55 62h1v1H55zM56 63h1v1H56zM57 64h1v1H57zM59 66h1v1H59zM62 69h1v1H62zM86 70h1v1H86zM93 73h1v1H93zM121 113h1v1H121zM97 114h1v1H97zM88 118h1v1H88zM85 120h1v1H85zM140 150h1v1H140z"/>
  <path fill="#d0d0e0" d="M37 16h1v1H37zM86 78h1v1H86zM83 81h1v1H83zM171 162h1v1H171z"/>
  <path fill="#d0d8e0" d="M163 20h1v1H163zM41 52h1v1H41zM61 68h1v1H61zM123 107h1v1H123zM84 113h1v1H84zM84 121h1v1H84zM97 126h1v1H97zM137 135h1v1H137zM107 137h1v1H107zM75 139h1v1H75zM172 160h1v1H172zM27 170h1v1H27z"/>
  <path fill="#d8d8e0" d="M40 46h1v1H40zM99 69h1v1H99zM71 88h1v1H71zM75 96h1v1H75zM68 99h1v1H68zM108 133h1v1H108zM76 136h1v1H76zM100 142h1v1H100zM73 147h1v1H73z"/>
  <path fill="#d8e0e0" d="M27 21h1v1H27zM76 93h1v1H76zM105 123h1v1H105zM74 125h1v1H74zM81 125h1v1H81zM22 165h1v1H22z"/>
  <path fill="#d8e0e8" d="M54 61h1v1H54z"/>
  <path fill="#e0e0e0" d="M50 56h1v1H50zM82 82h1v1H82z"/>
  <path fill="#e0e0e8" d="M22 26h1v1H22zM173 33h1v1H173zM174 37h1v1H174zM17 38h1v1H17zM45 60h1v1H45zM91 67h1v1H91zM87 77h1v1H87zM71 89h1v1H71zM69 95h1v1H69zM73 106h1v1H73zM114 109h1v1H114zM111 112h1v1H111zM119 113h1v1H119zM98 115h1v1H98zM92 118h1v1H92zM111 124h1v1H111zM134 124h1v1H134zM77 133h1v1H77zM17 153h1v1H17zM163 171h1v1H163z"/>
  <path fill="#e0e8e8" d="M19 31h1v1H19zM47 50h1v1H47zM118 107h1v1H118zM83 122h1v1H83zM128 126h1v1H128zM135 128h1v1H135zM20 162h1v1H20z"/>
  <path fill="#e8e8e8" d="M67 106h1v1H67z"/>
  <path fill="#e8e8f0" d="M20 29h1v1H20zM45 45h1v1H45zM53 60h1v1H53zM86 119h1v1H86zM102 144h1v1H102zM174 154h1v1H174zM173 158h1v1H173zM19 160h1v1H19zM28 171h1v1H28z"/>
  <path fill="#e8f0f0" d="M170 27h1v1H170zM48 64h1v1H48zM76 80h1v1H76zM74 100h1v1H74zM123 114h1v1H123zM104 144h1v1H104z"/>
  <path fill="#f0f0f0" d="M155 16h1v1H155zM160 18h1v1H160zM28 20h1v1H28zM85 71h1v1H85zM91 74h1v1H91zM60 76h1v1H60zM61 77h1v1H61zM62 78h1v1H62zM63 79h1v1H63zM64 80h1v1H64zM65 81h1v1H65zM66 82h1v1H66zM112 111h1v1H112zM117 114h1v1H117zM109 115h1v1H109zM116 115h1v1H116zM100 118h1v1H100zM133 121h1v1H133zM102 122h1v1H102zM103 125h1v1H103zM98 129h1v1H98zM109 129h1v1H109zM129 129h1v1H129zM99 133h1v1H99zM130 133h1v1H130zM139 140h1v1H139zM135 145h1v1H135zM155 175h1v1H155zM43 176h106v1H43z"/>
  <path fill="#f0f0f8" d="M41 45h1v1H41zM40 48h1v1H40zM95 65h1v1H95zM58 74h1v1H58zM59 75h1v1H59zM74 82h1v1H74zM129 112h1v1H129zM132 118h1v1H132zM101 120h1v1H101zM100 141h1v1H100z"/>
  <path fill="#f0f8f8" d="M88 69h1v1H88zM88 76h1v1H88zM77 79h1v1H77zM73 81h1v1H73zM67 83h1v1H67zM78 88h1v1H78zM77 90h1v1H77zM125 108h1v1H125zM125 117h1v1H125zM136 132h1v1H136zM131 136h1v1H131zM138 138h1v1H138zM106 142h1v1H106zM160 173h1v1H160zM149 176h1v1H149z"/>
  <path fill="#f8f8f8" d="M43 15h63v1H43zM107 15h43v1H107zM36 16h1v1H36zM158 17h1v1H158zM31 18h1v1H31zM162 19h1v1H162zM167 23h1v1H167zM18 33h1v1H18zM17 37h1v1H17zM46 47h1v1H46zM46 48h1v1H46zM48 53h1v1H48zM42 54h1v1H42zM43 56h1v1H43zM44 58h1v1H44zM52 59h1v1H52zM49 65h1v1H49zM50 66h1v1H50zM93 66h1v1H93zM51 67h1v1H51zM92 67h1v1H92zM99 67h1v1H99zM52 68h1v1H52zM99 68h1v1H99zM53 69h1v1H53zM54 70h1v1H54zM98 70h1v1H98zM55 71h1v1H55zM96 71h1v1H96zM56 72h1v1H56zM57 73h1v1H57zM71 79h1v1H71zM72 80h1v1H72zM81 83h1v1H81zM68 84h1v1H68zM79 86h1v1H79zM70 92h1v1H70zM73 105h1v1H73zM67 107h1v1H67zM119 107h1v1H119zM122 107h1v1H122zM116 108h1v1H116zM124 108h1v1H124zM113 110h1v1H113zM127 110h1v1H127zM87 112h1v1H87zM122 113h1v1H122zM83 114h1v1H83zM124 115h1v1H124zM115 116h1v1H115zM131 116h1v1H131zM108 117h1v1H108zM79 118h1v1H79zM78 119h1v1H78zM126 119h1v1H126zM72 120h1v1H72zM72 121h1v1H72zM95 121h1v1H95zM106 121h1v1H106zM112 121h1v1H112zM76 122h1v1H76zM127 122h1v1H127zM72 123h1v1H72zM82 123h1v1H82zM96 123h1v1H96zM72 124h1v1H72zM75 124h1v1H75zM72 125h1v1H72zM134 125h1v1H134zM74 126h1v1H74zM110 126h1v1H110zM79 128h1v1H79zM107 136h1v1H107zM75 138h1v1H75zM132 139h1v1H132zM100 140h1v1H100zM74 142h1v1H74zM101 143h1v1H101zM141 143h1v1H141zM73 145h1v1H73zM144 145h1v1H144zM73 146h1v1H73zM147 147h1v1H147zM139 149h1v1H139zM147 149h1v1H147zM67 150h1v1H67zM143 151h1v1H143zM145 151h1v1H145zM17 154h1v1H17zM18 158h1v1H18zM21 164h1v1H21zM170 164h1v1H170zM31 173h1v1H31zM158 174h1v1H158zM36 175h1v1H36zM42 176h1v1H42zM150 176h1v1H150z"/>
  <path fill="#f8f8ff" d="M42 15h1v1H42zM106 15h1v1H106zM166 22h1v1H166zM174 36h1v1H174zM40 47h1v1H40zM41 51h1v1H41zM96 65h2v1H96zM84 72h1v1H84zM75 95h1v1H75zM74 99h1v1H74zM68 100h1v1H68zM68 101h1v1H68zM73 103h1v1H73zM121 107h1v1H121zM67 110h1v1H67zM88 112h1v1H88zM93 112h1v1H93zM85 113h1v1H85zM72 117h1v1H72zM72 118h1v1H72zM72 119h1v1H72zM107 119h1v1H107zM101 121h1v1H101zM72 122h1v1H72zM97 125h1v1H97zM72 126h1v1H72zM80 126h1v1H80zM73 127h1v1H73zM98 128h1v1H98zM109 128h1v1H109zM135 129h1v1H135zM78 130h1v1H78zM108 132h1v1H108zM76 135h1v1H76zM106 140h1v1H106zM106 141h1v1H106zM72 150h1v1H72zM33 174h1v1H33zM41 176h1v1H41zM151 176h2v1H151z"/>
  <path fill="#fff8f8" d="M90 117h1v1H90z"/>
  <path fill="#f8ffff" d="M17 36h1v1H17zM69 96h1v1H69zM128 125h1v1H128zM103 144h1v1H103z"/>
  <path fill="#fff8ff" d="M44 45h1v1H44zM80 84h1v1H80zM70 86h1v1H70zM130 114h1v1H130z"/>
  <path fill="#fffff8" d="M89 117h1v1H89z"/>
  <path fill="#ffffff" d="M0 0h192v1H0zM0 1h192v1H0zM0 2h192v1H0zM0 3h192v1H0zM0 4h192v1H0zM0 5h192v1H0zM0 6h192v1H0zM0 7h192v1H0zM0 8h192v1H0zM0 9h192v1H0zM0 10h192v1H0zM0 11h192v1H0zM0 12h192v1H0zM0 13h192v1H0zM0 14h192v1H0zM0 15h42v1H0zM150 15h42v1H150zM0 16h36v1H0zM156 16h36v1H156zM0 17h34v1H0zM159 17h33v1H159zM0 18h31v1H0zM161 18h31v1H161zM0 19h30v1H0zM163 19h29v1H163zM0 20h28v1H0zM164 20h28v1H164zM0 21h27v1H0zM165 21h27v1H165zM0 22h26v1H0zM167 22h25v1H167zM0 23h25v1H0zM168 23h24v1H168zM0 24h24v1H0zM168 24h24v1H168zM0 25h23v1H0zM169 25h23v1H169zM0 26h22v1H0zM170 26h22v1H170zM0 27h22v1H0zM171 27h21v1H171zM0 28h21v1H0zM171 28h21v1H171zM0 29h20v1H0zM172 29h20v1H172zM0 30h20v1H0zM172 30h20v1H172zM0 31h19v1H0zM173 31h19v1H173zM0 32h19v1H0zM173 32h19v1H173zM0 33h18v1H0zM174 33h18v1H174zM0 34h18v1H0zM174 34h18v1H174zM0 35h18v1H0zM174 35h18v1H174zM0 36h17v1H0zM175 36h17v1H175zM0 37h17v1H0zM175 37h17v1H175zM0 38h17v1H0zM175 38h17v1H175zM0 39h17v1H0zM175 39h17v1H175zM0 40h17v1H0zM175 40h17v1H175zM0 41h17v1H0zM175 41h17v1H175zM0 42h17v1H0zM175 42h17v1H175zM0 43h17v1H0zM175 43h17v1H175zM0 44h17v1H0zM175 44h17v1H175zM0 45h17v1H0zM42 45h2v1H42zM175 45h17v1H175zM0 46h17v1H0zM41 46h5v1H41zM175 46h17v1H175zM0 47h17v1H0zM41 47h5v1H41zM175 47h17v1H175zM0 48h17v1H0zM41 48h5v1H41zM175 48h17v1H175zM0 49h17v1H0zM41 49h6v1H41zM175 49h17v1H175zM0 50h17v1H0zM41 50h6v1H41zM175 50h17v1H175zM0 51h17v1H0zM42 51h6v1H42zM175 51h17v1H175zM0 52h17v1H0zM42 52h6v1H42zM175 52h17v1H175zM0 53h17v1H0zM42 53h6v1H42zM175 53h17v1H175zM0 54h17v1H0zM43 54h6v1H43zM175 54h17v1H175zM0 55h17v1H0zM43 55h7v1H43zM175 55h17v1H175zM0 56h17v1H0zM44 56h6v1H44zM175 56h17v1H175zM0 57h17v1H0zM44 57h7v1H44zM175 57h17v1H175zM0 58h17v1H0zM45 58h7v1H45zM175 58h17v1H175zM0 59h17v1H0zM45 59h7v1H45zM175 59h17v1H175zM0 60h17v1H0zM46 60h7v1H46zM175 60h17v1H175zM0 61h17v1H0zM46 61h8v1H46zM175 61h17v1H175zM0 62h17v1H0zM47 62h8v1H47zM175 62h17v1H175zM0 63h17v1H0zM48 63h8v1H48zM175 63h17v1H175zM0 64h17v1H0zM49 64h8v1H49zM175 64h17v1H175zM0 65h17v1H0zM50 65h8v1H50zM175 65h17v1H175zM0 66h17v1H0zM51 66h8v1H51zM94 66h5v1H94zM175 66h17v1H175zM0 67h17v1H0zM52 67h8v1H52zM93 67h6v1H93zM175 67h17v1H175zM0 68h17v1H0zM53 68h8v1H53zM90 68h9v1H90zM175 68h17v1H175zM0 69h17v1H0zM54 69h8v1H54zM89 69h10v1H89zM175 69h17v1H175zM0 70h17v1H0zM55 70h8v1H55zM87 70h11v1H87zM175 70h17v1H175zM0 71h17v1H0zM56 71h8v1H56zM86 71h10v1H86zM175 71h17v1H175zM0 72h17v1H0zM57 72h8v1H57zM85 72h10v1H85zM175 72h17v1H175zM0 73h17v1H0zM58 73h8v1H58zM83 73h10v1H83zM175 73h17v1H175zM0 74h17v1H0zM59 74h8v1H59zM82 74h9v1H82zM175 74h17v1H175zM0 75h17v1H0zM60 75h8v1H60zM81 75h9v1H81zM175 75h17v1H175zM0 76h17v1H0zM61 76h8v1H61zM80 76h8v1H80zM175 76h17v1H175zM0 77h17v1H0zM62 77h8v1H62zM79 77h8v1H79zM175 77h17v1H175zM0 78h17v1H0zM63 78h8v1H63zM78 78h8v1H78zM175 78h17v1H175zM0 79h17v1H0zM64 79h7v1H64zM78 79h7v1H78zM175 79h17v1H175zM0 80h17v1H0zM65 80h7v1H65zM77 80h7v1H77zM175 80h17v1H175zM0 81h17v1H0zM66 81h7v1H66zM76 81h7v1H76zM175 81h17v1H175zM0 82h17v1H0zM67 82h7v1H67zM75 82h7v1H75zM175 82h17v1H175zM0 83h17v1H0zM68 83h13v1H68zM175 83h17v1H175zM0 84h17v1H0zM69 84h11v1H69zM175 84h17v1H175zM0 85h17v1H0zM69 85h11v1H69zM175 85h17v1H175zM0 86h17v1H0zM71 86h8v1H71zM175 86h17v1H175zM0 87h17v1H0zM71 87h8v1H71zM175 87h17v1H175zM0 88h17v1H0zM72 88h6v1H72zM175 88h17v1H175zM0 89h17v1H0zM72 89h6v1H72zM175 89h17v1H175zM0 90h17v1H0zM71 90h6v1H71zM175 90h17v1H175zM0 91h17v1H0zM71 91h6v1H71zM175 91h17v1H175zM0 92h17v1H0zM71 92h6v1H71zM175 92h17v1H175zM0 93h17v1H0zM70 93h6v1H70zM175 93h17v1H175zM0 94h17v1H0zM70 94h6v1H70zM175 94h17v1H175zM0 95h17v1H0zM70 95h5v1H70zM175 95h17v1H175zM0 96h17v1H0zM70 96h5v1H70zM175 96h17v1H175zM0 97h17v1H0zM69 97h6v1H69zM175 97h17v1H175zM0 98h17v1H0zM69 98h6v1H69zM175 98h17v1H175zM0 99h17v1H0zM69 99h5v1H69zM175 99h17v1H175zM0 100h17v1H0zM69 100h5v1H69zM175 100h17v1H175zM0 101h17v1H0zM69 101h5v1H69zM175 101h17v1H175zM0 102h17v1H0zM68 102h6v1H68zM175 102h17v1H175zM0 103h17v1H0zM68 103h5v1H68zM175 103h17v1H175zM0 104h17v1H0zM68 104h6v1H68zM175 104h17v1H175zM0 105h17v1H0zM68 105h5v1H68zM175 105h17v1H175zM0 106h17v1H0zM68 106h5v1H68zM175 106h17v1H175zM0 107h17v1H0zM68 107h5v1H68zM120 107h1v1H120zM175 107h17v1H175zM0 108h17v1H0zM67 108h6v1H67zM117 108h7v1H117zM175 108h17v1H175zM0 109h17v1H0zM67 109h6v1H67zM115 109h12v1H115zM175 109h17v1H175zM0 110h17v1H0zM68 110h5v1H68zM114 110h13v1H114zM175 110h17v1H175zM0 111h17v1H0zM67 111h6v1H67zM113 111h16v1H113zM175 111h17v1H175zM0 112h17v1H0zM67 112h6v1H67zM89 112h4v1H89zM112 112h17v1H112zM175 112h17v1H175zM0 113h17v1H0zM67 113h6v1H67zM86 113h10v1H86zM111 113h8v1H111zM123 113h7v1H123zM175 113h17v1H175zM0 114h17v1H0zM67 114h6v1H67zM84 114h13v1H84zM110 114h7v1H110zM124 114h6v1H124zM175 114h17v1H175zM0 115h17v1H0zM67 115h6v1H67zM82 115h16v1H82zM110 115h6v1H110zM125 115h6v1H125zM175 115h17v1H175zM0 116h17v1H0zM67 116h6v1H67zM81 116h18v1H81zM109 116h6v1H109zM125 116h6v1H125zM175 116h17v1H175zM0 117h17v1H0zM67 117h5v1H67zM80 117h9v1H80zM91 117h9v1H91zM109 117h6v1H109zM126 117h6v1H126zM175 117h17v1H175zM0 118h17v1H0zM67 118h5v1H67zM80 118h8v1H80zM93 118h7v1H93zM108 118h6v1H108zM126 118h6v1H126zM175 118h17v1H175zM0 119h17v1H0zM67 119h5v1H67zM79 119h7v1H79zM94 119h7v1H94zM108 119h6v1H108zM127 119h6v1H127zM175 119h17v1H175zM0 120h17v1H0zM67 120h5v1H67zM78 120h7v1H78zM95 120h6v1H95zM107 120h6v1H107zM127 120h6v1H127zM175 120h17v1H175zM0 121h17v1H0zM67 121h5v1H67zM77 121h7v1H77zM96 121h5v1H96zM107 121h5v1H107zM127 121h6v1H127zM175 121h17v1H175zM0 122h17v1H0zM67 122h5v1H67zM77 122h6v1H77zM96 122h6v1H96zM106 122h6v1H106zM128 122h6v1H128zM175 122h17v1H175zM0 123h17v1H0zM67 123h5v1H67zM76 123h6v1H76zM97 123h6v1H97zM106 123h6v1H106zM128 123h6v1H128zM175 123h17v1H175zM0 124h17v1H0zM67 124h5v1H67zM76 124h6v1H76zM97 124h6v1H97zM105 124h6v1H105zM128 124h6v1H128zM175 124h17v1H175zM0 125h17v1H0zM67 125h5v1H67zM75 125h6v1H75zM98 125h5v1H98zM105 125h6v1H105zM129 125h5v1H129zM175 125h17v1H175zM0 126h17v1H0zM67 126h5v1H67zM75 126h5v1H75zM98 126h12v1H98zM129 126h6v1H129zM175 126h17v1H175zM0 127h17v1H0zM67 127h6v1H67zM74 127h6v1H74zM98 127h12v1H98zM129 127h6v1H129zM175 127h17v1H175zM0 128h17v1H0zM67 128h12v1H67zM99 128h10v1H99zM129 128h6v1H129zM175 128h17v1H175zM0 129h17v1H0zM67 129h12v1H67zM99 129h10v1H99zM130 129h5v1H130zM175 129h17v1H175zM0 130h17v1H0zM67 130h11v1H67zM99 130h10v1H99zM130 130h6v1H130zM175 130h17v1H175zM0 131h17v1H0zM67 131h11v1H67zM99 131h10v1H99zM130 131h6v1H130zM175 131h17v1H175zM0 132h17v1H0zM67 132h11v1H67zM99 132h9v1H99zM130 132h6v1H130zM175 132h17v1H175zM0 133h17v1H0zM67 133h10v1H67zM100 133h8v1H100zM131 133h6v1H131zM175 133h17v1H175zM0 134h17v1H0zM67 134h10v1H67zM100 134h8v1H100zM131 134h6v1H131zM175 134h17v1H175zM0 135h17v1H0zM67 135h9v1H67zM100 135h8v1H100zM131 135h6v1H131zM175 135h17v1H175zM0 136h17v1H0zM67 136h9v1H67zM100 136h7v1H100zM132 136h6v1H132zM175 136h17v1H175zM0 137h17v1H0zM67 137h9v1H67zM100 137h7v1H100zM132 137h6v1H132zM175 137h17v1H175zM0 138h17v1H0zM67 138h8v1H67zM100 138h7v1H100zM132 138h6v1H132zM175 138h17v1H175zM0 139h17v1H0zM67 139h8v1H67zM100 139h7v1H100zM133 139h6v1H133zM175 139h17v1H175zM0 140h17v1H0zM67 140h8v1H67zM101 140h5v1H101zM133 140h6v1H133zM175 140h17v1H175zM0 141h17v1H0zM67 141h8v1H67zM101 141h5v1H101zM133 141h7v1H133zM175 141h17v1H175zM0 142h17v1H0zM67 142h7v1H67zM101 142h5v1H101zM134 142h7v1H134zM175 142h17v1H175zM0 143h17v1H0zM67 143h7v1H67zM102 143h4v1H102zM134 143h7v1H134zM175 143h17v1H175zM0 144h17v1H0zM67 144h7v1H67zM135 144h8v1H135zM175 144h17v1H175zM0 145h17v1H0zM67 145h6v1H67zM136 145h8v1H136zM175 145h17v1H175zM0 146h17v1H0zM67 146h6v1H67zM136 146h11v1H136zM175 146h17v1H175zM0 147h17v1H0zM67 147h6v1H67zM137 147h10v1H137zM175 147h17v1H175zM0 148h17v1H0zM67 148h6v1H67zM138 148h10v1H138zM175 148h17v1H175zM0 149h17v1H0zM67 149h6v1H67zM140 149h7v1H140zM175 149h17v1H175zM0 150h17v1H0zM68 150h4v1H68zM141 150h6v1H141zM175 150h17v1H175zM0 151h17v1H0zM68 151h4v1H68zM144 151h1v1H144zM175 151h17v1H175zM0 152h17v1H0zM175 152h17v1H175zM0 153h17v1H0zM175 153h17v1H175zM0 154h17v1H0zM175 154h17v1H175zM0 155h18v1H0zM174 155h18v1H174zM0 156h18v1H0zM174 156h18v1H174zM0 157h18v1H0zM174 157h18v1H174zM0 158h18v1H0zM174 158h18v1H174zM0 159h19v1H0zM173 159h19v1H173zM0 160h19v1H0zM173 160h19v1H173zM0 161h20v1H0zM172 161h20v1H172zM0 162h20v1H0zM172 162h20v1H172zM0 163h21v1H0zM171 163h21v1H171zM0 164h21v1H0zM171 164h21v1H171zM0 165h22v1H0zM170 165h22v1H170zM0 166h23v1H0zM169 166h23v1H169zM0 167h24v1H0zM168 167h24v1H168zM0 168h25v1H0zM167 168h25v1H167zM0 169h26v1H0zM166 169h26v1H166zM0 170h27v1H0zM165 170h27v1H165zM0 171h28v1H0zM164 171h28v1H164zM0 172h30v1H0zM162 172h30v1H162zM0 173h31v1H0zM161 173h31v1H161zM0 174h33v1H0zM159 174h33v1H159zM0 175h36v1H0zM156 175h36v1H156zM0 176h41v1H0zM153 176h39v1H153zM0 177h192v1H0zM0 178h192v1H0zM0 179h192v1H0zM0 180h192v1H0zM0 181h192v1H0zM0 182h192v1H0zM0 183h192v1H0zM0 184h192v1H0zM0 185h192v1H0zM0 186h192v1H0zM0 187h192v1H0zM0 188h192v1H0zM0 189h192v1H0zM0 190h192v1H0zM0 191h192v1H0z"/>
</svg>
