<svg xmlns="http://www.w3.org/2000/svg" viewBox="0 0 192 192" role="img">
  <desc>Generated vector SVG from primary.png</desc>
  <path fill="#001840" d="M105 108h1v1H105z"/>
  <path fill="#001848" d="M174 55h1v1H174zM174 56h1v1H174zM174 57h1v1H174zM174 58h1v1H174zM174 60h1v1H174zM174 61h1v1H174zM174 62h1v1H174zM174 63h1v1H174zM174 64h1v1H174zM174 65h1v1H174zM174 66h1v1H174zM174 67h1v1H174zM174 68h1v1H174zM174 70h1v1H174zM174 75h1v1H174zM174 76h1v1H174zM174 77h1v1H174zM174 78h1v1H174zM174 79h1v1H174zM174 80h1v1H174zM174 81h1v1H174zM174 82h1v1H174zM174 83h1v1H174zM174 84h1v1H174zM174 85h1v1H174zM174 86h1v1H174zM174 87h1v1H174zM174 88h1v1H174zM174 90h1v1H174zM174 91h1v1H174zM174 92h1v1H174zM174 93h1v1H174zM174 94h1v1H174zM174 95h1v1H174zM123 103h1v1H123zM91 106h1v1H91zM102 106h1v1H102zM174 111h1v1H174zM174 112h1v1H174zM174 113h1v1H174zM174 114h1v1H174zM174 115h1v1H174zM174 120h1v1H174zM174 121h1v1H174zM174 122h1v1H174zM174 123h1v1H174zM174 124h1v1H174zM174 125h1v1H174zM174 129h1v1H174zM174 130h1v1H174zM174 132h1v1H174zM174 135h1v1H174zM174 139h1v1H174zM47 174h1v1H47zM60 174h1v1H60zM64 174h8v1H64zM80 174h1v1H80zM82 174h1v1H82zM86 174h5v1H86zM95 174h1v1H95zM104 174h6v1H104zM118 174h1v1H118zM133 174h6v1H133zM141 174h2v1H141z"/>
  <path fill="#002048" d="M148 18h1v1H148zM70 19h1v1H70zM126 19h3v1H126zM138 19h1v1H138zM143 19h1v1H143zM147 19h2v1H147zM151 19h2v1H151zM147 20h1v1H147zM150 20h3v1H150zM154 20h2v1H154zM31 21h1v1H31zM150 21h2v1H150zM156 21h1v1H156zM32 22h1v1H32zM96 22h1v1H96zM122 22h1v1H122zM125 22h1v1H125zM150 22h4v1H150zM159 22h3v1H159zM29 23h2v1H29zM32 23h2v1H32zM149 23h2v1H149zM152 23h1v1H152zM159 23h2v1H159zM28 24h3v1H28zM150 24h2v1H150zM153 24h1v1H153zM26 25h6v1H26zM152 25h1v1H152zM158 25h1v1H158zM164 25h1v1H164zM26 26h3v1H26zM31 26h1v1H31zM163 26h2v1H163zM24 27h5v1H24zM24 28h5v1H24zM164 28h1v1H164zM167 28h1v1H167zM23 29h5v1H23zM22 30h7v1H22zM168 30h2v1H168zM22 31h6v1H22zM21 32h7v1H21zM166 32h1v1H166zM21 33h6v1H21zM21 34h5v1H21zM52 34h1v1H52zM133 34h1v1H133zM20 35h3v1H20zM24 35h1v1H24zM172 35h1v1H172zM21 36h2v1H21zM25 36h1v1H25zM134 36h1v1H134zM19 37h4v1H19zM20 38h2v1H20zM172 38h1v1H172zM21 39h1v1H21zM19 40h4v1H19zM19 41h4v1H19zM19 42h4v1H19zM18 43h2v1H18zM21 43h1v1H21zM173 43h1v1H173zM18 44h3v1H18zM172 44h3v1H172zM18 45h3v1H18zM72 45h1v1H72zM174 45h1v1H174zM18 46h3v1H18zM71 46h1v1H71zM174 46h1v1H174zM18 47h3v1H18zM49 47h2v1H49zM173 47h2v1H173zM18 48h2v1H18zM51 48h2v1H51zM173 48h2v1H173zM18 49h2v1H18zM49 49h1v1H49zM51 49h2v1H51zM99 49h1v1H99zM103 49h1v1H103zM173 49h2v1H173zM18 50h2v1H18zM49 50h1v1H49zM52 50h2v1H52zM56 50h1v1H56zM98 50h1v1H98zM102 50h2v1H102zM173 50h2v1H173zM18 51h3v1H18zM41 51h2v1H41zM46 51h1v1H46zM49 51h2v1H49zM56 51h1v1H56zM97 51h2v1H97zM101 51h2v1H101zM173 51h2v1H173zM18 52h3v1H18zM22 52h1v1H22zM42 52h1v1H42zM45 52h1v1H45zM47 52h1v1H47zM56 52h1v1H56zM88 52h3v1H88zM101 52h1v1H101zM173 52h2v1H173zM18 53h3v1H18zM22 53h1v1H22zM41 53h1v1H41zM47 53h2v1H47zM58 53h2v1H58zM88 53h3v1H88zM172 53h3v1H172zM18 54h4v1H18zM41 54h1v1H41zM44 54h2v1H44zM47 54h2v1H47zM58 54h2v1H58zM88 54h1v1H88zM91 54h1v1H91zM103 54h1v1H103zM171 54h4v1H171zM18 55h3v1H18zM27 55h1v1H27zM29 55h1v1H29zM32 55h1v1H32zM44 55h3v1H44zM59 55h3v1H59zM65 55h1v1H65zM75 55h1v1H75zM87 55h1v1H87zM90 55h1v1H90zM102 55h2v1H102zM169 55h1v1H169zM171 55h3v1H171zM18 56h5v1H18zM27 56h2v1H27zM47 56h1v1H47zM49 56h1v1H49zM61 56h1v1H61zM65 56h1v1H65zM73 56h1v1H73zM83 56h3v1H83zM88 56h1v1H88zM102 56h1v1H102zM169 56h5v1H169zM18 57h3v1H18zM22 57h1v1H22zM28 57h4v1H28zM49 57h1v1H49zM63 57h2v1H63zM83 57h1v1H83zM86 57h2v1H86zM170 57h4v1H170zM18 58h5v1H18zM30 58h4v1H30zM47 58h1v1H47zM50 58h1v1H50zM63 58h2v1H63zM66 58h3v1H66zM70 58h1v1H70zM73 58h2v1H73zM85 58h2v1H85zM170 58h4v1H170zM18 59h4v1H18zM27 59h1v1H27zM31 59h4v1H31zM47 59h1v1H47zM51 59h2v1H51zM63 59h1v1H63zM66 59h8v1H66zM82 59h1v1H82zM84 59h1v1H84zM171 59h4v1H171zM18 60h6v1H18zM32 60h2v1H32zM48 60h3v1H48zM52 60h1v1H52zM65 60h5v1H65zM71 60h1v1H71zM81 60h2v1H81zM172 60h2v1H172zM18 61h5v1H18zM47 61h1v1H47zM50 61h1v1H50zM53 61h2v1H53zM65 61h12v1H65zM79 61h4v1H79zM96 61h1v1H96zM170 61h4v1H170zM18 62h3v1H18zM22 62h3v1H22zM44 62h1v1H44zM46 62h1v1H46zM51 62h5v1H51zM66 62h7v1H66zM74 62h6v1H74zM81 62h1v1H81zM93 62h1v1H93zM96 62h3v1H96zM171 62h3v1H171zM18 63h5v1H18zM43 63h5v1H43zM51 63h3v1H51zM55 63h2v1H55zM67 63h1v1H67zM70 63h9v1H70zM80 63h1v1H80zM93 63h5v1H93zM171 63h3v1H171zM18 64h5v1H18zM43 64h2v1H43zM51 64h1v1H51zM54 64h1v1H54zM69 64h11v1H69zM90 64h3v1H90zM94 64h4v1H94zM99 64h1v1H99zM113 64h1v1H113zM170 64h4v1H170zM18 65h6v1H18zM41 65h5v1H41zM57 65h2v1H57zM69 65h1v1H69zM72 65h7v1H72zM91 65h3v1H91zM95 65h1v1H95zM170 65h4v1H170zM18 66h5v1H18zM42 66h3v1H42zM55 66h4v1H55zM71 66h2v1H71zM74 66h4v1H74zM88 66h2v1H88zM94 66h1v1H94zM171 66h3v1H171zM18 67h5v1H18zM41 67h1v1H41zM43 67h1v1H43zM58 67h1v1H58zM74 67h4v1H74zM87 67h4v1H87zM172 67h2v1H172zM18 68h5v1H18zM44 68h1v1H44zM59 68h1v1H59zM61 68h1v1H61zM73 68h2v1H73zM76 68h2v1H76zM88 68h1v1H88zM90 68h1v1H90zM173 68h1v1H173zM18 69h6v1H18zM60 69h2v1H60zM85 69h2v1H85zM89 69h2v1H89zM106 69h2v1H106zM172 69h3v1H172zM18 70h5v1H18zM24 70h1v1H24zM62 70h2v1H62zM75 70h1v1H75zM85 70h3v1H85zM89 70h1v1H89zM171 70h3v1H171zM18 71h5v1H18zM31 71h1v1H31zM61 71h4v1H61zM85 71h4v1H85zM171 71h4v1H171zM18 72h4v1H18zM23 72h1v1H23zM61 72h5v1H61zM83 72h3v1H83zM88 72h1v1H88zM171 72h4v1H171zM18 73h5v1H18zM61 73h2v1H61zM64 73h3v1H64zM83 73h2v1H83zM171 73h4v1H171zM18 74h5v1H18zM63 74h4v1H63zM83 74h3v1H83zM172 74h3v1H172zM18 75h6v1H18zM65 75h1v1H65zM67 75h3v1H67zM171 75h3v1H171zM18 76h5v1H18zM65 76h5v1H65zM81 76h3v1H81zM121 76h1v1H121zM170 76h4v1H170zM18 77h5v1H18zM67 77h5v1H67zM82 77h3v1H82zM171 77h3v1H171zM18 78h4v1H18zM68 78h1v1H68zM71 78h1v1H71zM80 78h1v1H80zM82 78h1v1H82zM171 78h3v1H171zM18 79h4v1H18zM70 79h1v1H70zM80 79h2v1H80zM169 79h2v1H169zM172 79h2v1H172zM18 80h4v1H18zM71 80h1v1H71zM80 80h2v1H80zM172 80h2v1H172zM18 81h3v1H18zM69 81h3v1H69zM79 81h3v1H79zM85 81h1v1H85zM170 81h4v1H170zM18 82h4v1H18zM67 82h4v1H67zM80 82h1v1H80zM173 82h1v1H173zM18 83h2v1H18zM68 83h2v1H68zM79 83h2v1H79zM173 83h1v1H173zM18 84h3v1H18zM68 84h3v1H68zM78 84h5v1H78zM172 84h2v1H172zM18 85h3v1H18zM70 85h1v1H70zM78 85h1v1H78zM80 85h2v1H80zM171 85h3v1H171zM18 86h4v1H18zM67 86h1v1H67zM78 86h1v1H78zM80 86h2v1H80zM173 86h1v1H173zM18 87h4v1H18zM67 87h1v1H67zM78 87h3v1H78zM173 87h1v1H173zM18 88h4v1H18zM78 88h3v1H78zM18 89h3v1H18zM67 89h1v1H67zM78 89h2v1H78zM173 89h2v1H173zM18 90h3v1H18zM64 90h1v1H64zM68 90h2v1H68zM77 90h5v1H77zM116 90h1v1H116zM119 90h1v1H119zM124 90h2v1H124zM172 90h2v1H172zM18 91h3v1H18zM67 91h2v1H67zM77 91h4v1H77zM115 91h2v1H115zM119 91h2v1H119zM125 91h1v1H125zM170 91h1v1H170zM172 91h2v1H172zM18 92h4v1H18zM66 92h3v1H66zM77 92h1v1H77zM79 92h2v1H79zM109 92h4v1H109zM114 92h2v1H114zM117 92h2v1H117zM122 92h1v1H122zM128 92h1v1H128zM170 92h4v1H170zM18 93h4v1H18zM66 93h2v1H66zM69 93h1v1H69zM77 93h3v1H77zM109 93h3v1H109zM114 93h1v1H114zM127 93h3v1H127zM170 93h1v1H170zM172 93h2v1H172zM18 94h3v1H18zM66 94h1v1H66zM78 94h2v1H78zM110 94h2v1H110zM113 94h2v1H113zM127 94h3v1H127zM170 94h4v1H170zM18 95h3v1H18zM68 95h1v1H68zM78 95h2v1H78zM91 95h2v1H91zM109 95h1v1H109zM127 95h1v1H127zM129 95h2v1H129zM170 95h1v1H170zM172 95h2v1H172zM18 96h3v1H18zM77 96h2v1H77zM90 96h4v1H90zM106 96h1v1H106zM109 96h1v1H109zM129 96h4v1H129zM172 96h3v1H172zM18 97h3v1H18zM77 97h1v1H77zM79 97h1v1H79zM89 97h3v1H89zM95 97h5v1H95zM106 97h1v1H106zM108 97h1v1H108zM129 97h4v1H129zM172 97h3v1H172zM18 98h3v1H18zM66 98h1v1H66zM77 98h1v1H77zM79 98h2v1H79zM85 98h2v1H85zM88 98h1v1H88zM91 98h1v1H91zM94 98h2v1H94zM97 98h2v1H97zM106 98h2v1H106zM109 98h1v1H109zM129 98h1v1H129zM173 98h2v1H173zM18 99h4v1H18zM60 99h1v1H60zM78 99h4v1H78zM84 99h1v1H84zM86 99h2v1H86zM94 99h4v1H94zM99 99h2v1H99zM105 99h5v1H105zM131 99h7v1H131zM173 99h2v1H173zM18 100h4v1H18zM65 100h2v1H65zM77 100h6v1H77zM85 100h1v1H85zM96 100h1v1H96zM99 100h3v1H99zM104 100h3v1H104zM120 100h1v1H120zM131 100h4v1H131zM136 100h2v1H136zM139 100h1v1H139zM173 100h2v1H173zM18 101h4v1H18zM64 101h1v1H64zM66 101h1v1H66zM77 101h6v1H77zM98 101h4v1H98zM104 101h2v1H104zM117 101h5v1H117zM131 101h5v1H131zM137 101h2v1H137zM173 101h2v1H173zM18 102h4v1H18zM64 102h1v1H64zM67 102h2v1H67zM77 102h5v1H77zM99 102h1v1H99zM102 102h1v1H102zM104 102h3v1H104zM117 102h4v1H117zM131 102h4v1H131zM174 102h1v1H174zM18 103h2v1H18zM21 103h1v1H21zM50 103h1v1H50zM64 103h2v1H64zM68 103h1v1H68zM77 103h2v1H77zM81 103h1v1H81zM103 103h5v1H103zM116 103h4v1H116zM122 103h1v1H122zM132 103h2v1H132zM140 103h1v1H140zM173 103h2v1H173zM19 104h1v1H19zM24 104h1v1H24zM29 104h1v1H29zM62 104h2v1H62zM65 104h3v1H65zM78 104h2v1H78zM102 104h3v1H102zM116 104h8v1H116zM134 104h1v1H134zM162 104h1v1H162zM169 104h1v1H169zM173 104h2v1H173zM18 105h3v1H18zM26 105h2v1H26zM30 105h1v1H30zM62 105h7v1H62zM79 105h1v1H79zM102 105h3v1H102zM115 105h1v1H115zM117 105h6v1H117zM133 105h2v1H133zM167 105h1v1H167zM171 105h4v1H171zM18 106h2v1H18zM21 106h1v1H21zM27 106h1v1H27zM30 106h2v1H30zM48 106h1v1H48zM50 106h3v1H50zM62 106h7v1H62zM79 106h1v1H79zM103 106h2v1H103zM114 106h1v1H114zM117 106h5v1H117zM135 106h2v1H135zM139 106h1v1H139zM167 106h1v1H167zM169 106h6v1H169zM18 107h3v1H18zM29 107h3v1H29zM49 107h2v1H49zM63 107h2v1H63zM66 107h1v1H66zM68 107h1v1H68zM77 107h1v1H77zM90 107h1v1H90zM104 107h2v1H104zM114 107h7v1H114zM122 107h3v1H122zM135 107h1v1H135zM138 107h1v1H138zM154 107h1v1H154zM156 107h1v1H156zM167 107h2v1H167zM170 107h5v1H170zM18 108h3v1H18zM29 108h2v1H29zM50 108h3v1H50zM59 108h1v1H59zM63 108h1v1H63zM66 108h3v1H66zM77 108h1v1H77zM87 108h3v1H87zM92 108h3v1H92zM104 108h1v1H104zM113 108h1v1H113zM115 108h2v1H115zM118 108h5v1H118zM124 108h2v1H124zM133 108h2v1H133zM137 108h2v1H137zM154 108h1v1H154zM156 108h1v1H156zM170 108h5v1H170zM18 109h6v1H18zM30 109h3v1H30zM53 109h1v1H53zM56 109h1v1H56zM58 109h2v1H58zM67 109h1v1H67zM87 109h4v1H87zM92 109h3v1H92zM104 109h1v1H104zM115 109h2v1H115zM121 109h2v1H121zM124 109h2v1H124zM136 109h2v1H136zM171 109h4v1H171zM18 110h5v1H18zM51 110h1v1H51zM56 110h1v1H56zM66 110h1v1H66zM87 110h8v1H87zM104 110h1v1H104zM114 110h4v1H114zM119 110h2v1H119zM122 110h1v1H122zM124 110h3v1H124zM135 110h4v1H135zM157 110h1v1H157zM171 110h4v1H171zM18 111h5v1H18zM32 111h1v1H32zM34 111h1v1H34zM52 111h1v1H52zM57 111h1v1H57zM85 111h12v1H85zM112 111h3v1H112zM120 111h2v1H120zM124 111h2v1H124zM134 111h3v1H134zM172 111h2v1H172zM18 112h5v1H18zM31 112h1v1H31zM63 112h1v1H63zM85 112h12v1H85zM113 112h2v1H113zM116 112h2v1H116zM120 112h2v1H120zM136 112h1v1H136zM173 112h1v1H173zM18 113h3v1H18zM22 113h1v1H22zM24 113h1v1H24zM83 113h14v1H83zM113 113h1v1H113zM116 113h2v1H116zM126 113h1v1H126zM172 113h2v1H172zM18 114h5v1H18zM58 114h2v1H58zM83 114h15v1H83zM111 114h3v1H111zM172 114h2v1H172zM18 115h3v1H18zM58 115h1v1H58zM82 115h13v1H82zM97 115h1v1H97zM112 115h3v1H112zM172 115h2v1H172zM18 116h3v1H18zM82 116h7v1H82zM90 116h9v1H90zM111 116h2v1H111zM114 116h1v1H114zM136 116h1v1H136zM172 116h3v1H172zM18 117h4v1H18zM59 117h1v1H59zM82 117h4v1H82zM87 117h1v1H87zM89 117h4v1H89zM94 117h4v1H94zM110 117h4v1H110zM128 117h1v1H128zM136 117h1v1H136zM139 117h1v1H139zM172 117h3v1H172zM18 118h4v1H18zM81 118h4v1H81zM88 118h2v1H88zM94 118h3v1H94zM110 118h4v1H110zM128 118h1v1H128zM137 118h2v1H137zM144 118h1v1H144zM169 118h1v1H169zM171 118h4v1H171zM18 119h3v1H18zM80 119h5v1H80zM88 119h1v1H88zM98 119h1v1H98zM109 119h3v1H109zM113 119h2v1H113zM128 119h1v1H128zM136 119h3v1H136zM169 119h6v1H169zM18 120h4v1H18zM81 120h2v1H81zM95 120h1v1H95zM98 120h1v1H98zM110 120h3v1H110zM126 120h1v1H126zM136 120h3v1H136zM170 120h4v1H170zM18 121h4v1H18zM35 121h1v1H35zM80 121h3v1H80zM85 121h1v1H85zM111 121h3v1H111zM138 121h1v1H138zM171 121h3v1H171zM18 122h4v1H18zM39 122h1v1H39zM80 122h2v1H80zM110 122h4v1H110zM128 122h2v1H128zM139 122h1v1H139zM170 122h4v1H170zM18 123h4v1H18zM109 123h4v1H109zM128 123h1v1H128zM138 123h1v1H138zM166 123h1v1H166zM170 123h4v1H170zM18 124h4v1H18zM80 124h2v1H80zM109 124h2v1H109zM169 124h5v1H169zM18 125h5v1H18zM79 125h3v1H79zM138 125h2v1H138zM170 125h4v1H170zM18 126h5v1H18zM79 126h2v1H79zM128 126h1v1H128zM140 126h3v1H140zM171 126h4v1H171zM18 127h5v1H18zM79 127h1v1H79zM128 127h3v1H128zM140 127h3v1H140zM173 127h2v1H173zM18 128h5v1H18zM78 128h3v1H78zM109 128h1v1H109zM131 128h1v1H131zM140 128h1v1H140zM144 128h3v1H144zM172 128h3v1H172zM18 129h6v1H18zM78 129h3v1H78zM107 129h2v1H107zM128 129h2v1H128zM131 129h1v1H131zM144 129h3v1H144zM172 129h2v1H172zM18 130h5v1H18zM77 130h4v1H77zM101 130h1v1H101zM107 130h1v1H107zM128 130h2v1H128zM142 130h1v1H142zM144 130h2v1H144zM147 130h2v1H147zM172 130h2v1H172zM18 131h5v1H18zM66 131h1v1H66zM78 131h3v1H78zM105 131h1v1H105zM129 131h1v1H129zM147 131h2v1H147zM172 131h3v1H172zM18 132h4v1H18zM27 132h1v1H27zM29 132h2v1H29zM77 132h3v1H77zM104 132h2v1H104zM128 132h3v1H128zM132 132h1v1H132zM145 132h6v1H145zM172 132h2v1H172zM18 133h5v1H18zM26 133h1v1H26zM69 133h1v1H69zM77 133h3v1H77zM105 133h1v1H105zM107 133h1v1H107zM146 133h5v1H146zM172 133h3v1H172zM18 134h4v1H18zM25 134h2v1H25zM30 134h1v1H30zM69 134h1v1H69zM77 134h3v1H77zM148 134h3v1H148zM152 134h1v1H152zM172 134h3v1H172zM18 135h7v1H18zM28 135h1v1H28zM30 135h2v1H30zM77 135h3v1H77zM135 135h1v1H135zM147 135h5v1H147zM153 135h1v1H153zM172 135h2v1H172zM18 136h4v1H18zM29 136h2v1H29zM135 136h1v1H135zM146 136h7v1H146zM173 136h2v1H173zM18 137h4v1H18zM76 137h3v1H76zM137 137h2v1H137zM147 137h4v1H147zM173 137h2v1H173zM18 138h4v1H18zM137 138h2v1H137zM145 138h1v1H145zM147 138h2v1H147zM168 138h1v1H168zM173 138h2v1H173zM18 139h6v1H18zM28 139h1v1H28zM69 139h1v1H69zM72 139h1v1H72zM139 139h1v1H139zM142 139h1v1H142zM145 139h2v1H145zM173 139h1v1H173zM18 140h5v1H18zM69 140h1v1H69zM71 140h2v1H71zM143 140h1v1H143zM172 140h3v1H172zM18 141h4v1H18zM71 141h1v1H71zM74 141h2v1H74zM168 141h7v1H168zM18 142h3v1H18zM71 142h1v1H71zM74 142h2v1H74zM169 142h6v1H169zM18 143h3v1H18zM72 143h4v1H72zM169 143h6v1H169zM18 144h2v1H18zM74 144h4v1H74zM170 144h5v1H170zM18 145h2v1H18zM73 145h1v1H73zM75 145h2v1H75zM171 145h4v1H171zM171 146h4v1H171zM173 147h1v1H173zM18 149h1v1H18zM173 149h1v1H173zM18 151h1v1H18zM20 153h3v1H20zM19 154h4v1H19zM19 155h5v1H19zM172 155h1v1H172zM20 156h4v1H20zM20 157h3v1H20zM171 157h1v1H171zM21 158h4v1H21zM21 159h4v1H21zM168 159h2v1H168zM22 160h5v1H22zM169 160h1v1H169zM23 161h4v1H23zM165 161h1v1H165zM23 162h3v1H23zM161 162h1v1H161zM165 162h1v1H165zM168 162h1v1H168zM24 163h3v1H24zM164 163h2v1H164zM26 164h2v1H26zM29 164h1v1H29zM160 164h2v1H160zM163 164h4v1H163zM26 165h2v1H26zM31 165h1v1H31zM159 165h6v1H159zM27 166h2v1H27zM32 166h1v1H32zM156 166h1v1H156zM159 166h5v1H159zM31 167h2v1H31zM156 167h5v1H156zM162 167h2v1H162zM155 168h6v1H155zM157 169h4v1H157zM102 170h1v1H102zM148 170h1v1H148zM150 170h2v1H150zM38 171h4v1H38zM43 171h2v1H43zM101 171h2v1H101zM149 171h1v1H149zM39 172h2v1H39zM43 172h1v1H43zM100 172h5v1H100zM148 172h2v1H148zM151 172h1v1H151zM41 173h1v1H41zM150 173h2v1H150zM46 174h1v1H46zM48 174h12v1H48zM61 174h3v1H61zM72 174h8v1H72zM83 174h3v1H83zM91 174h4v1H91zM96 174h5v1H96zM102 174h2v1H102zM110 174h4v1H110zM115 174h3v1H115zM119 174h14v1H119zM139 174h2v1H139zM143 174h2v1H143z"/>
  <path fill="#081848" d="M121 100h1v1H121zM81 174h1v1H81z"/>
  <path fill="#002050" d="M40 18h1v1H40zM42 18h106v1H42zM36 19h34v1H36zM71 19h55v1H71zM129 19h9v1H129zM139 19h4v1H139zM144 19h3v1H144zM149 19h2v1H149zM153 19h3v1H153zM34 20h113v1H34zM148 20h2v1H148zM153 20h1v1H153zM156 20h2v1H156zM32 21h118v1H32zM152 21h4v1H152zM157 21h3v1H157zM31 22h1v1H31zM33 22h63v1H33zM97 22h25v1H97zM123 22h2v1H123zM126 22h24v1H126zM154 22h5v1H154zM31 23h1v1H31zM34 23h115v1H34zM151 23h1v1H151zM153 23h6v1H153zM161 23h1v1H161zM27 24h1v1H27zM31 24h119v1H31zM152 24h1v1H152zM154 24h10v1H154zM32 25h120v1H32zM153 25h5v1H153zM159 25h5v1H159zM29 26h2v1H29zM32 26h131v1H32zM165 26h1v1H165zM29 27h137v1H29zM29 28h135v1H29zM165 28h2v1H165zM28 29h141v1H28zM29 30h139v1H29zM28 31h142v1H28zM28 32h138v1H28zM167 32h4v1H167zM27 33h144v1H27zM26 34h26v1H26zM53 34h80v1H53zM134 34h38v1H134zM23 35h1v1H23zM25 35h147v1H25zM19 36h2v1H19zM23 36h2v1H23zM26 36h108v1H26zM135 36h38v1H135zM23 37h150v1H23zM19 38h1v1H19zM22 38h150v1H22zM18 39h3v1H18zM22 39h10v1H22zM33 39h141v1H33zM18 40h1v1H18zM23 40h151v1H23zM18 41h1v1H18zM23 41h151v1H23zM23 42h143v1H23zM167 42h7v1H167zM20 43h1v1H20zM22 43h151v1H22zM21 44h151v1H21zM21 45h51v1H21zM73 45h86v1H73zM160 45h14v1H160zM21 46h50v1H21zM72 46h88v1H72zM161 46h13v1H161zM21 47h28v1H21zM51 47h102v1H51zM154 47h19v1H154zM20 48h31v1H20zM53 48h120v1H53zM20 49h11v1H20zM32 49h1v1H32zM34 49h15v1H34zM50 49h1v1H50zM53 49h46v1H53zM100 49h3v1H100zM104 49h69v1H104zM20 50h12v1H20zM33 50h16v1H33zM50 50h2v1H50zM54 50h2v1H54zM57 50h41v1H57zM99 50h3v1H99zM104 50h69v1H104zM21 51h20v1H21zM43 51h3v1H43zM47 51h2v1H47zM55 51h1v1H55zM57 51h40v1H57zM99 51h2v1H99zM103 51h70v1H103zM21 52h1v1H21zM23 52h19v1H23zM43 52h2v1H43zM46 52h1v1H46zM48 52h2v1H48zM57 52h31v1H57zM91 52h5v1H91zM102 52h71v1H102zM21 53h1v1H21zM23 53h18v1H23zM42 53h5v1H42zM60 53h28v1H60zM91 53h2v1H91zM102 53h62v1H102zM165 53h7v1H165zM22 54h19v1H22zM42 54h2v1H42zM46 54h1v1H46zM60 54h28v1H60zM89 54h2v1H89zM102 54h1v1H102zM104 54h67v1H104zM21 55h6v1H21zM28 55h1v1H28zM30 55h2v1H30zM33 55h11v1H33zM47 55h2v1H47zM62 55h3v1H62zM66 55h9v1H66zM76 55h11v1H76zM88 55h2v1H88zM104 55h65v1H104zM170 55h1v1H170zM23 56h4v1H23zM29 56h18v1H29zM48 56h1v1H48zM60 56h1v1H60zM62 56h3v1H62zM66 56h7v1H66zM74 56h9v1H74zM86 56h2v1H86zM103 56h66v1H103zM21 57h1v1H21zM23 57h5v1H23zM32 57h17v1H32zM61 57h2v1H61zM65 57h18v1H65zM84 57h2v1H84zM102 57h68v1H102zM23 58h7v1H23zM34 58h13v1H34zM48 58h2v1H48zM62 58h1v1H62zM65 58h1v1H65zM69 58h1v1H69zM71 58h2v1H71zM75 58h10v1H75zM101 58h69v1H101zM22 59h5v1H22zM28 59h3v1H28zM35 59h12v1H35zM48 59h3v1H48zM64 59h2v1H64zM74 59h8v1H74zM83 59h1v1H83zM100 59h71v1H100zM24 60h8v1H24zM34 60h14v1H34zM51 60h1v1H51zM64 60h1v1H64zM70 60h1v1H70zM72 60h9v1H72zM83 60h1v1H83zM97 60h75v1H97zM23 61h24v1H23zM48 61h2v1H48zM51 61h2v1H51zM77 61h2v1H77zM95 61h1v1H95zM97 61h73v1H97zM21 62h1v1H21zM25 62h19v1H25zM45 62h1v1H45zM47 62h4v1H47zM73 62h1v1H73zM80 62h1v1H80zM94 62h2v1H94zM99 62h72v1H99zM23 63h20v1H23zM48 63h3v1H48zM54 63h1v1H54zM68 63h2v1H68zM79 63h1v1H79zM92 63h1v1H92zM98 63h73v1H98zM23 64h20v1H23zM45 64h6v1H45zM52 64h2v1H52zM55 64h3v1H55zM93 64h1v1H93zM98 64h1v1H98zM100 64h13v1H100zM114 64h56v1H114zM24 65h17v1H24zM46 65h11v1H46zM70 65h2v1H70zM90 65h1v1H90zM94 65h1v1H94zM96 65h74v1H96zM23 66h19v1H23zM45 66h10v1H45zM59 66h1v1H59zM70 66h1v1H70zM73 66h1v1H73zM78 66h1v1H78zM90 66h4v1H90zM95 66h62v1H95zM158 66h13v1H158zM23 67h18v1H23zM42 67h1v1H42zM44 67h14v1H44zM59 67h2v1H59zM73 67h1v1H73zM91 67h81v1H91zM23 68h21v1H23zM45 68h14v1H45zM60 68h1v1H60zM75 68h1v1H75zM87 68h1v1H87zM89 68h1v1H89zM91 68h82v1H91zM24 69h36v1H24zM62 69h1v1H62zM74 69h3v1H74zM87 69h2v1H87zM91 69h15v1H91zM108 69h64v1H108zM23 70h1v1H23zM25 70h37v1H25zM88 70h1v1H88zM90 70h81v1H90zM23 71h8v1H23zM32 71h29v1H32zM84 71h1v1H84zM89 71h52v1H89zM142 71h29v1H142zM22 72h1v1H22zM24 72h37v1H24zM86 72h2v1H86zM89 72h82v1H89zM23 73h38v1H23zM63 73h1v1H63zM85 73h86v1H85zM23 74h40v1H23zM67 74h1v1H67zM82 74h1v1H82zM86 74h86v1H86zM24 75h41v1H24zM66 75h1v1H66zM82 75h89v1H82zM23 76h42v1H23zM70 76h1v1H70zM84 76h37v1H84zM122 76h48v1H122zM23 77h44v1H23zM81 77h1v1H81zM85 77h86v1H85zM22 78h46v1H22zM69 78h2v1H69zM81 78h1v1H81zM83 78h88v1H83zM22 79h48v1H22zM71 79h1v1H71zM82 79h87v1H82zM171 79h1v1H171zM22 80h49v1H22zM82 80h90v1H82zM21 81h48v1H21zM82 81h3v1H82zM86 81h33v1H86zM120 81h50v1H120zM22 82h45v1H22zM79 82h1v1H79zM81 82h92v1H81zM20 83h48v1H20zM70 83h1v1H70zM81 83h92v1H81zM21 84h47v1H21zM83 84h89v1H83zM21 85h49v1H21zM79 85h1v1H79zM82 85h89v1H82zM22 86h45v1H22zM68 86h2v1H68zM79 86h1v1H79zM82 86h91v1H82zM22 87h45v1H22zM68 87h2v1H68zM81 87h92v1H81zM22 88h48v1H22zM77 88h1v1H77zM81 88h93v1H81zM21 89h46v1H21zM68 89h1v1H68zM77 89h1v1H77zM80 89h93v1H80zM21 90h43v1H21zM65 90h3v1H65zM82 90h34v1H82zM117 90h2v1H117zM120 90h4v1H120zM126 90h46v1H126zM21 91h46v1H21zM81 91h34v1H81zM117 91h2v1H117zM121 91h4v1H121zM126 91h44v1H126zM171 91h1v1H171zM22 92h22v1H22zM45 92h21v1H45zM78 92h1v1H78zM81 92h28v1H81zM113 92h1v1H113zM116 92h1v1H116zM124 92h4v1H124zM129 92h41v1H129zM22 93h21v1H22zM44 93h1v1H44zM46 93h20v1H46zM68 93h1v1H68zM80 93h29v1H80zM112 93h2v1H112zM115 93h1v1H115zM125 93h2v1H125zM130 93h40v1H130zM171 93h1v1H171zM21 94h45v1H21zM67 94h2v1H67zM77 94h1v1H77zM80 94h30v1H80zM112 94h1v1H112zM126 94h1v1H126zM130 94h40v1H130zM21 95h47v1H21zM76 95h2v1H76zM80 95h11v1H80zM93 95h16v1H93zM110 95h3v1H110zM128 95h1v1H128zM131 95h39v1H131zM171 95h1v1H171zM21 96h48v1H21zM76 96h1v1H76zM79 96h11v1H79zM94 96h12v1H94zM107 96h2v1H107zM110 96h2v1H110zM128 96h1v1H128zM133 96h39v1H133zM21 97h48v1H21zM78 97h1v1H78zM80 97h9v1H80zM92 97h3v1H92zM100 97h6v1H100zM107 97h1v1H107zM109 97h2v1H109zM133 97h39v1H133zM21 98h45v1H21zM67 98h2v1H67zM78 98h1v1H78zM81 98h4v1H81zM87 98h1v1H87zM89 98h2v1H89zM92 98h2v1H92zM96 98h1v1H96zM99 98h7v1H99zM108 98h1v1H108zM110 98h1v1H110zM130 98h43v1H130zM22 99h38v1H22zM61 99h8v1H61zM77 99h1v1H77zM82 99h2v1H82zM85 99h1v1H85zM98 99h1v1H98zM101 99h4v1H101zM130 99h1v1H130zM138 99h35v1H138zM22 100h43v1H22zM67 100h2v1H67zM83 100h2v1H83zM97 100h2v1H97zM102 100h2v1H102zM107 100h2v1H107zM119 100h1v1H119zM130 100h1v1H130zM135 100h1v1H135zM138 100h1v1H138zM140 100h33v1H140zM22 101h42v1H22zM65 101h1v1H65zM67 101h2v1H67zM83 101h2v1H83zM102 101h2v1H102zM106 101h2v1H106zM136 101h1v1H136zM139 101h34v1H139zM22 102h42v1H22zM65 102h2v1H65zM100 102h2v1H100zM103 102h1v1H103zM107 102h1v1H107zM121 102h2v1H121zM135 102h39v1H135zM20 103h1v1H20zM22 103h28v1H22zM51 103h13v1H51zM66 103h2v1H66zM79 103h2v1H79zM100 103h3v1H100zM120 103h2v1H120zM134 103h6v1H134zM141 103h32v1H141zM20 104h4v1H20zM25 104h4v1H25zM30 104h32v1H30zM64 104h1v1H64zM68 104h1v1H68zM77 104h1v1H77zM80 104h1v1H80zM101 104h1v1H101zM105 104h2v1H105zM115 104h1v1H115zM132 104h2v1H132zM135 104h27v1H135zM163 104h6v1H163zM170 104h3v1H170zM21 105h5v1H21zM28 105h2v1H28zM31 105h31v1H31zM77 105h2v1H77zM105 105h1v1H105zM116 105h1v1H116zM123 105h2v1H123zM132 105h1v1H132zM135 105h32v1H135zM168 105h3v1H168zM20 106h1v1H20zM22 106h5v1H22zM28 106h2v1H28zM32 106h16v1H32zM49 106h1v1H49zM53 106h9v1H53zM77 106h2v1H77zM105 106h1v1H105zM115 106h2v1H115zM122 106h3v1H122zM133 106h2v1H133zM137 106h2v1H137zM140 106h27v1H140zM168 106h1v1H168zM21 107h8v1H21zM32 107h17v1H32zM51 107h12v1H51zM65 107h1v1H65zM67 107h1v1H67zM78 107h1v1H78zM89 107h1v1H89zM91 107h3v1H91zM103 107h1v1H103zM121 107h1v1H121zM125 107h1v1H125zM133 107h2v1H133zM136 107h2v1H136zM139 107h15v1H139zM155 107h1v1H155zM157 107h10v1H157zM169 107h1v1H169zM21 108h8v1H21zM31 108h19v1H31zM53 108h6v1H53zM60 108h3v1H60zM64 108h2v1H64zM90 108h2v1H90zM103 108h1v1H103zM114 108h1v1H114zM117 108h1v1H117zM123 108h1v1H123zM135 108h2v1H135zM139 108h15v1H139zM155 108h1v1H155zM157 108h13v1H157zM24 109h6v1H24zM33 109h20v1H33zM54 109h2v1H54zM57 109h1v1H57zM60 109h7v1H60zM68 109h1v1H68zM86 109h1v1H86zM91 109h1v1H91zM113 109h2v1H113zM117 109h4v1H117zM123 109h1v1H123zM134 109h2v1H134zM138 109h33v1H138zM23 110h28v1H23zM52 110h4v1H52zM57 110h9v1H57zM67 110h2v1H67zM86 110h1v1H86zM95 110h1v1H95zM113 110h1v1H113zM118 110h1v1H118zM121 110h1v1H121zM123 110h1v1H123zM134 110h1v1H134zM139 110h18v1H139zM158 110h13v1H158zM23 111h9v1H23zM33 111h1v1H33zM35 111h17v1H35zM53 111h4v1H53zM58 111h11v1H58zM115 111h5v1H115zM122 111h2v1H122zM126 111h1v1H126zM137 111h35v1H137zM23 112h8v1H23zM32 112h31v1H32zM64 112h5v1H64zM84 112h1v1H84zM112 112h1v1H112zM115 112h1v1H115zM118 112h2v1H118zM122 112h5v1H122zM134 112h2v1H134zM137 112h36v1H137zM21 113h1v1H21zM23 113h1v1H23zM25 113h44v1H25zM111 113h2v1H111zM114 113h2v1H114zM118 113h8v1H118zM135 113h37v1H135zM23 114h35v1H23zM60 114h9v1H60zM114 114h13v1H114zM135 114h37v1H135zM21 115h37v1H21zM59 115h10v1H59zM95 115h2v1H95zM111 115h1v1H111zM115 115h12v1H115zM135 115h37v1H135zM21 116h47v1H21zM89 116h1v1H89zM110 116h1v1H110zM113 116h1v1H113zM115 116h13v1H115zM135 116h1v1H135zM137 116h35v1H137zM22 117h37v1H22zM60 117h8v1H60zM81 117h1v1H81zM86 117h1v1H86zM88 117h1v1H88zM93 117h1v1H93zM98 117h1v1H98zM114 117h14v1H114zM137 117h2v1H137zM140 117h32v1H140zM22 118h46v1H22zM85 118h3v1H85zM90 118h4v1H90zM97 118h2v1H97zM114 118h14v1H114zM139 118h5v1H139zM145 118h24v1H145zM170 118h1v1H170zM21 119h48v1H21zM85 119h3v1H85zM89 119h9v1H89zM112 119h1v1H112zM115 119h13v1H115zM139 119h30v1H139zM22 120h47v1H22zM80 120h1v1H80zM83 120h12v1H83zM96 120h2v1H96zM99 120h1v1H99zM109 120h1v1H109zM113 120h13v1H113zM127 120h2v1H127zM139 120h31v1H139zM22 121h13v1H22zM36 121h33v1H36zM83 121h2v1H83zM86 121h14v1H86zM109 121h2v1H109zM114 121h15v1H114zM137 121h1v1H137zM139 121h32v1H139zM22 122h17v1H22zM40 122h29v1H40zM82 122h18v1H82zM109 122h1v1H109zM114 122h14v1H114zM137 122h2v1H137zM140 122h30v1H140zM22 123h47v1H22zM79 123h21v1H79zM108 123h1v1H108zM113 123h15v1H113zM137 123h1v1H137zM139 123h27v1H139zM167 123h3v1H167zM22 124h47v1H22zM79 124h1v1H79zM82 124h18v1H82zM111 124h13v1H111zM125 124h5v1H125zM138 124h31v1H138zM23 125h47v1H23zM78 125h1v1H78zM82 125h18v1H82zM108 125h21v1H108zM140 125h30v1H140zM23 126h46v1H23zM78 126h1v1H78zM81 126h17v1H81zM108 126h20v1H108zM129 126h2v1H129zM139 126h1v1H139zM143 126h28v1H143zM23 127h46v1H23zM78 127h1v1H78zM80 127h18v1H80zM99 127h1v1H99zM108 127h20v1H108zM139 127h1v1H139zM143 127h30v1H143zM23 128h46v1H23zM81 128h19v1H81zM108 128h1v1H108zM110 128h21v1H110zM141 128h3v1H141zM147 128h25v1H147zM24 129h45v1H24zM81 129h20v1H81zM109 129h19v1H109zM130 129h1v1H130zM142 129h2v1H142zM147 129h25v1H147zM23 130h46v1H23zM81 130h20v1H81zM108 130h20v1H108zM130 130h2v1H130zM143 130h1v1H143zM146 130h1v1H146zM149 130h23v1H149zM23 131h43v1H23zM67 131h2v1H67zM77 131h1v1H77zM81 131h21v1H81zM106 131h23v1H106zM130 131h3v1H130zM145 131h2v1H145zM149 131h23v1H149zM22 132h5v1H22zM28 132h1v1H28zM31 132h39v1H31zM80 132h24v1H80zM106 132h22v1H106zM131 132h1v1H131zM151 132h21v1H151zM23 133h3v1H23zM27 133h42v1H27zM80 133h25v1H80zM106 133h1v1H106zM108 133h26v1H108zM151 133h21v1H151zM22 134h3v1H22zM27 134h3v1H27zM31 134h38v1H31zM80 134h55v1H80zM147 134h1v1H147zM151 134h1v1H151zM153 134h19v1H153zM25 135h3v1H25zM29 135h1v1H29zM32 135h17v1H32zM50 135h19v1H50zM80 135h55v1H80zM152 135h1v1H152zM154 135h18v1H154zM22 136h7v1H22zM31 136h15v1H31zM47 136h20v1H47zM68 136h1v1H68zM77 136h58v1H77zM136 136h1v1H136zM153 136h20v1H153zM22 137h24v1H22zM47 137h21v1H47zM79 137h58v1H79zM146 137h1v1H146zM151 137h22v1H151zM22 138h22v1H22zM45 138h20v1H45zM66 138h3v1H66zM76 138h61v1H76zM139 138h1v1H139zM146 138h1v1H146zM149 138h19v1H149zM169 138h4v1H169zM24 139h4v1H24zM29 139h40v1H29zM70 139h2v1H70zM75 139h64v1H75zM140 139h2v1H140zM143 139h2v1H143zM147 139h26v1H147zM23 140h46v1H23zM70 140h1v1H70zM73 140h50v1H73zM124 140h19v1H124zM144 140h28v1H144zM22 141h18v1H22zM41 141h30v1H41zM72 141h2v1H72zM76 141h48v1H76zM125 141h43v1H125zM21 142h50v1H21zM72 142h2v1H72zM76 142h61v1H76zM138 142h31v1H138zM21 143h51v1H21zM76 143h62v1H76zM139 143h30v1H139zM20 144h19v1H20zM40 144h34v1H40zM78 144h92v1H78zM20 145h19v1H20zM40 145h18v1H40zM59 145h14v1H59zM74 145h1v1H74zM77 145h94v1H77zM18 146h153v1H18zM18 147h22v1H18zM41 147h84v1H41zM126 147h47v1H126zM18 148h106v1H18zM125 148h49v1H125zM19 149h69v1H19zM89 149h84v1H89zM18 150h121v1H18zM141 150h32v1H141zM19 151h154v1H19zM19 152h154v1H19zM19 153h1v1H19zM23 153h121v1H23zM145 153h28v1H145zM23 154h150v1H23zM24 155h148v1H24zM24 156h18v1H24zM43 156h10v1H43zM54 156h94v1H54zM149 156h5v1H149zM155 156h17v1H155zM23 157h21v1H23zM45 157h126v1H45zM25 158h123v1H25zM149 158h22v1H149zM25 159h117v1H25zM143 159h5v1H143zM149 159h19v1H149zM27 160h18v1H27zM46 160h97v1H46zM144 160h3v1H144zM148 160h3v1H148zM152 160h17v1H152zM27 161h115v1H27zM143 161h22v1H143zM166 161h3v1H166zM26 162h116v1H26zM143 162h18v1H143zM162 162h3v1H162zM166 162h2v1H166zM27 163h137v1H27zM166 163h2v1H166zM25 164h1v1H25zM28 164h1v1H28zM30 164h77v1H30zM108 164h7v1H108zM116 164h44v1H116zM162 164h1v1H162zM28 165h3v1H28zM32 165h127v1H32zM165 165h1v1H165zM29 166h3v1H29zM33 166h88v1H33zM122 166h10v1H122zM133 166h23v1H133zM157 166h2v1H157zM164 166h1v1H164zM28 167h3v1H28zM33 167h123v1H33zM161 167h1v1H161zM31 168h124v1H31zM161 168h2v1H161zM31 169h126v1H31zM35 170h67v1H35zM103 170h45v1H103zM149 170h1v1H149zM152 170h7v1H152zM36 171h2v1H36zM42 171h1v1H42zM45 171h56v1H45zM103 171h46v1H103zM150 171h7v1H150zM36 172h1v1H36zM41 172h2v1H41zM44 172h56v1H44zM105 172h43v1H105zM150 172h1v1H150zM152 172h3v1H152zM45 173h33v1H45zM81 173h1v1H81zM83 173h1v1H83zM85 173h60v1H85zM147 173h1v1H147zM149 173h1v1H149zM146 174h1v1H146z"/>
  <path fill="#082048" d="M160 21h1v1H160zM28 23h1v1H28zM165 25h1v1H165zM173 38h1v1H173zM55 52h1v1H55zM96 52h1v1H96zM100 52h1v1H100zM58 55h1v1H58zM50 57h1v1H50zM85 59h1v1H85zM53 60h1v1H53zM81 63h1v1H81zM80 64h1v1H80zM79 65h1v1H79zM66 72h1v1H66zM72 78h1v1H72zM71 82h1v1H71zM70 87h1v1H70zM69 89h1v1H69zM69 91h1v1H69zM123 92h1v1H123zM117 93h1v1H117zM123 93h1v1H123zM69 94h1v1H69zM69 95h1v1H69zM126 95h1v1H126zM112 96h1v1H112zM128 97h1v1H128zM76 98h1v1H76zM76 99h1v1H76zM89 99h1v1H89zM93 99h1v1H93zM76 100h1v1H76zM86 100h1v1H86zM109 100h1v1H109zM118 100h1v1H118zM76 101h1v1H76zM76 102h1v1H76zM82 102h1v1H82zM116 102h1v1H116zM76 103h1v1H76zM76 104h1v1H76zM76 105h1v1H76zM101 105h1v1H101zM76 106h1v1H76zM90 106h1v1H90zM132 106h1v1H132zM76 109h1v1H76zM133 109h1v1H133zM97 113h1v1H97zM69 115h1v1H69zM98 115h1v1H98zM69 116h1v1H69zM69 117h1v1H69zM69 118h1v1H69zM136 118h1v1H136zM69 119h1v1H69zM99 119h1v1H99zM69 120h1v1H69zM69 121h1v1H69zM129 121h1v1H129zM69 122h1v1H69zM79 122h1v1H79zM69 123h1v1H69zM129 123h1v1H129zM69 124h1v1H69zM108 124h1v1H108zM100 126h1v1H100zM140 129h1v1H140zM133 132h1v1H133zM141 138h1v1H141zM144 138h1v1H144zM73 139h1v1H73zM173 150h1v1H173zM173 152h1v1H173zM29 168h2v1H29zM157 171h1v1H157zM39 173h2v1H39zM42 173h1v1H42zM101 174h1v1H101zM114 174h1v1H114zM145 174h1v1H145z"/>
  <path fill="#082050" d="M38 18h2v1H38zM41 18h1v1H41zM149 18h5v1H149zM35 19h1v1H35zM156 19h1v1H156zM33 20h1v1H33zM158 20h1v1H158zM30 22h1v1H30zM162 23h2v1H162zM164 24h1v1H164zM25 26h1v1H25zM166 26h1v1H166zM166 27h2v1H166zM23 28h1v1H23zM168 28h1v1H168zM21 31h1v1H21zM170 31h1v1H170zM20 33h1v1H20zM171 33h1v1H171zM20 34h1v1H20zM19 35h1v1H19zM32 39h1v1H32zM18 42h1v1H18zM166 42h1v1H166zM174 43h1v1H174zM159 45h1v1H159zM160 46h1v1H160zM153 47h1v1H153zM31 49h1v1H31zM33 49h1v1H33zM32 50h1v1H32zM51 51h1v1H51zM54 51h1v1H54zM49 53h1v1H49zM56 53h2v1H56zM93 53h2v1H93zM101 53h1v1H101zM164 53h1v1H164zM92 54h1v1H92zM49 55h1v1H49zM89 56h1v1H89zM101 57h1v1H101zM51 58h1v1H51zM100 58h1v1H100zM98 59h2v1H98zM84 60h1v1H84zM96 60h1v1H96zM83 61h1v1H83zM82 62h1v1H82zM91 63h1v1H91zM68 64h1v1H68zM89 65h1v1H89zM157 66h1v1H157zM71 67h2v1H71zM72 68h1v1H72zM86 68h1v1H86zM64 70h1v1H64zM76 70h1v1H76zM141 71h1v1H141zM67 73h1v1H67zM68 74h1v1H68zM81 75h1v1H81zM72 79h1v1H72zM79 80h1v1H79zM119 81h1v1H119zM78 83h1v1H78zM70 86h1v1H70zM77 87h1v1H77zM44 92h1v1H44zM69 92h1v1H69zM119 92h3v1H119zM43 93h1v1H43zM45 93h1v1H45zM116 93h1v1H116zM124 93h1v1H124zM76 94h1v1H76zM125 94h1v1H125zM113 95h1v1H113zM127 96h1v1H127zM76 97h1v1H76zM111 97h1v1H111zM88 99h1v1H88zM108 101h1v1H108zM122 101h1v1H122zM130 101h1v1H130zM83 102h1v1H83zM108 102h1v1H108zM131 103h1v1H131zM18 104h1v1H18zM106 105h1v1H106zM106 106h1v1H106zM76 107h1v1H76zM88 107h1v1H88zM102 107h1v1H102zM113 107h1v1H113zM76 108h1v1H76zM77 109h1v1H77zM95 109h1v1H95zM76 110h1v1H76zM85 110h1v1H85zM112 110h1v1H112zM84 111h1v1H84zM104 111h1v1H104zM111 112h1v1H111zM69 113h1v1H69zM127 113h1v1H127zM69 114h1v1H69zM127 114h1v1H127zM110 115h1v1H110zM127 115h1v1H127zM68 116h1v1H68zM81 116h1v1H81zM68 117h1v1H68zM68 118h1v1H68zM100 124h1v1H100zM124 124h1v1H124zM100 125h1v1H100zM129 125h2v1H129zM69 126h1v1H69zM98 126h2v1H98zM138 126h1v1H138zM69 127h1v1H69zM98 127h1v1H98zM100 127h1v1H100zM69 128h1v1H69zM100 128h1v1H100zM69 129h1v1H69zM77 129h1v1H77zM141 129h1v1H141zM69 130h1v1H69zM106 130h1v1H106zM132 130h1v1H132zM141 130h1v1H141zM69 131h1v1H69zM102 131h3v1H102zM143 131h2v1H143zM134 133h1v1H134zM135 134h1v1H135zM146 134h1v1H146zM49 135h1v1H49zM69 135h1v1H69zM136 135h1v1H136zM46 136h1v1H46zM67 136h1v1H67zM69 136h1v1H69zM137 136h1v1H137zM46 137h1v1H46zM68 137h2v1H68zM44 138h1v1H44zM65 138h1v1H65zM69 138h2v1H69zM140 138h1v1H140zM74 139h1v1H74zM123 140h1v1H123zM40 141h1v1H40zM124 141h1v1H124zM137 142h1v1H137zM138 143h1v1H138zM39 144h1v1H39zM39 145h1v1H39zM58 145h1v1H58zM40 147h1v1H40zM125 147h1v1H125zM174 147h1v1H174zM124 148h1v1H124zM88 149h1v1H88zM139 150h2v1H139zM173 151h1v1H173zM144 153h1v1H144zM42 156h1v1H42zM53 156h1v1H53zM148 156h1v1H148zM154 156h1v1H154zM44 157h1v1H44zM148 158h1v1H148zM142 159h1v1H142zM148 159h1v1H148zM170 159h1v1H170zM45 160h1v1H45zM143 160h1v1H143zM147 160h1v1H147zM151 160h1v1H151zM142 161h1v1H142zM169 161h1v1H169zM142 162h1v1H142zM107 164h1v1H107zM115 164h1v1H115zM121 166h1v1H121zM132 166h1v1H132zM161 169h1v1H161zM32 170h3v1H32zM159 170h1v1H159zM34 171h2v1H34zM37 172h2v1H37zM155 172h1v1H155zM43 173h2v1H43zM78 173h3v1H78zM82 173h1v1H82zM84 173h1v1H84zM145 173h2v1H145zM148 173h1v1H148zM152 173h1v1H152zM44 174h2v1H44zM147 174h1v1H147z"/>
  <path fill="#102048" d="M122 93h1v1H122zM76 111h1v1H76z"/>
  <path fill="#082850" d="M57 54h1v1H57zM78 67h1v1H78z"/>
  <path fill="#102050" d="M169 29h1v1H169zM18 38h1v1H18zM69 96h1v1H69zM107 104h1v1H107zM114 105h1v1H114zM92 106h1v1H92zM134 113h1v1H134zM82 114h1v1H82zM108 122h1v1H108zM166 165h1v1H166zM165 166h1v1H165z"/>
  <path fill="#102850" d="M162 22h1v1H162zM53 51h1v1H53zM73 69h1v1H73zM74 70h1v1H74zM65 71h1v1H65zM76 93h1v1H76zM129 99h1v1H129zM123 102h1v1H123zM82 103h1v1H82zM81 104h1v1H81zM80 105h1v1H80zM103 109h1v1H103zM69 110h1v1H69zM69 111h1v1H69zM69 112h1v1H69zM80 118h1v1H80zM109 118h1v1H109zM79 121h1v1H79zM130 124h1v1H130zM139 128h1v1H139zM146 135h1v1H146zM18 152h1v1H18zM173 153h1v1H173zM172 156h1v1H172zM171 158h1v1H171zM22 161h1v1H22zM30 169h1v1H30zM158 171h1v1H158zM156 172h1v1H156z"/>
  <path fill="#102858" d="M59 56h1v1H59zM94 61h1v1H94zM62 68h1v1H62zM80 77h1v1H80zM90 99h1v1H90zM92 99h1v1H92zM100 104h1v1H100zM124 104h1v1H124zM112 109h1v1H112zM78 124h1v1H78zM131 127h1v1H131zM107 128h1v1H107zM167 164h1v1H167zM153 173h1v1H153z"/>
  <path fill="#182850" d="M49 54h1v1H49zM142 131h1v1H142z"/>
  <path fill="#103058" d="M91 55h1v1H91zM97 101h1v1H97zM164 167h1v1H164z"/>
  <path fill="#183050" d="M78 108h1v1H78z"/>
  <path fill="#183058" d="M29 22h1v1H29zM171 32h1v1H171zM174 42h1v1H174zM60 57h1v1H60zM84 70h1v1H84zM75 71h1v1H75zM70 88h1v1H70zM69 97h1v1H69zM98 102h1v1H98zM69 108h1v1H69zM69 109h1v1H69zM96 110h1v1H96zM135 117h1v1H135zM136 121h1v1H136zM137 124h1v1H137zM133 131h1v1H133zM76 136h1v1H76zM75 138h1v1H75zM174 148h1v1H174zM170 160h1v1H170zM160 170h1v1H160zM148 174h1v1H148z"/>
  <path fill="#183060" d="M63 69h1v1H63zM139 137h1v1H139z"/>
  <path fill="#203058" d="M172 34h1v1H172zM82 73h1v1H82zM110 99h1v1H110zM95 100h1v1H95zM125 106h1v1H125zM69 107h1v1H69zM83 112h1v1H83zM97 112h1v1H97zM132 129h1v1H132zM43 174h1v1H43z"/>
  <path fill="#203060" d="M173 37h1v1H173zM52 51h1v1H52zM61 58h1v1H61zM61 67h1v1H61zM126 109h1v1H126z"/>
  <path fill="#203860" d="M22 29h1v1H22zM17 46h1v1H17zM88 57h1v1H88zM60 66h1v1H60zM78 82h1v1H78zM17 88h1v1H17zM17 89h1v1H17zM115 94h1v1H115zM69 98h1v1H69zM91 99h1v1H91zM115 103h1v1H115zM69 105h1v1H69zM69 106h1v1H69zM17 108h1v1H17zM99 118h1v1H99zM17 121h1v1H17zM100 123h1v1H100zM142 138h1v1H142zM25 165h1v1H25zM26 166h1v1H26z"/>
  <path fill="#283860" d="M17 44h1v1H17zM17 45h1v1H17zM17 47h1v1H17zM17 48h1v1H17zM17 49h1v1H17zM17 50h1v1H17zM17 51h1v1H17zM17 52h1v1H17zM17 53h1v1H17zM17 54h1v1H17zM17 55h1v1H17zM17 56h1v1H17zM17 57h1v1H17zM17 58h1v1H17zM17 59h1v1H17zM62 59h1v1H62zM17 60h1v1H17zM17 61h1v1H17zM17 62h1v1H17zM17 63h1v1H17zM17 64h1v1H17zM17 65h1v1H17zM17 66h1v1H17zM17 67h1v1H17zM17 68h1v1H17zM17 69h1v1H17zM17 70h1v1H17zM17 71h1v1H17zM17 72h1v1H17zM17 73h1v1H17zM17 74h1v1H17zM17 75h1v1H17zM17 76h1v1H17zM17 77h1v1H17zM17 78h1v1H17zM17 79h1v1H17zM17 80h1v1H17zM17 81h1v1H17zM17 82h1v1H17zM17 83h1v1H17zM17 84h1v1H17zM17 85h1v1H17zM17 86h1v1H17zM17 87h1v1H17zM17 90h1v1H17zM17 91h1v1H17zM17 92h1v1H17zM17 93h1v1H17zM17 94h1v1H17zM17 95h1v1H17zM17 96h1v1H17zM17 97h1v1H17zM17 98h1v1H17zM17 99h1v1H17zM17 100h1v1H17zM17 101h1v1H17zM17 102h1v1H17zM17 103h1v1H17zM99 103h1v1H99zM17 104h1v1H17zM69 104h1v1H69zM17 105h1v1H17zM17 106h1v1H17zM17 107h1v1H17zM17 109h1v1H17zM17 110h1v1H17zM17 111h1v1H17zM17 112h1v1H17zM17 113h1v1H17zM17 114h1v1H17zM110 114h1v1H110zM17 115h1v1H17zM17 116h1v1H17zM128 116h1v1H128zM17 117h1v1H17zM17 118h1v1H17zM17 119h1v1H17zM17 120h1v1H17zM17 122h1v1H17zM17 123h1v1H17zM17 124h1v1H17zM17 125h1v1H17zM17 126h1v1H17zM17 127h1v1H17zM17 128h1v1H17zM17 129h1v1H17zM17 130h1v1H17zM17 131h1v1H17zM17 132h1v1H17zM17 133h1v1H17zM17 134h1v1H17zM17 135h1v1H17zM17 136h1v1H17zM17 137h1v1H17zM17 138h1v1H17zM17 139h1v1H17zM17 140h1v1H17zM17 141h1v1H17zM17 142h1v1H17zM17 143h1v1H17zM17 144h1v1H17zM17 145h1v1H17zM33 171h1v1H33zM38 173h1v1H38z"/>
  <path fill="#204068" d="M145 137h1v1H145z"/>
  <path fill="#284060" d="M157 19h1v1H157zM63 60h1v1H63zM59 65h1v1H59zM71 83h1v1H71zM77 86h1v1H77zM76 92h1v1H76zM69 103h1v1H69zM105 109h1v1H105zM76 135h1v1H76zM17 146h1v1H17zM168 163h1v1H168zM163 168h1v1H163zM35 172h1v1H35z"/>
  <path fill="#284068" d="M159 20h1v1H159zM64 61h1v1H64zM79 66h1v1H79zM69 99h1v1H69zM69 100h1v1H69zM69 101h1v1H69zM69 102h1v1H69zM107 127h1v1H107zM77 128h1v1H77z"/>
  <path fill="#304068" d="M44 17h8v1H44zM54 17h7v1H54zM64 17h75v1H64zM140 17h2v1H140zM144 17h3v1H144zM154 18h1v1H154zM50 52h1v1H50zM77 69h1v1H77zM129 120h1v1H129zM174 149h1v1H174zM20 158h1v1H20zM24 164h1v1H24zM27 167h1v1H27zM149 174h1v1H149z"/>
  <path fill="#304070" d="M143 138h1v1H143z"/>
  <path fill="#304868" d="M52 17h2v1H52zM61 17h3v1H61zM139 17h1v1H139zM142 17h2v1H142zM32 20h1v1H32zM174 41h1v1H174zM87 100h1v1H87zM31 170h1v1H31z"/>
  <path fill="#304870" d="M147 17h1v1H147zM17 43h1v1H17zM58 64h1v1H58zM124 94h1v1H124zM17 147h1v1H17z"/>
  <path fill="#384868" d="M128 98h1v1H128z"/>
  <path fill="#384870" d="M148 17h1v1H148zM34 19h1v1H34zM166 25h1v1H166zM79 79h1v1H79zM118 93h1v1H118zM85 101h1v1H85zM133 110h1v1H133z"/>
  <path fill="#385070" d="M43 17h1v1H43zM37 18h1v1H37zM170 30h1v1H170zM97 52h1v1H97zM93 54h1v1H93zM65 62h1v1H65zM92 62h1v1H92zM131 104h1v1H131zM108 121h1v1H108zM70 137h1v1H70zM42 174h1v1H42z"/>
  <path fill="#405070" d="M161 21h1v1H161zM20 32h1v1H20zM97 59h1v1H97zM94 107h1v1H94zM111 111h1v1H111zM19 156h1v1H19zM21 160h1v1H21z"/>
  <path fill="#405078" d="M18 37h1v1H18zM57 63h1v1H57zM132 107h1v1H132zM144 132h1v1H144zM76 134h1v1H76z"/>
  <path fill="#405878" d="M149 17h1v1H149zM70 89h1v1H70zM89 106h1v1H89zM127 112h1v1H127z"/>
  <path fill="#405880" d="M95 53h1v1H95z"/>
  <path fill="#485878" d="M165 24h1v1H165zM19 34h1v1H19zM17 42h1v1H17zM87 66h1v1H87zM83 71h1v1H83zM72 80h1v1H72zM76 91h1v1H76zM121 93h1v1H121zM106 107h1v1H106zM98 114h1v1H98zM134 114h1v1H134zM100 122h1v1H100zM17 148h1v1H17zM18 153h1v1H18z"/>
  <path fill="#485880" d="M167 26h1v1H167zM109 117h1v1H109z"/>
  <path fill="#486080" d="M42 17h1v1H42z"/>
  <path fill="#506078" d="M101 106h1v1H101zM86 108h1v1H86z"/>
  <path fill="#506080" d="M30 21h1v1H30zM99 52h1v1H99zM101 56h1v1H101zM87 58h1v1H87zM99 58h1v1H99zM66 63h1v1H66zM88 65h1v1H88zM76 71h1v1H76zM111 98h1v1H111zM113 106h1v1H113zM104 112h1v1H104zM81 115h1v1H81zM79 120h1v1H79zM107 126h1v1H107zM101 129h1v1H101zM134 132h1v1H134zM71 138h1v1H71zM23 163h1v1H23zM28 168h1v1H28zM150 174h1v1H150z"/>
  <path fill="#506880" d="M135 118h1v1H135z"/>
  <path fill="#586080" d="M25 25h1v1H25z"/>
  <path fill="#506888" d="M79 107h1v1H79zM130 123h1v1H130z"/>
  <path fill="#586880" d="M168 27h1v1H168zM72 77h1v1H72zM103 110h1v1H103z"/>
  <path fill="#586888" d="M174 40h1v1H174zM101 54h1v1H101zM95 60h1v1H95zM56 62h1v1H56zM109 101h1v1H109zM85 109h1v1H85zM77 110h1v1H77zM78 123h1v1H78zM77 127h1v1H77zM102 130h1v1H102zM174 150h1v1H174zM173 154h1v1H173zM154 173h1v1H154z"/>
  <path fill="#586890" d="M138 127h1v1H138z"/>
  <path fill="#606888" d="M164 23h1v1H164zM77 85h1v1H77zM95 108h1v1H95zM76 133h1v1H76zM145 133h1v1H145zM138 136h1v1H138z"/>
  <path fill="#607088" d="M67 64h1v1H67zM86 67h1v1H86zM130 102h1v1H130zM99 117h1v1H99z"/>
  <path fill="#607090" d="M41 17h1v1H41zM150 17h1v1H150zM26 24h1v1H26zM21 30h1v1H21zM173 36h1v1H173zM17 41h1v1H17zM55 61h1v1H55zM71 84h1v1H71zM119 93h1v1H119zM112 108h1v1H112zM136 122h1v1H136zM131 126h1v1H131zM17 149h1v1H17zM169 162h1v1H169zM162 169h1v1H162z"/>
  <path fill="#687090" d="M80 65h1v1H80zM80 76h1v1H80zM126 108h1v1H126zM41 174h1v1H41z"/>
  <path fill="#687890" d="M24 26h1v1H24zM90 56h1v1H90zM89 64h1v1H89zM71 76h1v1H71zM70 90h1v1H70zM76 90h1v1H76zM120 93h1v1H120zM128 115h1v1H128zM80 117h1v1H80zM129 119h1v1H129zM137 125h1v1H137z"/>
  <path fill="#687898" d="M107 105h1v1H107z"/>
  <path fill="#707890" d="M68 65h1v1H68zM124 103h1v1H124zM82 113h1v1H82z"/>
  <path fill="#707898" d="M114 95h1v1H114zM108 103h1v1H108zM37 173h1v1H37z"/>
  <path fill="#708098" d="M155 18h1v1H155zM98 52h1v1H98zM54 60h1v1H54zM81 74h1v1H81zM78 81h1v1H78zM129 100h1v1H129zM114 104h1v1H114zM93 106h1v1H93zM102 108h1v1H102zM100 121h1v1H100zM107 125h1v1H107z"/>
  <path fill="#788098" d="M70 75h1v1H70zM87 107h1v1H87zM133 111h1v1H133zM76 132h1v1H76zM172 157h1v1H172z"/>
  <path fill="#7880a0" d="M101 55h1v1H101zM86 59h1v1H86zM157 172h1v1H157z"/>
  <path fill="#7888a0" d="M27 23h1v1H27zM85 68h1v1H85zM127 97h1v1H127zM108 120h1v1H108zM140 130h1v1H140z"/>
  <path fill="#8088a0" d="M151 17h1v1H151zM78 68h1v1H78zM84 102h1v1H84zM84 110h1v1H84zM105 110h1v1H105zM76 112h1v1H76zM110 113h1v1H110zM140 137h1v1H140zM171 159h1v1H171z"/>
  <path fill="#8090a0" d="M40 17h1v1H40zM36 18h1v1H36zM53 59h1v1H53zM69 66h1v1H69zM69 74h1v1H69zM120 99h1v1H120zM159 171h1v1H159z"/>
  <path fill="#8090a8" d="M125 95h1v1H125zM125 105h1v1H125z"/>
  <path fill="#8890a8" d="M17 40h1v1H17zM52 58h1v1H52zM93 61h1v1H93zM112 97h1v1H112zM119 99h1v1H119zM127 111h1v1H127zM132 128h1v1H132zM105 130h1v1H105zM17 150h1v1H17zM174 151h1v1H174zM18 154h1v1H18zM151 174h1v1H151z"/>
  <path fill="#8898a8" d="M23 27h1v1H23zM18 36h1v1H18zM70 67h1v1H70zM109 116h1v1H109zM29 169h1v1H29z"/>
  <path fill="#8898b0" d="M134 115h1v1H134z"/>
  <path fill="#9098a8" d="M174 39h1v1H174zM90 63h1v1H90zM79 78h1v1H79zM70 91h1v1H70zM122 100h1v1H122zM135 119h1v1H135z"/>
  <path fill="#9098b0" d="M169 28h1v1H169zM171 31h1v1H171zM172 33h1v1H172zM54 52h1v1H54zM50 56h1v1H50zM81 64h1v1H81zM72 81h1v1H72zM71 85h1v1H71zM76 89h1v1H76zM116 94h1v1H116zM94 100h1v1H94zM117 100h1v1H117zM96 101h1v1H96zM116 101h1v1H116zM97 111h1v1H97zM133 130h1v1H133zM135 133h1v1H135zM22 162h1v1H22z"/>
  <path fill="#90a0b0" d="M163 22h1v1H163zM113 96h1v1H113zM131 105h1v1H131zM77 126h1v1H77z"/>
  <path fill="#98a0b0" d="M158 19h1v1H158zM55 53h1v1H55zM85 60h1v1H85zM82 72h1v1H82zM68 73h1v1H68zM77 84h1v1H77zM88 100h1v1H88zM80 106h1v1H80zM132 108h1v1H132zM106 129h1v1H106zM139 129h1v1H139zM141 131h1v1H141zM70 136h1v1H70zM32 171h1v1H32zM40 174h1v1H40z"/>
  <path fill="#98a0b8" d="M111 110h1v1H111zM107 124h1v1H107zM76 131h1v1H76zM137 135h1v1H137z"/>
  <path fill="#a0a0b8" d="M99 116h1v1H99zM34 172h1v1H34z"/>
  <path fill="#a0a8b8" d="M160 20h1v1H160zM92 55h1v1H92zM67 72h1v1H67zM73 78h1v1H73zM126 96h1v1H126zM129 118h1v1H129zM130 122h1v1H130zM70 135h1v1H70zM74 138h1v1H74zM173 155h1v1H173z"/>
  <path fill="#a0a8c0" d="M51 57h1v1H51zM71 68h1v1H71zM123 94h1v1H123z"/>
  <path fill="#a0b0c0" d="M56 54h1v1H56zM100 105h1v1H100zM100 120h1v1H100zM70 134h1v1H70z"/>
  <path fill="#a8b0c0" d="M152 17h1v1H152zM33 19h1v1H33zM31 20h1v1H31zM28 22h1v1H28zM100 57h1v1H100zM84 61h1v1H84zM83 62h1v1H83zM82 63h1v1H82zM72 69h1v1H72zM84 69h1v1H84zM70 92h1v1H70zM75 100h1v1H75zM75 101h1v1H75zM75 102h1v1H75zM75 103h1v1H75zM75 104h1v1H75zM75 105h1v1H75zM79 119h1v1H79zM78 122h1v1H78zM70 131h1v1H70zM70 132h1v1H70zM143 132h1v1H143zM70 133h1v1H70zM19 157h1v1H19zM155 173h1v1H155z"/>
  <path fill="#b0b0c0" d="M66 71h1v1H66zM75 99h1v1H75zM75 106h1v1H75zM98 113h1v1H98zM131 125h1v1H131zM136 134h1v1H136zM20 159h1v1H20z"/>
  <path fill="#b0b0c8" d="M123 101h1v1H123z"/>
  <path fill="#b0b8c0" d="M170 161h1v1H170z"/>
  <path fill="#b0b8c8" d="M173 35h1v1H173zM94 54h1v1H94zM57 55h1v1H57zM83 103h1v1H83zM75 107h1v1H75zM106 108h1v1H106zM78 109h1v1H78zM96 109h1v1H96zM128 114h1v1H128zM136 123h1v1H136zM101 128h1v1H101zM70 129h1v1H70zM70 130h1v1H70zM75 137h1v1H75zM161 170h1v1H161z"/>
  <path fill="#b8b8c8" d="M39 17h1v1H39zM75 98h1v1H75zM110 100h1v1H110zM75 108h1v1H75z"/>
  <path fill="#b8c0c8" d="M20 31h1v1H20zM100 53h1v1H100zM58 56h1v1H58zM86 101h1v1H86zM126 107h1v1H126zM75 109h1v1H75zM103 111h1v1H103zM108 119h1v1H108zM70 128h1v1H70zM167 165h1v1H167zM166 166h1v1H166z"/>
  <path fill="#b8c0d0" d="M22 28h1v1H22zM98 58h1v1H98zM65 70h1v1H65zM73 70h1v1H73zM77 70h1v1H77zM115 102h1v1H115zM81 105h1v1H81zM133 112h1v1H133zM165 167h1v1H165zM36 173h1v1H36z"/>
  <path fill="#c0c0d0" d="M156 18h1v1H156zM19 33h1v1H19zM17 39h1v1H17zM89 57h1v1H89zM71 86h1v1H71zM76 88h1v1H76zM75 97h1v1H75zM82 104h1v1H82zM75 110h1v1H75zM75 111h1v1H75zM83 111h1v1H83zM75 112h1v1H75zM70 127h1v1H70zM101 127h1v1H101zM17 151h1v1H17zM174 152h1v1H174z"/>
  <path fill="#c0c8d0" d="M96 53h1v1H96zM64 69h1v1H64zM70 126h1v1H70zM145 136h1v1H145zM152 174h1v1H152z"/>
  <path fill="#c8c8d0" d="M70 93h1v1H70z"/>
  <path fill="#c8c8d8" d="M96 59h1v1H96zM79 67h1v1H79zM91 105h1v1H91zM107 123h1v1H107zM70 125h1v1H70zM76 130h1v1H76z"/>
  <path fill="#c8d0d8" d="M174 38h1v1H174zM50 53h1v1H50zM59 57h1v1H59zM60 58h1v1H60zM62 67h1v1H62zM74 71h1v1H74zM75 96h1v1H75zM121 99h1v1H121zM88 106h1v1H88zM105 111h1v1H105zM135 120h1v1H135zM70 124h1v1H70zM77 125h1v1H77zM101 126h1v1H101zM137 126h1v1H137zM144 137h1v1H144z"/>
  <path fill="#d0d0d8" d="M35 18h1v1H35zM63 68h1v1H63zM78 80h1v1H78zM130 103h1v1H130zM112 107h1v1H112zM127 110h1v1H127zM80 116h1v1H80zM134 116h1v1H134z"/>
  <path fill="#d0d0e0" d="M51 52h1v1H51zM75 72h1v1H75zM128 99h1v1H128zM97 102h1v1H97zM75 113h1v1H75zM109 115h1v1H109zM72 138h1v1H72z"/>
  <path fill="#d0d8e0" d="M170 29h1v1H170zM91 62h1v1H91zM77 83h1v1H77zM118 99h1v1H118zM99 104h1v1H99zM113 105h1v1H113zM107 106h1v1H107zM101 107h1v1H101zM77 111h1v1H77zM70 123h1v1H70zM103 130h1v1H103zM141 137h1v1H141zM18 155h1v1H18zM30 170h1v1H30z"/>
  <path fill="#d8d8e0" d="M162 21h1v1H162zM18 35h1v1H18zM94 60h1v1H94zM80 75h1v1H80zM93 100h1v1H93zM109 102h1v1H109zM81 114h1v1H81zM70 122h1v1H70zM21 161h1v1H21zM168 164h1v1H168zM164 168h1v1H164zM39 174h1v1H39z"/>
  <path fill="#d8e0e0" d="M60 65h1v1H60zM75 95h1v1H75zM98 103h1v1H98zM110 112h1v1H110zM26 167h1v1H26z"/>
  <path fill="#d8e0e8" d="M70 121h1v1H70zM24 165h1v1H24z"/>
  <path fill="#e0e0e8" d="M153 17h1v1H153zM61 59h1v1H61zM62 60h1v1H62zM63 61h1v1H63zM61 66h1v1H61zM83 70h1v1H83zM76 72h1v1H76zM72 82h1v1H72zM70 94h1v1H70zM89 100h1v1H89zM129 101h1v1H129zM124 102h1v1H124zM131 106h1v1H131zM132 109h1v1H132zM129 117h1v1H129zM100 119h1v1H100zM70 120h1v1H70zM101 125h1v1H101zM138 128h1v1H138zM104 130h1v1H104zM25 166h1v1H25z"/>
  <path fill="#e0e8e8" d="M88 58h1v1H88zM73 79h1v1H73zM90 105h1v1H90zM102 109h1v1H102zM70 119h1v1H70zM130 121h1v1H130zM134 131h1v1H134zM172 158h1v1H172z"/>
  <path fill="#e0e8f0" d="M108 104h1v1H108z"/>
  <path fill="#e8e8f0" d="M29 21h1v1H29zM91 56h1v1H91zM64 62h1v1H64zM58 63h1v1H58zM71 87h1v1H71zM117 94h1v1H117zM111 99h1v1H111zM114 103h1v1H114zM79 108h1v1H79zM82 112h1v1H82zM99 115h1v1H99zM70 118h1v1H70zM145 134h1v1H145zM73 138h1v1H73zM169 163h1v1H169zM163 169h1v1H163zM158 172h1v1H158zM46 175h100v1H46z"/>
  <path fill="#e8f0f0" d="M38 17h1v1H38zM59 64h1v1H59zM81 73h1v1H81zM79 77h1v1H79zM76 87h1v1H76zM75 94h1v1H75zM92 105h1v1H92zM104 113h1v1H104zM139 136h1v1H139zM146 175h1v1H146z"/>
  <path fill="#f0f0f0" d="M166 24h1v1H166zM167 25h1v1H167zM21 29h1v1H21zM17 38h1v1H17zM175 44h1v1H175zM175 45h1v1H175zM175 46h1v1H175zM175 47h1v1H175zM175 48h1v1H175zM175 49h1v1H175zM175 50h1v1H175zM175 51h1v1H175zM175 52h1v1H175zM175 53h1v1H175zM175 54h1v1H175zM50 55h1v1H50zM175 55h1v1H175zM175 56h1v1H175zM175 57h1v1H175zM175 58h1v1H175zM175 59h1v1H175zM175 60h1v1H175zM175 61h1v1H175zM175 62h1v1H175zM65 63h1v1H65zM175 63h1v1H175zM175 64h1v1H175zM175 65h1v1H175zM175 66h1v1H175zM175 67h1v1H175zM175 68h1v1H175zM175 69h1v1H175zM175 70h1v1H175zM175 71h1v1H175zM175 72h1v1H175zM175 73h1v1H175zM175 74h1v1H175zM175 75h1v1H175zM175 76h1v1H175zM175 77h1v1H175zM175 78h1v1H175zM175 79h1v1H175zM175 80h1v1H175zM175 81h1v1H175zM175 82h1v1H175zM175 83h1v1H175zM175 84h1v1H175zM175 85h1v1H175zM175 86h1v1H175zM175 87h1v1H175zM175 88h1v1H175zM175 89h1v1H175zM175 90h1v1H175zM175 91h1v1H175zM175 92h1v1H175zM175 93h1v1H175zM122 94h1v1H122zM175 94h1v1H175zM70 95h1v1H70zM175 95h1v1H175zM175 96h1v1H175zM175 97h1v1H175zM175 98h1v1H175zM175 99h1v1H175zM175 100h1v1H175zM95 101h1v1H95zM175 101h1v1H175zM175 102h1v1H175zM175 103h1v1H175zM125 104h1v1H125zM175 104h1v1H175zM175 105h1v1H175zM175 106h1v1H175zM95 107h1v1H95zM175 107h1v1H175zM175 108h1v1H175zM111 109h1v1H111zM175 109h1v1H175zM175 110h1v1H175zM175 111h1v1H175zM175 112h1v1H175zM76 113h1v1H76zM175 113h1v1H175zM175 114h1v1H175zM175 115h1v1H175zM70 116h1v1H70zM175 116h1v1H175zM70 117h1v1H70zM175 117h1v1H175zM175 118h1v1H175zM175 119h1v1H175zM175 120h1v1H175zM78 121h1v1H78zM175 121h1v1H175zM107 122h1v1H107zM175 122h1v1H175zM175 123h1v1H175zM131 124h1v1H131zM175 124h1v1H175zM175 125h1v1H175zM175 126h1v1H175zM132 127h1v1H132zM175 127h1v1H175zM175 128h1v1H175zM76 129h1v1H76zM133 129h1v1H133zM175 129h1v1H175zM175 130h1v1H175zM175 131h1v1H175zM175 132h1v1H175zM175 133h1v1H175zM175 134h1v1H175zM175 135h1v1H175zM175 136h1v1H175zM175 137h1v1H175zM175 138h1v1H175zM175 139h1v1H175zM175 140h1v1H175zM175 141h1v1H175zM175 142h1v1H175zM175 143h1v1H175zM175 144h1v1H175zM175 145h1v1H175zM175 146h1v1H175zM173 156h1v1H173zM171 160h1v1H171zM160 171h1v1H160zM156 173h1v1H156zM45 175h1v1H45z"/>
  <path fill="#f0f0f8" d="M172 32h1v1H172zM53 52h1v1H53zM87 65h1v1H87zM80 66h1v1H80zM73 77h1v1H73zM115 95h1v1H115zM94 106h1v1H94zM86 107h1v1H86zM97 110h1v1H97zM128 113h1v1H128zM133 113h1v1H133zM70 115h1v1H70zM79 118h1v1H79zM108 118h1v1H108zM136 124h1v1H136zM142 132h1v1H142zM17 152h1v1H17zM23 164h1v1H23zM27 168h1v1H27zM147 175h1v1H147z"/>
  <path fill="#f0f8f8" d="M168 26h1v1H168zM175 43h1v1H175zM86 66h1v1H86zM78 69h1v1H78z"/>
  <path fill="#f8f8f8" d="M157 18h1v1H157zM32 19h1v1H32zM159 19h1v1H159zM161 20h1v1H161zM165 23h1v1H165zM25 24h1v1H25zM24 25h1v1H24zM171 30h1v1H171zM173 34h1v1H173zM174 37h1v1H174zM175 42h1v1H175zM16 44h1v1H16zM16 45h1v1H16zM16 46h1v1H16zM16 48h1v1H16zM16 49h1v1H16zM16 50h1v1H16zM16 51h1v1H16zM16 52h1v1H16zM97 53h1v1H97zM99 53h1v1H99zM16 56h1v1H16zM87 59h1v1H87zM55 60h1v1H55zM56 61h1v1H56zM92 61h1v1H92zM16 62h1v1H16zM57 62h1v1H57zM89 63h1v1H89zM66 64h1v1H66zM88 64h1v1H88zM16 65h1v1H16zM67 65h1v1H67zM16 67h1v1H16zM16 68h1v1H16zM16 69h1v1H16zM82 71h1v1H82zM16 72h1v1H16zM16 74h1v1H16zM16 75h1v1H16zM71 75h1v1H71zM72 76h1v1H72zM16 77h1v1H16zM16 78h1v1H16zM16 80h1v1H16zM16 81h1v1H16zM77 82h1v1H77zM16 86h1v1H16zM16 87h1v1H16zM16 88h1v1H16zM71 88h1v1H71zM16 89h1v1H16zM16 90h1v1H16zM75 93h1v1H75zM121 94h1v1H121zM124 95h1v1H124zM70 96h1v1H70zM125 96h1v1H125zM16 98h1v1H16zM127 98h1v1H127zM122 99h1v1H122zM16 100h1v1H16zM90 100h1v1H90zM92 100h1v1H92zM16 101h1v1H16zM87 101h1v1H87zM16 102h1v1H16zM16 103h1v1H16zM16 105h1v1H16zM100 106h1v1H100zM126 106h1v1H126zM80 107h1v1H80zM85 108h1v1H85zM16 109h1v1H16zM84 109h1v1H84zM106 109h1v1H106zM127 109h1v1H127zM70 110h1v1H70zM102 110h1v1H102zM132 110h1v1H132zM16 111h1v1H16zM70 111h1v1H70zM70 112h1v1H70zM98 112h1v1H98zM103 112h1v1H103zM70 113h1v1H70zM70 114h1v1H70zM109 114h1v1H109zM16 115h1v1H16zM16 116h1v1H16zM134 117h1v1H134zM16 118h1v1H16zM16 121h1v1H16zM135 121h1v1H135zM16 122h1v1H16zM77 124h1v1H77zM101 124h1v1H101zM106 126h1v1H106zM16 128h1v1H16zM106 128h1v1H106zM16 129h1v1H16zM102 129h1v1H102zM16 133h1v1H16zM144 133h1v1H144zM16 134h1v1H16zM16 135h1v1H16zM75 135h1v1H75zM145 135h1v1H145zM75 136h1v1H75zM16 137h1v1H16zM71 137h1v1H71zM16 138h1v1H16zM16 139h1v1H16zM16 140h1v1H16zM16 142h1v1H16zM16 143h1v1H16zM16 144h1v1H16zM175 147h1v1H175zM174 153h1v1H174zM19 158h1v1H19zM22 163h1v1H22zM28 169h1v1H28zM31 171h1v1H31zM33 172h1v1H33zM35 173h1v1H35zM153 174h1v1H153zM44 175h1v1H44zM148 175h2v1H148z"/>
  <path fill="#f8f8ff" d="M44 16h2v1H44zM48 16h3v1H48zM54 16h1v1H54zM56 16h2v1H56zM59 16h2v1H59zM62 16h1v1H62zM64 16h2v1H64zM67 16h1v1H67zM69 16h2v1H69zM72 16h5v1H72zM79 16h5v1H79zM85 16h2v1H85zM88 16h4v1H88zM93 16h1v1H93zM96 16h3v1H96zM100 16h4v1H100zM107 16h12v1H107zM120 16h2v1H120zM123 16h2v1H123zM126 16h1v1H126zM128 16h2v1H128zM132 16h4v1H132zM137 16h6v1H137zM144 16h2v1H144zM149 16h1v1H149zM34 18h1v1H34zM30 20h1v1H30zM26 23h1v1H26zM23 26h1v1H23zM175 41h1v1H175zM16 47h1v1H16zM16 53h1v1H16zM54 53h1v1H54zM16 54h1v1H16zM50 54h1v1H50zM95 54h1v1H95zM16 55h1v1H16zM93 55h1v1H93zM100 56h1v1H100zM16 57h1v1H16zM16 58h1v1H16zM16 59h1v1H16zM16 60h1v1H16zM86 60h1v1H86zM16 61h1v1H16zM16 63h1v1H16zM16 64h1v1H16zM16 66h1v1H16zM85 67h1v1H85zM70 68h1v1H70zM84 68h1v1H84zM16 70h1v1H16zM16 71h1v1H16zM16 73h1v1H16zM16 76h1v1H16zM16 79h1v1H16zM78 79h1v1H78zM16 82h1v1H16zM16 83h1v1H16zM72 83h1v1H72zM16 84h1v1H16zM16 85h1v1H16zM76 86h1v1H76zM16 91h1v1H16zM16 92h1v1H16zM75 92h1v1H75zM16 93h1v1H16zM16 94h1v1H16zM118 94h1v1H118zM120 94h1v1H120zM16 95h1v1H16zM16 96h1v1H16zM16 97h1v1H16zM70 97h1v1H70zM112 98h1v1H112zM16 99h1v1H16zM94 101h1v1H94zM110 101h1v1H110zM85 102h1v1H85zM16 104h1v1H16zM89 105h1v1H89zM108 105h1v1H108zM16 106h1v1H16zM16 107h1v1H16zM131 107h1v1H131zM16 108h1v1H16zM70 109h1v1H70zM16 110h1v1H16zM110 111h1v1H110zM16 112h1v1H16zM105 112h1v1H105zM128 112h1v1H128zM16 113h1v1H16zM16 114h1v1H16zM133 114h1v1H133zM129 116h1v1H129zM16 117h1v1H16zM108 117h1v1H108zM100 118h1v1H100zM16 119h1v1H16zM16 120h1v1H16zM130 120h1v1H130zM107 121h1v1H107zM16 123h1v1H16zM101 123h1v1H101zM16 124h1v1H16zM16 125h1v1H16zM16 126h1v1H16zM16 127h1v1H16zM106 127h1v1H106zM16 130h1v1H16zM16 131h1v1H16zM16 132h1v1H16zM135 132h1v1H135zM16 136h1v1H16zM140 136h1v1H140zM142 137h1v1H142zM16 141h1v1H16zM16 145h1v1H16zM16 146h1v1H16zM16 147h1v1H16zM175 148h1v1H175zM175 149h1v1H175zM17 153h1v1H17zM18 156h1v1H18zM20 160h1v1H20zM38 174h1v1H38zM42 175h2v1H42z"/>
  <path fill="#fff8f8" d="M88 101h1v1H88zM83 110h1v1H83z"/>
  <path fill="#f8ffff" d="M46 16h2v1H46zM53 16h1v1H53zM55 16h1v1H55zM58 16h1v1H58zM61 16h1v1H61zM63 16h1v1H63zM66 16h1v1H66zM68 16h1v1H68zM71 16h1v1H71zM78 16h1v1H78zM84 16h1v1H84zM87 16h1v1H87zM92 16h1v1H92zM94 16h2v1H94zM99 16h1v1H99zM104 16h3v1H104zM119 16h1v1H119zM122 16h1v1H122zM125 16h1v1H125zM127 16h1v1H127zM131 16h1v1H131zM146 16h2v1H146zM154 17h1v1H154zM164 22h1v1H164zM169 27h1v1H169zM16 43h1v1H16zM97 58h1v1H97zM130 104h1v1H130zM78 120h1v1H78zM76 127h1v1H76zM137 127h1v1H137zM143 137h1v1H143z"/>
  <path fill="#fff8ff" d="M143 16h1v1H143zM67 71h1v1H67zM70 74h1v1H70zM71 89h1v1H71zM127 99h1v1H127zM83 104h1v1H83zM113 104h1v1H113zM95 106h1v1H95zM109 113h1v1H109zM133 128h1v1H133zM138 129h1v1H138z"/>
  <path fill="#ffffff" d="M0 0h192v1H0zM0 1h192v1H0zM0 2h192v1H0zM0 3h192v1H0zM0 4h192v1H0zM0 5h192v1H0zM0 6h192v1H0zM0 7h192v1H0zM0 8h192v1H0zM0 9h192v1H0zM0 10h192v1H0zM0 11h192v1H0zM0 12h192v1H0zM0 13h192v1H0zM0 14h192v1H0zM0 15h192v1H0zM0 16h44v1H0zM51 16h2v1H51zM77 16h1v1H77zM130 16h1v1H130zM136 16h1v1H136zM148 16h1v1H148zM150 16h42v1H150zM0 17h38v1H0zM155 17h37v1H155zM0 18h34v1H0zM158 18h34v1H158zM0 19h32v1H0zM160 19h32v1H160zM0 20h30v1H0zM162 20h30v1H162zM0 21h29v1H0zM163 21h29v1H163zM0 22h28v1H0zM165 22h27v1H165zM0 23h26v1H0zM166 23h26v1H166zM0 24h25v1H0zM167 24h25v1H167zM0 25h24v1H0zM168 25h24v1H168zM0 26h23v1H0zM169 26h23v1H169zM0 27h23v1H0zM170 27h22v1H170zM0 28h22v1H0zM170 28h22v1H170zM0 29h21v1H0zM171 29h21v1H171zM0 30h21v1H0zM172 30h20v1H172zM0 31h20v1H0zM172 31h20v1H172zM0 32h20v1H0zM173 32h19v1H173zM0 33h19v1H0zM173 33h19v1H173zM0 34h19v1H0zM174 34h18v1H174zM0 35h18v1H0zM174 35h18v1H174zM0 36h18v1H0zM174 36h18v1H174zM0 37h18v1H0zM175 37h17v1H175zM0 38h17v1H0zM175 38h17v1H175zM0 39h17v1H0zM175 39h17v1H175zM0 40h17v1H0zM175 40h17v1H175zM0 41h17v1H0zM176 41h16v1H176zM0 42h17v1H0zM176 42h16v1H176zM0 43h16v1H0zM176 43h16v1H176zM0 44h16v1H0zM176 44h16v1H176zM0 45h16v1H0zM176 45h16v1H176zM0 46h16v1H0zM176 46h16v1H176zM0 47h16v1H0zM176 47h16v1H176zM0 48h16v1H0zM176 48h16v1H176zM0 49h16v1H0zM176 49h16v1H176zM0 50h16v1H0zM176 50h16v1H176zM0 51h16v1H0zM176 51h16v1H176zM0 52h16v1H0zM52 52h1v1H52zM176 52h16v1H176zM0 53h16v1H0zM51 53h3v1H51zM98 53h1v1H98zM176 53h16v1H176zM0 54h16v1H0zM51 54h5v1H51zM96 54h5v1H96zM176 54h16v1H176zM0 55h16v1H0zM51 55h6v1H51zM94 55h7v1H94zM176 55h16v1H176zM0 56h16v1H0zM51 56h7v1H51zM92 56h8v1H92zM176 56h16v1H176zM0 57h16v1H0zM52 57h7v1H52zM90 57h10v1H90zM176 57h16v1H176zM0 58h16v1H0zM53 58h7v1H53zM89 58h8v1H89zM176 58h16v1H176zM0 59h16v1H0zM54 59h7v1H54zM88 59h8v1H88zM176 59h16v1H176zM0 60h16v1H0zM56 60h6v1H56zM87 60h7v1H87zM176 60h16v1H176zM0 61h16v1H0zM57 61h6v1H57zM85 61h7v1H85zM176 61h16v1H176zM0 62h16v1H0zM58 62h6v1H58zM84 62h7v1H84zM176 62h16v1H176zM0 63h16v1H0zM59 63h6v1H59zM83 63h6v1H83zM176 63h16v1H176zM0 64h16v1H0zM60 64h6v1H60zM82 64h6v1H82zM176 64h16v1H176zM0 65h16v1H0zM61 65h6v1H61zM81 65h6v1H81zM176 65h16v1H176zM0 66h16v1H0zM62 66h7v1H62zM81 66h5v1H81zM176 66h16v1H176zM0 67h16v1H0zM63 67h7v1H63zM80 67h5v1H80zM176 67h16v1H176zM0 68h16v1H0zM64 68h6v1H64zM79 68h5v1H79zM176 68h16v1H176zM0 69h16v1H0zM65 69h7v1H65zM79 69h5v1H79zM176 69h16v1H176zM0 70h16v1H0zM66 70h7v1H66zM78 70h5v1H78zM176 70h16v1H176zM0 71h16v1H0zM68 71h6v1H68zM77 71h5v1H77zM176 71h16v1H176zM0 72h16v1H0zM68 72h7v1H68zM77 72h5v1H77zM176 72h16v1H176zM0 73h16v1H0zM69 73h12v1H69zM176 73h16v1H176zM0 74h16v1H0zM71 74h10v1H71zM176 74h16v1H176zM0 75h16v1H0zM72 75h8v1H72zM176 75h16v1H176zM0 76h16v1H0zM73 76h7v1H73zM176 76h16v1H176zM0 77h16v1H0zM74 77h5v1H74zM176 77h16v1H176zM0 78h16v1H0zM74 78h5v1H74zM176 78h16v1H176zM0 79h16v1H0zM74 79h4v1H74zM176 79h16v1H176zM0 80h16v1H0zM73 80h5v1H73zM176 80h16v1H176zM0 81h16v1H0zM73 81h5v1H73zM176 81h16v1H176zM0 82h16v1H0zM73 82h4v1H73zM176 82h16v1H176zM0 83h16v1H0zM73 83h4v1H73zM176 83h16v1H176zM0 84h16v1H0zM72 84h5v1H72zM176 84h16v1H176zM0 85h16v1H0zM72 85h5v1H72zM176 85h16v1H176zM0 86h16v1H0zM72 86h4v1H72zM176 86h16v1H176zM0 87h16v1H0zM72 87h4v1H72zM176 87h16v1H176zM0 88h16v1H0zM72 88h4v1H72zM176 88h16v1H176zM0 89h16v1H0zM72 89h4v1H72zM176 89h16v1H176zM0 90h16v1H0zM71 90h5v1H71zM176 90h16v1H176zM0 91h16v1H0zM71 91h5v1H71zM176 91h16v1H176zM0 92h16v1H0zM71 92h4v1H71zM176 92h16v1H176zM0 93h16v1H0zM71 93h4v1H71zM176 93h16v1H176zM0 94h16v1H0zM71 94h4v1H71zM119 94h1v1H119zM176 94h16v1H176zM0 95h16v1H0zM71 95h4v1H71zM116 95h8v1H116zM176 95h16v1H176zM0 96h16v1H0zM71 96h4v1H71zM114 96h11v1H114zM176 96h16v1H176zM0 97h16v1H0zM71 97h4v1H71zM113 97h14v1H113zM176 97h16v1H176zM0 98h16v1H0zM70 98h5v1H70zM113 98h14v1H113zM176 98h16v1H176zM0 99h16v1H0zM70 99h5v1H70zM112 99h6v1H112zM123 99h4v1H123zM176 99h16v1H176zM0 100h16v1H0zM70 100h5v1H70zM91 100h1v1H91zM111 100h6v1H111zM123 100h6v1H123zM176 100h16v1H176zM0 101h16v1H0zM70 101h5v1H70zM89 101h5v1H89zM111 101h5v1H111zM124 101h5v1H124zM176 101h16v1H176zM0 102h16v1H0zM70 102h5v1H70zM86 102h11v1H86zM110 102h5v1H110zM125 102h5v1H125zM176 102h16v1H176zM0 103h16v1H0zM70 103h5v1H70zM84 103h14v1H84zM109 103h5v1H109zM125 103h5v1H125zM176 103h16v1H176zM0 104h16v1H0zM70 104h5v1H70zM84 104h15v1H84zM109 104h4v1H109zM126 104h4v1H126zM176 104h16v1H176zM0 105h16v1H0zM70 105h5v1H70zM82 105h7v1H82zM93 105h7v1H93zM109 105h4v1H109zM126 105h5v1H126zM176 105h16v1H176zM0 106h16v1H0zM70 106h5v1H70zM81 106h7v1H81zM96 106h4v1H96zM108 106h5v1H108zM127 106h4v1H127zM176 106h16v1H176zM0 107h16v1H0zM70 107h5v1H70zM81 107h5v1H81zM96 107h5v1H96zM107 107h5v1H107zM127 107h4v1H127zM176 107h16v1H176zM0 108h16v1H0zM70 108h5v1H70zM80 108h5v1H80zM96 108h6v1H96zM107 108h5v1H107zM127 108h5v1H127zM176 108h16v1H176zM0 109h16v1H0zM71 109h4v1H71zM79 109h5v1H79zM97 109h5v1H97zM107 109h4v1H107zM128 109h4v1H128zM176 109h16v1H176zM0 110h16v1H0zM71 110h4v1H71zM78 110h5v1H78zM98 110h4v1H98zM106 110h5v1H106zM128 110h4v1H128zM176 110h16v1H176zM0 111h16v1H0zM71 111h4v1H71zM78 111h5v1H78zM98 111h5v1H98zM106 111h4v1H106zM128 111h5v1H128zM176 111h16v1H176zM0 112h16v1H0zM71 112h4v1H71zM77 112h5v1H77zM99 112h4v1H99zM106 112h4v1H106zM129 112h4v1H129zM176 112h16v1H176zM0 113h16v1H0zM71 113h4v1H71zM77 113h5v1H77zM99 113h5v1H99zM105 113h4v1H105zM129 113h4v1H129zM176 113h16v1H176zM0 114h16v1H0zM71 114h10v1H71zM99 114h10v1H99zM129 114h4v1H129zM176 114h16v1H176zM0 115h16v1H0zM71 115h10v1H71zM100 115h9v1H100zM129 115h5v1H129zM176 115h16v1H176zM0 116h16v1H0zM71 116h9v1H71zM100 116h9v1H100zM130 116h4v1H130zM176 116h16v1H176zM0 117h16v1H0zM71 117h9v1H71zM100 117h8v1H100zM130 117h4v1H130zM176 117h16v1H176zM0 118h16v1H0zM71 118h8v1H71zM101 118h7v1H101zM130 118h5v1H130zM176 118h16v1H176zM0 119h16v1H0zM71 119h8v1H71zM101 119h7v1H101zM130 119h5v1H130zM176 119h16v1H176zM0 120h16v1H0zM71 120h7v1H71zM101 120h7v1H101zM131 120h4v1H131zM176 120h16v1H176zM0 121h16v1H0zM71 121h7v1H71zM101 121h6v1H101zM131 121h4v1H131zM176 121h16v1H176zM0 122h16v1H0zM71 122h7v1H71zM101 122h6v1H101zM131 122h5v1H131zM176 122h16v1H176zM0 123h16v1H0zM71 123h7v1H71zM102 123h5v1H102zM131 123h5v1H131zM176 123h16v1H176zM0 124h16v1H0zM71 124h6v1H71zM102 124h5v1H102zM132 124h4v1H132zM176 124h16v1H176zM0 125h16v1H0zM71 125h6v1H71zM102 125h5v1H102zM132 125h5v1H132zM176 125h16v1H176zM0 126h16v1H0zM71 126h6v1H71zM102 126h4v1H102zM132 126h5v1H132zM176 126h16v1H176zM0 127h16v1H0zM71 127h5v1H71zM102 127h4v1H102zM133 127h4v1H133zM176 127h16v1H176zM0 128h16v1H0zM71 128h6v1H71zM102 128h4v1H102zM134 128h4v1H134zM176 128h16v1H176zM0 129h16v1H0zM71 129h5v1H71zM103 129h3v1H103zM134 129h4v1H134zM176 129h16v1H176zM0 130h16v1H0zM71 130h5v1H71zM134 130h6v1H134zM176 130h16v1H176zM0 131h16v1H0zM71 131h5v1H71zM135 131h6v1H135zM176 131h16v1H176zM0 132h16v1H0zM71 132h5v1H71zM136 132h6v1H136zM176 132h16v1H176zM0 133h16v1H0zM71 133h5v1H71zM136 133h8v1H136zM176 133h16v1H176zM0 134h16v1H0zM71 134h5v1H71zM137 134h8v1H137zM176 134h16v1H176zM0 135h16v1H0zM71 135h4v1H71zM138 135h7v1H138zM176 135h16v1H176zM0 136h16v1H0zM71 136h4v1H71zM141 136h4v1H141zM176 136h16v1H176zM0 137h16v1H0zM72 137h3v1H72zM176 137h16v1H176zM0 138h16v1H0zM176 138h16v1H176zM0 139h16v1H0zM176 139h16v1H176zM0 140h16v1H0zM176 140h16v1H176zM0 141h16v1H0zM176 141h16v1H176zM0 142h16v1H0zM176 142h16v1H176zM0 143h16v1H0zM176 143h16v1H176zM0 144h16v1H0zM176 144h16v1H176zM0 145h16v1H0zM176 145h16v1H176zM0 146h16v1H0zM176 146h16v1H176zM0 147h16v1H0zM176 147h16v1H176zM0 148h17v1H0zM176 148h16v1H176zM0 149h17v1H0zM176 149h16v1H176zM0 150h17v1H0zM175 150h17v1H175zM0 151h17v1H0zM175 151h17v1H175zM0 152h17v1H0zM175 152h17v1H175zM0 153h17v1H0zM175 153h17v1H175zM0 154h18v1H0zM174 154h18v1H174zM0 155h18v1H0zM174 155h18v1H174zM0 156h18v1H0zM174 156h18v1H174zM0 157h19v1H0zM173 157h19v1H173zM0 158h19v1H0zM173 158h19v1H173zM0 159h20v1H0zM172 159h20v1H172zM0 160h20v1H0zM172 160h20v1H172zM0 161h21v1H0zM171 161h21v1H171zM0 162h22v1H0zM170 162h22v1H170zM0 163h22v1H0zM170 163h22v1H170zM0 164h23v1H0zM169 164h23v1H169zM0 165h24v1H0zM168 165h24v1H168zM0 166h25v1H0zM167 166h25v1H167zM0 167h26v1H0zM166 167h26v1H166zM0 168h27v1H0zM165 168h27v1H165zM0 169h28v1H0zM164 169h28v1H164zM0 170h30v1H0zM162 170h30v1H162zM0 171h31v1H0zM161 171h31v1H161zM0 172h33v1H0zM159 172h33v1H159zM0 173h35v1H0zM157 173h35v1H157zM0 174h38v1H0zM154 174h38v1H154zM0 175h42v1H0zM150 175h42v1H150zM0 176h192v1H0zM0 177h192v1H0zM0 178h192v1H0zM0 179h192v1H0zM0 180h192v1H0zM0 181h192v1H0zM0 182h192v1H0zM0 183h192v1H0zM0 184h192v1H0zM0 185h192v1H0zM0 186h192v1H0zM0 187h192v1H0zM0 188h192v1H0zM0 189h192v1H0zM0 190h192v1H0zM0 191h192v1H0z"/>
</svg>
