<svg xmlns="http://www.w3.org/2000/svg" viewBox="0 0 192 192" role="img">
  <desc>Generated vector SVG from education.png</desc>
  <path fill="#001838" d="M106 134h1v1H106z"/>
  <path fill="#001840" d="M156 25h1v1H156zM164 34h1v1H164zM169 44h1v1H169zM49 47h1v1H49zM47 49h1v1H47zM56 51h1v1H56zM99 51h1v1H99zM104 52h1v1H104zM22 55h1v1H22zM47 55h1v1H47zM58 55h1v1H58zM104 58h1v1H104zM102 59h3v1H102zM120 59h1v1H120zM119 60h2v1H119zM123 62h1v1H123zM51 63h1v1H51zM113 63h1v1H113zM51 64h1v1H51zM77 64h1v1H77zM114 64h1v1H114zM114 65h2v1H114zM91 66h1v1H91zM95 66h1v1H95zM78 67h1v1H78zM89 67h1v1H89zM92 67h2v1H92zM55 68h1v1H55zM122 68h1v1H122zM90 69h2v1H90zM119 69h1v1H119zM85 70h1v1H85zM99 70h1v1H99zM103 70h3v1H103zM119 70h2v1H119zM85 71h2v1H85zM119 71h3v1H119zM86 72h2v1H86zM100 72h1v1H100zM119 72h2v1H119zM87 73h1v1H87zM119 73h1v1H119zM119 74h1v1H119zM61 75h1v1H61zM114 75h1v1H114zM119 75h1v1H119zM119 76h3v1H119zM77 77h1v1H77zM64 78h1v1H64zM82 78h2v1H82zM114 78h1v1H114zM79 79h3v1H79zM81 81h1v1H81zM113 81h1v1H113zM113 82h1v1H113zM71 84h1v1H71zM70 85h2v1H70zM72 86h2v1H72zM89 86h1v1H89zM117 86h1v1H117zM74 88h1v1H74zM73 89h3v1H73zM75 91h1v1H75zM77 91h1v1H77zM87 91h1v1H87zM87 92h1v1H87zM76 95h1v1H76zM85 96h1v1H85zM76 97h1v1H76zM84 102h1v1H84zM75 105h1v1H75zM123 105h1v1H123zM75 106h1v1H75zM129 106h1v1H129zM100 107h1v1H100zM118 107h1v1H118zM87 108h1v1H87zM89 108h1v1H89zM117 108h1v1H117zM132 108h1v1H132zM89 109h1v1H89zM87 110h1v1H87zM89 110h1v1H89zM103 110h2v1H103zM115 110h1v1H115zM89 111h1v1H89zM85 112h1v1H85zM107 112h2v1H107zM85 113h4v1H85zM111 113h3v1H111zM136 113h1v1H136zM85 114h3v1H85zM110 114h3v1H110zM84 115h2v1H84zM109 115h1v1H109zM127 115h1v1H127zM85 116h1v1H85zM127 116h1v1H127zM126 118h1v1H126zM95 119h1v1H95zM100 119h2v1H100zM129 119h1v1H129zM93 120h1v1H93zM100 120h3v1H100zM120 120h1v1H120zM93 121h2v1H93zM101 121h1v1H101zM120 121h2v1H120zM139 121h1v1H139zM92 123h1v1H92zM103 123h1v1H103zM103 124h2v1H103zM104 125h1v1H104zM131 125h1v1H131zM87 129h1v1H87zM142 130h1v1H142zM145 134h1v1H145zM22 137h1v1H22zM107 137h1v1H107zM22 138h1v1H22zM22 139h1v1H22zM22 140h1v1H22zM22 145h1v1H22zM25 153h1v1H25zM28 156h1v1H28zM27 157h1v1H27zM152 167h1v1H152z"/>
  <path fill="#001848" d="M50 21h1v1H50zM54 21h3v1H54zM58 21h2v1H58zM68 21h7v1H68zM84 21h1v1H84zM89 21h1v1H89zM96 21h1v1H96zM103 21h1v1H103zM106 21h1v1H106zM116 21h2v1H116zM119 21h1v1H119zM121 21h1v1H121zM123 21h1v1H123zM55 22h2v1H55zM70 22h2v1H70zM73 22h2v1H73zM84 22h1v1H84zM116 22h1v1H116zM74 23h1v1H74zM80 23h1v1H80zM87 23h1v1H87zM114 23h1v1H114zM138 23h1v1H138zM45 24h2v1H45zM70 24h1v1H70zM83 24h1v1H83zM85 24h1v1H85zM136 24h1v1H136zM138 24h1v1H138zM151 24h3v1H151zM37 25h1v1H37zM40 25h1v1H40zM117 25h1v1H117zM123 25h1v1H123zM151 25h4v1H151zM38 26h1v1H38zM40 26h1v1H40zM43 26h3v1H43zM151 26h1v1H151zM153 26h2v1H153zM91 27h1v1H91zM153 27h1v1H153zM158 27h1v1H158zM157 28h1v1H157zM31 29h2v1H31zM160 29h1v1H160zM32 30h2v1H32zM38 30h1v1H38zM29 31h2v1H29zM37 31h3v1H37zM162 31h1v1H162zM30 32h2v1H30zM37 32h2v1H37zM162 32h1v1H162zM27 33h1v1H27zM30 33h2v1H30zM37 33h1v1H37zM40 33h1v1H40zM29 34h1v1H29zM32 34h1v1H32zM28 35h3v1H28zM32 35h1v1H32zM164 35h1v1H164zM98 37h1v1H98zM166 37h1v1H166zM97 38h1v1H97zM100 40h1v1H100zM24 41h1v1H24zM168 42h1v1H168zM24 43h1v1H24zM50 43h1v1H50zM48 44h4v1H48zM49 45h3v1H49zM50 46h2v1H50zM122 46h1v1H122zM53 47h1v1H53zM41 48h1v1H41zM107 49h1v1H107zM58 50h1v1H58zM101 50h1v1H101zM105 50h2v1H105zM41 51h1v1H41zM57 51h3v1H57zM98 51h1v1H98zM104 51h1v1H104zM22 52h1v1H22zM59 52h1v1H59zM22 53h1v1H22zM22 54h1v1H22zM58 54h1v1H58zM81 54h1v1H81zM88 54h1v1H88zM90 54h1v1H90zM23 55h1v1H23zM46 55h1v1H46zM87 55h3v1H87zM118 55h1v1H118zM22 56h1v1H22zM83 56h7v1H83zM22 57h1v1H22zM24 57h1v1H24zM83 57h1v1H83zM85 57h2v1H85zM88 57h1v1H88zM116 57h1v1H116zM118 57h1v1H118zM103 58h1v1H103zM116 58h1v1H116zM119 58h2v1H119zM60 59h3v1H60zM100 59h2v1H100zM119 59h1v1H119zM121 59h2v1H121zM62 60h2v1H62zM104 60h1v1H104zM63 61h1v1H63zM65 61h1v1H65zM103 61h1v1H103zM131 61h1v1H131zM63 62h1v1H63zM65 62h1v1H65zM104 62h1v1H104zM124 62h1v1H124zM66 63h1v1H66zM105 63h2v1H105zM64 64h1v1H64zM89 64h2v1H89zM97 64h1v1H97zM106 64h3v1H106zM113 64h1v1H113zM126 64h1v1H126zM50 65h1v1H50zM76 65h2v1H76zM95 65h1v1H95zM106 65h1v1H106zM42 66h1v1H42zM66 66h2v1H66zM76 66h1v1H76zM94 66h1v1H94zM99 66h1v1H99zM106 66h3v1H106zM53 67h1v1H53zM70 67h1v1H70zM75 67h1v1H75zM77 67h1v1H77zM105 67h4v1H105zM54 68h1v1H54zM68 68h1v1H68zM73 68h1v1H73zM78 68h1v1H78zM89 68h2v1H89zM100 68h4v1H100zM105 68h4v1H105zM55 69h1v1H55zM100 69h8v1H100zM55 70h1v1H55zM73 70h1v1H73zM101 70h2v1H101zM121 70h1v1H121zM165 70h1v1H165zM53 71h2v1H53zM56 71h1v1H56zM84 71h1v1H84zM54 72h1v1H54zM56 72h1v1H56zM85 72h1v1H85zM101 72h1v1H101zM121 72h2v1H121zM51 73h1v1H51zM54 73h3v1H54zM75 73h1v1H75zM77 73h1v1H77zM120 73h1v1H120zM22 74h1v1H22zM53 74h1v1H53zM55 74h2v1H55zM120 74h1v1H120zM123 74h1v1H123zM166 74h2v1H166zM22 75h2v1H22zM53 75h2v1H53zM120 75h4v1H120zM167 75h2v1H167zM23 76h1v1H23zM56 76h1v1H56zM78 76h3v1H78zM122 76h1v1H122zM168 76h1v1H168zM22 77h2v1H22zM79 77h1v1H79zM119 77h4v1H119zM95 78h2v1H95zM102 78h2v1H102zM121 78h3v1H121zM127 78h1v1H127zM165 78h1v1H165zM63 79h2v1H63zM121 79h3v1H121zM160 79h1v1H160zM22 80h1v1H22zM63 80h1v1H63zM66 80h1v1H66zM121 80h1v1H121zM123 80h3v1H123zM168 80h2v1H168zM66 81h1v1H66zM109 81h1v1H109zM123 81h1v1H123zM125 81h2v1H125zM66 82h1v1H66zM93 82h2v1H93zM124 82h1v1H124zM69 83h1v1H69zM93 83h2v1H93zM128 83h1v1H128zM165 83h2v1H165zM23 84h1v1H23zM68 84h3v1H68zM91 85h1v1H91zM22 86h1v1H22zM69 86h3v1H69zM90 86h2v1H90zM166 86h1v1H166zM70 87h2v1H70zM73 87h1v1H73zM89 87h2v1H89zM118 87h1v1H118zM125 87h1v1H125zM128 87h1v1H128zM22 88h1v1H22zM71 88h3v1H71zM71 89h2v1H71zM71 90h1v1H71zM73 90h2v1H73zM87 90h2v1H87zM167 90h1v1H167zM73 91h2v1H73zM76 91h1v1H76zM88 91h2v1H88zM167 91h1v1H167zM25 92h1v1H25zM74 92h3v1H74zM88 92h1v1H88zM26 93h1v1H26zM88 93h1v1H88zM62 94h2v1H62zM76 94h1v1H76zM166 94h1v1H166zM62 95h1v1H62zM75 95h1v1H75zM61 96h1v1H61zM74 96h1v1H74zM73 97h2v1H73zM86 97h1v1H86zM66 98h1v1H66zM72 98h1v1H72zM74 98h1v1H74zM86 98h3v1H86zM58 99h1v1H58zM73 99h1v1H73zM88 99h1v1H88zM65 100h2v1H65zM70 100h1v1H70zM88 100h2v1H88zM121 100h1v1H121zM68 101h3v1H68zM64 102h1v1H64zM67 102h1v1H67zM69 102h2v1H69zM86 102h1v1H86zM98 102h1v1H98zM102 103h1v1H102zM65 104h1v1H65zM102 104h1v1H102zM125 104h2v1H125zM103 105h1v1H103zM167 105h1v1H167zM70 106h1v1H70zM74 106h1v1H74zM86 106h2v1H86zM89 106h4v1H89zM96 106h1v1H96zM114 106h1v1H114zM130 106h1v1H130zM71 107h3v1H71zM86 107h3v1H86zM90 107h1v1H90zM92 107h1v1H92zM94 107h2v1H94zM101 107h1v1H101zM113 107h1v1H113zM117 107h1v1H117zM167 107h2v1H167zM70 108h1v1H70zM85 108h2v1H85zM88 108h1v1H88zM90 108h1v1H90zM92 108h4v1H92zM98 108h4v1H98zM104 108h2v1H104zM112 108h1v1H112zM116 108h1v1H116zM137 108h1v1H137zM53 109h2v1H53zM56 109h1v1H56zM72 109h1v1H72zM85 109h4v1H85zM90 109h5v1H90zM100 109h1v1H100zM104 109h3v1H104zM112 109h1v1H112zM135 109h3v1H135zM22 110h1v1H22zM56 110h1v1H56zM66 110h1v1H66zM70 110h1v1H70zM74 110h1v1H74zM85 110h2v1H85zM88 110h1v1H88zM90 110h2v1H90zM105 110h1v1H105zM113 110h2v1H113zM134 110h2v1H134zM137 110h2v1H137zM166 110h1v1H166zM168 110h1v1H168zM22 111h1v1H22zM32 111h3v1H32zM52 111h1v1H52zM55 111h2v1H55zM70 111h5v1H70zM85 111h4v1H85zM90 111h1v1H90zM110 111h2v1H110zM114 111h1v1H114zM136 111h1v1H136zM140 111h1v1H140zM164 111h1v1H164zM166 111h1v1H166zM169 111h1v1H169zM22 112h1v1H22zM31 112h1v1H31zM63 112h1v1H63zM71 112h4v1H71zM86 112h3v1H86zM164 112h4v1H164zM49 113h1v1H49zM70 113h1v1H70zM72 113h1v1H72zM110 113h1v1H110zM165 113h2v1H165zM84 114h1v1H84zM109 114h1v1H109zM138 114h1v1H138zM165 114h2v1H165zM111 115h1v1H111zM140 115h2v1H140zM157 115h1v1H157zM165 115h3v1H165zM84 116h1v1H84zM111 116h1v1H111zM139 116h4v1H139zM167 116h1v1H167zM59 117h1v1H59zM125 117h2v1H125zM140 117h2v1H140zM98 118h1v1H98zM122 118h4v1H122zM140 118h1v1H140zM22 119h1v1H22zM25 119h1v1H25zM66 119h1v1H66zM99 119h1v1H99zM121 119h6v1H121zM128 119h1v1H128zM141 119h2v1H141zM64 120h1v1H64zM96 120h4v1H96zM121 120h1v1H121zM123 120h2v1H123zM128 120h1v1H128zM65 121h1v1H65zM67 121h1v1H67zM70 121h1v1H70zM98 121h1v1H98zM100 121h1v1H100zM140 121h2v1H140zM65 122h1v1H65zM71 122h1v1H71zM73 122h2v1H73zM92 122h1v1H92zM94 122h2v1H94zM99 122h3v1H99zM121 122h1v1H121zM130 122h1v1H130zM140 122h1v1H140zM69 123h1v1H69zM72 123h3v1H72zM93 123h1v1H93zM95 123h1v1H95zM100 123h1v1H100zM119 123h1v1H119zM68 124h1v1H68zM71 124h4v1H71zM93 124h3v1H93zM101 124h2v1H101zM70 125h5v1H70zM94 125h1v1H94zM101 125h3v1H101zM72 126h3v1H72zM91 126h1v1H91zM95 126h1v1H95zM102 126h2v1H102zM70 127h3v1H70zM91 127h1v1H91zM103 127h1v1H103zM72 128h2v1H72zM88 128h2v1H88zM92 128h1v1H92zM72 129h3v1H72zM89 129h1v1H89zM72 130h3v1H72zM87 130h1v1H87zM89 130h1v1H89zM88 131h2v1H88zM115 131h1v1H115zM143 131h1v1H143zM24 132h1v1H24zM30 132h1v1H30zM72 132h2v1H72zM89 132h1v1H89zM130 132h1v1H130zM133 132h1v1H133zM22 133h4v1H22zM72 133h1v1H72zM23 134h3v1H23zM59 134h1v1H59zM22 135h3v1H22zM86 135h1v1H86zM100 135h1v1H100zM23 136h1v1H23zM86 136h1v1H86zM152 136h2v1H152zM23 137h2v1H23zM106 137h1v1H106zM150 137h1v1H150zM23 138h2v1H23zM102 138h1v1H102zM106 138h1v1H106zM166 138h1v1H166zM23 139h2v1H23zM74 139h1v1H74zM112 139h3v1H112zM150 139h1v1H150zM167 139h1v1H167zM23 140h1v1H23zM102 140h2v1H102zM111 140h4v1H111zM150 140h1v1H150zM22 141h1v1H22zM26 141h1v1H26zM83 141h1v1H83zM102 141h2v1H102zM26 142h1v1H26zM103 142h1v1H103zM169 142h1v1H169zM23 143h1v1H23zM24 145h2v1H24zM24 146h2v1H24zM23 147h2v1H23zM25 148h1v1H25zM24 149h1v1H24zM93 151h1v1H93zM26 152h1v1H26zM95 152h2v1H95zM166 152h1v1H166zM26 153h1v1H26zM28 155h1v1H28zM29 156h1v1H29zM160 156h1v1H160zM28 157h2v1H28zM30 158h2v1H30zM29 159h2v1H29zM161 159h1v1H161zM94 160h1v1H94zM159 160h1v1H159zM93 161h1v1H93zM159 161h1v1H159zM159 162h1v1H159zM68 166h1v1H68zM87 166h1v1H87zM90 166h1v1H90zM114 166h1v1H114zM117 166h2v1H117zM150 166h1v1H150zM152 166h1v1H152zM87 167h1v1H87zM89 167h5v1H89zM113 167h1v1H113zM115 167h3v1H115zM120 167h1v1H120zM135 167h1v1H135zM150 167h2v1H150zM67 168h2v1H67zM84 168h1v1H84zM88 168h4v1H88zM93 168h2v1H93zM114 168h1v1H114zM116 168h3v1H116z"/>
  <path fill="#002040" d="M169 46h1v1H169zM52 47h1v1H52zM56 52h1v1H56zM99 52h1v1H99zM57 55h1v1H57zM49 59h1v1H49zM114 63h1v1H114zM52 64h1v1H52zM86 65h1v1H86zM87 66h1v1H87zM82 69h1v1H82zM104 71h1v1H104zM59 73h1v1H59zM61 76h1v1H61zM67 80h1v1H67zM118 86h1v1H118zM76 96h1v1H76zM85 97h1v1H85zM75 104h1v1H75zM84 104h1v1H84zM124 105h1v1H124zM120 106h1v1H120zM96 119h1v1H96zM119 120h1v1H119zM141 127h1v1H141zM105 128h1v1H105zM105 129h1v1H105zM148 136h1v1H148zM84 138h1v1H84zM166 153h1v1H166zM166 154h1v1H166zM157 164h1v1H157zM154 166h1v1H154z"/>
  <path fill="#002048" d="M44 21h6v1H44zM51 21h3v1H51zM57 21h1v1H57zM60 21h8v1H60zM75 21h9v1H75zM85 21h4v1H85zM90 21h6v1H90zM97 21h6v1H97zM104 21h2v1H104zM107 21h9v1H107zM118 21h1v1H118zM120 21h1v1H120zM122 21h1v1H122zM124 21h24v1H124zM41 22h14v1H41zM57 22h13v1H57zM72 22h1v1H72zM75 22h9v1H75zM85 22h31v1H85zM117 22h34v1H117zM39 23h35v1H39zM75 23h5v1H75zM81 23h6v1H81zM88 23h26v1H88zM115 23h23v1H115zM139 23h14v1H139zM37 24h8v1H37zM47 24h23v1H47zM71 24h12v1H71zM84 24h1v1H84zM86 24h50v1H86zM137 24h1v1H137zM139 24h12v1H139zM154 24h1v1H154zM35 25h2v1H35zM38 25h2v1H38zM41 25h76v1H41zM118 25h5v1H118zM124 25h27v1H124zM155 25h1v1H155zM34 26h4v1H34zM39 26h1v1H39zM41 26h2v1H41zM46 26h105v1H46zM152 26h1v1H152zM155 26h3v1H155zM33 27h58v1H33zM92 27h61v1H92zM154 27h4v1H154zM32 28h125v1H32zM158 28h2v1H158zM33 29h127v1H33zM30 30h2v1H30zM34 30h4v1H34zM39 30h123v1H39zM31 31h6v1H31zM40 31h122v1H40zM28 32h2v1H28zM32 32h5v1H32zM39 32h123v1H39zM163 32h1v1H163zM28 33h2v1H28zM32 33h5v1H32zM38 33h2v1H38zM41 33h124v1H41zM27 34h2v1H27zM30 34h2v1H30zM33 34h131v1H33zM165 34h1v1H165zM26 35h2v1H26zM31 35h1v1H31zM33 35h131v1H33zM165 35h1v1H165zM25 36h142v1H25zM25 37h73v1H25zM99 37h67v1H99zM25 38h72v1H25zM98 38h70v1H98zM24 39h144v1H24zM24 40h76v1H24zM101 40h67v1H101zM23 41h1v1H23zM25 41h144v1H25zM23 42h145v1H23zM23 43h1v1H23zM25 43h25v1H25zM51 43h118v1H51zM23 44h25v1H23zM52 44h117v1H52zM22 45h27v1H22zM52 45h118v1H52zM22 46h28v1H22zM52 46h70v1H52zM123 46h46v1H123zM22 47h27v1H22zM50 47h2v1H50zM54 47h116v1H54zM22 48h19v1H22zM42 48h7v1H42zM54 48h116v1H54zM22 49h25v1H22zM55 49h52v1H55zM108 49h62v1H108zM22 50h25v1H22zM56 50h2v1H56zM59 50h42v1H59zM102 50h3v1H102zM107 50h63v1H107zM22 51h19v1H22zM42 51h5v1H42zM60 51h38v1H60zM100 51h4v1H100zM105 51h65v1H105zM23 52h24v1H23zM57 52h2v1H57zM60 52h39v1H60zM103 52h1v1H103zM105 52h65v1H105zM23 53h24v1H23zM57 53h41v1H57zM106 53h64v1H106zM23 54h25v1H23zM57 54h1v1H57zM59 54h22v1H59zM82 54h6v1H82zM89 54h1v1H89zM91 54h4v1H91zM107 54h63v1H107zM24 55h22v1H24zM59 55h28v1H59zM90 55h4v1H90zM109 55h9v1H109zM119 55h51v1H119zM23 56h25v1H23zM58 56h25v1H58zM90 56h2v1H90zM111 56h59v1H111zM23 57h1v1H23zM25 57h24v1H25zM59 57h24v1H59zM84 57h1v1H84zM87 57h1v1H87zM89 57h1v1H89zM100 57h2v1H100zM113 57h3v1H113zM117 57h1v1H117zM119 57h51v1H119zM22 58h27v1H22zM59 58h29v1H59zM98 58h5v1H98zM115 58h1v1H115zM117 58h2v1H117zM121 58h49v1H121zM22 59h27v1H22zM63 59h23v1H63zM96 59h4v1H96zM105 59h2v1H105zM117 59h2v1H117zM123 59h47v1H123zM22 60h28v1H22zM61 60h1v1H61zM64 60h19v1H64zM94 60h10v1H94zM105 60h4v1H105zM121 60h49v1H121zM22 61h29v1H22zM61 61h2v1H61zM64 61h1v1H64zM66 61h16v1H66zM92 61h11v1H92zM104 61h7v1H104zM122 61h9v1H122zM132 61h38v1H132zM22 62h29v1H22zM62 62h1v1H62zM64 62h1v1H64zM66 62h13v1H66zM90 62h14v1H90zM105 62h8v1H105zM125 62h45v1H125zM22 63h29v1H22zM63 63h3v1H63zM67 63h11v1H67zM88 63h17v1H88zM107 63h6v1H107zM125 63h45v1H125zM22 64h29v1H22zM65 64h12v1H65zM85 64h4v1H85zM91 64h6v1H91zM98 64h8v1H98zM109 64h4v1H109zM115 64h2v1H115zM125 64h1v1H125zM127 64h43v1H127zM22 65h28v1H22zM51 65h2v1H51zM65 65h11v1H65zM87 65h8v1H87zM96 65h10v1H96zM107 65h7v1H107zM116 65h1v1H116zM125 65h45v1H125zM22 66h20v1H22zM43 66h11v1H43zM68 66h8v1H68zM77 66h1v1H77zM88 66h3v1H88zM92 66h2v1H92zM96 66h3v1H96zM100 66h6v1H100zM109 66h6v1H109zM124 66h46v1H124zM22 67h31v1H22zM54 67h1v1H54zM67 67h3v1H67zM71 67h4v1H71zM76 67h1v1H76zM79 67h1v1H79zM90 67h2v1H90zM94 67h11v1H94zM109 67h4v1H109zM124 67h46v1H124zM22 68h32v1H22zM69 68h4v1H69zM74 68h4v1H74zM79 68h3v1H79zM88 68h1v1H88zM91 68h2v1H91zM98 68h2v1H98zM104 68h1v1H104zM109 68h2v1H109zM121 68h1v1H121zM123 68h47v1H123zM22 69h33v1H22zM69 69h13v1H69zM87 69h3v1H87zM99 69h1v1H99zM108 69h1v1H108zM120 69h50v1H120zM22 70h33v1H22zM56 70h1v1H56zM70 70h3v1H70zM74 70h11v1H74zM86 70h4v1H86zM100 70h1v1H100zM106 70h1v1H106zM122 70h43v1H122zM166 70h4v1H166zM22 71h31v1H22zM55 71h1v1H55zM57 71h1v1H57zM71 71h13v1H71zM87 71h2v1H87zM100 71h4v1H100zM122 71h48v1H122zM22 72h32v1H22zM55 72h1v1H55zM57 72h2v1H57zM72 72h13v1H72zM102 72h1v1H102zM114 72h1v1H114zM123 72h47v1H123zM22 73h29v1H22zM52 73h2v1H52zM57 73h2v1H57zM73 73h2v1H73zM76 73h1v1H76zM78 73h9v1H78zM111 73h4v1H111zM121 73h49v1H121zM23 74h30v1H23zM54 74h1v1H54zM57 74h4v1H57zM74 74h13v1H74zM109 74h6v1H109zM121 74h2v1H121zM124 74h42v1H124zM168 74h2v1H168zM24 75h29v1H24zM55 75h6v1H55zM75 75h11v1H75zM107 75h7v1H107zM124 75h43v1H124zM169 75h1v1H169zM22 76h1v1H22zM24 76h32v1H24zM57 76h4v1H57zM62 76h1v1H62zM76 76h2v1H76zM81 76h4v1H81zM96 76h1v1H96zM105 76h10v1H105zM123 76h45v1H123zM169 76h1v1H169zM24 77h40v1H24zM78 77h1v1H78zM80 77h5v1H80zM96 77h4v1H96zM102 77h13v1H102zM123 77h47v1H123zM22 78h42v1H22zM78 78h4v1H78zM97 78h5v1H97zM104 78h10v1H104zM120 78h1v1H120zM124 78h3v1H124zM128 78h37v1H128zM166 78h4v1H166zM22 79h41v1H22zM65 79h1v1H65zM82 79h1v1H82zM94 79h20v1H94zM120 79h1v1H120zM124 79h36v1H124zM161 79h9v1H161zM23 80h40v1H23zM64 80h2v1H64zM80 80h3v1H80zM93 80h21v1H93zM120 80h1v1H120zM122 80h1v1H122zM126 80h42v1H126zM22 81h44v1H22zM67 81h2v1H67zM92 81h17v1H92zM110 81h3v1H110zM121 81h2v1H121zM124 81h1v1H124zM127 81h43v1H127zM22 82h44v1H22zM67 82h3v1H67zM92 82h1v1H92zM95 82h18v1H95zM121 82h3v1H121zM125 82h45v1H125zM22 83h47v1H22zM70 83h1v1H70zM91 83h2v1H91zM95 83h19v1H95zM121 83h7v1H121zM129 83h36v1H129zM167 83h3v1H167zM22 84h1v1H22zM24 84h44v1H24zM90 84h24v1H90zM120 84h50v1H120zM22 85h48v1H22zM72 85h1v1H72zM90 85h1v1H90zM92 85h23v1H92zM119 85h51v1H119zM23 86h46v1H23zM92 86h25v1H92zM119 86h47v1H119zM167 86h3v1H167zM22 87h48v1H22zM72 87h1v1H72zM74 87h1v1H74zM91 87h27v1H91zM119 87h6v1H119zM126 87h2v1H126zM129 87h41v1H129zM23 88h48v1H23zM88 88h82v1H88zM22 89h49v1H22zM88 89h82v1H88zM22 90h49v1H22zM72 90h1v1H72zM75 90h2v1H75zM89 90h78v1H89zM168 90h2v1H168zM22 91h51v1H22zM90 91h77v1H90zM168 91h2v1H168zM22 92h3v1H22zM26 92h48v1H26zM77 92h1v1H77zM89 92h81v1H89zM22 93h4v1H22zM27 93h50v1H27zM86 93h2v1H86zM89 93h81v1H89zM22 94h40v1H22zM64 94h12v1H64zM86 94h80v1H86zM167 94h3v1H167zM22 95h40v1H22zM63 95h12v1H63zM86 95h84v1H86zM22 96h39v1H22zM62 96h12v1H62zM75 96h1v1H75zM86 96h84v1H86zM22 97h51v1H22zM75 97h1v1H75zM87 97h83v1H87zM22 98h44v1H22zM67 98h5v1H67zM73 98h1v1H73zM75 98h1v1H75zM85 98h1v1H85zM89 98h81v1H89zM22 99h36v1H22zM59 99h14v1H59zM74 99h2v1H74zM85 99h3v1H85zM89 99h81v1H89zM22 100h43v1H22zM67 100h3v1H67zM71 100h5v1H71zM85 100h3v1H85zM90 100h31v1H90zM122 100h48v1H122zM22 101h46v1H22zM71 101h5v1H71zM85 101h85v1H85zM22 102h42v1H22zM65 102h2v1H65zM68 102h1v1H68zM71 102h5v1H71zM85 102h1v1H85zM87 102h11v1H87zM99 102h71v1H99zM22 103h54v1H22zM84 103h18v1H84zM103 103h67v1H103zM22 104h43v1H22zM66 104h9v1H66zM85 104h17v1H85zM103 104h22v1H103zM127 104h43v1H127zM22 105h53v1H22zM84 105h19v1H84zM104 105h19v1H104zM125 105h42v1H125zM168 105h2v1H168zM22 106h48v1H22zM71 106h3v1H71zM84 106h2v1H84zM88 106h1v1H88zM93 106h3v1H93zM97 106h17v1H97zM115 106h5v1H115zM131 106h39v1H131zM22 107h49v1H22zM74 107h1v1H74zM84 107h2v1H84zM89 107h1v1H89zM91 107h1v1H91zM93 107h1v1H93zM96 107h4v1H96zM102 107h11v1H102zM114 107h3v1H114zM132 107h35v1H132zM169 107h1v1H169zM22 108h48v1H22zM71 108h4v1H71zM84 108h1v1H84zM91 108h1v1H91zM96 108h2v1H96zM102 108h2v1H102zM106 108h6v1H106zM113 108h3v1H113zM133 108h4v1H133zM138 108h32v1H138zM22 109h31v1H22zM55 109h1v1H55zM57 109h15v1H57zM73 109h2v1H73zM84 109h1v1H84zM95 109h2v1H95zM101 109h3v1H101zM107 109h5v1H107zM113 109h4v1H113zM134 109h1v1H134zM138 109h32v1H138zM23 110h33v1H23zM57 110h9v1H57zM67 110h3v1H67zM71 110h3v1H71zM84 110h1v1H84zM92 110h1v1H92zM106 110h7v1H106zM136 110h1v1H136zM139 110h27v1H139zM167 110h1v1H167zM169 110h1v1H169zM23 111h9v1H23zM35 111h17v1H35zM53 111h2v1H53zM57 111h13v1H57zM84 111h1v1H84zM105 111h5v1H105zM112 111h2v1H112zM135 111h1v1H135zM137 111h3v1H137zM141 111h23v1H141zM165 111h1v1H165zM167 111h2v1H167zM23 112h8v1H23zM32 112h31v1H32zM64 112h7v1H64zM84 112h1v1H84zM89 112h1v1H89zM109 112h5v1H109zM136 112h28v1H136zM168 112h2v1H168zM22 113h27v1H22zM50 113h20v1H50zM71 113h1v1H71zM73 113h2v1H73zM84 113h1v1H84zM108 113h2v1H108zM137 113h28v1H137zM167 113h3v1H167zM22 114h53v1H22zM124 114h2v1H124zM137 114h1v1H137zM139 114h26v1H139zM167 114h3v1H167zM22 115h53v1H22zM86 115h1v1H86zM110 115h1v1H110zM112 115h1v1H112zM123 115h4v1H123zM137 115h3v1H137zM142 115h15v1H142zM158 115h7v1H158zM168 115h2v1H168zM22 116h53v1H22zM110 116h1v1H110zM122 116h5v1H122zM138 116h1v1H138zM143 116h24v1H143zM168 116h2v1H168zM22 117h37v1H22zM60 117h15v1H60zM84 117h1v1H84zM111 117h1v1H111zM121 117h4v1H121zM127 117h2v1H127zM138 117h2v1H138zM142 117h28v1H142zM22 118h53v1H22zM96 118h2v1H96zM99 118h2v1H99zM121 118h1v1H121zM127 118h2v1H127zM138 118h2v1H138zM141 118h29v1H141zM23 119h2v1H23zM26 119h40v1H26zM67 119h8v1H67zM97 119h2v1H97zM120 119h1v1H120zM127 119h1v1H127zM139 119h2v1H139zM143 119h27v1H143zM22 120h42v1H22zM65 120h10v1H65zM94 120h2v1H94zM122 120h1v1H122zM125 120h3v1H125zM129 120h1v1H129zM139 120h31v1H139zM22 121h43v1H22zM66 121h1v1H66zM68 121h2v1H68zM71 121h4v1H71zM95 121h3v1H95zM99 121h1v1H99zM102 121h1v1H102zM119 121h1v1H119zM122 121h9v1H122zM142 121h28v1H142zM22 122h43v1H22zM66 122h5v1H66zM72 122h1v1H72zM93 122h1v1H93zM96 122h3v1H96zM102 122h2v1H102zM119 122h2v1H119zM122 122h8v1H122zM141 122h29v1H141zM22 123h47v1H22zM70 123h2v1H70zM91 123h1v1H91zM94 123h1v1H94zM96 123h4v1H96zM101 123h2v1H101zM118 123h1v1H118zM120 123h11v1H120zM140 123h30v1H140zM22 124h46v1H22zM69 124h2v1H69zM90 124h3v1H90zM96 124h5v1H96zM118 124h14v1H118zM140 124h30v1H140zM22 125h48v1H22zM90 125h4v1H90zM95 125h6v1H95zM117 125h14v1H117zM141 125h29v1H141zM22 126h50v1H22zM89 126h2v1H89zM92 126h3v1H92zM96 126h6v1H96zM104 126h1v1H104zM117 126h15v1H117zM141 126h29v1H141zM22 127h48v1H22zM73 127h2v1H73zM88 127h3v1H88zM92 127h11v1H92zM104 127h1v1H104zM117 127h16v1H117zM142 127h28v1H142zM22 128h50v1H22zM74 128h1v1H74zM90 128h2v1H90zM93 128h12v1H93zM116 128h17v1H116zM142 128h28v1H142zM22 129h50v1H22zM88 129h1v1H88zM90 129h15v1H90zM116 129h17v1H116zM142 129h28v1H142zM22 130h50v1H22zM88 130h1v1H88zM90 130h16v1H90zM116 130h17v1H116zM143 130h27v1H143zM22 131h53v1H22zM87 131h1v1H87zM90 131h16v1H90zM116 131h18v1H116zM144 131h26v1H144zM22 132h2v1H22zM25 132h5v1H25zM31 132h41v1H31zM74 132h1v1H74zM86 132h3v1H86zM90 132h16v1H90zM115 132h15v1H115zM131 132h2v1H131zM143 132h27v1H143zM26 133h46v1H26zM73 133h2v1H73zM86 133h20v1H86zM115 133h20v1H115zM144 133h26v1H144zM22 134h1v1H22zM26 134h33v1H26zM60 134h15v1H60zM85 134h21v1H85zM115 134h20v1H115zM146 134h24v1H146zM25 135h50v1H25zM85 135h1v1H85zM87 135h13v1H87zM101 135h6v1H101zM115 135h20v1H115zM147 135h23v1H147zM22 136h1v1H22zM24 136h51v1H24zM85 136h1v1H85zM87 136h20v1H87zM114 136h22v1H114zM149 136h3v1H149zM154 136h16v1H154zM25 137h50v1H25zM84 137h22v1H84zM114 137h23v1H114zM149 137h1v1H149zM151 137h19v1H151zM25 138h50v1H25zM85 138h17v1H85zM103 138h3v1H103zM107 138h2v1H107zM112 138h25v1H112zM149 138h17v1H149zM167 138h3v1H167zM25 139h49v1H25zM84 139h28v1H84zM115 139h23v1H115zM149 139h1v1H149zM151 139h16v1H151zM168 139h2v1H168zM24 140h52v1H24zM83 140h19v1H83zM104 140h7v1H104zM115 140h24v1H115zM149 140h1v1H149zM151 140h19v1H151zM23 141h3v1H23zM27 141h49v1H27zM84 141h18v1H84zM104 141h36v1H104zM149 141h21v1H149zM22 142h4v1H22zM27 142h50v1H27zM82 142h21v1H82zM104 142h38v1H104zM148 142h21v1H148zM22 143h1v1H22zM24 143h120v1H24zM146 143h24v1H146zM22 144h148v1H22zM23 145h1v1H23zM26 145h144v1H26zM23 146h1v1H23zM26 146h143v1H26zM25 147h144v1H25zM23 148h2v1H23zM26 148h143v1H26zM23 149h1v1H23zM25 149h144v1H25zM24 150h144v1H24zM24 151h69v1H24zM94 151h74v1H94zM25 152h1v1H25zM27 152h68v1H27zM97 152h69v1H97zM167 152h1v1H167zM27 153h139v1H27zM26 154h140v1H26zM26 155h2v1H26zM29 155h137v1H29zM27 156h1v1H27zM30 156h130v1H30zM161 156h4v1H161zM30 157h135v1H30zM28 158h2v1H28zM32 158h132v1H32zM31 159h130v1H31zM162 159h1v1H162zM30 160h64v1H30zM95 160h64v1H95zM160 160h2v1H160zM31 161h62v1H31zM94 161h65v1H94zM160 161h1v1H160zM32 162h127v1H32zM33 163h126v1H33zM34 164h123v1H34zM36 165h120v1H36zM37 166h31v1H37zM69 166h18v1H69zM88 166h2v1H88zM91 166h23v1H91zM115 166h2v1H115zM119 166h31v1H119zM151 166h1v1H151zM153 166h1v1H153zM39 167h48v1H39zM88 167h1v1H88zM94 167h19v1H94zM114 167h1v1H114zM118 167h2v1H118zM121 167h14v1H121zM136 167h14v1H136zM42 168h25v1H42zM69 168h15v1H69zM85 168h3v1H85zM92 168h1v1H92zM95 168h19v1H95zM115 168h1v1H115zM119 168h32v1H119zM45 169h102v1H45z"/>
  <path fill="#082040" d="M64 77h1v1H64zM95 77h1v1H95zM75 107h1v1H75zM91 111h1v1H91zM111 138h1v1H111z"/>
  <path fill="#002050" d="M105 53h1v1H105zM95 54h1v1H95zM102 57h1v1H102zM91 61h1v1H91zM121 61h1v1H121zM87 63h1v1H87zM123 67h1v1H123zM83 69h1v1H83zM113 72h1v1H113zM97 76h2v1H97zM104 76h1v1H104zM131 107h1v1H131zM126 114h1v1H126z"/>
  <path fill="#082048" d="M50 20h92v1H50zM153 23h1v1H153zM160 28h1v1H160zM161 29h1v1H161zM162 30h1v1H162zM24 38h1v1H24zM168 40h1v1H168zM47 50h1v1H47zM47 53h1v1H47zM58 57h1v1H58zM60 60h1v1H60zM56 69h1v1H56zM57 70h1v1H57zM90 70h1v1H90zM59 72h1v1H59zM88 72h1v1H88zM61 74h1v1H61zM85 76h1v1H85zM65 78h1v1H65zM66 79h1v1H66zM83 79h1v1H83zM75 88h1v1H75zM84 101h1v1H84zM75 108h1v1H75zM93 110h1v1H93zM106 112h1v1H106zM114 112h1v1H114zM107 113h1v1H107zM108 114h1v1H108zM98 117h1v1H98zM94 119h1v1H94zM92 121h1v1H92zM89 125h1v1H89zM133 130h1v1H133zM86 131h1v1H86zM113 137h1v1H113zM109 138h1v1H109zM77 142h1v1H77zM81 142h1v1H81zM144 143h2v1H144zM169 146h1v1H169zM25 154h1v1H25zM156 165h1v1H156zM41 168h1v1H41z"/>
  <path fill="#082050" d="M83 60h1v1H83zM79 62h1v1H79zM63 76h1v1H63zM133 109h1v1H133zM110 117h1v1H110z"/>
  <path fill="#102048" d="M148 21h1v1H148zM159 27h1v1H159zM31 28h1v1H31zM22 44h1v1H22zM93 68h1v1H93zM97 68h1v1H97zM62 75h1v1H62zM91 82h1v1H91zM76 89h1v1H76zM121 106h1v1H121zM99 109h1v1H99zM120 118h1v1H120zM129 118h1v1H129zM118 122h1v1H118zM135 135h1v1H135zM75 139h1v1H75z"/>
  <path fill="#082850" d="M99 57h1v1H99zM97 58h1v1H97zM95 59h1v1H95zM93 60h1v1H93zM89 62h1v1H89zM117 64h1v1H117zM85 65h1v1H85zM108 74h1v1H108zM106 75h1v1H106zM100 77h1v1H100zM114 79h1v1H114zM120 83h1v1H120zM114 84h1v1H114zM115 85h1v1H115z"/>
  <path fill="#102050" d="M168 150h1v1H168z"/>
  <path fill="#102848" d="M76 98h1v1H76zM75 109h1v1H75zM123 114h1v1H123zM122 115h1v1H122zM91 122h1v1H91zM106 133h1v1H106zM148 141h1v1H148z"/>
  <path fill="#102850" d="M49 20h1v1H49zM142 20h1v1H142zM43 21h1v1H43zM38 23h1v1H38zM32 27h1v1H32zM30 29h1v1H30zM29 30h1v1H29zM163 31h1v1H163zM26 34h1v1H26zM23 40h1v1H23zM58 71h1v1H58zM89 71h1v1H89zM60 73h1v1H60zM94 78h1v1H94zM119 107h1v1H119zM75 110h1v1H75zM115 111h1v1H115zM113 114h1v1H113zM128 116h1v1H128zM137 116h1v1H137zM111 118h1v1H111zM140 125h1v1H140zM141 128h1v1H141zM76 141h1v1H76zM140 141h1v1H140zM147 142h1v1H147zM24 152h1v1H24zM165 156h1v1H165zM162 160h1v1H162zM160 162h1v1H160zM35 165h1v1H35zM147 169h1v1H147z"/>
  <path fill="#083058" d="M103 57h1v1H103zM107 59h1v1H107zM112 72h1v1H112zM120 81h1v1H120z"/>
  <path fill="#102858" d="M135 112h1v1H135z"/>
  <path fill="#182850" d="M155 24h1v1H155zM66 67h1v1H66zM97 109h1v1H97zM75 111h1v1H75zM75 112h1v1H75zM75 113h1v1H75zM75 114h1v1H75zM75 115h1v1H75zM75 116h1v1H75zM75 117h1v1H75zM75 118h1v1H75zM84 118h1v1H84zM95 118h1v1H95zM75 119h1v1H75zM75 121h1v1H75zM75 122h1v1H75zM75 123h1v1H75zM75 124h1v1H75zM75 125h1v1H75zM75 126h1v1H75zM75 127h1v1H75zM116 127h1v1H116zM75 128h1v1H75zM75 129h1v1H75zM75 130h1v1H75zM75 131h1v1H75zM75 132h1v1H75zM75 133h1v1H75zM75 134h1v1H75zM75 135h1v1H75zM75 136h1v1H75zM75 137h1v1H75zM75 138h1v1H75zM110 138h1v1H110zM44 169h1v1H44z"/>
  <path fill="#083060" d="M111 61h1v1H111zM124 63h1v1H124zM110 73h1v1H110z"/>
  <path fill="#083858" d="M88 67h1v1H88zM101 77h1v1H101z"/>
  <path fill="#183050" d="M151 22h1v1H151zM48 56h1v1H48zM51 62h1v1H51zM53 65h1v1H53zM64 65h1v1H64zM65 66h1v1H65zM68 69h1v1H68zM98 109h1v1H98zM136 114h1v1H136zM97 117h1v1H97zM75 120h1v1H75zM105 127h1v1H105zM85 133h1v1H85zM114 135h1v1H114zM22 146h1v1H22zM31 162h1v1H31z"/>
  <path fill="#083860" d="M105 58h1v1H105zM115 63h1v1H115zM114 71h1v1H114zM120 82h1v1H120z"/>
  <path fill="#183058" d="M59 59h1v1H59zM67 68h1v1H67zM99 71h1v1H99zM146 135h1v1H146zM137 138h1v1H137zM26 156h1v1H26zM161 161h1v1H161z"/>
  <path fill="#203050" d="M169 43h1v1H169zM82 81h1v1H82zM81 82h1v1H81z"/>
  <path fill="#103860" d="M109 60h1v1H109zM113 62h1v1H113z"/>
  <path fill="#203058" d="M143 20h1v1H143zM158 26h1v1H158zM28 31h1v1H28zM63 64h1v1H63zM77 93h1v1H77zM117 124h1v1H117zM115 130h1v1H115zM84 136h1v1H84zM23 150h1v1H23z"/>
  <path fill="#104060" d="M78 66h1v1H78zM115 66h1v1H115z"/>
  <path fill="#203858" d="M36 24h1v1H36zM93 79h1v1H93zM89 85h1v1H89zM112 116h1v1H112zM138 119h1v1H138zM29 160h1v1H29z"/>
  <path fill="#203860" d="M40 22h1v1H40zM164 32h1v1H164zM56 53h1v1H56zM69 70h1v1H69zM86 92h1v1H86zM130 120h1v1H130zM131 123h1v1H131z"/>
  <path fill="#283858" d="M83 119h1v1H83zM144 134h1v1H144z"/>
  <path fill="#104070" d="M120 68h1v1H120zM119 78h1v1H119z"/>
  <path fill="#104868" d="M122 67h1v1H122z"/>
  <path fill="#283860" d="M48 20h1v1H48zM47 52h1v1H47zM84 100h1v1H84zM121 116h1v1H121zM142 131h1v1H142zM106 132h1v1H106zM169 147h1v1H169zM30 161h1v1H30z"/>
  <path fill="#303858" d="M83 115h1v1H83z"/>
  <path fill="#104870" d="M101 56h1v1H101zM112 57h1v1H112zM116 59h1v1H116zM120 61h1v1H120zM117 65h1v1H117zM113 67h1v1H113zM111 68h1v1H111z"/>
  <path fill="#284060" d="M33 26h1v1H33zM167 37h1v1H167zM47 51h1v1H47zM49 58h1v1H49zM98 69h1v1H98zM70 71h1v1H70zM88 87h1v1H88zM77 90h1v1H77zM85 95h1v1H85zM118 108h1v1H118zM99 117h1v1H99zM132 126h1v1H132zM138 139h1v1H138zM142 142h1v1H142zM163 159h1v1H163zM159 163h1v1H159z"/>
  <path fill="#105070" d="M104 53h1v1H104zM108 55h1v1H108zM114 58h1v1H114zM118 60h1v1H118zM78 63h1v1H78zM115 71h1v1H115zM115 74h1v1H115zM115 75h1v1H115z"/>
  <path fill="#284068" d="M139 140h1v1H139z"/>
  <path fill="#304060" d="M166 35h1v1H166zM49 48h1v1H49zM128 106h1v1H128zM116 110h1v1H116zM83 111h1v1H83zM83 112h1v1H83zM83 113h1v1H83zM83 114h1v1H83zM83 116h1v1H83zM83 117h1v1H83zM85 117h1v1H85zM83 118h1v1H83zM139 122h1v1H139zM134 132h1v1H134zM148 137h1v1H148zM82 141h1v1H82zM153 167h1v1H153zM60 170h1v1H60zM89 170h2v1H89zM127 170h2v1H127zM130 170h2v1H130z"/>
  <path fill="#105078" d="M102 52h1v1H102zM110 56h1v1H110zM122 62h1v1H122zM109 69h1v1H109zM118 85h1v1H118z"/>
  <path fill="#304068" d="M55 50h1v1H55zM71 72h1v1H71zM80 81h1v1H80zM90 112h1v1H90zM32 163h1v1H32zM59 170h1v1H59zM108 170h1v1H108zM124 170h1v1H124z"/>
  <path fill="#384060" d="M88 170h1v1H88zM135 170h2v1H135z"/>
  <path fill="#105878" d="M107 70h1v1H107z"/>
  <path fill="#185078" d="M115 72h1v1H115zM115 73h1v1H115zM115 76h1v1H115zM115 77h1v1H115z"/>
  <path fill="#304868" d="M76 99h1v1H76z"/>
  <path fill="#384068" d="M54 170h1v1H54zM56 170h3v1H56zM61 170h1v1H61zM65 170h3v1H65zM71 170h1v1H71zM73 170h2v1H73zM77 170h2v1H77zM82 170h3v1H82zM87 170h1v1H87zM91 170h7v1H91zM101 170h2v1H101zM107 170h1v1H107zM109 170h1v1H109zM118 170h6v1H118zM125 170h1v1H125zM129 170h1v1H129zM132 170h3v1H132z"/>
  <path fill="#105880" d="M106 54h1v1H106z"/>
  <path fill="#185878" d="M100 52h1v1H100z"/>
  <path fill="#384868" d="M50 60h1v1H50zM87 89h1v1H87zM117 109h1v1H117zM83 110h1v1H83zM134 111h1v1H134zM103 121h1v1H103zM87 128h1v1H87zM83 139h1v1H83zM158 164h1v1H158zM155 166h1v1H155zM50 170h4v1H50zM55 170h1v1H55zM62 170h3v1H62zM68 170h3v1H68zM72 170h1v1H72zM75 170h2v1H75zM79 170h3v1H79zM85 170h2v1H85zM98 170h3v1H98zM103 170h4v1H103zM110 170h8v1H110zM126 170h1v1H126zM137 170h5v1H137z"/>
  <path fill="#185880" d="M98 53h1v1H98zM94 55h1v1H94z"/>
  <path fill="#384870" d="M22 43h1v1H22zM72 73h1v1H72zM86 75h1v1H86zM130 107h1v1H130z"/>
  <path fill="#186080" d="M82 68h1v1H82zM105 71h1v1H105zM114 80h1v1H114z"/>
  <path fill="#385070" d="M144 20h1v1H144zM27 32h1v1H27zM90 123h1v1H90zM164 158h1v1H164z"/>
  <path fill="#405068" d="M104 123h1v1H104z"/>
  <path fill="#186088" d="M92 56h1v1H92zM90 57h1v1H90zM84 64h1v1H84zM87 68h1v1H87zM103 72h1v1H103z"/>
  <path fill="#405070" d="M47 20h1v1H47zM62 63h1v1H62zM54 66h1v1H54zM73 74h1v1H73zM74 75h1v1H74zM84 78h1v1H84zM78 79h1v1H78zM79 80h1v1H79zM83 109h1v1H83zM102 110h1v1H102zM104 111h1v1H104zM109 116h1v1H109zM133 129h1v1H133zM114 134h1v1H114zM78 142h1v1H78zM167 153h1v1H167zM28 159h1v1H28zM38 167h1v1H38zM151 168h1v1H151zM142 170h1v1H142z"/>
  <path fill="#186888" d="M96 54h1v1H96z"/>
  <path fill="#405870" d="M157 25h1v1H157zM168 39h1v1H168zM166 155h1v1H166zM49 170h1v1H49z"/>
  <path fill="#186890" d="M88 58h1v1H88zM84 69h1v1H84z"/>
  <path fill="#485870" d="M76 77h1v1H76zM125 113h1v1H125z"/>
  <path fill="#187090" d="M86 59h1v1H86zM88 62h1v1H88zM86 63h1v1H86zM86 69h1v1H86zM114 83h1v1H114z"/>
  <path fill="#485878" d="M25 35h1v1H25zM24 37h1v1H24zM48 49h1v1H48zM61 62h1v1H61zM75 76h1v1H75zM77 78h1v1H77zM92 80h1v1H92zM83 108h1v1H83zM106 131h1v1H106zM22 147h1v1H22zM36 166h1v1H36zM148 169h1v1H148z"/>
  <path fill="#187098" d="M99 76h1v1H99zM103 76h1v1H103zM116 85h1v1H116z"/>
  <path fill="#207090" d="M84 60h1v1H84zM82 61h1v1H82zM86 66h1v1H86zM80 67h1v1H80z"/>
  <path fill="#187898" d="M124 65h1v1H124zM105 75h1v1H105zM114 81h1v1H114zM119 84h1v1H119z"/>
  <path fill="#207098" d="M80 62h1v1H80z"/>
  <path fill="#506078" d="M149 21h1v1H149zM53 48h1v1H53zM170 50h1v1H170zM170 53h1v1H170zM170 55h1v1H170zM170 56h1v1H170zM170 75h1v1H170zM170 76h1v1H170zM170 77h1v1H170zM170 80h1v1H170zM170 81h1v1H170zM170 93h1v1H170zM77 94h1v1H77zM170 94h1v1H170zM170 95h1v1H170zM170 96h1v1H170zM170 109h1v1H170zM94 110h1v1H94zM170 110h1v1H170zM170 111h1v1H170zM170 112h1v1H170zM119 119h1v1H119zM170 119h1v1H170zM170 120h1v1H170zM170 123h1v1H170zM170 124h1v1H170zM86 130h1v1H86zM170 139h1v1H170zM170 140h1v1H170zM33 164h1v1H33zM43 169h1v1H43z"/>
  <path fill="#307090" d="M99 72h1v1H99z"/>
  <path fill="#506080" d="M169 42h1v1H169zM170 49h1v1H170zM170 51h1v1H170zM170 52h1v1H170zM170 54h1v1H170zM170 57h1v1H170zM170 58h1v1H170zM170 59h1v1H170zM170 60h1v1H170zM170 61h1v1H170zM170 62h1v1H170zM170 63h1v1H170zM170 64h1v1H170zM170 65h1v1H170zM170 66h1v1H170zM170 67h1v1H170zM170 68h1v1H170zM170 69h1v1H170zM170 70h1v1H170zM170 71h1v1H170zM170 72h1v1H170zM170 73h1v1H170zM170 74h1v1H170zM170 78h1v1H170zM170 79h1v1H170zM170 82h1v1H170zM90 83h1v1H90zM170 83h1v1H170zM170 84h1v1H170zM170 85h1v1H170zM170 86h1v1H170zM170 87h1v1H170zM170 88h1v1H170zM170 89h1v1H170zM170 90h1v1H170zM170 91h1v1H170zM170 92h1v1H170zM170 97h1v1H170zM170 98h1v1H170zM84 99h1v1H84zM170 99h1v1H170zM170 100h1v1H170zM170 101h1v1H170zM170 102h1v1H170zM170 103h1v1H170zM170 104h1v1H170zM170 105h1v1H170zM170 106h1v1H170zM170 107h1v1H170zM170 108h1v1H170zM89 113h1v1H89zM170 113h1v1H170zM170 114h1v1H170zM170 115h1v1H170zM170 116h1v1H170zM170 117h1v1H170zM170 118h1v1H170zM170 121h1v1H170zM170 122h1v1H170zM170 125h1v1H170zM105 126h1v1H105zM170 126h1v1H170zM170 127h1v1H170zM170 128h1v1H170zM170 129h1v1H170zM170 130h1v1H170zM170 131h1v1H170zM170 132h1v1H170zM143 133h1v1H143zM170 133h1v1H170zM170 134h1v1H170zM170 135h1v1H170zM136 136h1v1H136zM147 136h1v1H147zM170 136h1v1H170zM170 137h1v1H170zM170 138h1v1H170zM170 141h1v1H170zM80 142h1v1H80zM40 168h1v1H40zM143 170h1v1H143z"/>
  <path fill="#2078a0" d="M90 61h1v1H90z"/>
  <path fill="#208098" d="M101 73h1v1H101z"/>
  <path fill="#586080" d="M86 116h1v1H86zM48 170h1v1H48z"/>
  <path fill="#2080a0" d="M101 52h1v1H101zM100 56h1v1H100zM98 57h1v1H98zM96 58h1v1H96zM94 59h1v1H94zM92 60h1v1H92zM84 65h1v1H84zM107 74h1v1H107zM114 82h1v1H114zM117 85h1v1H117z"/>
  <path fill="#586880" d="M145 20h1v1H145zM57 56h1v1H57zM76 100h1v1H76zM88 126h1v1H88zM140 126h1v1H140zM168 151h1v1H168zM27 158h1v1H27z"/>
  <path fill="#2080a8" d="M124 64h1v1H124z"/>
  <path fill="#586888" d="M34 25h1v1H34z"/>
  <path fill="#606880" d="M52 63h1v1H52zM70 82h1v1H70zM71 83h1v1H71zM72 84h1v1H72zM170 142h1v1H170z"/>
  <path fill="#2088a8" d="M109 73h1v1H109z"/>
  <path fill="#606888" d="M170 48h1v1H170zM83 107h1v1H83z"/>
  <path fill="#2090a8" d="M116 63h1v1H116zM115 78h1v1H115z"/>
  <path fill="#607088" d="M46 20h1v1H46zM42 21h1v1H42zM165 33h1v1H165zM92 69h1v1H92zM92 111h1v1H92zM114 113h1v1H114zM124 113h1v1H124zM110 118h1v1H110zM118 121h1v1H118zM116 126h1v1H116zM141 129h1v1H141zM135 134h1v1H135zM169 148h1v1H169zM24 153h1v1H24z"/>
  <path fill="#2090b0" d="M111 72h1v1H111z"/>
  <path fill="#2888b0" d="M118 64h1v1H118z"/>
  <path fill="#4080a0" d="M97 75h1v1H97z"/>
  <path fill="#607090" d="M122 106h1v1H122z"/>
  <path fill="#687088" d="M48 55h1v1H48zM69 81h1v1H69zM101 118h1v1H101zM83 120h1v1H83zM84 135h1v1H84z"/>
  <path fill="#2890b0" d="M102 56h1v1H102zM104 57h1v1H104zM106 58h1v1H106zM108 59h1v1H108zM110 60h1v1H110zM113 71h1v1H113z"/>
  <path fill="#687090" d="M154 23h1v1H154zM94 68h1v1H94zM87 74h1v1H87zM115 129h1v1H115z"/>
  <path fill="#2098b8" d="M119 79h1v1H119z"/>
  <path fill="#687890" d="M23 39h1v1H23zM55 67h1v1H55zM96 68h1v1H96zM87 115h1v1H87zM137 117h1v1H137zM131 122h1v1H131zM107 136h1v1H107zM25 155h1v1H25z"/>
  <path fill="#20a0b8" d="M121 67h1v1H121z"/>
  <path fill="#2898b8" d="M114 62h1v1H114z"/>
  <path fill="#707890" d="M170 47h1v1H170zM68 80h1v1H68zM73 85h1v1H73zM86 91h1v1H86zM83 106h1v1H83zM131 108h1v1H131zM88 114h1v1H88zM96 117h1v1H96zM102 119h1v1H102zM111 119h1v1H111zM145 135h1v1H145zM108 137h1v1H108zM148 140h1v1H148z"/>
  <path fill="#28a0b8" d="M112 61h1v1H112zM118 65h1v1H118z"/>
  <path fill="#708090" d="M22 42h1v1H22zM139 123h1v1H139zM106 130h1v1H106zM170 143h1v1H170z"/>
  <path fill="#28a0c0" d="M116 66h1v1H116zM119 68h1v1H119z"/>
  <path fill="#708098" d="M152 22h1v1H152zM58 58h1v1H58zM133 110h1v1H133zM129 117h1v1H129zM85 132h1v1H85zM114 133h1v1H114zM79 142h1v1H79zM47 170h1v1H47zM144 170h1v1H144z"/>
  <path fill="#788090" d="M132 125h1v1H132z"/>
  <path fill="#28a8c0" d="M113 58h1v1H113zM114 67h1v1H114z"/>
  <path fill="#788098" d="M54 49h1v1H54zM21 50h1v1H21zM21 51h1v1H21zM21 52h1v1H21zM21 53h1v1H21zM21 54h1v1H21zM56 54h1v1H56zM21 55h1v1H21zM21 56h1v1H21zM21 57h1v1H21zM21 58h1v1H21zM21 59h1v1H21zM21 60h1v1H21zM21 61h1v1H21zM21 63h1v1H21zM21 64h1v1H21zM21 65h1v1H21zM21 66h1v1H21zM21 67h1v1H21zM21 68h1v1H21zM21 69h1v1H21zM21 70h1v1H21zM21 71h1v1H21zM21 72h1v1H21zM21 73h1v1H21zM21 74h1v1H21zM21 75h1v1H21zM21 76h1v1H21zM21 77h1v1H21zM21 78h1v1H21zM21 79h1v1H21zM21 80h1v1H21zM21 81h1v1H21zM21 82h1v1H21zM21 83h1v1H21zM21 84h1v1H21zM21 85h1v1H21zM21 86h1v1H21zM21 87h1v1H21zM21 88h1v1H21zM21 89h1v1H21zM21 90h1v1H21zM21 91h1v1H21zM21 92h1v1H21zM21 93h1v1H21zM21 94h1v1H21zM85 94h1v1H85zM21 95h1v1H21zM21 96h1v1H21zM21 97h1v1H21zM21 98h1v1H21zM21 99h1v1H21zM21 100h1v1H21zM21 101h1v1H21zM76 101h1v1H76zM21 104h1v1H21zM21 105h1v1H21zM21 106h1v1H21zM21 107h1v1H21zM21 110h1v1H21zM21 111h1v1H21zM21 112h1v1H21zM21 113h1v1H21zM21 114h1v1H21zM21 115h1v1H21zM21 116h1v1H21zM21 117h1v1H21zM120 117h1v1H120zM21 118h1v1H21zM21 119h1v1H21zM21 120h1v1H21zM21 121h1v1H21zM21 125h1v1H21zM21 126h1v1H21zM21 127h1v1H21zM21 128h1v1H21zM21 129h1v1H21zM21 130h1v1H21zM21 131h1v1H21zM21 132h1v1H21zM21 133h1v1H21zM21 134h1v1H21zM21 135h1v1H21zM21 136h1v1H21zM21 137h1v1H21zM21 138h1v1H21zM83 138h1v1H83zM21 139h1v1H21zM21 140h1v1H21zM21 141h1v1H21z"/>
  <path fill="#28a8c8" d="M123 66h1v1H123z"/>
  <path fill="#7880a0" d="M21 49h1v1H21zM21 62h1v1H21zM21 103h1v1H21zM21 122h1v1H21zM21 124h1v1H21z"/>
  <path fill="#788898" d="M157 165h1v1H157z"/>
  <path fill="#28b0c8" d="M115 59h1v1H115zM119 61h1v1H119zM110 69h1v1H110zM115 70h1v1H115z"/>
  <path fill="#30a8c8" d="M117 60h1v1H117z"/>
  <path fill="#7888a0" d="M60 61h1v1H60zM84 98h1v1H84zM21 102h1v1H21zM21 108h1v1H21zM21 109h1v1H21zM127 114h1v1H127zM21 123h1v1H21z"/>
  <path fill="#808898" d="M108 115h1v1H108z"/>
  <path fill="#28b0d0" d="M112 68h1v1H112z"/>
  <path fill="#30b0c8" d="M109 56h1v1H109z"/>
  <path fill="#8088a0" d="M21 48h1v1H21zM55 51h1v1H55zM83 80h1v1H83zM74 86h1v1H74zM138 120h1v1H138zM117 123h1v1H117zM89 124h1v1H89zM22 148h1v1H22zM23 151h1v1H23z"/>
  <path fill="#28b8d0" d="M103 53h1v1H103zM123 63h1v1H123z"/>
  <path fill="#30b0d0" d="M105 54h1v1H105zM121 62h1v1H121z"/>
  <path fill="#8090a0" d="M146 20h1v1H146zM39 22h1v1H39zM37 23h1v1H37zM83 105h1v1H83zM120 107h1v1H120zM132 109h1v1H132zM135 113h1v1H135zM148 138h1v1H148zM21 142h1v1H21zM165 157h1v1H165z"/>
  <path fill="#28b8d8" d="M100 73h1v1H100z"/>
  <path fill="#30b8d0" d="M107 55h1v1H107zM111 57h1v1H111zM106 71h1v1H106z"/>
  <path fill="#8890a0" d="M26 33h1v1H26zM67 79h1v1H67zM130 119h1v1H130zM133 128h1v1H133z"/>
  <path fill="#30c0d0" d="M78 65h1v1H78z"/>
  <path fill="#8890a8" d="M170 46h1v1H170zM77 95h1v1H77zM127 106h1v1H127zM112 137h1v1H112z"/>
  <path fill="#30c0d8" d="M99 53h1v1H99zM97 54h1v1H97zM93 56h1v1H93zM78 64h1v1H78zM85 69h1v1H85zM108 70h1v1H108zM115 84h1v1H115z"/>
  <path fill="#8898a8" d="M149 169h1v1H149z"/>
  <path fill="#30c0e0" d="M89 58h1v1H89z"/>
  <path fill="#9098a8" d="M169 41h1v1H169zM56 68h1v1H56zM88 73h1v1H88zM95 76h1v1H95zM91 81h1v1H91zM82 82h1v1H82zM78 91h1v1H78zM113 115h1v1H113zM136 115h1v1H136zM112 117h1v1H112zM92 120h1v1H92zM105 125h1v1H105zM134 131h1v1H134zM113 136h1v1H113zM170 144h1v1H170zM34 165h1v1H34z"/>
  <path fill="#30c8e0" d="M95 55h1v1H95zM91 57h1v1H91zM85 60h1v1H85zM85 63h1v1H85zM79 66h1v1H79zM87 67h1v1H87zM83 68h1v1H83zM102 73h1v1H102z"/>
  <path fill="#9098b0" d="M45 20h1v1H45z"/>
  <path fill="#30c8e8" d="M81 62h1v1H81z"/>
  <path fill="#38c8e0" d="M83 64h1v1H83zM81 67h1v1H81zM104 72h1v1H104z"/>
  <path fill="#90a0b0" d="M21 47h1v1H21zM50 48h1v1H50zM95 68h1v1H95zM75 87h1v1H75zM76 102h1v1H76zM105 112h1v1H105zM93 119h1v1H93z"/>
  <path fill="#30d0e8" d="M95 58h1v1H95zM87 62h1v1H87zM118 69h1v1H118zM118 70h1v1H118zM118 71h1v1H118zM118 72h1v1H118zM118 73h1v1H118zM118 74h1v1H118zM104 75h1v1H104zM102 76h1v1H102zM118 77h1v1H118z"/>
  <path fill="#98a0b0" d="M156 24h1v1H156zM161 28h1v1H161zM167 36h1v1H167zM85 77h1v1H85zM66 78h1v1H66zM88 86h1v1H88zM83 104h1v1H83zM101 110h1v1H101zM84 119h1v1H84zM148 139h1v1H148zM141 141h1v1H141zM143 142h1v1H143zM146 142h1v1H146zM21 143h1v1H21zM42 169h1v1H42zM145 170h1v1H145z"/>
  <path fill="#30d0f0" d="M91 60h1v1H91zM85 66h1v1H85zM119 80h1v1H119z"/>
  <path fill="#38d0e8" d="M87 59h1v1H87zM83 61h1v1H83zM79 63h1v1H79zM98 75h1v1H98zM118 75h1v1H118zM118 76h1v1H118z"/>
  <path fill="#a0a0b0" d="M91 70h1v1H91zM65 77h1v1H65zM106 129h1v1H106zM46 170h1v1H46z"/>
  <path fill="#30d8f0" d="M117 63h1v1H117zM108 73h1v1H108z"/>
  <path fill="#38d0f0" d="M99 56h1v1H99z"/>
  <path fill="#a0a8b0" d="M76 140h1v1H76z"/>
  <path fill="#38d8f0" d="M97 57h1v1H97zM93 59h1v1H93zM89 61h1v1H89zM112 71h1v1H112zM106 74h1v1H106zM100 76h1v1H100z"/>
  <path fill="#a0a8b8" d="M162 29h1v1H162zM52 48h1v1H52zM49 57h1v1H49zM51 61h1v1H51zM123 106h1v1H123zM126 113h1v1H126zM128 115h1v1H128zM100 117h1v1H100zM114 132h1v1H114zM169 149h1v1H169zM26 157h1v1H26zM154 167h1v1H154z"/>
  <path fill="#30e0f8" d="M118 61h1v1H118zM122 63h1v1H122zM119 65h1v1H119zM123 65h1v1H123zM121 66h1v1H121zM115 67h2v1H115zM113 68h1v1H113zM118 68h1v1H118zM105 72h1v1H105zM99 75h1v1H99zM101 76h1v1H101zM117 84h1v1H117z"/>
  <path fill="#38e0f0" d="M111 60h1v1H111zM115 79h1v1H115z"/>
  <path fill="#40d8f0" d="M103 56h1v1H103zM83 65h1v1H83z"/>
  <path fill="#30e0ff" d="M101 55h1v1H101z"/>
  <path fill="#38e0f8" d="M100 53h1v1H100zM102 53h1v1H102zM98 54h1v1H98zM96 55h1v1H96zM106 55h1v1H106zM98 56h1v1H98zM108 56h1v1H108zM92 57h1v1H92zM105 57h1v1H105zM90 58h1v1H90zM88 59h1v1H88zM114 59h1v1H114zM86 60h1v1H86zM115 60h1v1H115zM84 61h1v1H84zM82 62h1v1H82zM115 62h1v1H115zM121 63h1v1H121zM81 64h1v1H81zM119 64h4v1H119zM81 65h1v1H81zM120 65h1v1H120zM84 66h1v1H84zM117 66h4v1H117zM122 66h1v1H122zM82 67h1v1H82zM84 67h1v1H84zM86 67h1v1H86zM117 67h1v1H117zM120 67h1v1H120zM86 68h1v1H86zM114 68h1v1H114zM116 68h2v1H116zM111 69h4v1H111zM109 70h1v1H109zM114 70h1v1H114zM116 70h1v1H116zM107 71h1v1H107zM111 71h1v1H111zM116 71h2v1H116zM106 72h1v1H106zM110 72h1v1H110zM116 72h2v1H116zM99 73h1v1H99zM106 73h2v1H106zM116 73h2v1H116zM102 74h2v1H102zM105 74h1v1H105zM116 74h2v1H116zM103 75h1v1H103zM116 75h1v1H116zM116 76h1v1H116zM116 77h2v1H116zM116 78h3v1H116zM118 79h1v1H118zM115 80h4v1H115zM115 81h5v1H115zM117 82h1v1H117zM119 82h1v1H119zM115 83h5v1H115zM116 84h1v1H116zM118 84h1v1H118z"/>
  <path fill="#a8b0b8" d="M150 21h1v1H150zM87 88h1v1H87z"/>
  <path fill="#38e0ff" d="M99 54h5v1H99zM97 55h4v1H97zM102 55h1v1H102zM95 56h3v1H95zM106 56h2v1H106zM93 57h4v1H93zM106 57h2v1H106zM91 58h4v1H91zM111 58h1v1H111zM89 59h4v1H89zM111 59h1v1H111zM113 59h1v1H113zM87 60h4v1H87zM112 60h1v1H112zM114 60h1v1H114zM86 61h2v1H86zM114 61h2v1H114zM117 61h1v1H117zM83 62h1v1H83zM117 62h3v1H117zM81 63h4v1H81zM118 63h3v1H118zM80 64h1v1H80zM82 64h1v1H82zM123 64h1v1H123zM80 65h1v1H80zM121 65h2v1H121zM83 67h1v1H83zM118 67h2v1H118zM115 68h1v1H115zM115 69h3v1H115zM110 70h4v1H110zM117 70h1v1H117zM108 71h3v1H108zM107 72h3v1H107zM103 73h3v1H103zM99 74h3v1H99zM104 74h1v1H104zM100 75h3v1H100zM117 75h1v1H117zM117 76h1v1H117zM116 79h2v1H116zM115 82h2v1H115zM118 82h1v1H118z"/>
  <path fill="#38e8f8" d="M94 56h1v1H94z"/>
  <path fill="#40e0f8" d="M105 56h1v1H105zM110 57h1v1H110zM107 58h1v1H107zM112 58h1v1H112zM109 59h1v1H109zM116 60h1v1H116zM113 61h1v1H113zM120 62h1v1H120zM80 63h1v1H80z"/>
  <path fill="#a8b0c0" d="M35 24h1v1H35zM50 59h1v1H50zM57 69h1v1H57zM96 75h1v1H96zM94 77h1v1H94zM84 97h1v1H84zM95 110h1v1H95zM107 114h1v1H107zM142 132h1v1H142z"/>
  <path fill="#38e8ff" d="M85 61h1v1H85zM88 61h1v1H88zM84 62h3v1H84z"/>
  <path fill="#40e0ff" d="M101 53h1v1H101zM104 54h1v1H104zM103 55h3v1H103zM104 56h1v1H104zM108 57h2v1H108zM108 58h3v1H108zM110 59h1v1H110zM112 59h1v1H112zM113 60h1v1H113zM116 61h1v1H116zM116 62h1v1H116zM79 64h1v1H79zM79 65h1v1H79zM82 66h2v1H82zM85 67h1v1H85zM84 68h2v1H84z"/>
  <path fill="#b0b0c0" d="M168 38h1v1H168zM170 45h1v1H170zM21 46h1v1H21zM62 74h1v1H62zM64 76h1v1H64zM76 103h1v1H76zM94 118h1v1H94zM104 122h1v1H104zM140 127h1v1H140zM137 137h1v1H137z"/>
  <path fill="#40e8ff" d="M82 65h1v1H82zM80 66h2v1H80z"/>
  <path fill="#b0b8c0" d="M160 27h1v1H160zM30 28h1v1H30zM163 30h1v1H163zM22 41h1v1H22zM48 54h1v1H48zM53 64h1v1H53zM89 84h1v1H89zM76 88h1v1H76zM77 96h1v1H77zM122 114h1v1H122zM91 121h1v1H91zM84 134h1v1H84zM21 144h1v1H21zM152 168h1v1H152z"/>
  <path fill="#b0b8c8" d="M90 71h1v1H90zM89 72h1v1H89zM63 75h1v1H63zM116 125h1v1H116zM86 129h1v1H86zM170 145h1v1H170zM167 154h1v1H167z"/>
  <path fill="#b8b8c0" d="M58 70h1v1H58z"/>
  <path fill="#b8b8c8" d="M83 103h1v1H83zM115 112h1v1H115zM106 113h1v1H106zM115 128h1v1H115zM37 167h1v1H37z"/>
  <path fill="#60e8f8" d="M98 74h1v1H98z"/>
  <path fill="#b8c0c8" d="M147 20h1v1H147zM41 21h1v1H41zM31 27h1v1H31zM24 36h1v1H24zM98 70h1v1H98zM60 72h1v1H60zM61 73h1v1H61zM129 107h1v1H129zM103 120h1v1H103zM131 121h1v1H131zM139 124h1v1H139zM87 127h1v1H87zM141 130h1v1H141z"/>
  <path fill="#b8c0d0" d="M77 141h1v1H77z"/>
  <path fill="#c0c0c8" d="M51 48h1v1H51z"/>
  <path fill="#c0c0d0" d="M166 34h1v1H166zM55 52h1v1H55zM59 60h1v1H59zM59 71h1v1H59zM103 111h1v1H103z"/>
  <path fill="#c0c8d0" d="M159 26h1v1H159zM29 29h1v1H29zM65 67h1v1H65zM86 90h1v1H86zM76 104h1v1H76zM126 106h1v1H126zM137 118h1v1H137zM83 137h1v1H83zM22 149h1v1H22zM39 168h1v1H39z"/>
  <path fill="#c8c8d0" d="M28 30h1v1H28zM85 93h1v1H85zM135 133h1v1H135zM162 161h1v1H162z"/>
  <path fill="#c8c8d8" d="M161 162h1v1H161z"/>
  <path fill="#c8d0d0" d="M132 124h1v1H132z"/>
  <path fill="#c8d0d8" d="M44 20h1v1H44zM124 106h1v1H124zM91 112h1v1H91zM109 117h1v1H109zM118 120h1v1H118zM82 140h1v1H82zM168 152h1v1H168zM146 170h1v1H146z"/>
  <path fill="#d0d0d8" d="M32 26h1v1H32zM164 31h1v1H164zM63 65h1v1H63zM67 69h1v1H67zM93 78h1v1H93zM84 79h1v1H84zM77 89h1v1H77zM121 115h1v1H121zM133 127h1v1H133zM106 128h1v1H106zM147 141h1v1H147zM24 154h1v1H24zM160 163h1v1H160zM156 166h1v1H156zM45 170h1v1H45z"/>
  <path fill="#d0d0e0" d="M64 66h1v1H64z"/>
  <path fill="#d0d8e0" d="M23 38h1v1H23zM21 45h1v1H21zM56 55h1v1H56zM66 68h1v1H66zM86 76h1v1H86zM90 82h1v1H90zM116 111h1v1H116zM90 122h1v1H90zM107 135h1v1H107zM163 160h1v1H163z"/>
  <path fill="#d8d8e0" d="M153 22h1v1H153zM48 50h1v1H48zM97 69h1v1H97zM80 82h1v1H80zM81 83h1v1H81zM78 92h1v1H78zM83 102h1v1H83zM76 105h1v1H76zM119 108h1v1H119zM93 111h1v1H93zM119 118h1v1H119zM138 121h1v1H138zM105 124h1v1H105zM88 125h1v1H88zM114 131h1v1H114zM81 141h1v1H81zM166 156h1v1H166zM30 162h1v1H30zM31 163h1v1H31zM150 169h1v1H150z"/>
  <path fill="#d8e0e0" d="M69 71h1v1H69zM125 106h1v1H125zM123 113h1v1H123zM85 118h1v1H85zM85 131h1v1H85zM136 135h1v1H136zM140 140h1v1H140zM21 145h1v1H21zM29 161h1v1H29zM35 166h1v1H35z"/>
  <path fill="#d8e0e8" d="M100 110h1v1H100z"/>
  <path fill="#e0e0e0" d="M25 34h1v1H25zM169 40h1v1H169z"/>
  <path fill="#e0e0e8" d="M27 31h1v1H27zM170 44h1v1H170zM57 57h1v1H57zM54 65h1v1H54zM68 70h1v1H68zM84 96h1v1H84zM77 97h1v1H77zM134 112h1v1H134zM114 114h1v1H114zM110 119h1v1H110zM138 138h1v1H138zM139 139h1v1H139zM41 169h1v1H41z"/>
  <path fill="#e0e8e8" d="M158 25h1v1H158zM71 73h1v1H71zM129 116h1v1H129zM117 122h1v1H117zM109 137h1v1H109zM23 152h1v1H23zM28 160h1v1H28z"/>
  <path fill="#e8e8e8" d="M38 22h1v1H38zM92 79h1v1H92zM78 90h1v1H78zM95 117h1v1H95z"/>
  <path fill="#e8e8f0" d="M155 23h1v1H155zM52 62h1v1H52zM62 64h1v1H62zM93 69h1v1H93zM70 72h1v1H70zM76 106h1v1H76zM121 107h1v1H121zM118 109h1v1H118zM96 110h1v1H96zM130 118h1v1H130zM134 130h1v1H134zM144 135h1v1H144zM144 142h2v1H144zM170 146h1v1H170zM169 150h1v1H169zM25 156h1v1H25zM164 159h1v1H164zM159 164h1v1H159z"/>
  <path fill="#e8f0f0" d="M165 32h1v1H165zM73 75h1v1H73zM135 114h1v1H135zM143 134h1v1H143z"/>
  <path fill="#f0f0f0" d="M51 19h17v1H51zM69 19h72v1H69zM148 20h1v1H148zM36 23h1v1H36zM33 25h1v1H33zM22 40h1v1H22zM48 53h1v1H48zM58 59h1v1H58zM72 74h1v1H72zM75 77h1v1H75zM77 79h1v1H77zM78 80h1v1H78zM79 81h1v1H79zM83 81h1v1H83zM76 107h1v1H76zM117 110h1v1H117zM98 116h1v1H98zM113 116h1v1H113zM120 116h1v1H120zM136 116h1v1H136zM86 117h1v1H86zM112 118h1v1H112zM111 120h1v1H111zM83 121h1v1H83zM146 136h1v1H146zM111 137h1v1H111zM32 164h1v1H32zM158 165h1v1H158z"/>
  <path fill="#e0f8ff" d="M98 73h1v1H98z"/>
  <path fill="#f0f0f8" d="M68 19h1v1H68zM141 19h1v1H141zM151 21h1v1H151zM167 35h1v1H167zM49 56h1v1H49zM61 63h1v1H61zM83 101h1v1H83zM133 111h1v1H133zM90 113h1v1H90zM139 125h1v1H139zM107 134h1v1H107zM147 137h1v1H147zM76 139h1v1H76zM165 158h1v1H165z"/>
  <path fill="#f0f8f8" d="M43 20h1v1H43zM21 44h1v1H21zM87 75h1v1H87zM82 83h1v1H82zM76 108h1v1H76zM140 128h1v1H140zM84 133h1v1H84zM27 159h1v1H27z"/>
  <path fill="#f8f8f8" d="M0 0h192v1H0zM0 1h192v1H0zM0 2h192v1H0zM0 3h192v1H0zM0 4h192v1H0zM0 5h192v1H0zM0 6h192v1H0zM0 7h192v1H0zM0 8h192v1H0zM0 9h192v1H0zM0 10h192v1H0zM0 11h192v1H0zM0 12h192v1H0zM0 13h192v1H0zM0 14h192v1H0zM0 15h192v1H0zM0 16h192v1H0zM0 17h192v1H0zM0 18h192v1H0zM0 19h51v1H0zM142 19h50v1H142zM0 20h43v1H0zM149 20h43v1H149zM0 21h41v1H0zM152 21h40v1H152zM0 22h38v1H0zM154 22h38v1H154zM0 23h36v1H0zM156 23h36v1H156zM0 24h35v1H0zM157 24h35v1H157zM0 25h33v1H0zM159 25h33v1H159zM0 26h32v1H0zM160 26h32v1H160zM0 27h31v1H0zM161 27h31v1H161zM0 28h30v1H0zM162 28h30v1H162zM0 29h29v1H0zM163 29h29v1H163zM0 30h28v1H0zM164 30h28v1H164zM0 31h27v1H0zM165 31h27v1H165zM0 32h27v1H0zM166 32h26v1H166zM0 33h26v1H0zM166 33h26v1H166zM0 34h25v1H0zM167 34h25v1H167zM0 35h25v1H0zM168 35h24v1H168zM0 36h24v1H0zM168 36h24v1H168zM0 37h24v1H0zM168 37h24v1H168zM0 38h23v1H0zM169 38h23v1H169zM0 39h23v1H0zM169 39h23v1H169zM0 40h22v1H0zM170 40h22v1H170zM0 41h22v1H0zM170 41h22v1H170zM0 42h22v1H0zM170 42h22v1H170zM0 43h22v1H0zM170 43h22v1H170zM0 44h21v1H0zM171 44h21v1H171zM0 45h21v1H0zM171 45h21v1H171zM0 46h21v1H0zM171 46h21v1H171zM0 47h21v1H0zM171 47h21v1H171zM0 48h21v1H0zM171 48h21v1H171zM0 49h21v1H0zM49 49h1v1H49zM171 49h21v1H171zM0 50h21v1H0zM54 50h1v1H54zM171 50h21v1H171zM0 51h21v1H0zM171 51h21v1H171zM0 52h21v1H0zM171 52h21v1H171zM0 53h21v1H0zM55 53h1v1H55zM171 53h21v1H171zM0 54h21v1H0zM171 54h21v1H171zM0 55h21v1H0zM171 55h21v1H171zM0 56h21v1H0zM171 56h21v1H171zM0 57h21v1H0zM171 57h21v1H171zM0 58h21v1H0zM50 58h1v1H50zM171 58h21v1H171zM0 59h21v1H0zM171 59h21v1H171zM0 60h21v1H0zM51 60h1v1H51zM171 60h21v1H171zM0 61h21v1H0zM171 61h21v1H171zM0 62h21v1H0zM60 62h1v1H60zM171 62h21v1H171zM0 63h21v1H0zM171 63h21v1H171zM0 64h21v1H0zM171 64h21v1H171zM0 65h21v1H0zM171 65h21v1H171zM0 66h21v1H0zM55 66h1v1H55zM171 66h21v1H171zM0 67h21v1H0zM171 67h21v1H171zM0 68h21v1H0zM171 68h21v1H171zM0 69h21v1H0zM94 69h1v1H94zM171 69h21v1H171zM0 70h21v1H0zM171 70h21v1H171zM0 71h21v1H0zM98 71h1v1H98zM171 71h21v1H171zM0 72h21v1H0zM171 72h21v1H171zM0 73h21v1H0zM171 73h21v1H171zM0 74h21v1H0zM171 74h21v1H171zM0 75h21v1H0zM171 75h21v1H171zM0 76h21v1H0zM74 76h1v1H74zM171 76h21v1H171zM0 77h21v1H0zM171 77h21v1H171zM0 78h21v1H0zM76 78h1v1H76zM171 78h21v1H171zM0 79h21v1H0zM171 79h21v1H171zM0 80h21v1H0zM69 80h1v1H69zM91 80h1v1H91zM171 80h21v1H171zM0 81h21v1H0zM70 81h1v1H70zM171 81h21v1H171zM0 82h21v1H0zM71 82h1v1H71zM171 82h21v1H171zM0 83h21v1H0zM72 83h1v1H72zM171 83h21v1H171zM0 84h21v1H0zM73 84h1v1H73zM171 84h21v1H171zM0 85h21v1H0zM88 85h1v1H88zM171 85h21v1H171zM0 86h21v1H0zM171 86h21v1H171zM0 87h21v1H0zM87 87h1v1H87zM171 87h21v1H171zM0 88h21v1H0zM171 88h21v1H171zM0 89h21v1H0zM171 89h21v1H171zM0 90h21v1H0zM171 90h21v1H171zM0 91h21v1H0zM171 91h21v1H171zM0 92h21v1H0zM85 92h1v1H85zM171 92h21v1H171zM0 93h21v1H0zM78 93h1v1H78zM171 93h21v1H171zM0 94h21v1H0zM171 94h21v1H171zM0 95h21v1H0zM84 95h1v1H84zM171 95h21v1H171zM0 96h21v1H0zM171 96h21v1H171zM0 97h21v1H0zM171 97h21v1H171zM0 98h21v1H0zM77 98h1v1H77zM171 98h21v1H171zM0 99h21v1H0zM171 99h21v1H171zM0 100h21v1H0zM171 100h21v1H171zM0 101h21v1H0zM171 101h21v1H171zM0 102h21v1H0zM171 102h21v1H171zM0 103h21v1H0zM171 103h21v1H171zM0 104h21v1H0zM171 104h21v1H171zM0 105h21v1H0zM171 105h21v1H171zM0 106h21v1H0zM171 106h21v1H171zM0 107h21v1H0zM128 107h1v1H128zM171 107h21v1H171zM0 108h21v1H0zM82 108h1v1H82zM130 108h1v1H130zM171 108h21v1H171zM0 109h21v1H0zM76 109h1v1H76zM131 109h1v1H131zM171 109h21v1H171zM0 110h21v1H0zM97 110h3v1H97zM171 110h21v1H171zM0 111h21v1H0zM171 111h21v1H171zM0 112h21v1H0zM125 112h1v1H125zM171 112h21v1H171zM0 113h21v1H0zM171 113h21v1H171zM0 114h21v1H0zM89 114h1v1H89zM128 114h1v1H128zM171 114h21v1H171zM0 115h21v1H0zM171 115h21v1H171zM0 116h21v1H0zM87 116h1v1H87zM97 116h1v1H97zM99 116h1v1H99zM108 116h1v1H108zM171 116h21v1H171zM0 117h21v1H0zM171 117h21v1H171zM0 118h21v1H0zM102 118h1v1H102zM171 118h21v1H171zM0 119h21v1H0zM103 119h1v1H103zM137 119h1v1H137zM171 119h21v1H171zM0 120h21v1H0zM82 120h1v1H82zM84 120h1v1H84zM131 120h1v1H131zM171 120h21v1H171zM0 121h21v1H0zM171 121h21v1H171zM0 122h21v1H0zM171 122h21v1H171zM0 123h21v1H0zM89 123h1v1H89zM105 123h1v1H105zM132 123h1v1H132zM171 123h21v1H171zM0 124h21v1H0zM116 124h1v1H116zM171 124h21v1H171zM0 125h21v1H0zM171 125h21v1H171zM0 126h21v1H0zM171 126h21v1H171zM0 127h21v1H0zM106 127h1v1H106zM115 127h1v1H115zM171 127h21v1H171zM0 128h21v1H0zM86 128h1v1H86zM171 128h21v1H171zM0 129h21v1H0zM171 129h21v1H171zM0 130h21v1H0zM114 130h1v1H114zM171 130h21v1H171zM0 131h21v1H0zM141 131h1v1H141zM171 131h21v1H171zM0 132h21v1H0zM171 132h21v1H171zM0 133h21v1H0zM107 133h1v1H107zM171 133h21v1H171zM0 134h21v1H0zM113 134h1v1H113zM171 134h21v1H171zM0 135h21v1H0zM113 135h1v1H113zM171 135h21v1H171zM0 136h21v1H0zM83 136h1v1H83zM108 136h1v1H108zM171 136h21v1H171zM0 137h21v1H0zM110 137h1v1H110zM171 137h21v1H171zM0 138h21v1H0zM171 138h21v1H171zM0 139h21v1H0zM82 139h1v1H82zM171 139h21v1H171zM0 140h21v1H0zM171 140h21v1H171zM0 141h21v1H0zM78 141h1v1H78zM142 141h1v1H142zM171 141h21v1H171zM0 142h21v1H0zM171 142h21v1H171zM0 143h21v1H0zM171 143h21v1H171zM0 144h21v1H0zM171 144h21v1H171zM0 145h21v1H0zM171 145h21v1H171zM0 146h22v1H0zM171 146h21v1H171zM0 147h22v1H0zM170 147h22v1H170zM0 148h22v1H0zM170 148h22v1H170zM0 149h22v1H0zM171 149h21v1H171zM0 150h23v1H0zM170 150h22v1H170zM0 151h23v1H0zM169 151h23v1H169zM0 152h23v1H0zM169 152h23v1H169zM0 153h24v1H0zM168 153h24v1H168zM0 154h24v1H0zM168 154h24v1H168zM0 155h25v1H0zM167 155h25v1H167zM0 156h25v1H0zM167 156h25v1H167zM0 157h25v1H0zM166 157h26v1H166zM0 158h27v1H0zM166 158h26v1H166zM0 159h27v1H0zM165 159h27v1H165zM0 160h28v1H0zM165 160h27v1H165zM0 161h29v1H0zM163 161h29v1H163zM0 162h30v1H0zM163 162h29v1H163zM0 163h31v1H0zM161 163h31v1H161zM0 164h32v1H0zM160 164h32v1H160zM0 165h34v1H0zM159 165h33v1H159zM0 166h35v1H0zM157 166h1v1H157zM159 166h33v1H159zM0 167h37v1H0zM155 167h37v1H155zM0 168h39v1H0zM153 168h1v1H153zM155 168h37v1H155zM0 169h41v1H0zM151 169h41v1H151zM0 170h45v1H0zM147 170h45v1H147zM0 171h192v1H0zM0 172h192v1H0zM0 173h192v1H0zM0 174h192v1H0zM0 175h192v1H0zM0 176h192v1H0zM0 177h192v1H0zM0 178h192v1H0zM0 179h192v1H0zM0 180h192v1H0zM0 181h192v1H0zM0 182h192v1H0zM0 183h192v1H0zM0 184h192v1H0zM0 185h192v1H0zM0 186h192v1H0zM0 187h192v1H0zM0 188h192v1H0zM0 189h192v1H0zM0 190h192v1H0zM0 191h192v1H0z"/>
  <path fill="#f8f8ff" d="M48 51h1v1H48zM56 67h1v1H56zM92 70h1v1H92zM85 78h1v1H85zM86 89h1v1H86zM77 99h1v1H77zM82 109h1v1H82zM76 110h1v1H76zM94 111h1v1H94zM102 111h1v1H102zM104 112h1v1H104zM105 113h1v1H105zM88 115h1v1H88zM82 116h1v1H82zM109 118h1v1H109zM104 121h1v1H104zM138 122h1v1H138zM133 126h1v1H133zM107 132h1v1H107zM154 168h1v1H154z"/>
  <path fill="#f8fff8" d="M115 113h1v1H115zM25 157h1v1H25z"/>
  <path fill="#fff8f8" d="M164 160h1v1H164z"/>
  <path fill="#f8ffff" d="M97 74h1v1H97zM89 83h1v1H89zM76 112h1v1H76zM82 115h1v1H82zM76 120h1v1H76zM76 122h1v1H76zM76 125h1v1H76zM76 131h1v1H76zM135 132h1v1H135zM142 133h1v1H142zM147 140h1v1H147z"/>
  <path fill="#fff8ff" d="M65 76h1v1H65zM74 85h1v1H74zM76 87h1v1H76zM127 107h1v1H127zM82 110h1v1H82zM107 115h1v1H107zM96 116h1v1H96zM100 116h1v1H100zM130 117h1v1H130zM82 119h1v1H82zM170 149h1v1H170z"/>
  <path fill="#fffff8" d="M162 162h1v1H162z"/>
  <path fill="#ffffff" d="M50 49h4v1H50zM49 50h5v1H49zM49 51h6v1H49zM48 52h7v1H48zM49 53h6v1H49zM49 54h7v1H49zM49 55h7v1H49zM50 56h7v1H50zM50 57h7v1H50zM51 58h7v1H51zM51 59h7v1H51zM52 60h7v1H52zM52 61h8v1H52zM53 62h7v1H53zM53 63h8v1H53zM54 64h8v1H54zM55 65h8v1H55zM56 66h8v1H56zM57 67h8v1H57zM57 68h9v1H57zM58 69h9v1H58zM95 69h2v1H95zM59 70h9v1H59zM93 70h5v1H93zM60 71h9v1H60zM91 71h7v1H91zM61 72h9v1H61zM90 72h9v1H90zM62 73h9v1H62zM89 73h9v1H89zM63 74h9v1H63zM88 74h9v1H88zM64 75h9v1H64zM88 75h8v1H88zM66 76h8v1H66zM87 76h8v1H87zM66 77h9v1H66zM86 77h8v1H86zM67 78h9v1H67zM86 78h7v1H86zM68 79h9v1H68zM85 79h7v1H85zM70 80h8v1H70zM84 80h7v1H84zM71 81h8v1H71zM84 81h7v1H84zM72 82h8v1H72zM83 82h7v1H83zM73 83h8v1H73zM83 83h6v1H83zM74 84h15v1H74zM75 85h13v1H75zM75 86h13v1H75zM77 87h10v1H77zM77 88h10v1H77zM78 89h8v1H78zM79 90h7v1H79zM79 91h7v1H79zM79 92h6v1H79zM79 93h6v1H79zM78 94h7v1H78zM78 95h6v1H78zM78 96h6v1H78zM78 97h6v1H78zM78 98h6v1H78zM78 99h6v1H78zM77 100h7v1H77zM77 101h6v1H77zM77 102h6v1H77zM77 103h6v1H77zM77 104h6v1H77zM77 105h6v1H77zM77 106h6v1H77zM77 107h6v1H77zM122 107h5v1H122zM77 108h5v1H77zM120 108h10v1H120zM77 109h5v1H77zM119 109h12v1H119zM77 110h5v1H77zM118 110h15v1H118zM76 111h7v1H76zM95 111h7v1H95zM117 111h16v1H117zM77 112h6v1H77zM92 112h12v1H92zM116 112h9v1H116zM126 112h8v1H126zM76 113h7v1H76zM91 113h14v1H91zM116 113h7v1H116zM127 113h8v1H127zM76 114h7v1H76zM90 114h17v1H90zM115 114h7v1H115zM129 114h6v1H129zM76 115h6v1H76zM89 115h18v1H89zM114 115h7v1H114zM129 115h7v1H129zM76 116h6v1H76zM88 116h8v1H88zM101 116h7v1H101zM114 116h6v1H114zM130 116h6v1H130zM76 117h7v1H76zM87 117h8v1H87zM101 117h8v1H101zM113 117h7v1H113zM131 117h6v1H131zM76 118h7v1H76zM86 118h8v1H86zM103 118h6v1H103zM113 118h6v1H113zM131 118h6v1H131zM76 119h6v1H76zM85 119h8v1H85zM104 119h6v1H104zM112 119h7v1H112zM131 119h6v1H131zM77 120h5v1H77zM85 120h7v1H85zM104 120h7v1H104zM112 120h6v1H112zM132 120h6v1H132zM76 121h7v1H76zM84 121h7v1H84zM105 121h13v1H105zM132 121h6v1H132zM77 122h13v1H77zM105 122h12v1H105zM132 122h6v1H132zM76 123h13v1H76zM106 123h11v1H106zM133 123h6v1H133zM76 124h13v1H76zM106 124h10v1H106zM133 124h6v1H133zM77 125h11v1H77zM106 125h10v1H106zM133 125h6v1H133zM76 126h12v1H76zM106 126h10v1H106zM134 126h6v1H134zM76 127h11v1H76zM107 127h8v1H107zM134 127h6v1H134zM76 128h10v1H76zM107 128h8v1H107zM134 128h6v1H134zM76 129h10v1H76zM107 129h8v1H107zM134 129h7v1H134zM76 130h10v1H76zM107 130h7v1H107zM135 130h6v1H135zM77 131h8v1H77zM107 131h7v1H107zM135 131h6v1H135zM76 132h9v1H76zM108 132h6v1H108zM136 132h6v1H136zM76 133h8v1H76zM108 133h6v1H108zM136 133h6v1H136zM76 134h8v1H76zM108 134h5v1H108zM136 134h7v1H136zM76 135h8v1H76zM108 135h5v1H108zM137 135h7v1H137zM76 136h7v1H76zM109 136h4v1H109zM137 136h9v1H137zM76 137h7v1H76zM138 137h9v1H138zM76 138h7v1H76zM139 138h9v1H139zM77 139h5v1H77zM140 139h8v1H140zM77 140h5v1H77zM141 140h6v1H141zM79 141h2v1H79zM143 141h4v1H143zM158 166h1v1H158z"/>
</svg>
