<svg xmlns="http://www.w3.org/2000/svg" viewBox="0 0 192 192" role="img">
  <desc>Generated vector SVG from gaming.png</desc>
  <path fill="#081838" d="M102 84h1v1H102zM67 85h1v1H67zM88 103h2v1H88z"/>
  <path fill="#081840" d="M40 13h112v1H40zM34 14h14v1H34zM49 14h49v1H49zM99 14h59v1H99zM32 15h128v1H32zM30 16h133v1H30zM27 17h138v1H27zM26 18h140v1H26zM25 19h142v1H25zM23 20h145v1H23zM22 21h147v1H22zM21 22h149v1H21zM21 23h111v1H21zM133 23h38v1H133zM20 24h152v1H20zM19 25h40v1H19zM61 25h67v1H61zM130 25h43v1H130zM19 26h37v1H19zM57 26h116v1H57zM18 27h121v1H18zM140 27h34v1H140zM17 28h137v1H17zM155 28h19v1H155zM17 29h73v1H17zM91 29h84v1H91zM16 30h73v1H16zM92 30h83v1H92zM16 31h160v1H16zM16 32h78v1H16zM95 32h45v1H95zM141 32h35v1H141zM15 33h88v1H15zM104 33h72v1H104zM15 34h88v1H15zM104 34h56v1H104zM161 34h7v1H161zM169 34h8v1H169zM15 35h76v1H15zM93 35h23v1H93zM118 35h34v1H118zM155 35h4v1H155zM160 35h9v1H160zM170 35h7v1H170zM15 36h60v1H15zM76 36h39v1H76zM120 36h39v1H120zM162 36h15v1H162zM15 37h58v1H15zM74 37h40v1H74zM121 37h30v1H121zM153 37h17v1H153zM171 37h6v1H171zM14 38h32v1H14zM52 38h16v1H52zM69 38h3v1H69zM73 38h40v1H73zM121 38h19v1H121zM141 38h16v1H141zM158 38h13v1H158zM172 38h5v1H172zM14 39h18v1H14zM33 39h13v1H33zM53 39h58v1H53zM121 39h14v1H121zM137 39h3v1H137zM141 39h36v1H141zM14 40h16v1H14zM31 40h14v1H31zM53 40h42v1H53zM96 40h17v1H96zM121 40h14v1H121zM139 40h4v1H139zM145 40h15v1H145zM161 40h16v1H161zM14 41h31v1H14zM53 41h30v1H53zM84 41h24v1H84zM109 41h4v1H109zM121 41h22v1H121zM145 41h5v1H145zM151 41h26v1H151zM14 42h31v1H14zM53 42h32v1H53zM87 42h3v1H87zM91 42h21v1H91zM121 42h43v1H121zM167 42h10v1H167zM14 43h32v1H14zM54 43h58v1H54zM121 43h23v1H121zM145 43h16v1H145zM162 43h1v1H162zM165 43h12v1H165zM14 44h31v1H14zM54 44h58v1H54zM120 44h24v1H120zM145 44h2v1H145zM148 44h12v1H148zM165 44h12v1H165zM14 45h32v1H14zM55 45h57v1H55zM120 45h39v1H120zM162 45h1v1H162zM164 45h7v1H164zM172 45h5v1H172zM14 46h32v1H14zM55 46h56v1H55zM120 46h40v1H120zM162 46h15v1H162zM14 47h33v1H14zM55 47h56v1H55zM119 47h11v1H119zM131 47h22v1H131zM154 47h17v1H154zM172 47h5v1H172zM14 48h33v1H14zM56 48h12v1H56zM73 48h37v1H73zM119 48h46v1H119zM166 48h11v1H166zM14 49h33v1H14zM57 49h11v1H57zM75 49h35v1H75zM119 49h58v1H119zM14 50h34v1H14zM58 50h10v1H58zM75 50h34v1H75zM118 50h18v1H118zM137 50h40v1H137zM14 51h34v1H14zM58 51h8v1H58zM74 51h34v1H74zM118 51h18v1H118zM137 51h40v1H137zM14 52h34v1H14zM59 52h8v1H59zM74 52h32v1H74zM117 52h19v1H117zM137 52h40v1H137zM14 53h36v1H14zM60 53h6v1H60zM74 53h32v1H74zM117 53h60v1H117zM14 54h36v1H14zM61 54h3v1H61zM65 54h1v1H65zM74 54h29v1H74zM116 54h13v1H116zM130 54h47v1H130zM14 55h37v1H14zM63 55h2v1H63zM74 55h29v1H74zM115 55h62v1H115zM14 56h38v1H14zM63 56h1v1H63zM73 56h28v1H73zM114 56h63v1H114zM14 57h38v1H14zM73 57h26v1H73zM113 57h32v1H113zM146 57h31v1H146zM14 58h39v1H14zM72 58h27v1H72zM112 58h65v1H112zM14 59h40v1H14zM72 59h25v1H72zM111 59h31v1H111zM143 59h34v1H143zM14 60h41v1H14zM71 60h24v1H71zM110 60h67v1H110zM14 61h42v1H14zM72 61h22v1H72zM108 61h53v1H108zM162 61h15v1H162zM14 62h43v1H14zM70 62h23v1H70zM108 62h41v1H108zM150 62h27v1H150zM14 63h45v1H14zM72 63h19v1H72zM106 63h71v1H106zM14 64h45v1H14zM73 64h17v1H73zM104 64h73v1H104zM14 65h47v1H14zM74 65h15v1H74zM102 65h75v1H102zM14 66h48v1H14zM75 66h13v1H75zM101 66h76v1H101zM14 67h48v1H14zM76 67h11v1H76zM100 67h77v1H100zM14 68h48v1H14zM63 68h1v1H63zM77 68h9v1H77zM98 68h79v1H98zM14 69h51v1H14zM79 69h6v1H79zM97 69h80v1H97zM14 70h53v1H14zM79 70h6v1H79zM96 70h81v1H96zM14 71h53v1H14zM79 71h5v1H79zM96 71h81v1H96zM14 72h55v1H14zM80 72h3v1H80zM94 72h83v1H94zM14 73h55v1H14zM81 73h1v1H81zM93 73h84v1H93zM14 74h57v1H14zM81 74h1v1H81zM92 74h54v1H92zM147 74h30v1H147zM14 75h57v1H14zM91 75h55v1H91zM147 75h30v1H147zM14 76h58v1H14zM91 76h86v1H91zM14 77h17v1H14zM32 77h1v1H32zM34 77h38v1H34zM90 77h47v1H90zM138 77h39v1H138zM14 78h15v1H14zM30 78h43v1H30zM89 78h88v1H89zM14 79h59v1H14zM89 79h88v1H89zM14 80h61v1H14zM88 80h2v1H88zM91 80h2v1H91zM94 80h3v1H94zM98 80h79v1H98zM14 81h45v1H14zM71 81h4v1H71zM87 81h3v1H87zM99 81h41v1H99zM141 81h36v1H141zM14 82h44v1H14zM102 82h75v1H102zM14 83h43v1H14zM102 83h25v1H102zM128 83h49v1H128zM14 84h43v1H14zM103 84h24v1H103zM128 84h28v1H128zM157 84h20v1H157zM14 85h42v1H14zM61 85h1v1H61zM64 85h1v1H64zM68 85h2v1H68zM90 85h2v1H90zM94 85h1v1H94zM96 85h2v1H96zM103 85h48v1H103zM152 85h3v1H152zM156 85h21v1H156zM14 86h42v1H14zM61 86h12v1H61zM74 86h3v1H74zM83 86h1v1H83zM86 86h4v1H86zM91 86h2v1H91zM94 86h3v1H94zM103 86h74v1H103zM14 87h42v1H14zM61 87h5v1H61zM69 87h24v1H69zM95 87h2v1H95zM98 87h1v1H98zM103 87h74v1H103zM14 88h42v1H14zM60 88h5v1H60zM70 88h21v1H70zM97 88h2v1H97zM103 88h74v1H103zM14 89h27v1H14zM43 89h13v1H43zM60 89h5v1H60zM70 89h21v1H70zM96 89h3v1H96zM103 89h74v1H103zM14 90h42v1H14zM60 90h3v1H60zM72 90h19v1H72zM96 90h3v1H96zM103 90h74v1H103zM14 91h42v1H14zM60 91h3v1H60zM73 91h15v1H73zM97 91h1v1H97zM103 91h74v1H103zM14 92h42v1H14zM60 92h2v1H60zM73 92h14v1H73zM92 92h1v1H92zM95 92h4v1H95zM103 92h74v1H103zM14 93h42v1H14zM60 93h3v1H60zM72 93h15v1H72zM92 93h2v1H92zM95 93h4v1H95zM103 93h74v1H103zM14 94h42v1H14zM60 94h5v1H60zM70 94h16v1H70zM92 94h7v1H92zM103 94h20v1H103zM124 94h12v1H124zM138 94h18v1H138zM158 94h19v1H158zM14 95h42v1H14zM60 95h6v1H60zM70 95h18v1H70zM91 95h7v1H91zM102 95h35v1H102zM139 95h38v1H139zM14 96h42v1H14zM61 96h4v1H61zM69 96h7v1H69zM77 96h7v1H77zM85 96h11v1H85zM97 96h1v1H97zM103 96h35v1H103zM140 96h37v1H140zM14 97h42v1H14zM61 97h4v1H61zM66 97h3v1H66zM70 97h4v1H70zM86 97h10v1H86zM103 97h35v1H103zM140 97h37v1H140zM14 98h43v1H14zM62 98h1v1H62zM65 98h4v1H65zM87 98h2v1H87zM90 98h3v1H90zM95 98h1v1H95zM102 98h37v1H102zM140 98h37v1H140zM14 99h17v1H14zM32 99h25v1H32zM101 99h38v1H101zM140 99h12v1H140zM153 99h24v1H153zM14 100h44v1H14zM100 100h77v1H100zM14 101h45v1H14zM99 101h78v1H99zM14 102h45v1H14zM83 102h1v1H83zM98 102h79v1H98zM14 103h56v1H14zM72 103h2v1H72zM83 103h5v1H83zM90 103h1v1H90zM92 103h85v1H92zM14 104h61v1H14zM83 104h94v1H83zM14 105h61v1H14zM83 105h94v1H83zM14 106h61v1H14zM83 106h94v1H83zM14 107h61v1H14zM82 107h95v1H82zM14 108h60v1H14zM82 108h95v1H82zM14 109h60v1H14zM83 109h13v1H83zM98 109h79v1H98zM14 110h60v1H14zM82 110h12v1H82zM101 110h20v1H101zM128 110h49v1H128zM14 111h60v1H14zM82 111h10v1H82zM102 111h17v1H102zM130 111h47v1H130zM14 112h60v1H14zM82 112h8v1H82zM104 112h13v1H104zM131 112h46v1H131zM14 113h60v1H14zM82 113h7v1H82zM105 113h11v1H105zM133 113h17v1H133zM151 113h26v1H151zM14 114h60v1H14zM82 114h6v1H82zM106 114h9v1H106zM134 114h16v1H134zM151 114h26v1H151zM14 115h60v1H14zM82 115h5v1H82zM106 115h9v1H106zM134 115h43v1H134zM14 116h60v1H14zM82 116h4v1H82zM107 116h7v1H107zM134 116h43v1H134zM14 117h59v1H14zM82 117h3v1H82zM108 117h5v1H108zM135 117h42v1H135zM14 118h60v1H14zM82 118h2v1H82zM95 118h4v1H95zM108 118h5v1H108zM123 118h2v1H123zM136 118h41v1H136zM14 119h60v1H14zM82 119h2v1H82zM93 119h6v1H93zM108 119h4v1H108zM121 119h6v1H121zM136 119h41v1H136zM14 120h60v1H14zM81 120h2v1H81zM93 120h7v1H93zM109 120h3v1H109zM121 120h6v1H121zM136 120h41v1H136zM14 121h60v1H14zM81 121h1v1H81zM92 121h9v1H92zM120 121h7v1H120zM137 121h40v1H137zM14 122h60v1H14zM91 122h10v1H91zM119 122h10v1H119zM137 122h19v1H137zM158 122h19v1H158zM14 123h37v1H14zM52 123h21v1H52zM91 123h11v1H91zM110 123h1v1H110zM119 123h10v1H119zM137 123h40v1H137zM14 124h59v1H14zM91 124h11v1H91zM118 124h10v1H118zM138 124h39v1H138zM14 125h59v1H14zM89 125h13v1H89zM118 125h10v1H118zM138 125h39v1H138zM14 126h19v1H14zM34 126h39v1H34zM88 126h8v1H88zM97 126h6v1H97zM117 126h12v1H117zM138 126h39v1H138zM14 127h19v1H14zM34 127h39v1H34zM88 127h7v1H88zM97 127h5v1H97zM117 127h13v1H117zM138 127h39v1H138zM14 128h18v1H14zM33 128h40v1H33zM88 128h8v1H88zM97 128h5v1H97zM117 128h13v1H117zM138 128h39v1H138zM14 129h19v1H14zM34 129h2v1H34zM37 129h36v1H37zM87 129h16v1H87zM116 129h15v1H116zM139 129h38v1H139zM14 130h19v1H14zM34 130h39v1H34zM87 130h16v1H87zM116 130h15v1H116zM139 130h29v1H139zM172 130h5v1H172zM14 131h40v1H14zM55 131h1v1H55zM59 131h14v1H59zM86 131h18v1H86zM116 131h15v1H116zM139 131h26v1H139zM166 131h1v1H166zM172 131h5v1H172zM14 132h37v1H14zM53 132h1v1H53zM58 132h15v1H58zM86 132h18v1H86zM115 132h17v1H115zM140 132h22v1H140zM163 132h4v1H163zM171 132h6v1H171zM14 133h13v1H14zM28 133h22v1H28zM54 133h1v1H54zM58 133h15v1H58zM85 133h12v1H85zM98 133h6v1H98zM115 133h11v1H115zM127 133h5v1H127zM140 133h23v1H140zM164 133h1v1H164zM171 133h6v1H171zM14 134h35v1H14zM54 134h1v1H54zM59 134h14v1H59zM85 134h18v1H85zM115 134h8v1H115zM124 134h1v1H124zM126 134h5v1H126zM140 134h11v1H140zM152 134h15v1H152zM171 134h6v1H171zM14 135h36v1H14zM54 135h1v1H54zM59 135h14v1H59zM85 135h19v1H85zM115 135h8v1H115zM125 135h7v1H125zM140 135h21v1H140zM164 135h2v1H164zM167 135h10v1H167zM14 136h36v1H14zM58 136h15v1H58zM84 136h21v1H84zM114 136h9v1H114zM125 136h8v1H125zM141 136h13v1H141zM155 136h13v1H155zM170 136h7v1H170zM14 137h35v1H14zM50 137h1v1H50zM52 137h3v1H52zM57 137h16v1H57zM84 137h19v1H84zM114 137h11v1H114zM126 137h7v1H126zM142 137h26v1H142zM169 137h8v1H169zM14 138h9v1H14zM25 138h26v1H25zM52 138h3v1H52zM57 138h16v1H57zM84 138h20v1H84zM114 138h19v1H114zM142 138h18v1H142zM161 138h16v1H161zM14 139h59v1H14zM83 139h22v1H83zM114 139h8v1H114zM123 139h11v1H123zM143 139h34v1H143zM14 140h49v1H14zM64 140h9v1H64zM83 140h21v1H83zM114 140h7v1H114zM122 140h1v1H122zM124 140h10v1H124zM144 140h12v1H144zM157 140h20v1H157zM14 141h46v1H14zM62 141h11v1H62zM83 141h22v1H83zM113 141h11v1H113zM125 141h10v1H125zM144 141h11v1H144zM158 141h19v1H158zM14 142h46v1H14zM61 142h12v1H61zM83 142h22v1H83zM114 142h3v1H114zM118 142h17v1H118zM145 142h9v1H145zM155 142h22v1H155zM14 143h59v1H14zM82 143h23v1H82zM113 143h4v1H113zM119 143h17v1H119zM148 143h16v1H148zM166 143h11v1H166zM14 144h59v1H14zM82 144h25v1H82zM112 144h5v1H112zM118 144h18v1H118zM149 144h15v1H149zM167 144h10v1H167zM14 145h59v1H14zM82 145h26v1H82zM110 145h27v1H110zM150 145h13v1H150zM164 145h2v1H164zM167 145h10v1H167zM14 146h59v1H14zM82 146h56v1H82zM150 146h11v1H150zM162 146h15v1H162zM14 147h7v1H14zM22 147h51v1H22zM82 147h57v1H82zM150 147h27v1H150zM14 148h5v1H14zM20 148h1v1H20zM23 148h50v1H23zM81 148h33v1H81zM115 148h25v1H115zM150 148h27v1H150zM14 149h6v1H14zM22 149h51v1H22zM81 149h61v1H81zM149 149h28v1H149zM14 150h6v1H14zM21 150h1v1H21zM23 150h50v1H23zM81 150h62v1H81zM147 150h30v1H147zM14 151h5v1H14zM23 151h50v1H23zM81 151h96v1H81zM14 152h6v1H14zM22 152h2v1H22zM26 152h48v1H26zM80 152h97v1H80zM14 153h6v1H14zM21 153h54v1H21zM76 153h1v1H76zM78 153h99v1H78zM15 154h162v1H15zM15 155h17v1H15zM33 155h144v1H33zM15 156h162v1H15zM15 157h162v1H15zM15 158h161v1H15zM16 159h160v1H16zM16 160h92v1H16zM109 160h67v1H109zM16 161h159v1H16zM17 162h158v1H17zM17 163h17v1H17zM35 163h95v1H35zM132 163h43v1H132zM18 164h16v1H18zM35 164h46v1H35zM82 164h92v1H82zM18 165h155v1H18zM19 166h154v1H19zM20 167h152v1H20zM20 168h151v1H20zM21 169h150v1H21zM22 170h148v1H22zM23 171h146v1H23zM24 172h144v1H24zM26 173h140v1H26zM27 174h138v1H27zM29 175h134v1H29zM31 176h130v1H31zM33 177h126v1H33zM36 178h42v1H36zM79 178h11v1H79zM91 178h6v1H91zM98 178h13v1H98zM112 178h15v1H112zM128 178h8v1H128zM138 178h11v1H138zM150 178h6v1H150z"/>
  <path fill="#081848" d="M116 53h1v1H116zM74 108h1v1H74zM81 119h1v1H81zM103 130h1v1H103zM139 132h1v1H139z"/>
  <path fill="#082040" d="M152 13h1v1H152zM48 14h1v1H48zM98 14h1v1H98zM31 15h1v1H31zM160 15h1v1H160zM29 16h1v1H29zM132 23h1v1H132zM59 25h2v1H59zM128 25h2v1H128zM18 26h1v1H18zM56 26h1v1H56zM139 27h1v1H139zM154 28h1v1H154zM174 28h1v1H174zM90 29h1v1H90zM89 30h3v1H89zM94 32h1v1H94zM140 32h1v1H140zM103 33h1v1H103zM103 34h1v1H103zM160 34h1v1H160zM168 34h1v1H168zM91 35h2v1H91zM116 35h2v1H116zM152 35h3v1H152zM159 35h1v1H159zM169 35h1v1H169zM75 36h1v1H75zM159 36h3v1H159zM73 37h1v1H73zM151 37h2v1H151zM170 37h1v1H170zM46 38h1v1H46zM68 38h1v1H68zM72 38h1v1H72zM140 38h1v1H140zM157 38h1v1H157zM171 38h1v1H171zM32 39h1v1H32zM111 39h2v1H111zM135 39h2v1H135zM140 39h1v1H140zM30 40h1v1H30zM45 40h1v1H45zM95 40h1v1H95zM135 40h4v1H135zM143 40h2v1H143zM160 40h1v1H160zM83 41h1v1H83zM108 41h1v1H108zM143 41h2v1H143zM150 41h1v1H150zM85 42h2v1H85zM90 42h1v1H90zM112 42h1v1H112zM164 42h3v1H164zM144 43h1v1H144zM161 43h1v1H161zM163 43h2v1H163zM45 44h1v1H45zM144 44h1v1H144zM147 44h1v1H147zM160 44h5v1H160zM159 45h3v1H159zM163 45h1v1H163zM171 45h1v1H171zM160 46h2v1H160zM130 47h1v1H130zM153 47h1v1H153zM171 47h1v1H171zM68 48h2v1H68zM72 48h1v1H72zM165 48h1v1H165zM47 49h1v1H47zM74 49h1v1H74zM57 50h1v1H57zM136 50h1v1H136zM66 51h1v1H66zM136 51h1v1H136zM48 52h1v1H48zM106 52h1v1H106zM136 52h1v1H136zM64 54h1v1H64zM103 54h2v1H103zM129 54h1v1H129zM62 55h1v1H62zM64 56h1v1H64zM101 56h1v1H101zM99 57h1v1H99zM145 57h1v1H145zM142 59h1v1H142zM71 61h1v1H71zM161 61h1v1H161zM107 62h1v1H107zM149 62h1v1H149zM59 64h1v1H59zM62 67h1v1H62zM99 67h1v1H99zM62 68h1v1H62zM64 68h1v1H64zM65 69h1v1H65zM78 69h1v1H78zM85 69h1v1H85zM95 70h1v1H95zM67 71h1v1H67zM95 71h1v1H95zM93 72h1v1H93zM69 73h1v1H69zM146 74h1v1H146zM71 75h1v1H71zM146 75h1v1H146zM72 76h1v1H72zM90 76h1v1H90zM31 77h1v1H31zM33 77h1v1H33zM72 77h1v1H72zM137 77h1v1H137zM29 78h1v1H29zM73 78h1v1H73zM73 79h2v1H73zM75 80h1v1H75zM90 80h1v1H90zM93 80h1v1H93zM97 80h1v1H97zM59 81h1v1H59zM75 81h1v1H75zM140 81h1v1H140zM101 82h1v1H101zM127 83h1v1H127zM127 84h1v1H127zM156 84h1v1H156zM62 85h2v1H62zM65 85h2v1H65zM92 85h2v1H92zM95 85h1v1H95zM151 85h1v1H151zM155 85h1v1H155zM73 86h1v1H73zM84 86h2v1H84zM90 86h1v1H90zM93 86h1v1H93zM97 86h1v1H97zM60 87h1v1H60zM93 87h2v1H93zM97 87h1v1H97zM91 88h1v1H91zM96 88h1v1H96zM41 89h2v1H41zM65 89h1v1H65zM91 91h1v1H91zM96 91h1v1H96zM62 92h1v1H62zM94 93h1v1H94zM86 94h1v1H86zM123 94h1v1H123zM136 94h2v1H136zM156 94h2v1H156zM137 95h2v1H137zM60 96h1v1H60zM65 96h1v1H65zM76 96h1v1H76zM84 96h1v1H84zM96 96h1v1H96zM102 96h1v1H102zM138 96h2v1H138zM65 97h1v1H65zM69 97h1v1H69zM96 97h1v1H96zM102 97h1v1H102zM138 97h2v1H138zM63 98h2v1H63zM69 98h1v1H69zM71 98h1v1H71zM89 98h1v1H89zM93 98h2v1H93zM139 98h1v1H139zM31 99h1v1H31zM139 99h1v1H139zM152 99h1v1H152zM59 102h2v1H59zM74 102h1v1H74zM84 102h1v1H84zM97 102h1v1H97zM70 103h2v1H70zM74 103h1v1H74zM91 103h1v1H91zM82 109h1v1H82zM96 109h2v1H96zM132 113h1v1H132zM150 113h1v1H150zM133 114h1v1H133zM150 114h1v1H150zM73 117h1v1H73zM127 120h1v1H127zM110 121h1v1H110zM127 121h1v1H127zM81 122h1v1H81zM156 122h2v1H156zM51 123h1v1H51zM73 123h1v1H73zM90 123h1v1H90zM90 124h1v1H90zM128 124h1v1H128zM128 125h2v1H128zM33 126h1v1H33zM96 126h1v1H96zM129 126h1v1H129zM33 127h1v1H33zM95 127h2v1H95zM102 127h1v1H102zM32 128h1v1H32zM87 128h1v1H87zM96 128h1v1H96zM102 128h1v1H102zM130 128h1v1H130zM33 129h1v1H33zM36 129h1v1H36zM33 130h1v1H33zM168 130h4v1H168zM54 131h1v1H54zM56 131h3v1H56zM165 131h1v1H165zM167 131h5v1H167zM51 132h2v1H51zM54 132h4v1H54zM162 132h1v1H162zM167 132h4v1H167zM27 133h1v1H27zM50 133h4v1H50zM55 133h3v1H55zM97 133h1v1H97zM126 133h1v1H126zM163 133h1v1H163zM165 133h6v1H165zM49 134h5v1H49zM55 134h4v1H55zM103 134h1v1H103zM123 134h1v1H123zM125 134h1v1H125zM131 134h1v1H131zM151 134h1v1H151zM167 134h4v1H167zM50 135h4v1H50zM55 135h4v1H55zM123 135h2v1H123zM161 135h3v1H161zM166 135h1v1H166zM50 136h8v1H50zM123 136h2v1H123zM154 136h1v1H154zM168 136h2v1H168zM49 137h1v1H49zM51 137h1v1H51zM55 137h2v1H55zM103 137h2v1H103zM125 137h1v1H125zM141 137h1v1H141zM168 137h1v1H168zM23 138h2v1H23zM51 138h1v1H51zM55 138h2v1H55zM104 138h1v1H104zM160 138h1v1H160zM122 139h1v1H122zM142 139h1v1H142zM63 140h1v1H63zM104 140h1v1H104zM121 140h1v1H121zM123 140h1v1H123zM143 140h1v1H143zM156 140h1v1H156zM60 141h2v1H60zM124 141h1v1H124zM155 141h3v1H155zM60 142h1v1H60zM113 142h1v1H113zM117 142h1v1H117zM154 142h1v1H154zM105 143h1v1H105zM117 143h2v1H117zM164 143h2v1H164zM117 144h1v1H117zM164 144h3v1H164zM108 145h2v1H108zM163 145h1v1H163zM166 145h1v1H166zM161 146h1v1H161zM21 147h1v1H21zM19 148h1v1H19zM21 148h2v1H21zM114 148h1v1H114zM20 149h2v1H20zM20 150h1v1H20zM22 150h1v1H22zM73 150h1v1H73zM143 150h1v1H143zM19 151h4v1H19zM73 151h1v1H73zM20 152h2v1H20zM24 152h2v1H24zM74 152h1v1H74zM20 153h1v1H20zM75 153h1v1H75zM77 153h1v1H77zM14 154h1v1H14zM32 155h1v1H32zM108 160h1v1H108zM175 161h1v1H175zM34 163h1v1H34zM130 163h2v1H130zM34 164h1v1H34zM81 164h1v1H81zM173 165h1v1H173zM25 173h1v1H25zM28 175h1v1H28zM30 176h1v1H30zM78 178h1v1H78zM90 178h1v1H90zM97 178h1v1H97zM111 178h1v1H111zM127 178h1v1H127zM136 178h2v1H136zM149 178h1v1H149z"/>
  <path fill="#101840" d="M66 53h1v1H66zM83 72h1v1H83zM115 114h1v1H115z"/>
  <path fill="#082048" d="M39 13h1v1H39zM54 45h1v1H54zM74 50h1v1H74zM52 57h1v1H52zM105 63h1v1H105zM72 64h1v1H72zM100 66h1v1H100zM63 67h1v1H63zM78 70h1v1H78zM82 73h1v1H82zM73 77h1v1H73zM88 79h1v1H88zM57 83h1v1H57zM77 86h1v1H77zM98 86h1v1H98zM65 88h1v1H65zM91 89h1v1H91zM91 90h1v1H91zM98 91h1v1H98zM65 94h1v1H65zM85 97h1v1H85zM70 98h1v1H70zM73 102h1v1H73zM100 110h1v1H100zM107 117h1v1H107zM125 118h1v1H125zM135 118h1v1H135zM99 119h1v1H99zM109 121h1v1H109zM110 122h1v1H110zM89 124h1v1H89zM86 130h1v1H86z"/>
  <path fill="#101848" d="M81 86h2v1H81zM61 102h1v1H61zM81 118h1v1H81zM82 121h1v1H82zM149 148h1v1H149z"/>
  <path fill="#102040" d="M24 19h1v1H24zM168 20h1v1H168zM169 21h1v1H169zM14 37h1v1H14zM117 112h1v1H117zM176 158h1v1H176zM171 168h1v1H171zM166 173h1v1H166zM32 177h1v1H32z"/>
  <path fill="#082050" d="M109 122h1v1H109z"/>
  <path fill="#102048" d="M170 22h1v1H170zM20 23h1v1H20zM175 30h1v1H175zM119 36h1v1H119zM120 37h1v1H120zM51 38h1v1H51zM52 39h1v1H52zM46 46h1v1H46zM48 51h1v1H48zM117 51h1v1H117zM65 55h1v1H65zM103 55h1v1H103zM53 58h1v1H53zM95 60h1v1H95zM57 62h1v1H57zM71 63h1v1H71zM91 63h1v1H91zM103 64h1v1H103zM62 66h1v1H62zM74 66h1v1H74zM76 68h1v1H76zM86 68h1v1H86zM96 69h1v1H96zM94 71h1v1H94zM92 73h1v1H92zM89 77h1v1H89zM58 82h1v1H58zM78 86h1v1H78zM87 92h1v1H87zM93 92h2v1H93zM102 94h1v1H102zM85 102h1v1H85zM82 106h1v1H82zM121 110h1v1H121zM127 110h1v1H127zM116 113h1v1H116zM113 117h1v1H113zM122 118h1v1H122zM92 120h1v1H92zM136 121h1v1H136zM73 124h1v1H73zM129 124h1v1H129zM137 124h1v1H137zM73 125h1v1H73zM130 127h1v1H130zM131 131h1v1H131zM132 135h1v1H132zM113 140h1v1H113zM19 167h1v1H19zM163 175h1v1H163zM161 176h1v1H161z"/>
  <path fill="#102050" d="M56 49h1v1H56zM118 49h1v1H118zM73 55h1v1H73zM64 57h1v1H64zM54 59h1v1H54zM55 60h1v1H55zM56 61h1v1H56zM70 61h1v1H70zM73 65h1v1H73zM77 69h1v1H77zM74 78h1v1H74zM76 81h1v1H76zM56 85h1v1H56zM70 85h1v1H70zM60 86h1v1H60zM72 98h1v1H72zM86 98h1v1H86zM81 117h1v1H81zM91 121h1v1H91zM73 126h1v1H73zM73 127h1v1H73zM85 132h1v1H85zM84 135h1v1H84zM104 135h1v1H104zM81 147h1v1H81z"/>
  <path fill="#182048" d="M120 43h1v1H120zM90 64h1v1H90z"/>
  <path fill="#102850" d="M45 42h1v1H45z"/>
  <path fill="#182050" d="M113 38h1v1H113zM112 43h1v1H112zM68 49h1v1H68zM60 54h1v1H60zM115 54h1v1H115zM61 55h1v1H61zM100 57h1v1H100zM75 67h1v1H75zM87 67h1v1H87zM97 68h1v1H97zM91 74h1v1H91zM70 81h1v1H70zM102 85h1v1H102zM79 86h2v1H79zM72 91h1v1H72zM88 91h1v1H88zM72 92h1v1H72zM74 97h1v1H74zM83 101h1v1H83zM74 109h1v1H74zM94 110h1v1H94zM99 110h1v1H99zM103 112h1v1H103zM104 113h1v1H104zM105 114h1v1H105zM120 120h1v1H120zM136 144h1v1H136zM140 148h1v1H140zM144 150h1v1H144z"/>
  <path fill="#182848" d="M38 13h1v1H38zM153 13h1v1H153zM167 19h1v1H167zM173 26h1v1H173zM176 33h1v1H176zM15 159h1v1H15z"/>
  <path fill="#182058" d="M59 53h1v1H59zM72 57h1v1H72zM61 65h1v1H61zM60 81h1v1H60zM84 97h1v1H84zM59 101h1v1H59zM84 118h1v1H84zM81 123h1v1H81zM73 128h1v1H73zM73 129h1v1H73zM73 130h1v1H73zM73 131h1v1H73zM73 132h1v1H73zM73 133h1v1H73zM73 134h1v1H73zM73 135h1v1H73zM73 136h1v1H73zM83 138h1v1H83zM82 142h1v1H82zM73 145h1v1H73zM73 147h1v1H73zM73 148h1v1H73zM73 149h1v1H73zM80 151h1v1H80z"/>
  <path fill="#182850" d="M17 164h1v1H17zM26 174h1v1H26zM159 177h1v1H159z"/>
  <path fill="#202050" d="M111 46h1v1H111zM89 65h1v1H89zM88 66h1v1H88zM129 111h1v1H129z"/>
  <path fill="#182060" d="M73 137h1v1H73z"/>
  <path fill="#182858" d="M50 54h1v1H50zM73 138h1v1H73zM73 139h1v1H73zM73 140h1v1H73zM73 141h1v1H73zM73 142h1v1H73zM73 143h1v1H73zM73 144h1v1H73zM73 146h1v1H73z"/>
  <path fill="#183050" d="M33 14h1v1H33z"/>
  <path fill="#202058" d="M70 48h1v1H70zM73 49h1v1H73zM80 73h1v1H80zM102 93h1v1H102zM87 94h1v1H87zM98 95h1v1H98zM97 97h1v1H97zM101 98h1v1H101zM82 105h1v1H82zM81 116h1v1H81zM94 118h1v1H94zM100 120h1v1H100zM111 121h1v1H111zM128 121h1v1H128zM116 128h1v1H116zM115 131h1v1H115zM114 135h1v1H114zM133 138h1v1H133zM111 144h1v1H111z"/>
  <path fill="#202060" d="M71 59h1v1H71zM69 72h1v1H69zM70 73h1v1H70zM101 83h1v1H101zM69 95h1v1H69zM57 99h1v1H57zM112 143h1v1H112z"/>
  <path fill="#203050" d="M158 14h1v1H158zM171 23h1v1H171zM15 32h1v1H15zM14 155h1v1H14zM35 178h1v1H35z"/>
  <path fill="#282058" d="M110 48h1v1H110z"/>
  <path fill="#183060" d="M45 41h1v1H45z"/>
  <path fill="#202860" d="M71 48h1v1H71zM68 71h1v1H68zM96 102h1v1H96zM105 142h1v1H105zM79 152h1v1H79z"/>
  <path fill="#203058" d="M16 162h1v1H16z"/>
  <path fill="#282060" d="M94 61h1v1H94zM82 74h1v1H82zM90 81h1v1H90zM89 85h1v1H89zM88 95h1v1H88zM74 110h1v1H74zM102 125h1v1H102zM141 138h1v1H141zM149 145h1v1H149z"/>
  <path fill="#202868" d="M58 52h1v1H58z"/>
  <path fill="#203858" d="M25 18h1v1H25z"/>
  <path fill="#282860" d="M100 82h1v1H100zM90 91h1v1H90zM81 115h1v1H81z"/>
  <path fill="#283850" d="M172 167h1v1H172z"/>
  <path fill="#302060" d="M97 59h1v1H97zM109 60h1v1H109zM92 88h1v1H92zM90 95h1v1H90zM96 98h1v1H96zM108 120h1v1H108zM146 150h1v1H146z"/>
  <path fill="#203068" d="M53 43h1v1H53z"/>
  <path fill="#282868" d="M67 70h1v1H67zM69 88h1v1H69zM69 89h1v1H69zM69 94h1v1H69zM103 129h1v1H103z"/>
  <path fill="#283858" d="M19 24h1v1H19zM14 36h1v1H14zM177 39h1v1H177zM177 40h1v1H177zM177 41h1v1H177zM177 42h1v1H177zM177 43h1v1H177zM177 45h1v1H177zM177 46h1v1H177zM177 47h1v1H177zM177 48h1v1H177zM177 49h1v1H177zM177 50h1v1H177zM177 51h1v1H177zM177 52h1v1H177zM177 53h1v1H177zM177 54h1v1H177zM177 55h1v1H177zM177 56h1v1H177zM177 57h1v1H177zM177 58h1v1H177zM177 59h1v1H177zM177 60h1v1H177zM177 61h1v1H177zM177 62h1v1H177zM177 63h1v1H177zM177 64h1v1H177zM177 65h1v1H177zM177 66h1v1H177zM177 67h1v1H177zM177 68h1v1H177zM177 69h1v1H177zM177 70h1v1H177zM177 71h1v1H177zM177 72h1v1H177zM177 73h1v1H177zM177 74h1v1H177zM177 75h1v1H177zM177 76h1v1H177zM177 77h1v1H177zM177 78h1v1H177zM177 79h1v1H177zM177 80h1v1H177zM177 81h1v1H177zM177 82h1v1H177zM177 83h1v1H177zM177 84h1v1H177zM177 85h1v1H177zM177 86h1v1H177zM177 87h1v1H177zM177 88h1v1H177zM177 89h1v1H177zM177 90h1v1H177zM177 91h1v1H177zM177 92h1v1H177zM177 93h1v1H177zM177 94h1v1H177zM177 95h1v1H177zM177 96h1v1H177zM177 97h1v1H177zM177 98h1v1H177zM177 99h1v1H177zM177 100h1v1H177zM177 101h1v1H177zM177 102h1v1H177zM177 103h1v1H177zM177 104h1v1H177zM177 105h1v1H177zM177 106h1v1H177zM177 107h1v1H177zM177 108h1v1H177zM177 109h1v1H177zM177 110h1v1H177zM177 111h1v1H177zM177 112h1v1H177zM177 113h1v1H177zM177 114h1v1H177zM177 115h1v1H177zM177 116h1v1H177zM177 117h1v1H177zM177 118h1v1H177zM177 119h1v1H177zM177 120h1v1H177zM177 121h1v1H177zM177 122h1v1H177zM177 123h1v1H177zM177 124h1v1H177zM177 125h1v1H177zM177 126h1v1H177zM177 127h1v1H177zM177 128h1v1H177zM177 129h1v1H177zM177 130h1v1H177zM177 131h1v1H177zM177 132h1v1H177zM177 133h1v1H177zM177 134h1v1H177zM177 135h1v1H177zM177 136h1v1H177zM177 137h1v1H177zM177 138h1v1H177zM177 139h1v1H177zM177 140h1v1H177zM177 141h1v1H177zM177 142h1v1H177zM177 143h1v1H177zM177 144h1v1H177zM177 145h1v1H177zM177 146h1v1H177zM177 147h1v1H177zM177 148h1v1H177zM177 149h1v1H177zM177 150h1v1H177zM177 151h1v1H177zM177 152h1v1H177zM156 178h1v1H156z"/>
  <path fill="#302068" d="M137 145h1v1H137zM139 147h1v1H139z"/>
  <path fill="#302860" d="M119 46h1v1H119zM95 88h1v1H95zM119 111h1v1H119zM133 115h1v1H133zM126 118h1v1H126zM118 123h1v1H118zM138 129h1v1H138zM140 136h1v1H140zM147 143h1v1H147z"/>
  <path fill="#302868" d="M71 74h1v1H71zM91 92h1v1H91zM112 119h1v1H112zM113 139h1v1H113zM142 149h1v1H142zM148 149h1v1H148z"/>
  <path fill="#303858" d="M177 44h1v1H177zM165 174h1v1H165z"/>
  <path fill="#382860" d="M120 42h1v1H120zM114 55h1v1H114z"/>
  <path fill="#283070" d="M62 56h1v1H62zM56 97h1v1H56zM81 146h1v1H81z"/>
  <path fill="#302870" d="M60 64h1v1H60zM66 69h1v1H66zM69 81h1v1H69zM71 85h1v1H71zM63 93h1v1H63zM82 104h1v1H82zM90 122h1v1H90zM87 127h1v1H87zM104 134h1v1H104zM145 150h1v1H145z"/>
  <path fill="#382868" d="M102 92h1v1H102zM98 101h1v1H98zM109 123h1v1H109zM139 133h1v1H139z"/>
  <path fill="#303070" d="M63 57h1v1H63z"/>
  <path fill="#304060" d="M37 13h1v1H37zM17 27h1v1H17zM177 153h1v1H177z"/>
  <path fill="#382870" d="M84 71h1v1H84zM76 82h1v1H76zM72 102h1v1H72zM81 114h1v1H81zM106 116h1v1H106zM85 117h1v1H85zM101 122h1v1H101zM117 125h1v1H117zM131 130h1v1H131zM132 134h1v1H132z"/>
  <path fill="#402868" d="M108 51h1v1H108zM107 52h1v1H107zM106 53h1v1H106zM110 59h1v1H110zM106 62h1v1H106zM101 65h1v1H101zM126 110h1v1H126z"/>
  <path fill="#283878" d="M47 38h1v1H47zM47 48h1v1H47z"/>
  <path fill="#303078" d="M67 51h1v1H67zM58 100h1v1H58z"/>
  <path fill="#382878" d="M66 96h1v1H66z"/>
  <path fill="#384060" d="M28 16h1v1H28z"/>
  <path fill="#402870" d="M98 67h1v1H98zM87 80h1v1H87zM98 81h1v1H98zM95 91h1v1H95zM91 94h1v1H91zM90 112h1v1H90zM127 119h1v1H127zM119 121h1v1H119zM130 126h1v1H130zM134 140h1v1H134zM143 141h1v1H143z"/>
  <path fill="#383078" d="M63 90h1v1H63zM62 102h1v1H62zM74 111h1v1H74z"/>
  <path fill="#384860" d="M154 13h1v1H154zM166 18h1v1H166zM177 38h1v1H177z"/>
  <path fill="#402878" d="M72 75h1v1H72zM75 79h1v1H75zM82 103h1v1H82zM83 120h1v1H83zM138 146h1v1H138z"/>
  <path fill="#482870" d="M113 39h1v1H113zM102 91h1v1H102zM122 110h1v1H122zM137 125h1v1H137z"/>
  <path fill="#303880" d="M46 45h1v1H46zM49 52h1v1H49zM51 55h1v1H51zM75 152h1v1H75z"/>
  <path fill="#383080" d="M60 97h1v1H60zM86 129h1v1H86zM82 141h1v1H82z"/>
  <path fill="#482878" d="M88 85h1v1H88zM87 93h1v1H87zM129 123h1v1H129z"/>
  <path fill="#502870" d="M113 56h1v1H113z"/>
  <path fill="#304080" d="M54 46h1v1H54z"/>
  <path fill="#403080" d="M64 84h1v1H64zM56 86h1v1H56zM66 87h1v1H66zM66 99h2v1H66zM81 113h1v1H81zM88 125h1v1H88z"/>
  <path fill="#404868" d="M16 29h1v1H16z"/>
  <path fill="#483078" d="M102 56h1v1H102zM90 75h1v1H90zM98 110h1v1H98zM101 111h1v1H101zM135 142h1v1H135z"/>
  <path fill="#502878" d="M112 44h1v1H112zM124 117h1v1H124zM149 147h1v1H149z"/>
  <path fill="#383888" d="M57 51h1v1H57zM74 151h1v1H74z"/>
  <path fill="#403088" d="M73 54h1v1H73zM59 92h1v1H59zM84 134h1v1H84z"/>
  <path fill="#405068" d="M174 164h1v1H174zM18 166h1v1H18z"/>
  <path fill="#483080" d="M79 72h1v1H79zM86 102h1v1H86zM95 110h1v1H95zM74 112h1v1H74zM107 144h1v1H107z"/>
  <path fill="#502880" d="M110 124h1v1H110zM144 142h1v1H144z"/>
  <path fill="#503078" d="M135 119h1v1H135z"/>
  <path fill="#384088" d="M46 39h1v1H46z"/>
  <path fill="#403888" d="M59 91h1v1H59zM68 99h1v1H68zM83 137h1v1H83z"/>
  <path fill="#405070" d="M163 16h1v1H163zM172 24h1v1H172z"/>
  <path fill="#483088" d="M63 84h1v1H63zM71 93h1v1H71zM65 99h1v1H65zM105 141h1v1H105z"/>
  <path fill="#503080" d="M91 81h1v1H91zM89 91h1v1H89zM92 91h1v1H92zM91 99h1v1H91zM92 111h1v1H92zM114 116h1v1H114zM96 117h1v1H96zM107 118h1v1H107zM114 134h1v1H114zM142 140h1v1H142z"/>
  <path fill="#582880" d="M100 99h1v1H100z"/>
  <path fill="#583078" d="M115 36h1v1H115z"/>
  <path fill="#384090" d="M55 48h1v1H55zM48 50h1v1H48z"/>
  <path fill="#403890" d="M59 90h1v1H59zM59 93h1v1H59z"/>
  <path fill="#483090" d="M66 54h1v1H66zM65 68h1v1H65zM61 98h1v1H61z"/>
  <path fill="#503088" d="M81 75h1v1H81zM88 78h1v1H88zM75 82h1v1H75zM72 85h1v1H72zM90 99h1v1H90zM104 133h1v1H104z"/>
  <path fill="#583080" d="M112 57h1v1H112zM93 62h1v1H93zM102 86h1v1H102zM102 90h1v1H102zM134 117h1v1H134z"/>
  <path fill="#483890" d="M59 63h1v1H59zM61 81h1v1H61zM65 84h1v1H65zM59 88h1v1H59zM59 89h1v1H59zM59 94h1v1H59zM69 99h1v1H69z"/>
  <path fill="#485870" d="M30 15h1v1H30zM177 154h1v1H177zM14 156h1v1H14z"/>
  <path fill="#503090" d="M75 97h1v1H75zM75 102h1v1H75zM81 112h1v1H81zM103 128h1v1H103z"/>
  <path fill="#583088" d="M89 95h1v1H89zM92 99h1v1H92zM82 102h1v1H82zM95 102h1v1H95z"/>
  <path fill="#603080" d="M120 38h1v1H120zM113 40h1v1H113zM120 41h1v1H120zM116 52h1v1H116zM111 58h1v1H111zM130 112h1v1H130zM132 114h1v1H132zM136 122h1v1H136z"/>
  <path fill="#384898" d="M52 40h1v1H52z"/>
  <path fill="#483898" d="M56 96h1v1H56zM81 145h1v1H81z"/>
  <path fill="#503890" d="M68 81h1v1H68zM74 113h1v1H74z"/>
  <path fill="#505870" d="M161 15h1v1H161zM176 159h1v1H176zM22 171h1v1H22zM41 179h1v1H41zM47 179h1v1H47zM49 179h7v1H49zM57 179h6v1H57zM67 179h4v1H67zM75 179h1v1H75zM79 179h4v1H79zM84 179h3v1H84zM92 179h3v1H92zM109 179h1v1H109zM120 179h2v1H120zM126 179h1v1H126zM131 179h4v1H131zM146 179h1v1H146z"/>
  <path fill="#583090" d="M75 101h1v1H75zM133 137h1v1H133zM113 138h1v1H113z"/>
  <path fill="#603088" d="M105 54h1v1H105zM104 63h1v1H104zM94 84h1v1H94zM98 96h1v1H98zM149 146h1v1H149z"/>
  <path fill="#683080" d="M118 48h1v1H118zM125 110h1v1H125z"/>
  <path fill="#503898" d="M65 56h1v1H65zM85 131h1v1H85z"/>
  <path fill="#505878" d="M177 37h1v1H177zM21 170h1v1H21zM42 179h5v1H42zM48 179h1v1H48zM56 179h1v1H56zM63 179h4v1H63zM71 179h4v1H71zM76 179h3v1H76zM83 179h1v1H83zM87 179h5v1H87zM95 179h14v1H95zM110 179h10v1H110zM122 179h4v1H122zM127 179h4v1H127zM135 179h11v1H135zM147 179h4v1H147z"/>
  <path fill="#506070" d="M176 32h1v1H176z"/>
  <path fill="#583098" d="M105 140h1v1H105z"/>
  <path fill="#583890" d="M89 99h1v1H89z"/>
  <path fill="#603090" d="M95 84h1v1H95zM96 110h1v1H96zM97 117h1v1H97zM116 127h1v1H116zM146 143h1v1H146z"/>
  <path fill="#683088" d="M99 58h1v1H99zM102 89h1v1H102zM123 110h1v1H123zM123 117h1v1H123z"/>
  <path fill="#5038a0" d="M64 93h1v1H64z"/>
  <path fill="#506078" d="M14 35h1v1H14zM175 162h1v1H175zM23 172h1v1H23zM29 176h1v1H29z"/>
  <path fill="#583898" d="M66 84h1v1H66zM71 90h1v1H71z"/>
  <path fill="#603098" d="M102 124h1v1H102z"/>
  <path fill="#603890" d="M97 110h1v1H97zM115 130h1v1H115z"/>
  <path fill="#683090" d="M101 97h1v1H101zM131 129h1v1H131z"/>
  <path fill="#5040a0" d="M56 87h1v1H56zM59 95h1v1H59z"/>
  <path fill="#5838a0" d="M64 67h1v1H64zM64 90h2v1H64zM65 93h1v1H65z"/>
  <path fill="#6030a0" d="M74 101h1v1H74z"/>
  <path fill="#603898" d="M83 97h1v1H83z"/>
  <path fill="#683098" d="M87 85h1v1H87zM109 124h1v1H109z"/>
  <path fill="#683890" d="M98 85h1v1H98zM138 130h1v1H138z"/>
  <path fill="#703090" d="M109 50h1v1H109zM93 84h1v1H93zM102 88h1v1H102z"/>
  <path fill="#5040a8" d="M80 150h1v1H80z"/>
  <path fill="#5838a8" d="M56 88h1v1H56zM63 102h1v1H63z"/>
  <path fill="#5840a0" d="M64 99h1v1H64z"/>
  <path fill="#586080" d="M174 27h1v1H174zM34 178h1v1H34zM40 179h1v1H40z"/>
  <path fill="#6038a0" d="M73 76h1v1H73zM74 82h1v1H74zM70 90h1v1H70zM70 93h1v1H70zM67 96h2v1H67zM73 98h1v1H73zM70 99h1v1H70zM71 102h1v1H71zM81 111h1v1H81zM89 113h1v1H89zM74 114h1v1H74zM86 116h1v1H86zM82 122h1v1H82z"/>
  <path fill="#683898" d="M85 70h1v1H85zM88 99h1v1H88zM93 99h1v1H93z"/>
  <path fill="#703098" d="M96 84h1v1H96zM148 144h1v1H148z"/>
  <path fill="#703890" d="M102 87h1v1H102z"/>
  <path fill="#4850a8" d="M50 38h1v1H50zM53 44h1v1H53z"/>
  <path fill="#5840a8" d="M57 84h1v1H57zM59 87h1v1H59z"/>
  <path fill="#586880" d="M26 17h1v1H26zM31 177h1v1H31z"/>
  <path fill="#6040a0" d="M89 123h1v1H89z"/>
  <path fill="#7030a0" d="M84 101h1v1H84z"/>
  <path fill="#703898" d="M92 81h1v1H92zM139 134h1v1H139z"/>
  <path fill="#783890" d="M118 36h1v1H118zM120 40h1v1H120zM124 110h1v1H124zM131 113h1v1H131z"/>
  <path fill="#4850b0" d="M46 44h1v1H46z"/>
  <path fill="#5048b0" d="M52 56h1v1H52z"/>
  <path fill="#5840b0" d="M56 89h1v1H56z"/>
  <path fill="#6040a8" d="M59 82h1v1H59zM62 84h1v1H62z"/>
  <path fill="#606880" d="M36 13h1v1H36zM155 13h1v1H155zM175 29h1v1H175zM27 175h1v1H27zM151 179h1v1H151z"/>
  <path fill="#6838a8" d="M78 71h1v1H78zM110 144h1v1H110z"/>
  <path fill="#7038a0" d="M99 100h1v1H99zM82 101h1v1H82zM132 133h1v1H132z"/>
  <path fill="#783898" d="M96 60h1v1H96zM137 126h1v1H137z"/>
  <path fill="#803890" d="M120 39h1v1H120zM119 45h1v1H119zM117 50h1v1H117z"/>
  <path fill="#6040b0" d="M56 90h1v1H56zM56 91h1v1H56zM56 92h1v1H56zM56 93h1v1H56zM56 94h1v1H56zM56 95h1v1H56zM82 140h1v1H82z"/>
  <path fill="#607080" d="M15 160h1v1H15z"/>
  <path fill="#6838b0" d="M67 84h1v1H67zM69 93h1v1H69z"/>
  <path fill="#6840a8" d="M67 81h1v1H67zM75 103h1v1H75z"/>
  <path fill="#7038a8" d="M104 132h1v1H104z"/>
  <path fill="#7838a0" d="M91 93h1v1H91zM111 122h1v1H111z"/>
  <path fill="#8030a0" d="M99 88h1v1H99z"/>
  <path fill="#803898" d="M114 37h1v1H114zM128 111h1v1H128zM125 117h1v1H125z"/>
  <path fill="#6840b0" d="M67 52h1v1H67zM72 56h1v1H72zM70 60h1v1H70zM70 63h1v1H70zM74 115h1v1H74zM81 124h1v1H81z"/>
  <path fill="#7038b0" d="M69 90h1v1H69zM105 139h1v1H105zM106 143h1v1H106z"/>
  <path fill="#7040a8" d="M73 85h1v1H73zM85 98h1v1H85z"/>
  <path fill="#7838a8" d="M87 102h1v1H87zM95 117h1v1H95zM99 118h1v1H99z"/>
  <path fill="#8038a0" d="M99 66h1v1H99zM118 112h1v1H118z"/>
  <path fill="#5850b8" d="M78 152h1v1H78z"/>
  <path fill="#6840b8" d="M58 62h1v1H58zM60 101h1v1H60z"/>
  <path fill="#687088" d="M18 25h1v1H18zM177 155h1v1H177zM173 166h1v1H173zM157 178h1v1H157zM39 179h1v1H39z"/>
  <path fill="#7040b0" d="M73 82h1v1H73zM68 87h1v1H68zM81 110h1v1H81z"/>
  <path fill="#7840a8" d="M83 73h1v1H83z"/>
  <path fill="#8038a8" d="M94 102h1v1H94z"/>
  <path fill="#8838a0" d="M113 41h1v1H113zM111 47h1v1H111zM107 61h1v1H107zM102 64h1v1H102zM99 87h1v1H99z"/>
  <path fill="#5058c0" d="M52 41h1v1H52z"/>
  <path fill="#5850c0" d="M76 152h1v1H76z"/>
  <path fill="#6048c0" d="M81 144h1v1H81z"/>
  <path fill="#6050b8" d="M56 50h1v1H56z"/>
  <path fill="#687090" d="M32 14h1v1H32z"/>
  <path fill="#7040b8" d="M71 58h1v1H71zM69 62h1v1H69zM62 81h1v1H62zM60 85h1v1H60zM74 116h1v1H74z"/>
  <path fill="#7840b0" d="M88 114h1v1H88zM108 121h1v1H108zM103 127h1v1H103z"/>
  <path fill="#8038b0" d="M113 118h1v1H113z"/>
  <path fill="#8040a8" d="M89 76h1v1H89z"/>
  <path fill="#8838a8" d="M121 118h1v1H121zM130 125h1v1H130z"/>
  <path fill="#5858c0" d="M47 47h1v1H47z"/>
  <path fill="#687890" d="M20 169h1v1H20z"/>
  <path fill="#7040c0" d="M64 102h1v1H64z"/>
  <path fill="#7840b8" d="M75 104h1v1H75zM87 115h1v1H87zM112 142h1v1H112z"/>
  <path fill="#8040b0" d="M77 82h1v1H77zM87 82h1v1H87zM114 133h1v1H114z"/>
  <path fill="#8838b0" d="M92 84h1v1H92z"/>
  <path fill="#8840a8" d="M97 81h1v1H97zM115 115h1v1H115z"/>
  <path fill="#5060c8" d="M48 38h1v1H48z"/>
  <path fill="#6050c8" d="M50 53h1v1H50z"/>
  <path fill="#7048c0" d="M63 99h1v1H63zM84 133h1v1H84z"/>
  <path fill="#707890" d="M165 17h1v1H165zM15 31h1v1H15zM177 36h1v1H177zM169 171h1v1H169zM162 176h1v1H162zM152 179h1v1H152z"/>
  <path fill="#7840c0" d="M66 81h1v1H66z"/>
  <path fill="#8040b8" d="M92 119h1v1H92zM113 137h1v1H113z"/>
  <path fill="#8840b0" d="M94 99h1v1H94zM105 115h1v1H105z"/>
  <path fill="#9038b0" d="M95 69h1v1H95zM120 111h1v1H120z"/>
  <path fill="#6050d0" d="M77 152h1v1H77z"/>
  <path fill="#7848c0" d="M73 53h1v1H73z"/>
  <path fill="#8040c0" d="M77 70h1v1H77zM76 97h1v1H76zM81 109h1v1H81zM84 119h1v1H84zM105 138h1v1H105zM108 144h1v1H108z"/>
  <path fill="#8048b8" d="M76 80h1v1H76z"/>
  <path fill="#8840b8" d="M86 85h1v1H86zM87 99h1v1H87zM101 121h1v1H101zM141 148h1v1H141z"/>
  <path fill="#9040b0" d="M92 63h1v1H92zM93 71h1v1H93zM93 81h1v1H93zM99 89h1v1H99zM120 119h1v1H120zM140 137h1v1H140z"/>
  <path fill="#9838b0" d="M129 122h1v1H129z"/>
  <path fill="#7848c8" d="M63 66h1v1H63z"/>
  <path fill="#8040c8" d="M68 84h1v1H68zM71 99h1v1H71zM70 102h1v1H70zM75 105h1v1H75z"/>
  <path fill="#8048c0" d="M67 87h1v1H67z"/>
  <path fill="#8840c0" d="M74 77h1v1H74zM74 85h1v1H74zM82 97h1v1H82z"/>
  <path fill="#9038c0" d="M143 149h1v1H143z"/>
  <path fill="#9040b8" d="M86 69h1v1H86zM112 120h1v1H112zM118 122h1v1H118zM141 139h1v1H141z"/>
  <path fill="#9840b0" d="M104 55h1v1H104zM101 84h1v1H101zM128 120h1v1H128z"/>
  <path fill="#a038b0" d="M112 45h1v1H112z"/>
  <path fill="#7050d0" d="M53 57h1v1H53zM54 58h1v1H54zM80 149h1v1H80z"/>
  <path fill="#7848d0" d="M69 49h1v1H69zM59 96h1v1H59z"/>
  <path fill="#7850c8" d="M83 136h1v1H83z"/>
  <path fill="#788098" d="M159 14h1v1H159zM170 170h1v1H170zM24 173h1v1H24zM164 175h1v1H164zM160 177h1v1H160z"/>
  <path fill="#8040d0" d="M63 91h1v1H63z"/>
  <path fill="#8048c8" d="M71 64h1v1H71zM65 81h1v1H65zM74 117h1v1H74zM86 128h1v1H86z"/>
  <path fill="#8840c8" d="M109 144h1v1H109z"/>
  <path fill="#9040c0" d="M82 75h1v1H82zM88 102h1v1H88zM133 136h1v1H133zM136 143h1v1H136z"/>
  <path fill="#9840b8" d="M94 70h1v1H94zM92 72h1v1H92z"/>
  <path fill="#a040b0" d="M135 120h1v1H135z"/>
  <path fill="#6860d0" d="M54 47h1v1H54z"/>
  <path fill="#7850d0" d="M57 61h1v1H57zM58 83h1v1H58z"/>
  <path fill="#8048d0" d="M68 50h1v1H68zM62 65h1v1H62zM72 65h1v1H72zM63 92h1v1H63zM65 102h1v1H65z"/>
  <path fill="#8050c8" d="M73 50h1v1H73z"/>
  <path fill="#808098" d="M168 172h1v1H168z"/>
  <path fill="#9040c8" d="M80 74h1v1H80z"/>
  <path fill="#9840c0" d="M93 102h1v1H93zM117 124h1v1H117zM131 128h1v1H131z"/>
  <path fill="#a040b8" d="M101 57h1v1H101zM138 131h1v1H138z"/>
  <path fill="#6068d8" d="M51 39h1v1H51z"/>
  <path fill="#7850d8" d="M56 60h1v1H56z"/>
  <path fill="#8848d0" d="M64 81h1v1H64zM80 124h1v1H80z"/>
  <path fill="#9040d0" d="M104 131h1v1H104z"/>
  <path fill="#9840c8" d="M134 139h1v1H134z"/>
  <path fill="#a040c0" d="M93 88h1v1H93zM97 101h1v1H97zM102 112h1v1H102zM116 114h1v1H116z"/>
  <path fill="#a838c0" d="M97 84h1v1H97z"/>
  <path fill="#a840b8" d="M136 123h1v1H136z"/>
  <path fill="#b040b0" d="M116 36h1v1H116z"/>
  <path fill="#6860e0" d="M48 49h1v1H48z"/>
  <path fill="#7850e0" d="M55 59h1v1H55z"/>
  <path fill="#8050d8" d="M64 58h1v1H64zM57 98h1v1H57zM82 139h1v1H82z"/>
  <path fill="#8088a0" d="M14 157h1v1H14z"/>
  <path fill="#8848d8" d="M72 49h1v1H72zM69 102h1v1H69z"/>
  <path fill="#8850d0" d="M63 81h1v1H63zM74 118h1v1H74z"/>
  <path fill="#9048d0" d="M76 69h1v1H76zM72 82h1v1H72zM93 118h1v1H93zM91 120h1v1H91zM105 137h1v1H105z"/>
  <path fill="#9840d0" d="M100 119h1v1H100z"/>
  <path fill="#9848c8" d="M93 111h1v1H93zM109 125h1v1H109z"/>
  <path fill="#a040c8" d="M88 82h1v1H88zM107 119h1v1H107zM145 143h1v1H145z"/>
  <path fill="#a048c0" d="M94 88h1v1H94zM99 90h1v1H99z"/>
  <path fill="#a840c0" d="M96 81h1v1H96z"/>
  <path fill="#b040b8" d="M115 53h1v1H115z"/>
  <path fill="#6870d8" d="M49 38h1v1H49z"/>
  <path fill="#8050e0" d="M60 55h1v1H60z"/>
  <path fill="#8090a0" d="M38 179h1v1H38z"/>
  <path fill="#a040d0" d="M85 85h1v1H85zM89 102h1v1H89zM98 117h1v1H98z"/>
  <path fill="#a048c8" d="M100 111h1v1H100z"/>
  <path fill="#a840c8" d="M91 64h1v1H91zM94 81h1v1H94zM132 132h1v1H132z"/>
  <path fill="#a848c0" d="M101 96h1v1H101z"/>
  <path fill="#b840b8" d="M117 36h1v1H117z"/>
  <path fill="#6870e0" d="M46 43h1v1H46z"/>
  <path fill="#7060e8" d="M49 51h1v1H49zM74 150h1v1H74z"/>
  <path fill="#8058e0" d="M59 54h1v1H59z"/>
  <path fill="#8890a0" d="M35 13h1v1H35zM22 20h1v1H22zM14 34h1v1H14zM16 163h1v1H16zM153 179h1v1H153z"/>
  <path fill="#9048e0" d="M68 102h1v1H68zM75 106h1v1H75z"/>
  <path fill="#9050d8" d="M73 66h1v1H73zM66 95h1v1H66zM80 123h1v1H80zM87 126h1v1H87z"/>
  <path fill="#9848d8" d="M74 67h1v1H74zM75 85h1v1H75zM81 108h1v1H81z"/>
  <path fill="#a048d0" d="M86 82h1v1H86zM110 125h1v1H110zM115 129h1v1H115zM135 141h1v1H135z"/>
  <path fill="#a840d0" d="M87 68h1v1H87zM86 81h1v1H86zM91 84h1v1H91z"/>
  <path fill="#b040c8" d="M95 81h1v1H95zM99 82h1v1H99z"/>
  <path fill="#b048c0" d="M137 127h1v1H137z"/>
  <path fill="#b840c0" d="M110 49h1v1H110zM108 60h1v1H108z"/>
  <path fill="#7068e8" d="M53 45h1v1H53z"/>
  <path fill="#9050e0" d="M66 88h1v1H66zM66 94h1v1H66zM66 102h1v1H66zM74 119h1v1H74zM80 125h1v1H80z"/>
  <path fill="#9848e0" d="M69 71h1v1H69z"/>
  <path fill="#9850d8" d="M75 68h1v1H75z"/>
  <path fill="#a848d0" d="M92 102h1v1H92z"/>
  <path fill="#b040d0" d="M91 73h1v1H91z"/>
  <path fill="#b048c8" d="M96 68h1v1H96zM95 89h1v1H95zM95 90h1v1H95zM99 91h1v1H99zM117 113h1v1H117z"/>
  <path fill="#b848c0" d="M133 116h1v1H133z"/>
  <path fill="#6870f0" d="M46 40h1v1H46z"/>
  <path fill="#7070e8" d="M52 42h1v1H52z"/>
  <path fill="#8060e8" d="M58 53h1v1H58zM80 148h1v1H80z"/>
  <path fill="#8858e8" d="M61 56h1v1H61zM81 143h1v1H81z"/>
  <path fill="#9050e8" d="M66 55h1v1H66zM67 102h1v1H67zM74 120h1v1H74z"/>
  <path fill="#9090a8" d="M173 25h1v1H173z"/>
  <path fill="#9850e0" d="M80 122h1v1H80zM88 124h1v1H88z"/>
  <path fill="#a048e0" d="M77 97h1v1H77zM81 97h1v1H81zM112 141h1v1H112z"/>
  <path fill="#b040d8" d="M84 72h1v1H84zM90 102h1v1H90z"/>
  <path fill="#b048d0" d="M90 65h1v1H90zM87 79h1v1H87zM92 89h1v1H92zM116 126h1v1H116zM139 135h1v1H139z"/>
  <path fill="#c040c8" d="M105 62h1v1H105zM100 65h1v1H100z"/>
  <path fill="#c048c0" d="M119 37h1v1H119zM113 42h1v1H113z"/>
  <path fill="#8060f0" d="M57 52h1v1H57zM51 54h1v1H51z"/>
  <path fill="#9050f0" d="M67 53h1v1H67zM58 99h1v1H58z"/>
  <path fill="#9058e8" d="M61 84h1v1H61zM59 86h1v1H59zM62 99h1v1H62z"/>
  <path fill="#9098a8" d="M156 13h1v1H156zM21 21h1v1H21zM177 156h1v1H177z"/>
  <path fill="#9850e8" d="M69 61h1v1H69zM85 130h1v1H85z"/>
  <path fill="#9858e0" d="M66 89h1v1H66z"/>
  <path fill="#a048e8" d="M69 84h1v1H69zM83 121h1v1H83z"/>
  <path fill="#a050e0" d="M90 121h1v1H90z"/>
  <path fill="#a848e0" d="M91 112h1v1H91zM102 123h1v1H102zM103 126h1v1H103z"/>
  <path fill="#b040e0" d="M88 92h1v1H88z"/>
  <path fill="#b048d8" d="M88 67h1v1H88zM95 99h1v1H95zM91 102h1v1H91zM104 114h1v1H104zM114 132h1v1H114z"/>
  <path fill="#b848d0" d="M98 59h1v1H98zM99 86h1v1H99z"/>
  <path fill="#c848c0" d="M119 44h1v1H119zM118 47h1v1H118z"/>
  <path fill="#7070f8" d="M48 39h1v1H48zM49 40h1v1H49zM47 46h1v1H47z"/>
  <path fill="#7868f8" d="M49 50h1v1H49z"/>
  <path fill="#8060f8" d="M74 147h2v1H74zM74 149h1v1H74zM77 149h1v1H77z"/>
  <path fill="#8068f0" d="M55 49h1v1H55z"/>
  <path fill="#8860f0" d="M79 151h1v1H79z"/>
  <path fill="#9058f0" d="M62 57h1v1H62zM61 64h1v1H61zM59 100h1v1H59z"/>
  <path fill="#a050e8" d="M67 69h1v1H67zM71 73h1v1H71zM73 101h1v1H73zM80 121h1v1H80z"/>
  <path fill="#a848e8" d="M75 78h1v1H75z"/>
  <path fill="#b048e0" d="M84 85h1v1H84zM137 144h1v1H137z"/>
  <path fill="#b050d8" d="M106 117h1v1H106z"/>
  <path fill="#b848d8" d="M89 66h1v1H89z"/>
  <path fill="#c048d0" d="M95 61h1v1H95zM122 117h1v1H122z"/>
  <path fill="#7070ff" d="M49 42h2v1H49zM49 43h2v1H49z"/>
  <path fill="#8060ff" d="M75 148h2v1H75zM75 149h2v1H75z"/>
  <path fill="#7078f8" d="M47 39h1v1H47zM50 39h1v1H50zM46 41h2v1H46zM46 42h3v1H46zM47 43h2v1H47zM47 44h1v1H47z"/>
  <path fill="#7870f8" d="M52 43h1v1H52zM49 44h3v1H49zM48 45h1v1H48zM51 45h1v1H51zM48 46h1v1H48zM50 46h1v1H50zM52 46h2v1H52zM48 47h5v1H48zM48 48h4v1H48zM49 49h1v1H49z"/>
  <path fill="#8068f8" d="M53 48h2v1H53zM51 49h3v1H51zM50 50h6v1H50zM51 51h4v1H51zM50 52h5v1H50zM52 53h2v1H52zM74 148h1v1H74z"/>
  <path fill="#8860f8" d="M54 53h4v1H54zM53 54h4v1H53zM53 55h3v1H53zM53 56h3v1H53zM74 142h2v1H74zM74 143h3v1H74zM74 144h4v1H74zM74 145h5v1H74zM74 146h6v1H74zM76 147h3v1H76zM77 148h3v1H77zM78 149h1v1H78z"/>
  <path fill="#9058f8" d="M56 59h1v1H56zM59 59h1v1H59zM58 61h1v1H58zM57 85h1v1H57zM79 139h1v1H79z"/>
  <path fill="#9850f8" d="M67 54h1v1H67zM62 101h1v1H62z"/>
  <path fill="#9858f0" d="M73 52h1v1H73zM65 57h1v1H65zM74 121h1v1H74z"/>
  <path fill="#a050f0" d="M68 70h1v1H68zM70 72h1v1H70zM66 90h1v1H66zM66 93h1v1H66zM75 107h1v1H75z"/>
  <path fill="#a058e8" d="M80 120h1v1H80z"/>
  <path fill="#a850e8" d="M71 82h1v1H71zM85 118h1v1H85z"/>
  <path fill="#b048e8" d="M77 81h1v1H77zM76 85h1v1H76z"/>
  <path fill="#b050e0" d="M113 136h1v1H113z"/>
  <path fill="#b848e0" d="M147 149h1v1H147z"/>
  <path fill="#b850d8" d="M92 90h1v1H92zM97 98h1v1H97zM103 113h1v1H103z"/>
  <path fill="#c048d8" d="M99 92h1v1H99zM119 120h1v1H119z"/>
  <path fill="#c848d0" d="M103 56h1v1H103zM134 118h1v1H134z"/>
  <path fill="#7078ff" d="M49 39h1v1H49zM47 40h2v1H47zM50 40h1v1H50zM48 41h3v1H48z"/>
  <path fill="#7870ff" d="M51 42h1v1H51zM51 43h1v1H51zM48 44h1v1H48zM52 44h1v1H52zM49 45h2v1H49zM52 45h1v1H52zM49 46h1v1H49zM51 46h1v1H51zM50 49h1v1H50z"/>
  <path fill="#8068ff" d="M54 49h1v1H54zM50 51h1v1H50zM51 53h1v1H51zM52 54h1v1H52zM75 150h3v1H75zM76 151h2v1H76z"/>
  <path fill="#8860ff" d="M54 57h1v1H54zM79 147h1v1H79zM79 149h1v1H79zM79 150h1v1H79z"/>
  <path fill="#9058ff" d="M57 96h1v1H57z"/>
  <path fill="#8070f8" d="M75 151h1v1H75z"/>
  <path fill="#8868f8" d="M52 55h1v1H52z"/>
  <path fill="#9060f8" d="M58 55h2v1H58zM56 56h5v1H56zM56 57h5v1H56zM55 58h5v1H55zM74 134h2v1H74zM74 135h2v1H74zM74 136h2v1H74zM74 137h3v1H74zM74 138h5v1H74zM74 139h1v1H74zM76 139h3v1H76zM74 140h6v1H74zM74 141h8v1H74zM76 142h5v1H76zM77 143h4v1H77zM78 144h3v1H78zM79 145h2v1H79zM80 146h1v1H80zM80 147h1v1H80z"/>
  <path fill="#9858f8" d="M68 51h1v1H68zM60 59h5v1H60zM59 60h5v1H59zM61 61h3v1H61zM59 62h1v1H59zM61 62h2v1H61zM60 63h2v1H60zM57 88h1v1H57zM58 90h1v1H58zM59 97h1v1H59zM58 98h1v1H58zM60 98h1v1H60zM60 99h2v1H60zM60 100h1v1H60zM61 101h1v1H61zM74 128h2v1H74zM74 129h2v1H74zM74 130h1v1H74zM76 130h1v1H76zM77 131h1v1H77zM77 132h1v1H77zM77 133h1v1H77zM79 133h1v1H79zM79 134h2v1H79zM79 135h1v1H79zM80 138h1v1H80z"/>
  <path fill="#98a0b0" d="M177 35h1v1H177zM176 160h1v1H176zM171 169h1v1H171z"/>
  <path fill="#a050f8" d="M70 59h1v1H70zM65 66h1v1H65zM65 67h1v1H65zM63 83h2v1H63zM64 91h1v1H64zM64 92h1v1H64zM64 100h2v1H64zM63 101h2v1H63zM81 125h1v1H81z"/>
  <path fill="#a058f0" d="M73 51h1v1H73zM74 122h1v1H74z"/>
  <path fill="#a850f0" d="M74 98h1v1H74zM72 99h1v1H72zM105 136h1v1H105zM111 143h1v1H111z"/>
  <path fill="#b050e8" d="M79 73h1v1H79zM82 100h1v1H82zM81 107h1v1H81z"/>
  <path fill="#b848e8" d="M140 147h1v1H140z"/>
  <path fill="#b850e0" d="M88 77h1v1H88z"/>
  <path fill="#c048e0" d="M98 97h1v1H98zM148 148h1v1H148z"/>
  <path fill="#c848d8" d="M97 67h1v1H97z"/>
  <path fill="#d048d0" d="M114 54h1v1H114z"/>
  <path fill="#7878ff" d="M51 40h1v1H51zM51 41h1v1H51zM47 45h1v1H47z"/>
  <path fill="#8070ff" d="M53 47h1v1H53zM52 48h1v1H52z"/>
  <path fill="#8868ff" d="M55 51h2v1H55zM55 52h2v1H55zM78 150h1v1H78zM78 151h1v1H78z"/>
  <path fill="#9060ff" d="M57 54h2v1H57zM56 55h2v1H56zM55 57h1v1H55zM57 59h2v1H57zM57 60h2v1H57zM75 139h1v1H75z"/>
  <path fill="#9858ff" d="M59 61h2v1H59zM60 62h1v1H60zM59 84h1v1H59zM58 87h1v1H58zM58 93h1v1H58zM57 94h1v1H57zM57 95h1v1H57zM58 97h1v1H58zM59 98h1v1H59zM59 99h1v1H59zM61 100h1v1H61z"/>
  <path fill="#9860f8" d="M61 57h1v1H61zM60 58h4v1H60zM57 87h1v1H57zM57 89h1v1H57zM57 91h1v1H57zM57 97h1v1H57zM75 130h1v1H75zM74 131h3v1H74zM74 132h3v1H74zM74 133h3v1H74zM78 133h1v1H78zM76 134h3v1H76zM76 135h3v1H76zM80 135h1v1H80zM83 135h1v1H83zM76 136h5v1H76zM77 137h4v1H77zM79 138h1v1H79zM80 139h1v1H80zM80 140h1v1H80zM81 142h1v1H81z"/>
  <path fill="#a058f8" d="M71 49h1v1H71zM69 50h4v1H69zM69 51h2v1H69zM68 54h3v1H68zM67 55h4v1H67zM72 55h1v1H72zM66 56h5v1H66zM67 57h2v1H67zM71 57h1v1H71zM67 58h2v1H67zM65 59h4v1H65zM64 60h5v1H64zM64 61h5v1H64zM63 62h5v1H63zM62 63h7v1H62zM62 64h6v1H62zM63 65h4v1H63zM64 66h1v1H64zM60 82h3v1H60zM64 82h1v1H64zM63 100h1v1H63zM66 100h1v1H66zM74 123h3v1H74zM74 124h5v1H74zM74 125h1v1H74zM76 125h4v1H76zM74 126h8v1H74zM75 127h8v1H75zM76 128h7v1H76zM76 129h8v1H76zM77 130h7v1H77zM78 131h6v1H78zM78 132h7v1H78zM80 133h4v1H80zM81 134h3v1H81z"/>
  <path fill="#a0a0b0" d="M176 31h1v1H176zM19 168h1v1H19zM167 173h1v1H167zM33 178h1v1H33z"/>
  <path fill="#a850f8" d="M71 65h1v1H71zM66 66h1v1H66zM68 67h1v1H68zM67 68h2v1H67zM68 69h1v1H68zM65 82h2v1H65zM68 82h1v1H68zM67 83h1v1H67zM67 88h1v1H67zM65 91h3v1H65zM65 92h1v1H65zM67 92h1v1H67zM68 95h1v1H68zM69 100h3v1H69zM68 101h4v1H68zM83 122h1v1H83z"/>
  <path fill="#a858f0" d="M80 119h1v1H80zM82 123h1v1H82z"/>
  <path fill="#b050f0" d="M72 74h1v1H72zM78 97h1v1H78zM80 97h1v1H80z"/>
  <path fill="#c048e8" d="M133 135h1v1H133z"/>
  <path fill="#c050e0" d="M111 123h1v1H111z"/>
  <path fill="#c848e0" d="M114 117h1v1H114zM130 124h1v1H130z"/>
  <path fill="#d048d8" d="M103 63h1v1H103zM127 118h1v1H127z"/>
  <path fill="#9860ff" d="M58 84h1v1H58zM58 85h1v1H58zM57 86h2v1H57zM58 88h1v1H58zM58 89h1v1H58zM57 90h1v1H57zM58 91h1v1H58zM57 92h2v1H57zM57 93h1v1H57zM58 94h1v1H58zM58 95h1v1H58zM58 96h1v1H58zM81 137h1v1H81zM81 138h1v1H81zM81 139h1v1H81zM81 140h1v1H81z"/>
  <path fill="#a058ff" d="M71 51h1v1H71zM68 52h4v1H68zM68 53h3v1H68zM66 57h1v1H66zM69 57h2v1H69zM65 58h2v1H65zM69 58h2v1H69zM63 82h1v1H63zM59 83h4v1H59zM60 84h1v1H60zM62 100h1v1H62zM65 101h3v1H65zM75 122h1v1H75zM75 125h1v1H75zM74 127h1v1H74z"/>
  <path fill="#a060f8" d="M70 49h1v1H70zM81 136h1v1H81zM82 137h1v1H82zM82 138h1v1H82z"/>
  <path fill="#a0a8b0" d="M23 19h1v1H23zM17 165h1v1H17z"/>
  <path fill="#a858f8" d="M71 54h2v1H71zM71 56h1v1H71zM69 63h1v1H69zM68 64h3v1H68zM67 65h4v1H67zM67 66h4v1H67zM67 67h1v1H67zM69 67h1v1H69zM66 68h1v1H66zM67 82h1v1H67zM65 83h2v1H65zM66 92h1v1H66zM67 93h1v1H67zM67 94h1v1H67zM67 95h1v1H67zM67 100h2v1H67zM75 108h1v1H75zM75 111h1v1H75zM75 112h2v1H75zM75 113h2v1H75zM75 114h2v1H75zM75 115h3v1H75zM75 116h4v1H75zM75 117h4v1H75zM75 118h4v1H75zM75 119h4v1H75zM75 120h5v1H75zM76 121h4v1H76zM76 122h4v1H76zM77 123h3v1H77zM83 123h1v1H83zM79 124h1v1H79zM82 124h3v1H82zM82 125h3v1H82zM82 126h4v1H82zM83 127h4v1H83zM83 128h1v1H83zM84 129h2v1H84zM84 130h1v1H84zM84 131h1v1H84z"/>
  <path fill="#b050f8" d="M71 66h1v1H71zM73 67h1v1H73zM73 68h1v1H73zM70 71h1v1H70zM71 72h2v1H71zM72 73h1v1H72zM73 75h1v1H73zM69 82h2v1H69zM69 83h2v1H69zM70 84h1v1H70zM68 88h1v1H68zM69 91h2v1H69zM68 92h4v1H68zM68 93h1v1H68zM75 98h2v1H75zM74 99h4v1H74zM72 100h1v1H72zM74 100h4v1H74zM76 101h2v1H76zM76 102h2v1H76zM77 103h3v1H77zM76 104h3v1H76zM76 105h3v1H76zM76 106h5v1H76zM78 107h2v1H78zM78 108h2v1H78zM80 109h1v1H80zM80 112h1v1H80zM86 117h1v1H86zM86 118h1v1H86zM85 119h2v1H85zM84 120h1v1H84zM106 139h1v1H106zM106 140h1v1H106zM106 141h2v1H106zM109 141h1v1H109zM107 142h3v1H107zM107 143h3v1H107z"/>
  <path fill="#b058f0" d="M80 118h1v1H80z"/>
  <path fill="#b850f0" d="M84 98h1v1H84zM86 99h1v1H86zM85 101h1v1H85zM94 117h1v1H94zM104 130h1v1H104z"/>
  <path fill="#c048f0" d="M82 85h2v1H82zM96 116h1v1H96zM138 145h1v1H138zM139 146h1v1H139z"/>
  <path fill="#c050e8" d="M108 122h1v1H108z"/>
  <path fill="#c848e8" d="M90 84h1v1H90z"/>
  <path fill="#d048e0" d="M100 58h1v1H100zM99 93h1v1H99zM131 127h1v1H131z"/>
  <path fill="#d850d0" d="M116 51h1v1H116z"/>
  <path fill="#a060ff" d="M59 85h1v1H59zM81 135h2v1H81zM82 136h1v1H82z"/>
  <path fill="#a858ff" d="M72 51h1v1H72zM72 52h1v1H72zM71 53h2v1H71zM71 55h1v1H71zM69 59h1v1H69zM69 60h1v1H69zM68 62h1v1H68zM66 67h1v1H66zM75 121h1v1H75zM84 128h2v1H84z"/>
  <path fill="#b050ff" d="M68 83h1v1H68zM71 83h1v1H71zM73 100h1v1H73zM72 101h1v1H72z"/>
  <path fill="#a0a8b8" d="M20 22h1v1H20z"/>
  <path fill="#b058f8" d="M72 66h1v1H72zM70 67h3v1H70zM69 68h4v1H69zM70 69h4v1H70zM69 70h4v1H69zM71 71h2v1H71zM67 89h2v1H67zM67 90h2v1H67zM68 91h1v1H68zM68 94h1v1H68zM73 99h1v1H73zM76 103h1v1H76zM76 107h2v1H76zM76 108h2v1H76zM75 109h5v1H75zM75 110h1v1H75zM77 110h4v1H77zM76 111h5v1H76zM77 112h3v1H77zM77 113h4v1H77zM77 114h4v1H77zM78 115h3v1H78zM79 116h2v1H79zM79 117h2v1H79zM79 118h1v1H79zM79 119h1v1H79zM85 120h2v1H85zM84 121h4v1H84zM84 122h4v1H84zM89 122h1v1H89zM84 123h5v1H84zM85 124h3v1H85zM85 125h1v1H85zM87 125h1v1H87zM106 142h1v1H106z"/>
  <path fill="#b850f8" d="M74 68h1v1H74zM74 70h3v1H74zM73 71h5v1H73zM73 72h5v1H73zM73 73h5v1H73zM73 74h5v1H73zM74 75h3v1H74zM74 76h3v1H74zM75 77h2v1H75zM73 83h5v1H73zM71 84h6v1H71zM77 85h1v1H77zM71 91h1v1H71zM77 98h5v1H77zM78 99h4v1H78zM78 100h3v1H78zM78 101h3v1H78zM78 102h4v1H78zM80 103h2v1H80zM79 104h3v1H79zM79 105h3v1H79zM81 106h1v1H81zM80 107h1v1H80zM80 108h1v1H80zM90 113h1v1H90zM89 114h1v1H89zM88 115h3v1H88zM87 116h5v1H87zM87 117h5v1H87zM87 118h6v1H87zM87 119h2v1H87zM90 120h1v1H90zM105 132h1v1H105zM105 133h2v1H105zM105 134h3v1H105zM105 135h4v1H105zM106 136h3v1H106zM106 137h4v1H106zM106 138h7v1H106zM107 139h6v1H107zM107 140h6v1H107zM108 141h1v1H108zM110 141h2v1H110zM110 142h1v1H110z"/>
  <path fill="#c050f0" d="M79 75h1v1H79zM81 76h1v1H81zM88 94h1v1H88zM94 111h2v1H94zM101 120h1v1H101zM109 126h1v1H109z"/>
  <path fill="#c848f0" d="M84 83h2v1H84zM90 94h1v1H90zM91 100h2v1H91zM90 101h1v1H90zM99 117h1v1H99zM112 121h1v1H112zM146 149h1v1H146z"/>
  <path fill="#c850e8" d="M90 74h1v1H90zM89 82h1v1H89zM142 141h1v1H142zM143 142h1v1H143z"/>
  <path fill="#d048e8" d="M94 91h1v1H94z"/>
  <path fill="#d050e0" d="M94 62h1v1H94zM100 83h1v1H100zM101 95h1v1H101zM137 128h1v1H137z"/>
  <path fill="#d850d8" d="M127 111h1v1H127z"/>
  <path fill="#e048d8" d="M108 52h1v1H108z"/>
  <path fill="#b058ff" d="M69 69h1v1H69zM76 110h1v1H76zM86 125h1v1H86zM86 126h1v1H86z"/>
  <path fill="#b850ff" d="M72 83h1v1H72zM111 142h1v1H111zM110 143h1v1H110z"/>
  <path fill="#a8a8b8" d="M37 179h1v1H37z"/>
  <path fill="#b858f8" d="M74 69h2v1H74zM73 70h1v1H73zM79 97h1v1H79zM89 119h2v1H89zM87 120h3v1H87zM88 121h2v1H88zM88 122h1v1H88z"/>
  <path fill="#c050f8" d="M78 72h1v1H78zM78 73h1v1H78zM78 74h2v1H78zM77 75h2v1H77zM77 76h4v1H77zM77 77h4v1H77zM76 78h5v1H76zM76 79h5v1H76zM77 80h4v1H77zM78 81h4v1H78zM78 82h5v1H78zM78 83h4v1H78zM77 84h5v1H77zM78 85h2v1H78zM82 98h2v1H82zM82 99h4v1H82zM81 100h1v1H81zM83 100h4v1H83zM81 101h1v1H81zM86 101h1v1H86zM92 112h3v1H92zM91 113h4v1H91zM90 114h5v1H90zM91 115h5v1H91zM92 116h4v1H92zM92 117h2v1H92zM91 119h1v1H91zM102 121h1v1H102zM102 122h2v1H102zM103 123h1v1H103zM103 124h1v1H103zM103 125h2v1H103zM104 126h2v1H104zM104 127h3v1H104zM104 128h4v1H104zM104 129h6v1H104zM105 130h6v1H105zM105 131h7v1H105zM106 132h7v1H106zM107 133h6v1H107zM108 134h6v1H108zM109 135h5v1H109zM109 136h4v1H109zM110 137h3v1H110z"/>
  <path fill="#c848f8" d="M84 84h1v1H84z"/>
  <path fill="#c850f0" d="M84 73h1v1H84zM83 74h2v1H83zM83 75h2v1H83zM84 76h2v1H84zM84 77h2v1H84zM83 78h2v1H83zM83 79h3v1H83zM84 80h2v1H84zM83 81h3v1H83zM84 82h2v1H84zM86 83h1v1H86zM86 84h1v1H86zM89 92h2v1H89zM88 93h1v1H88zM91 101h1v1H91zM96 111h4v1H96zM96 112h3v1H96zM96 113h3v1H96zM97 114h2v1H97zM98 116h2v1H98zM102 117h2v1H102zM101 118h3v1H101zM101 119h4v1H101zM105 120h1v1H105zM107 120h1v1H107zM104 121h4v1H104zM105 122h3v1H105zM108 123h1v1H108zM108 124h1v1H108zM111 125h1v1H111zM110 126h3v1H110zM109 127h5v1H109zM109 128h7v1H109zM110 129h2v1H110zM111 130h1v1H111zM134 138h2v1H134zM135 139h1v1H135zM135 140h2v1H135zM136 141h2v1H136zM136 142h3v1H136zM137 143h3v1H137zM138 144h5v1H138zM140 145h4v1H140zM141 146h4v1H141zM143 147h3v1H143zM142 148h5v1H142zM144 149h2v1H144z"/>
  <path fill="#d048f0" d="M87 84h1v1H87zM96 99h1v1H96zM94 101h1v1H94zM148 147h1v1H148z"/>
  <path fill="#d050e8" d="M93 91h1v1H93zM100 98h1v1H100zM138 132h1v1H138z"/>
  <path fill="#d850e0" d="M121 111h1v1H121z"/>
  <path fill="#e048e0" d="M107 53h1v1H107zM106 54h1v1H106z"/>
  <path fill="#e050d8" d="M129 112h1v1H129z"/>
  <path fill="#a8b0b8" d="M169 20h1v1H169zM16 28h1v1H16z"/>
  <path fill="#c058f8" d="M80 75h1v1H80z"/>
  <path fill="#c850f8" d="M82 76h2v1H82zM81 77h3v1H81zM81 78h2v1H81zM81 79h2v1H81zM81 80h3v1H81zM82 81h1v1H82zM83 82h1v1H83zM82 83h2v1H82zM82 84h2v1H82zM85 84h1v1H85zM80 85h2v1H80zM89 93h1v1H89zM89 94h1v1H89zM87 100h4v1H87zM87 101h3v1H87zM95 112h1v1H95zM95 113h1v1H95zM95 114h2v1H95zM96 115h3v1H96zM97 116h1v1H97zM100 117h1v1H100zM100 118h1v1H100zM102 120h3v1H102zM103 121h1v1H103zM104 122h1v1H104zM104 123h4v1H104zM104 124h4v1H104zM105 125h4v1H105zM106 126h3v1H106zM107 127h2v1H107zM108 128h1v1H108zM112 129h3v1H112zM112 130h3v1H112zM112 131h3v1H112zM113 132h1v1H113zM113 133h1v1H113zM139 145h1v1H139zM140 146h1v1H140zM141 147h2v1H141z"/>
  <path fill="#d050f0" d="M89 67h1v1H89zM88 68h1v1H88zM87 69h3v1H87zM86 70h4v1H86zM85 71h5v1H85zM85 72h5v1H85zM85 73h5v1H85zM85 74h4v1H85zM85 75h4v1H85zM86 76h3v1H86zM86 77h2v1H86zM85 78h3v1H85zM86 80h1v1H86zM90 82h2v1H90zM88 83h3v1H88zM88 84h2v1H88zM97 99h1v1H97zM93 100h4v1H93zM92 101h2v1H92zM95 101h2v1H95zM99 112h3v1H99zM99 113h4v1H99zM99 114h5v1H99zM99 115h6v1H99zM100 116h6v1H100zM101 117h1v1H101zM104 117h2v1H104zM104 118h2v1H104zM114 118h1v1H114zM105 119h2v1H105zM113 119h2v1H113zM106 120h1v1H106zM113 120h3v1H113zM113 121h3v1H113zM112 122h5v1H112zM112 123h6v1H112zM111 124h6v1H111zM112 125h5v1H112zM113 126h3v1H113zM114 127h2v1H114zM132 131h1v1H132zM133 132h2v1H133zM133 133h3v1H133zM133 134h4v1H133zM134 135h4v1H134zM134 136h6v1H134zM134 137h6v1H134zM136 138h4v1H136zM136 139h5v1H136zM137 140h5v1H137zM138 141h4v1H138zM139 142h4v1H139zM140 143h5v1H140zM143 144h5v1H143zM144 145h5v1H144zM145 146h4v1H145zM146 147h2v1H146zM147 148h1v1H147z"/>
  <path fill="#d848f0" d="M92 83h1v1H92z"/>
  <path fill="#d850e8" d="M97 60h1v1H97zM101 85h1v1H101zM99 94h1v1H99zM117 115h1v1H117zM129 121h1v1H129zM131 125h1v1H131z"/>
  <path fill="#e048e8" d="M104 56h1v1H104zM100 86h1v1H100zM100 87h1v1H100z"/>
  <path fill="#e050e0" d="M109 59h1v1H109zM124 111h2v1H124zM126 117h1v1H126zM135 121h1v1H135z"/>
  <path fill="#e848e0" d="M114 38h1v1H114zM113 43h1v1H113zM109 51h1v1H109zM109 52h1v1H109z"/>
  <path fill="#e850d8" d="M117 49h1v1H117z"/>
  <path fill="#d050f8" d="M86 79h1v1H86zM87 83h1v1H87zM90 93h1v1H90z"/>
  <path fill="#d058f0" d="M106 118h1v1H106zM140 138h1v1H140z"/>
  <path fill="#d850f0" d="M93 63h1v1H93zM92 64h1v1H92zM91 65h2v1H91zM90 66h3v1H90zM90 67h4v1H90zM89 68h4v1H89zM90 69h3v1H90zM90 70h4v1H90zM90 71h3v1H90zM90 72h2v1H90zM90 73h1v1H90zM89 74h1v1H89zM89 75h1v1H89zM92 82h4v1H92zM91 83h1v1H91zM93 83h2v1H93zM93 89h2v1H93zM93 90h2v1H93zM99 95h1v1H99zM99 96h2v1H99zM99 97h2v1H99zM98 98h2v1H98zM98 99h2v1H98zM97 100h2v1H97zM116 115h1v1H116zM115 116h2v1H115zM115 117h3v1H115zM115 118h4v1H115zM115 119h4v1H115zM116 120h3v1H116zM116 121h3v1H116zM117 122h1v1H117zM131 126h1v1H131zM132 127h1v1H132zM132 128h2v1H132zM132 129h4v1H132zM132 130h5v1H132zM133 131h5v1H133zM135 132h3v1H135zM136 133h3v1H136zM137 134h2v1H137zM138 135h1v1H138z"/>
  <path fill="#e048f0" d="M98 82h1v1H98zM98 83h1v1H98z"/>
  <path fill="#e050e8" d="M102 57h2v1H102zM101 58h3v1H101zM99 59h4v1H99zM98 60h5v1H98zM96 61h7v1H96zM96 62h3v1H96zM100 62h3v1H100zM95 63h1v1H95zM97 63h5v1H97zM98 64h2v1H98zM101 64h1v1H101zM96 65h2v1H96zM99 65h1v1H99zM96 66h3v1H96zM98 84h1v1H98zM100 84h1v1H100zM99 85h2v1H99zM101 86h1v1H101zM101 87h1v1H101zM100 88h2v1H100zM100 89h1v1H100zM100 90h2v1H100zM100 91h2v1H100zM100 92h2v1H100zM122 111h2v1H122zM119 112h6v1H119zM118 113h7v1H118zM117 114h8v1H117zM118 115h7v1H118zM119 116h7v1H119zM120 117h2v1H120zM128 117h1v1H128zM120 118h1v1H120zM128 118h2v1H128zM128 119h4v1H128zM129 120h4v1H129zM130 121h4v1H130zM130 122h4v1H130zM130 123h5v1H130zM131 124h6v1H131zM132 125h5v1H132zM134 126h3v1H134zM135 127h2v1H135zM137 129h1v1H137z"/>
  <path fill="#e848e8" d="M104 62h1v1H104z"/>
  <path fill="#e850e0" d="M112 46h1v1H112zM111 48h1v1H111zM108 53h2v1H108zM113 55h1v1H113zM112 56h1v1H112zM110 58h1v1H110zM132 115h1v1H132z"/>
  <path fill="#f048e0" d="M114 39h1v1H114zM113 44h1v1H113zM110 50h1v1H110z"/>
  <path fill="#b0b0c0" d="M158 178h1v1H158z"/>
  <path fill="#e050f0" d="M95 62h1v1H95zM99 62h1v1H99zM94 63h1v1H94zM96 63h1v1H96zM93 64h5v1H93zM100 64h1v1H100zM93 65h3v1H93zM98 65h1v1H98zM93 66h3v1H93zM94 67h3v1H94zM93 68h3v1H93zM93 69h2v1H93zM96 82h2v1H96zM95 83h3v1H95zM99 83h1v1H99zM99 84h1v1H99zM101 89h1v1H101zM100 93h2v1H100zM100 94h2v1H100zM100 95h1v1H100zM117 116h2v1H117zM118 117h2v1H118zM119 118h1v1H119zM119 119h1v1H119zM132 126h2v1H132zM133 127h2v1H133zM134 128h3v1H134zM136 129h1v1H136zM137 130h1v1H137z"/>
  <path fill="#e850e8" d="M107 54h3v1H107zM105 55h5v1H105zM105 56h6v1H105zM104 57h7v1H104zM104 58h6v1H104zM103 59h6v1H103zM103 60h5v1H103zM103 61h4v1H103zM103 62h1v1H103zM102 63h1v1H102zM126 111h1v1H126zM125 112h4v1H125zM125 113h6v1H125zM125 114h7v1H125zM125 115h7v1H125zM126 116h7v1H126zM127 117h1v1H127zM129 117h5v1H129zM130 118h4v1H130zM132 119h2v1H132zM133 120h2v1H133zM134 121h1v1H134zM134 122h2v1H134zM135 123h1v1H135z"/>
  <path fill="#f050e0" d="M115 37h4v1H115zM115 38h5v1H115zM115 39h5v1H115zM114 40h6v1H114zM114 41h6v1H114zM114 42h6v1H114zM114 43h6v1H114zM114 44h5v1H114zM113 45h6v1H113zM113 46h6v1H113zM112 47h6v1H112zM112 48h6v1H112zM111 49h6v1H111zM111 50h6v1H111zM110 51h6v1H110zM110 52h6v1H110zM110 53h5v1H110zM110 54h3v1H110zM112 55h1v1H112z"/>
  <path fill="#b0b8c0" d="M29 15h1v1H29zM27 16h1v1H27zM154 179h1v1H154z"/>
  <path fill="#e858e8" d="M134 119h1v1H134z"/>
  <path fill="#f050e8" d="M113 54h1v1H113zM110 55h2v1H110zM111 56h1v1H111zM111 57h1v1H111z"/>
  <path fill="#b8b8c0" d="M170 21h1v1H170z"/>
  <path fill="#b8b8c8" d="M15 161h1v1H15zM25 174h1v1H25z"/>
  <path fill="#b8c0c8" d="M175 163h1v1H175z"/>
  <path fill="#c0c0c8" d="M162 15h1v1H162zM24 18h1v1H24z"/>
  <path fill="#c0c0d0" d="M168 19h1v1H168zM171 22h1v1H171zM17 26h1v1H17zM14 158h1v1H14z"/>
  <path fill="#c0c8d0" d="M34 13h1v1H34zM164 16h1v1H164zM177 157h1v1H177z"/>
  <path fill="#c8c8d0" d="M157 13h1v1H157z"/>
  <path fill="#c8d0d0" d="M174 165h1v1H174zM172 168h1v1H172zM28 176h1v1H28z"/>
  <path fill="#c8d0d8" d="M19 23h1v1H19zM175 28h1v1H175zM177 34h1v1H177z"/>
  <path fill="#d0d0d8" d="M31 14h1v1H31zM15 30h1v1H15zM14 33h1v1H14zM13 65h1v1H13zM13 117h1v1H13zM13 118h1v1H13zM18 167h1v1H18zM166 174h1v1H166zM30 177h1v1H30z"/>
  <path fill="#d0d0e0" d="M13 64h1v1H13z"/>
  <path fill="#d0d8e0" d="M167 18h1v1H167zM13 42h1v1H13zM13 43h1v1H13zM13 44h1v1H13zM13 45h1v1H13zM13 46h1v1H13zM13 47h1v1H13zM13 49h1v1H13zM13 50h1v1H13zM13 51h1v1H13zM13 52h1v1H13zM13 53h1v1H13zM13 54h1v1H13zM13 55h1v1H13zM13 56h1v1H13zM13 57h1v1H13zM13 58h1v1H13zM13 59h1v1H13zM13 60h1v1H13zM13 62h1v1H13zM13 63h1v1H13zM13 66h1v1H13zM13 67h1v1H13zM13 69h1v1H13zM13 70h1v1H13zM13 76h1v1H13zM13 77h1v1H13zM13 78h1v1H13zM13 79h1v1H13zM13 80h1v1H13zM13 81h1v1H13zM13 82h1v1H13zM13 83h1v1H13zM13 84h1v1H13zM13 87h1v1H13zM13 88h1v1H13zM13 89h1v1H13zM13 90h1v1H13zM13 91h1v1H13zM13 94h1v1H13zM13 95h1v1H13zM13 96h1v1H13zM13 99h1v1H13zM13 100h1v1H13zM13 104h1v1H13zM13 111h1v1H13zM13 112h1v1H13zM13 113h1v1H13zM13 114h1v1H13zM13 115h1v1H13zM13 116h1v1H13zM13 119h1v1H13zM13 120h1v1H13zM13 121h1v1H13zM13 122h1v1H13zM13 128h1v1H13zM13 129h1v1H13zM13 130h1v1H13zM13 131h1v1H13zM13 132h1v1H13zM13 133h1v1H13zM13 138h1v1H13zM13 139h1v1H13zM13 140h1v1H13zM13 141h1v1H13zM13 142h1v1H13zM13 143h1v1H13zM13 145h1v1H13zM13 146h1v1H13zM13 147h1v1H13zM13 148h1v1H13zM13 150h1v1H13zM13 151h1v1H13z"/>
  <path fill="#d8d8e0" d="M160 14h1v1H160zM13 39h1v1H13zM13 40h1v1H13zM13 41h1v1H13zM13 48h1v1H13zM13 61h1v1H13zM13 68h1v1H13zM13 71h1v1H13zM13 72h1v1H13zM13 73h1v1H13zM13 74h1v1H13zM13 75h1v1H13zM13 85h1v1H13zM13 86h1v1H13zM13 92h1v1H13zM13 93h1v1H13zM13 97h1v1H13zM13 98h1v1H13zM13 101h1v1H13zM13 102h1v1H13zM13 103h1v1H13zM13 105h1v1H13zM13 106h1v1H13zM13 107h1v1H13zM13 108h1v1H13zM13 109h1v1H13zM13 110h1v1H13zM13 123h1v1H13zM13 124h1v1H13zM13 125h1v1H13zM13 126h1v1H13zM13 127h1v1H13zM13 134h1v1H13zM13 135h1v1H13zM13 136h1v1H13zM13 137h1v1H13zM13 144h1v1H13zM13 149h1v1H13zM13 152h1v1H13zM36 179h1v1H36z"/>
  <path fill="#e0e0e0" d="M41 12h4v1H41zM51 12h1v1H51zM53 12h5v1H53zM59 12h2v1H59zM63 12h7v1H63zM71 12h8v1H71zM80 12h19v1H80zM101 12h1v1H101zM106 12h4v1H106zM114 12h4v1H114zM123 12h1v1H123zM126 12h10v1H126zM139 12h12v1H139zM174 26h1v1H174zM163 176h1v1H163z"/>
  <path fill="#e0e0e8" d="M45 12h6v1H45zM52 12h1v1H52zM58 12h1v1H58zM61 12h2v1H61zM70 12h1v1H70zM79 12h1v1H79zM99 12h2v1H99zM102 12h4v1H102zM110 12h4v1H110zM118 12h5v1H118zM124 12h2v1H124zM136 12h3v1H136zM26 175h1v1H26zM161 177h1v1H161z"/>
  <path fill="#e0e8e8" d="M40 12h1v1H40zM151 12h1v1H151zM13 153h1v1H13zM176 161h1v1H176zM155 179h1v1H155z"/>
  <path fill="#e8e8e8" d="M172 23h1v1H172zM13 38h1v1H13zM32 178h1v1H32z"/>
  <path fill="#e8e8f0" d="M18 24h1v1H18zM173 167h1v1H173z"/>
  <path fill="#f0f0f0" d="M39 12h1v1H39zM152 12h1v1H152zM25 17h1v1H25zM176 30h1v1H176zM13 154h1v1H13zM177 158h1v1H177zM16 164h1v1H16zM21 171h1v1H21zM165 175h1v1H165z"/>
  <path fill="#f0f0f8" d="M13 37h1v1H13zM22 172h1v1H22zM159 178h1v1H159z"/>
  <path fill="#f0f8f8" d="M33 13h1v1H33zM177 33h1v1H177z"/>
  <path fill="#f8f8f8" d="M0 0h80v1H0zM81 0h34v1H81zM116 0h4v1H116zM121 0h71v1H121zM0 1h192v1H0zM0 2h192v1H0zM0 3h108v1H0zM111 3h81v1H111zM0 4h108v1H0zM110 4h78v1H110zM189 4h3v1H189zM0 5h192v1H0zM0 6h31v1H0zM33 6h101v1H33zM135 6h17v1H135zM153 6h39v1H153zM0 7h30v1H0zM32 7h150v1H32zM183 7h9v1H183zM0 8h76v1H0zM78 8h104v1H78zM183 8h6v1H183zM0 9h192v1H0zM0 10h14v1H0zM15 10h176v1H15zM0 11h14v1H0zM15 11h5v1H15zM21 11h17v1H21zM39 11h1v1H39zM43 11h11v1H43zM55 11h4v1H55zM60 11h29v1H60zM90 11h3v1H90zM94 11h30v1H94zM125 11h12v1H125zM138 11h1v1H138zM140 11h43v1H140zM184 11h8v1H184zM0 12h14v1H0zM15 12h5v1H15zM21 12h12v1H21zM34 12h5v1H34zM153 12h30v1H153zM184 12h8v1H184zM0 13h33v1H0zM158 13h34v1H158zM0 14h27v1H0zM28 14h3v1H28zM161 14h31v1H161zM0 15h10v1H0zM12 15h17v1H12zM163 15h29v1H163zM0 16h27v1H0zM165 16h27v1H165zM0 17h25v1H0zM166 17h1v1H166zM168 17h24v1H168zM0 18h24v1H0zM168 18h24v1H168zM0 19h11v1H0zM13 19h8v1H13zM22 19h1v1H22zM169 19h23v1H169zM0 20h8v1H0zM9 20h2v1H9zM13 20h9v1H13zM170 20h22v1H170zM0 21h11v1H0zM12 21h7v1H12zM20 21h1v1H20zM171 21h20v1H171zM0 22h20v1H0zM172 22h20v1H172zM0 23h19v1H0zM173 23h18v1H173zM0 24h18v1H0zM173 24h18v1H173zM0 25h18v1H0zM174 25h18v1H174zM0 26h17v1H0zM176 26h6v1H176zM183 26h7v1H183zM191 26h1v1H191zM0 27h14v1H0zM15 27h2v1H15zM175 27h2v1H175zM178 27h12v1H178zM191 27h1v1H191zM0 28h15v1H0zM176 28h16v1H176zM0 29h14v1H0zM15 29h1v1H15zM176 29h16v1H176zM0 30h12v1H0zM13 30h1v1H13zM177 30h13v1H177zM191 30h1v1H191zM0 31h15v1H0zM177 31h15v1H177zM0 32h15v1H0zM177 32h11v1H177zM189 32h3v1H189zM0 33h14v1H0zM178 33h14v1H178zM0 34h6v1H0zM7 34h7v1H7zM178 34h1v1H178zM180 34h12v1H180zM0 35h14v1H0zM178 35h1v1H178zM180 35h12v1H180zM0 36h12v1H0zM13 36h1v1H13zM178 36h14v1H178zM0 37h12v1H0zM178 37h14v1H178zM0 38h13v1H0zM178 38h14v1H178zM0 39h13v1H0zM178 39h14v1H178zM0 40h12v1H0zM178 40h13v1H178zM0 41h12v1H0zM178 41h10v1H178zM189 41h3v1H189zM0 42h6v1H0zM7 42h6v1H7zM178 42h14v1H178zM0 43h13v1H0zM178 43h14v1H178zM0 44h13v1H0zM178 44h11v1H178zM190 44h2v1H190zM0 45h13v1H0zM178 45h14v1H178zM0 46h13v1H0zM178 46h6v1H178zM185 46h7v1H185zM0 47h13v1H0zM178 47h14v1H178zM0 48h12v1H0zM178 48h14v1H178zM0 49h13v1H0zM178 49h14v1H178zM0 50h13v1H0zM178 50h13v1H178zM0 51h11v1H0zM178 51h14v1H178zM0 52h12v1H0zM178 52h14v1H178zM0 53h3v1H0zM4 53h9v1H4zM178 53h14v1H178zM0 54h4v1H0zM5 54h6v1H5zM12 54h1v1H12zM178 54h13v1H178zM0 55h10v1H0zM11 55h1v1H11zM178 55h13v1H178zM0 56h11v1H0zM178 56h14v1H178zM0 57h9v1H0zM10 57h2v1H10zM178 57h14v1H178zM0 58h12v1H0zM178 58h14v1H178zM0 59h13v1H0zM178 59h14v1H178zM0 60h9v1H0zM10 60h3v1H10zM178 60h14v1H178zM0 61h12v1H0zM178 61h14v1H178zM0 62h10v1H0zM11 62h1v1H11zM178 62h13v1H178zM0 63h13v1H0zM178 63h14v1H178zM0 64h13v1H0zM178 64h14v1H178zM0 65h13v1H0zM178 65h14v1H178zM0 66h13v1H0zM178 66h1v1H178zM180 66h12v1H180zM0 67h12v1H0zM178 67h14v1H178zM0 68h13v1H0zM178 68h1v1H178zM180 68h1v1H180zM182 68h10v1H182zM0 69h13v1H0zM178 69h3v1H178zM182 69h10v1H182zM0 70h13v1H0zM178 70h13v1H178zM0 71h13v1H0zM178 71h14v1H178zM0 72h11v1H0zM178 72h14v1H178zM0 73h13v1H0zM178 73h14v1H178zM0 74h13v1H0zM178 74h14v1H178zM0 75h12v1H0zM178 75h14v1H178zM0 76h10v1H0zM11 76h2v1H11zM178 76h14v1H178zM0 77h9v1H0zM11 77h1v1H11zM178 77h14v1H178zM1 78h10v1H1zM178 78h14v1H178zM0 79h10v1H0zM11 79h1v1H11zM178 79h14v1H178zM0 80h10v1H0zM12 80h1v1H12zM178 80h14v1H178zM0 81h10v1H0zM11 81h2v1H11zM178 81h14v1H178zM0 82h3v1H0zM4 82h6v1H4zM11 82h1v1H11zM178 82h14v1H178zM0 83h10v1H0zM11 83h1v1H11zM178 83h14v1H178zM0 84h10v1H0zM11 84h1v1H11zM178 84h14v1H178zM0 85h9v1H0zM11 85h1v1H11zM178 85h14v1H178zM0 86h10v1H0zM12 86h1v1H12zM178 86h14v1H178zM0 87h10v1H0zM11 87h1v1H11zM178 87h10v1H178zM190 87h2v1H190zM0 88h12v1H0zM178 88h14v1H178zM0 89h13v1H0zM178 89h11v1H178zM190 89h2v1H190zM0 90h11v1H0zM12 90h1v1H12zM178 90h14v1H178zM0 91h12v1H0zM178 91h14v1H178zM0 92h12v1H0zM178 92h11v1H178zM190 92h2v1H190zM0 93h13v1H0zM178 93h14v1H178zM0 94h12v1H0zM178 94h13v1H178zM0 95h13v1H0zM178 95h14v1H178zM0 96h8v1H0zM9 96h4v1H9zM178 96h14v1H178zM0 97h13v1H0zM178 97h14v1H178zM0 98h13v1H0zM178 98h2v1H178zM181 98h7v1H181zM189 98h3v1H189zM0 99h12v1H0zM178 99h11v1H178zM190 99h2v1H190zM0 100h13v1H0zM178 100h4v1H178zM183 100h9v1H183zM0 101h10v1H0zM11 101h2v1H11zM178 101h14v1H178zM0 102h13v1H0zM178 102h14v1H178zM0 103h12v1H0zM178 103h14v1H178zM0 104h12v1H0zM178 104h14v1H178zM0 105h12v1H0zM178 105h14v1H178zM0 106h12v1H0zM178 106h1v1H178zM180 106h12v1H180zM0 107h12v1H0zM178 107h1v1H178zM180 107h11v1H180zM0 108h12v1H0zM178 108h2v1H178zM181 108h10v1H181zM0 109h13v1H0zM178 109h2v1H178zM182 109h9v1H182zM0 110h13v1H0zM178 110h14v1H178zM0 111h11v1H0zM178 111h13v1H178zM0 112h12v1H0zM178 112h14v1H178zM0 113h13v1H0zM178 113h14v1H178zM0 114h11v1H0zM12 114h1v1H12zM178 114h14v1H178zM0 115h13v1H0zM178 115h14v1H178zM0 116h11v1H0zM178 116h14v1H178zM0 117h13v1H0zM178 117h14v1H178zM0 118h10v1H0zM178 118h14v1H178zM0 119h4v1H0zM5 119h5v1H5zM11 119h2v1H11zM178 119h14v1H178zM0 120h8v1H0zM9 120h4v1H9zM178 120h14v1H178zM0 121h12v1H0zM178 121h9v1H178zM188 121h3v1H188zM0 122h12v1H0zM178 122h14v1H178zM0 123h12v1H0zM178 123h13v1H178zM0 124h9v1H0zM10 124h3v1H10zM178 124h13v1H178zM0 125h12v1H0zM178 125h13v1H178zM0 126h13v1H0zM178 126h12v1H178zM0 127h13v1H0zM178 127h14v1H178zM0 128h10v1H0zM11 128h2v1H11zM178 128h11v1H178zM190 128h1v1H190zM0 129h10v1H0zM11 129h1v1H11zM178 129h14v1H178zM0 130h13v1H0zM178 130h14v1H178zM0 131h12v1H0zM178 131h14v1H178zM0 132h11v1H0zM178 132h14v1H178zM0 133h12v1H0zM178 133h9v1H178zM188 133h4v1H188zM0 134h9v1H0zM10 134h2v1H10zM178 134h14v1H178zM0 135h13v1H0zM178 135h14v1H178zM0 136h5v1H0zM6 136h7v1H6zM178 136h14v1H178zM0 137h6v1H0zM7 137h3v1H7zM11 137h1v1H11zM178 137h14v1H178zM0 138h13v1H0zM178 138h14v1H178zM0 139h12v1H0zM178 139h13v1H178zM0 140h13v1H0zM178 140h14v1H178zM0 141h13v1H0zM178 141h12v1H178zM191 141h1v1H191zM0 142h4v1H0zM5 142h7v1H5zM178 142h14v1H178zM0 143h13v1H0zM178 143h14v1H178zM0 144h12v1H0zM178 144h14v1H178zM0 145h12v1H0zM178 145h14v1H178zM0 146h12v1H0zM178 146h1v1H178zM180 146h10v1H180zM191 146h1v1H191zM0 147h12v1H0zM178 147h14v1H178zM0 148h13v1H0zM178 148h14v1H178zM0 149h13v1H0zM178 149h12v1H178zM191 149h1v1H191zM0 150h13v1H0zM178 150h13v1H178zM0 151h12v1H0zM178 151h14v1H178zM0 152h12v1H0zM178 152h14v1H178zM0 153h13v1H0zM178 153h14v1H178zM0 154h13v1H0zM178 154h14v1H178zM0 155h14v1H0zM178 155h14v1H178zM0 156h14v1H0zM178 156h14v1H178zM0 157h14v1H0zM178 157h14v1H178zM0 158h14v1H0zM178 158h14v1H178zM0 159h15v1H0zM177 159h15v1H177zM0 160h15v1H0zM177 160h15v1H177zM0 161h15v1H0zM177 161h11v1H177zM189 161h3v1H189zM0 162h16v1H0zM176 162h12v1H176zM189 162h3v1H189zM0 163h16v1H0zM176 163h16v1H176zM0 164h8v1H0zM10 164h6v1H10zM175 164h17v1H175zM0 165h17v1H0zM175 165h17v1H175zM0 166h18v1H0zM174 166h18v1H174zM0 167h18v1H0zM174 167h18v1H174zM0 168h10v1H0zM11 168h8v1H11zM173 168h19v1H173zM0 169h16v1H0zM17 169h3v1H17zM172 169h20v1H172zM0 170h21v1H0zM171 170h21v1H171zM0 171h21v1H0zM170 171h21v1H170zM0 172h22v1H0zM169 172h13v1H169zM183 172h9v1H183zM0 173h24v1H0zM168 173h20v1H168zM189 173h3v1H189zM0 174h25v1H0zM167 174h25v1H167zM0 175h26v1H0zM166 175h26v1H166zM0 176h28v1H0zM164 176h28v1H164zM0 177h30v1H0zM162 177h30v1H162zM0 178h32v1H0zM160 178h29v1H160zM191 178h1v1H191zM0 179h36v1H0zM156 179h36v1H156zM0 180h192v1H0zM0 181h19v1H0zM22 181h154v1H22zM177 181h14v1H177zM0 182h189v1H0zM190 182h2v1H190zM0 183h102v1H0zM103 183h89v1H103zM0 184h110v1H0zM111 184h20v1H111zM132 184h59v1H132zM0 185h106v1H0zM107 185h23v1H107zM131 185h47v1H131zM179 185h10v1H179zM190 185h2v1H190zM0 186h192v1H0zM0 187h64v1H0zM65 187h3v1H65zM69 187h44v1H69zM114 187h22v1H114zM137 187h8v1H137zM146 187h46v1H146zM0 188h192v1H0zM0 189h113v1H0zM114 189h74v1H114zM189 189h2v1H189zM0 190h11v1H0zM12 190h174v1H12zM188 190h3v1H188zM0 191h1v1H0zM3 191h23v1H3zM27 191h5v1H27zM33 191h68v1H33zM104 191h28v1H104zM134 191h1v1H134zM136 191h1v1H136zM138 191h20v1H138zM159 191h4v1H159zM167 191h1v1H167zM170 191h5v1H170zM176 191h7v1H176zM184 191h4v1H184z"/>
  <path fill="#f8fff8" d="M8 96h1v1H8z"/>
  <path fill="#fff8f8" d="M80 0h1v1H80zM115 0h1v1H115zM120 0h1v1H120zM108 3h3v1H108zM108 4h2v1H108zM188 4h1v1H188zM31 6h2v1H31zM134 6h1v1H134zM152 6h1v1H152zM30 7h2v1H30zM182 7h1v1H182zM76 8h2v1H76zM182 8h1v1H182zM189 8h3v1H189zM14 10h1v1H14zM191 10h1v1H191zM14 11h1v1H14zM20 11h1v1H20zM38 11h1v1H38zM40 11h3v1H40zM54 11h1v1H54zM59 11h1v1H59zM89 11h1v1H89zM93 11h1v1H93zM124 11h1v1H124zM137 11h1v1H137zM139 11h1v1H139zM183 11h1v1H183zM14 12h1v1H14zM20 12h1v1H20zM33 12h1v1H33zM183 12h1v1H183zM27 14h1v1H27zM10 15h2v1H10zM167 17h1v1H167zM11 19h2v1H11zM21 19h1v1H21zM8 20h1v1H8zM11 20h2v1H11zM11 21h1v1H11zM19 21h1v1H19zM191 21h1v1H191zM191 23h1v1H191zM191 24h1v1H191zM175 26h1v1H175zM182 26h1v1H182zM190 26h1v1H190zM14 27h1v1H14zM177 27h1v1H177zM190 27h1v1H190zM15 28h1v1H15zM14 29h1v1H14zM12 30h1v1H12zM14 30h1v1H14zM190 30h1v1H190zM188 32h1v1H188zM6 34h1v1H6zM179 34h1v1H179zM179 35h1v1H179zM12 36h1v1H12zM12 37h1v1H12zM12 40h1v1H12zM191 40h1v1H191zM12 41h1v1H12zM188 41h1v1H188zM6 42h1v1H6zM189 44h1v1H189zM184 46h1v1H184zM12 48h1v1H12zM191 50h1v1H191zM11 51h2v1H11zM12 52h1v1H12zM3 53h1v1H3zM4 54h1v1H4zM11 54h1v1H11zM191 54h1v1H191zM10 55h1v1H10zM12 55h1v1H12zM191 55h1v1H191zM11 56h2v1H11zM9 57h1v1H9zM12 57h1v1H12zM12 58h1v1H12zM9 60h1v1H9zM12 61h1v1H12zM10 62h1v1H10zM12 62h1v1H12zM191 62h1v1H191zM179 66h1v1H179zM12 67h1v1H12zM179 68h1v1H179zM181 68h1v1H181zM181 69h1v1H181zM191 70h1v1H191zM11 72h2v1H11zM12 75h1v1H12zM10 76h1v1H10zM9 77h2v1H9zM12 77h1v1H12zM0 78h1v1H0zM11 78h2v1H11zM10 79h1v1H10zM12 79h1v1H12zM10 80h2v1H10zM10 81h1v1H10zM3 82h1v1H3zM10 82h1v1H10zM10 83h1v1H10zM12 83h1v1H12zM10 84h1v1H10zM12 84h1v1H12zM9 85h2v1H9zM12 85h1v1H12zM10 86h2v1H10zM10 87h1v1H10zM12 87h1v1H12zM188 87h2v1H188zM189 89h1v1H189zM11 90h1v1H11zM12 91h1v1H12zM12 92h1v1H12zM189 92h1v1H189zM12 94h1v1H12zM191 94h1v1H191zM180 98h1v1H180zM188 98h1v1H188zM12 99h1v1H12zM189 99h1v1H189zM182 100h1v1H182zM10 101h1v1H10zM12 103h1v1H12zM12 104h1v1H12zM12 105h1v1H12zM12 106h1v1H12zM179 106h1v1H179zM12 107h1v1H12zM179 107h1v1H179zM191 107h1v1H191zM12 108h1v1H12zM180 108h1v1H180zM191 108h1v1H191zM180 109h2v1H180zM191 109h1v1H191zM11 111h2v1H11zM191 111h1v1H191zM12 112h1v1H12zM11 114h1v1H11zM11 116h2v1H11zM10 118h3v1H10zM4 119h1v1H4zM10 119h1v1H10zM8 120h1v1H8zM12 121h1v1H12zM187 121h1v1H187zM191 121h1v1H191zM12 122h1v1H12zM12 123h1v1H12zM191 123h1v1H191zM9 124h1v1H9zM191 124h1v1H191zM12 125h1v1H12zM191 125h1v1H191zM190 126h2v1H190zM10 128h1v1H10zM189 128h1v1H189zM191 128h1v1H191zM10 129h1v1H10zM12 129h1v1H12zM12 131h1v1H12zM11 132h2v1H11zM12 133h1v1H12zM187 133h1v1H187zM9 134h1v1H9zM12 134h1v1H12zM5 136h1v1H5zM6 137h1v1H6zM10 137h1v1H10zM12 137h1v1H12zM12 139h1v1H12zM191 139h1v1H191zM190 141h1v1H190zM4 142h1v1H4zM12 142h1v1H12zM12 144h1v1H12zM12 145h1v1H12zM179 146h1v1H179zM190 146h1v1H190zM12 147h1v1H12zM190 149h1v1H190zM191 150h1v1H191zM12 151h1v1H12zM12 152h1v1H12zM188 161h1v1H188zM188 162h1v1H188zM8 164h2v1H8zM10 168h1v1H10zM16 169h1v1H16zM191 171h1v1H191zM182 172h1v1H182zM188 173h1v1H188zM189 178h2v1H189zM19 181h3v1H19zM176 181h1v1H176zM191 181h1v1H191zM189 182h1v1H189zM102 183h1v1H102zM110 184h1v1H110zM131 184h1v1H131zM191 184h1v1H191zM106 185h1v1H106zM130 185h1v1H130zM178 185h1v1H178zM189 185h1v1H189zM64 187h1v1H64zM68 187h1v1H68zM113 187h1v1H113zM136 187h1v1H136zM145 187h1v1H145zM113 189h1v1H113zM188 189h1v1H188zM191 189h1v1H191zM11 190h1v1H11zM186 190h2v1H186zM191 190h1v1H191zM1 191h2v1H1zM26 191h1v1H26zM32 191h1v1H32zM101 191h3v1H101zM132 191h2v1H132zM135 191h1v1H135zM137 191h1v1H137zM158 191h1v1H158zM163 191h4v1H163zM168 191h2v1H168zM175 191h1v1H175zM183 191h1v1H183zM188 191h3v1H188z"/>
  <path fill="#fff8ff" d="M191 191h1v1H191z"/>
  <path fill="#fffff8" d="M12 82h1v1H12zM12 88h1v1H12zM12 146h1v1H12z"/>
</svg>
