<svg xmlns="http://www.w3.org/2000/svg" viewBox="0 0 192 192" role="img">
  <desc>Generated vector SVG from deeplearning.png</desc>
  <path fill="#001840" d="M49 44h1v1H49zM48 47h1v1H48zM105 117h1v1H105zM96 118h1v1H96z"/>
  <path fill="#001848" d="M105 142h1v1H105zM37 177h1v1H37z"/>
  <path fill="#081840" d="M135 42h1v1H135zM123 43h1v1H123zM41 46h1v1H41zM125 46h1v1H125zM125 47h1v1H125zM92 109h1v1H92zM105 118h1v1H105zM98 120h1v1H98zM86 121h1v1H86zM107 121h1v1H107zM69 124h1v1H69zM69 125h1v1H69zM69 126h1v1H69zM69 128h1v1H69zM69 129h1v1H69zM69 131h1v1H69zM69 132h1v1H69zM69 133h1v1H69zM69 138h1v1H69z"/>
  <path fill="#002048" d="M54 14h1v1H54zM96 15h2v1H96zM111 15h2v1H111zM31 16h1v1H31zM115 16h1v1H115zM50 37h1v1H50zM49 47h1v1H49zM51 49h1v1H51zM41 51h1v1H41zM125 58h1v1H125zM73 59h1v1H73zM59 62h1v1H59zM49 66h1v1H49zM67 66h2v1H67zM56 72h1v1H56zM56 73h1v1H56zM105 75h1v1H105zM87 87h1v1H87zM85 89h1v1H85zM83 90h1v1H83zM69 101h1v1H69zM77 107h1v1H77zM15 118h1v1H15zM106 118h1v1H106zM95 120h1v1H95zM87 121h1v1H87zM93 121h1v1H93zM98 121h1v1H98zM170 123h1v1H170zM99 125h1v1H99zM99 131h1v1H99zM130 132h1v1H130zM130 133h1v1H130zM16 159h1v1H16z"/>
  <path fill="#081848" d="M177 38h1v1H177zM37 40h1v1H37zM49 52h1v1H49zM177 63h1v1H177zM177 64h1v1H177zM177 97h1v1H177zM177 98h1v1H177zM177 101h1v1H177zM177 102h1v1H177zM177 107h1v1H177zM177 108h1v1H177zM177 128h1v1H177zM69 130h1v1H69zM177 131h1v1H177zM177 132h1v1H177zM101 133h1v1H101zM177 133h1v1H177zM69 139h1v1H69zM177 139h1v1H177z"/>
  <path fill="#082040" d="M47 34h1v1H47zM43 38h1v1H43zM37 41h1v1H37zM130 41h1v1H130zM41 47h1v1H41zM68 59h2v1H68zM56 61h1v1H56zM113 61h1v1H113zM121 64h1v1H121zM69 127h1v1H69zM102 141h1v1H102zM145 141h1v1H145zM69 143h1v1H69z"/>
  <path fill="#082048" d="M34 14h20v1H34zM55 14h103v1H55zM31 15h65v1H31zM98 15h13v1H98zM113 15h48v1H113zM29 16h2v1H29zM32 16h83v1H32zM116 16h47v1H116zM27 17h138v1H27zM26 18h140v1H26zM24 19h144v1H24zM23 20h146v1H23zM22 21h148v1H22zM21 22h150v1H21zM20 23h152v1H20zM20 24h153v1H20zM19 25h154v1H19zM18 26h156v1H18zM18 27h156v1H18zM17 28h157v1H17zM17 29h158v1H17zM16 30h160v1H16zM16 31h160v1H16zM16 32h161v1H16zM15 33h30v1H15zM46 33h131v1H46zM15 34h26v1H15zM48 34h81v1H48zM130 34h47v1H130zM15 35h24v1H15zM49 35h77v1H49zM133 35h44v1H133zM15 36h24v1H15zM50 36h75v1H50zM135 36h42v1H135zM15 37h23v1H15zM51 37h73v1H51zM135 37h43v1H135zM15 38h23v1H15zM44 38h1v1H44zM51 38h73v1H51zM136 38h41v1H136zM15 39h23v1H15zM42 39h4v1H42zM51 39h72v1H51zM128 39h3v1H128zM135 39h43v1H135zM15 40h22v1H15zM42 40h4v1H42zM51 40h72v1H51zM128 40h2v1H128zM136 40h42v1H136zM15 41h22v1H15zM43 41h2v1H43zM51 41h72v1H51zM128 41h2v1H128zM136 41h42v1H136zM15 42h23v1H15zM50 42h73v1H50zM129 42h1v1H129zM136 42h42v1H136zM15 43h23v1H15zM50 43h73v1H50zM135 43h43v1H135zM15 44h24v1H15zM50 44h74v1H50zM135 44h43v1H135zM15 45h25v1H15zM49 45h75v1H49zM134 45h44v1H134zM15 46h26v1H15zM48 46h77v1H48zM132 46h46v1H132zM15 47h26v1H15zM50 47h18v1H50zM70 47h55v1H70zM130 47h48v1H130zM15 48h27v1H15zM48 48h18v1H48zM73 48h52v1H73zM130 48h48v1H130zM15 49h27v1H15zM49 49h2v1H49zM52 49h12v1H52zM73 49h52v1H73zM131 49h47v1H131zM15 50h27v1H15zM49 50h15v1H49zM74 50h50v1H74zM130 50h48v1H130zM15 51h26v1H15zM42 51h1v1H42zM49 51h14v1H49zM75 51h49v1H75zM129 51h49v1H129zM15 52h28v1H15zM50 52h13v1H50zM68 52h2v1H68zM75 52h48v1H75zM129 52h49v1H129zM15 53h28v1H15zM50 53h13v1H50zM67 53h4v1H67zM75 53h47v1H75zM129 53h49v1H129zM15 54h28v1H15zM51 54h12v1H51zM68 54h2v1H68zM75 54h46v1H75zM128 54h50v1H128zM15 55h29v1H15zM51 55h12v1H51zM74 55h46v1H74zM127 55h51v1H127zM15 56h29v1H15zM52 56h12v1H52zM74 56h38v1H74zM118 56h1v1H118zM126 56h52v1H126zM15 57h30v1H15zM52 57h12v1H52zM73 57h37v1H73zM125 57h53v1H125zM15 58h30v1H15zM53 58h10v1H53zM72 58h38v1H72zM124 58h1v1H124zM126 58h52v1H126zM15 59h31v1H15zM54 59h9v1H54zM71 59h2v1H71zM74 59h35v1H74zM123 59h55v1H123zM15 60h31v1H15zM55 60h7v1H55zM68 60h40v1H68zM115 60h1v1H115zM122 60h56v1H122zM15 61h32v1H15zM57 61h3v1H57zM67 61h42v1H67zM114 61h3v1H114zM121 61h57v1H121zM15 62h33v1H15zM58 62h1v1H58zM66 62h41v1H66zM113 62h4v1H113zM122 62h56v1H122zM15 63h34v1H15zM59 63h1v1H59zM66 63h41v1H66zM114 63h3v1H114zM122 63h55v1H122zM15 64h35v1H15zM65 64h40v1H65zM122 64h55v1H122zM15 65h36v1H15zM65 65h38v1H65zM121 65h57v1H121zM15 66h34v1H15zM50 66h1v1H50zM64 66h3v1H64zM69 66h32v1H69zM121 66h57v1H121zM15 67h38v1H15zM65 67h34v1H65zM110 67h1v1H110zM119 67h59v1H119zM15 68h39v1H15zM66 68h31v1H66zM109 68h3v1H109zM117 68h61v1H117zM15 69h41v1H15zM67 69h28v1H67zM107 69h71v1H107zM15 70h42v1H15zM68 70h25v1H68zM106 70h72v1H106zM15 71h43v1H15zM69 71h23v1H69zM105 71h73v1H105zM15 72h41v1H15zM57 72h3v1H57zM70 72h20v1H70zM102 72h76v1H102zM15 73h41v1H15zM57 73h4v1H57zM71 73h17v1H71zM101 73h77v1H101zM15 74h47v1H15zM72 74h15v1H72zM99 74h79v1H99zM15 75h48v1H15zM73 75h13v1H73zM98 75h7v1H98zM106 75h72v1H106zM15 76h50v1H15zM73 76h12v1H73zM96 76h82v1H96zM15 77h50v1H15zM74 77h10v1H74zM95 77h83v1H95zM15 78h51v1H15zM75 78h8v1H75zM93 78h85v1H93zM15 79h52v1H15zM76 79h6v1H76zM92 79h86v1H92zM15 80h53v1H15zM76 80h5v1H76zM91 80h87v1H91zM15 81h54v1H15zM77 81h3v1H77zM89 81h89v1H89zM15 82h54v1H15zM78 82h1v1H78zM88 82h90v1H88zM15 83h55v1H15zM88 83h90v1H88zM15 84h56v1H15zM86 84h92v1H86zM15 85h56v1H15zM85 85h93v1H85zM15 86h57v1H15zM85 86h93v1H85zM15 87h57v1H15zM84 87h3v1H84zM88 87h90v1H88zM15 88h57v1H15zM83 88h95v1H83zM15 89h58v1H15zM83 89h2v1H83zM86 89h92v1H86zM15 90h57v1H15zM82 90h1v1H82zM84 90h94v1H84zM15 91h57v1H15zM81 91h97v1H81zM15 92h58v1H15zM81 92h97v1H81zM15 93h58v1H15zM81 93h97v1H81zM15 94h58v1H15zM80 94h98v1H80zM15 95h57v1H15zM80 95h98v1H80zM15 96h57v1H15zM79 96h99v1H79zM15 97h57v1H15zM79 97h98v1H79zM15 98h57v1H15zM79 98h98v1H79zM15 99h57v1H15zM78 99h100v1H78zM15 100h57v1H15zM78 100h100v1H78zM15 101h54v1H15zM70 101h1v1H70zM78 101h99v1H78zM15 102h56v1H15zM78 102h99v1H78zM15 103h56v1H15zM78 103h100v1H78zM15 104h56v1H15zM78 104h100v1H78zM15 105h56v1H15zM78 105h100v1H78zM15 106h56v1H15zM77 106h101v1H77zM15 107h56v1H15zM78 107h41v1H78zM125 107h52v1H125zM15 108h55v1H15zM77 108h41v1H77zM128 108h49v1H128zM15 109h55v1H15zM77 109h15v1H77zM93 109h23v1H93zM129 109h49v1H129zM15 110h55v1H15zM77 110h13v1H77zM97 110h18v1H97zM130 110h48v1H130zM15 111h55v1H15zM77 111h10v1H77zM100 111h14v1H100zM131 111h47v1H131zM15 112h55v1H15zM77 112h9v1H77zM101 112h12v1H101zM132 112h46v1H132zM15 113h55v1H15zM77 113h7v1H77zM102 113h10v1H102zM133 113h45v1H133zM15 114h55v1H15zM77 114h6v1H77zM103 114h8v1H103zM121 114h1v1H121zM123 114h1v1H123zM133 114h45v1H133zM15 115h55v1H15zM77 115h5v1H77zM104 115h7v1H104zM120 115h5v1H120zM134 115h44v1H134zM15 116h55v1H15zM77 116h4v1H77zM105 116h5v1H105zM119 116h7v1H119zM134 116h44v1H134zM15 117h55v1H15zM77 117h3v1H77zM92 117h3v1H92zM106 117h3v1H106zM118 117h9v1H118zM134 117h44v1H134zM16 118h54v1H16zM77 118h3v1H77zM89 118h7v1H89zM107 118h2v1H107zM117 118h10v1H117zM135 118h43v1H135zM15 119h55v1H15zM77 119h2v1H77zM89 119h8v1H89zM106 119h2v1H106zM117 119h10v1H117zM135 119h43v1H135zM15 120h55v1H15zM87 120h8v1H87zM96 120h2v1H96zM107 120h1v1H107zM116 120h12v1H116zM135 120h43v1H135zM15 121h55v1H15zM77 121h1v1H77zM88 121h5v1H88zM94 121h4v1H94zM115 121h13v1H115zM136 121h42v1H136zM15 122h55v1H15zM86 122h13v1H86zM115 122h14v1H115zM136 122h42v1H136zM15 123h55v1H15zM85 123h15v1H85zM114 123h15v1H114zM136 123h34v1H136zM171 123h7v1H171zM15 124h54v1H15zM84 124h16v1H84zM114 124h15v1H114zM136 124h42v1H136zM15 125h54v1H15zM83 125h16v1H83zM114 125h15v1H114zM136 125h42v1H136zM15 126h54v1H15zM83 126h18v1H83zM113 126h17v1H113zM137 126h41v1H137zM15 127h54v1H15zM82 127h19v1H82zM113 127h17v1H113zM137 127h41v1H137zM15 128h54v1H15zM82 128h19v1H82zM112 128h18v1H112zM137 128h40v1H137zM15 129h54v1H15zM82 129h19v1H82zM112 129h18v1H112zM137 129h41v1H137zM15 130h54v1H15zM81 130h20v1H81zM112 130h19v1H112zM138 130h40v1H138zM15 131h54v1H15zM80 131h19v1H80zM100 131h1v1H100zM112 131h19v1H112zM138 131h39v1H138zM15 132h54v1H15zM80 132h22v1H80zM111 132h19v1H111zM138 132h39v1H138zM15 133h54v1H15zM80 133h21v1H80zM111 133h19v1H111zM138 133h39v1H138zM15 134h55v1H15zM80 134h22v1H80zM111 134h20v1H111zM139 134h39v1H139zM15 135h55v1H15zM79 135h23v1H79zM110 135h22v1H110zM139 135h39v1H139zM15 136h55v1H15zM79 136h23v1H79zM110 136h22v1H110zM139 136h39v1H139zM15 137h55v1H15zM78 137h24v1H78zM110 137h22v1H110zM140 137h38v1H140zM15 138h54v1H15zM78 138h24v1H78zM109 138h24v1H109zM141 138h37v1H141zM15 139h54v1H15zM78 139h24v1H78zM110 139h23v1H110zM141 139h36v1H141zM15 140h55v1H15zM78 140h24v1H78zM109 140h25v1H109zM143 140h35v1H143zM15 141h55v1H15zM77 141h25v1H77zM108 141h26v1H108zM146 141h1v1H146zM148 141h30v1H148zM15 142h55v1H15zM77 142h27v1H77zM106 142h29v1H106zM149 142h29v1H149zM15 143h54v1H15zM78 143h58v1H78zM150 143h28v1H150zM15 144h55v1H15zM77 144h59v1H77zM150 144h28v1H150zM15 145h54v1H15zM77 145h60v1H77zM150 145h28v1H150zM15 146h54v1H15zM77 146h62v1H77zM150 146h28v1H150zM15 147h55v1H15zM76 147h65v1H76zM149 147h29v1H149zM15 148h56v1H15zM76 148h68v1H76zM149 148h29v1H149zM15 149h57v1H15zM74 149h104v1H74zM15 150h163v1H15zM15 151h163v1H15zM15 152h163v1H15zM15 153h163v1H15zM15 154h162v1H15zM15 155h162v1H15zM15 156h162v1H15zM15 157h162v1H15zM16 158h161v1H16zM17 159h159v1H17zM16 160h160v1H16zM17 161h159v1H17zM17 162h158v1H17zM18 163h156v1H18zM18 164h156v1H18zM19 165h154v1H19zM19 166h154v1H19zM20 167h152v1H20zM21 168h150v1H21zM22 169h148v1H22zM23 170h146v1H23zM24 171h144v1H24zM25 172h142v1H25zM27 173h138v1H27zM28 174h136v1H28zM31 175h131v1H31zM33 176h126v1H33zM38 177h117v1H38z"/>
  <path fill="#082050" d="M174 28h1v1H174zM45 33h1v1H45zM49 36h1v1H49zM134 36h1v1H134zM50 38h1v1H50zM135 38h1v1H135zM127 40h1v1H127zM130 40h1v1H130zM45 41h1v1H45zM134 44h1v1H134zM48 45h1v1H48zM124 45h1v1H124zM68 47h2v1H68zM72 48h1v1H72zM48 49h1v1H48zM64 49h1v1H64zM130 49h1v1H130zM74 51h1v1H74zM128 53h1v1H128zM50 54h1v1H50zM110 57h1v1H110zM63 58h1v1H63zM70 59h1v1H70zM108 60h1v1H108zM121 60h1v1H121zM60 61h1v1H60zM107 62h1v1H107zM121 63h1v1H121zM64 65h1v1H64zM103 65h1v1H103zM51 66h1v1H51zM101 66h1v1H101zM120 66h1v1H120zM64 67h1v1H64zM112 68h1v1H112zM105 70h1v1H105zM104 71h1v1H104zM88 73h1v1H88zM72 75h1v1H72zM75 79h1v1H75zM77 82h1v1H77zM87 83h1v1H87zM72 90h1v1H72zM72 91h1v1H72zM80 93h1v1H80zM72 95h1v1H72zM72 96h1v1H72zM77 105h1v1H77zM119 107h1v1H119zM122 114h1v1H122zM125 115h1v1H125zM104 116h1v1H104zM91 117h1v1H91zM95 117h1v1H95zM109 117h1v1H109zM88 119h1v1H88zM97 119h1v1H97zM108 119h1v1H108zM116 119h1v1H116zM127 119h1v1H127zM77 120h1v1H77zM106 120h1v1H106zM106 121h1v1H106zM85 122h1v1H85zM113 125h1v1H113zM81 129h1v1H81zM79 134h1v1H79zM109 139h1v1H109zM142 140h1v1H142zM147 141h1v1H147zM104 142h1v1H104zM77 143h1v1H77zM149 143h1v1H149zM69 145h1v1H69zM69 146h1v1H69zM148 148h1v1H148zM72 149h2v1H72zM174 163h1v1H174zM30 175h1v1H30z"/>
  <path fill="#102048" d="M67 54h1v1H67zM113 63h1v1H113zM105 64h1v1H105zM120 107h1v1H120zM80 117h1v1H80zM140 138h1v1H140zM144 141h1v1H144zM148 142h1v1H148zM137 145h1v1H137z"/>
  <path fill="#102050" d="M166 18h1v1H166zM174 27h1v1H174zM129 34h1v1H129zM39 35h1v1H39zM128 42h1v1H128zM133 45h1v1H133zM93 70h1v1H93zM87 111h1v1H87zM100 125h1v1H100zM111 131h1v1H111zM155 177h1v1H155z"/>
  <path fill="#102850" d="M158 14h1v1H158zM175 29h1v1H175zM14 39h1v1H14zM14 40h1v1H14zM14 41h1v1H14zM14 42h1v1H14zM14 43h1v1H14zM38 43h1v1H38zM14 44h1v1H14zM14 45h1v1H14zM14 46h1v1H14zM14 47h1v1H14zM14 48h1v1H14zM14 49h1v1H14zM14 50h1v1H14zM14 51h1v1H14zM14 52h1v1H14zM14 53h1v1H14zM14 54h1v1H14zM43 54h1v1H43zM127 54h1v1H127zM14 55h1v1H14zM14 56h1v1H14zM14 57h1v1H14zM14 58h1v1H14zM14 59h1v1H14zM14 60h1v1H14zM46 60h1v1H46zM114 60h1v1H114zM14 61h1v1H14zM14 62h1v1H14zM60 62h1v1H60zM108 62h1v1H108zM14 63h1v1H14zM14 64h1v1H14zM14 65h1v1H14zM14 66h1v1H14zM14 67h1v1H14zM14 68h1v1H14zM65 68h1v1H65zM14 69h1v1H14zM14 70h1v1H14zM14 71h1v1H14zM58 71h1v1H58zM14 72h1v1H14zM14 73h1v1H14zM14 74h1v1H14zM62 74h1v1H62zM87 74h1v1H87zM14 75h1v1H14zM97 75h1v1H97zM14 76h1v1H14zM14 77h1v1H14zM65 77h1v1H65zM94 77h1v1H94zM14 78h1v1H14zM14 79h1v1H14zM14 80h1v1H14zM14 81h1v1H14zM14 82h1v1H14zM14 83h1v1H14zM14 84h1v1H14zM14 85h1v1H14zM14 86h1v1H14zM14 87h1v1H14zM14 88h1v1H14zM14 89h1v1H14zM82 89h1v1H82zM14 90h1v1H14zM14 91h1v1H14zM14 92h1v1H14zM14 93h1v1H14zM14 94h1v1H14zM14 95h1v1H14zM14 96h1v1H14zM14 97h1v1H14zM14 98h1v1H14zM14 99h1v1H14zM14 100h1v1H14zM14 101h1v1H14zM14 102h1v1H14zM14 103h1v1H14zM14 104h1v1H14zM14 105h1v1H14zM14 106h1v1H14zM14 107h1v1H14zM14 108h1v1H14zM14 109h1v1H14zM14 110h1v1H14zM14 111h1v1H14zM99 111h1v1H99zM14 112h1v1H14zM14 113h1v1H14zM84 113h1v1H84zM14 114h1v1H14zM14 115h1v1H14zM14 116h1v1H14zM126 116h1v1H126zM14 117h1v1H14zM14 118h1v1H14zM14 119h1v1H14zM14 120h1v1H14zM14 121h1v1H14zM128 121h1v1H128zM14 122h1v1H14zM99 122h1v1H99zM14 123h1v1H14zM14 124h1v1H14zM14 125h1v1H14zM14 126h1v1H14zM14 127h1v1H14zM14 128h1v1H14zM81 128h1v1H81zM14 129h1v1H14zM14 130h1v1H14zM14 131h1v1H14zM14 132h1v1H14zM14 133h1v1H14zM79 133h1v1H79zM14 134h1v1H14zM110 134h1v1H110zM14 135h1v1H14zM14 136h1v1H14zM78 136h1v1H78zM14 137h1v1H14zM132 137h1v1H132zM14 138h1v1H14zM14 139h1v1H14zM14 140h1v1H14zM14 141h1v1H14zM14 142h1v1H14zM14 143h1v1H14zM14 144h1v1H14zM136 144h1v1H136zM14 145h1v1H14zM14 146h1v1H14zM14 147h1v1H14zM14 148h1v1H14zM75 148h1v1H75zM14 149h1v1H14zM14 150h1v1H14zM14 151h1v1H14zM177 154h1v1H177zM165 173h1v1H165z"/>
  <path fill="#102858" d="M108 68h1v1H108zM100 73h1v1H100zM66 78h1v1H66zM90 80h1v1H90z"/>
  <path fill="#182850" d="M50 41h1v1H50zM74 52h1v1H74zM124 114h1v1H124zM17 163h1v1H17zM36 177h1v1H36z"/>
  <path fill="#182858" d="M131 134h1v1H131z"/>
  <path fill="#183050" d="M177 36h1v1H177zM129 50h1v1H129zM121 54h1v1H121zM71 74h1v1H71zM132 113h1v1H132zM111 114h1v1H111zM81 116h1v1H81zM14 152h1v1H14z"/>
  <path fill="#183058" d="M54 13h1v1H54zM64 13h2v1H64zM82 13h2v1H82zM97 13h2v1H97zM106 13h3v1H106zM116 13h2v1H116zM131 13h1v1H131zM148 13h1v1H148zM163 16h1v1H163zM25 18h1v1H25zM19 24h1v1H19zM14 38h1v1H14zM127 41h1v1H127zM135 41h1v1H135zM48 50h1v1H48zM67 52h1v1H67zM51 56h1v1H51zM61 61h1v1H61zM57 62h1v1H57zM63 75h1v1H63zM69 82h1v1H69zM83 114h1v1H83zM119 115h1v1H119zM118 116h1v1H118zM127 118h1v1H127zM78 120h1v1H78zM84 123h1v1H84zM102 140h1v1H102zM173 165h1v1H173z"/>
  <path fill="#203050" d="M72 88h1v1H72z"/>
  <path fill="#183060" d="M42 41h1v1H42z"/>
  <path fill="#203058" d="M41 13h13v1H41zM55 13h9v1H55zM66 13h16v1H66zM84 13h13v1H84zM99 13h7v1H99zM109 13h7v1H109zM118 13h13v1H118zM132 13h16v1H132zM149 13h3v1H149zM33 14h1v1H33zM47 46h1v1H47zM42 50h1v1H42zM74 54h1v1H74zM121 62h1v1H121zM99 67h1v1H99zM54 68h1v1H54zM66 69h1v1H66zM74 78h1v1H74zM76 81h1v1H76zM78 83h1v1H78zM77 104h1v1H77zM70 108h1v1H70zM103 115h1v1H103zM80 130h1v1H80zM137 130h1v1H137zM101 131h1v1H101zM147 148h1v1H147z"/>
  <path fill="#203060" d="M84 86h1v1H84z"/>
  <path fill="#203858" d="M134 37h1v1H134zM63 51h1v1H63zM90 110h1v1H90zM82 115h1v1H82zM129 125h1v1H129zM15 158h1v1H15zM26 173h1v1H26z"/>
  <path fill="#203860" d="M40 13h1v1H40zM152 13h1v1H152zM17 27h1v1H17zM48 35h1v1H48zM135 40h1v1H135zM131 46h1v1H131zM128 52h1v1H128zM120 55h1v1H120zM64 57h1v1H64zM122 59h1v1H122zM97 68h1v1H97zM90 72h1v1H90zM70 73h1v1H70zM127 108h1v1H127zM77 140h1v1H77zM149 146h1v1H149zM14 153h1v1H14z"/>
  <path fill="#283858" d="M124 50h1v1H124zM122 53h1v1H122z"/>
  <path fill="#283860" d="M132 35h1v1H132zM50 39h1v1H50zM123 42h1v1H123zM44 56h1v1H44zM109 59h1v1H109zM95 69h1v1H95zM71 101h1v1H71zM135 121h1v1H135zM138 134h1v1H138zM16 161h1v1H16zM170 169h1v1H170zM169 170h1v1H169zM159 176h1v1H159z"/>
  <path fill="#284060" d="M39 13h1v1H39zM161 15h1v1H161zM28 16h1v1H28zM15 32h1v1H15zM45 38h1v1H45zM71 48h1v1H71zM65 63h1v1H65zM113 68h1v1H113zM57 70h1v1H57zM67 70h1v1H67zM69 72h1v1H69zM91 79h1v1H91zM116 109h1v1H116zM133 115h1v1H133zM117 117h1v1H117zM97 118h1v1H97zM134 141h1v1H134zM144 148h1v1H144zM32 176h1v1H32z"/>
  <path fill="#284068" d="M82 126h1v1H82z"/>
  <path fill="#304060" d="M14 37h1v1H14zM130 42h1v1H130zM63 66h1v1H63zM61 73h1v1H61zM124 107h1v1H124zM96 117h1v1H96zM76 146h1v1H76z"/>
  <path fill="#304068" d="M165 17h1v1H165zM173 25h1v1H173zM124 44h1v1H124zM70 54h1v1H70zM112 56h1v1H112zM45 58h1v1H45zM68 71h1v1H68zM103 71h1v1H103zM98 74h1v1H98zM95 76h1v1H95zM67 79h1v1H67zM79 95h1v1H79zM121 107h1v1H121zM90 117h1v1H90zM136 126h1v1H136zM108 140h1v1H108zM177 155h1v1H177z"/>
  <path fill="#304868" d="M63 55h1v1H63zM112 127h1v1H112zM101 130h1v1H101zM70 147h1v1H70zM168 171h1v1H168z"/>
  <path fill="#304870" d="M153 13h1v1H153zM125 45h1v1H125zM67 60h1v1H67zM111 67h1v1H111z"/>
  <path fill="#384868" d="M38 13h1v1H38zM41 34h1v1H41zM50 40h1v1H50zM74 53h1v1H74zM47 61h1v1H47zM116 68h1v1H116zM109 137h1v1H109zM103 141h1v1H103zM18 165h1v1H18zM171 168h1v1H171z"/>
  <path fill="#384870" d="M16 29h1v1H16zM40 45h1v1H40zM115 64h1v1H115zM86 75h1v1H86zM72 97h1v1H72zM96 110h1v1H96zM115 120h1v1H115zM133 139h1v1H133zM71 148h1v1H71z"/>
  <path fill="#385070" d="M38 37h1v1H38zM49 53h1v1H49zM83 87h1v1H83zM78 98h1v1H78zM70 109h1v1H70zM130 129h1v1H130zM156 177h1v1H156z"/>
  <path fill="#405068" d="M66 48h1v1H66zM107 122h1v1H107z"/>
  <path fill="#405070" d="M30 15h1v1H30zM26 17h1v1H26zM177 35h1v1H177zM123 39h1v1H123zM49 43h1v1H49zM39 44h1v1H39zM70 52h1v1H70zM71 58h1v1H71zM62 60h1v1H62zM114 64h1v1H114zM53 67h1v1H53zM106 69h1v1H106zM77 103h1v1H77zM118 108h1v1H118zM100 112h1v1H100zM110 116h1v1H110zM134 118h1v1H134zM76 119h1v1H76zM105 119h1v1H105zM76 122h1v1H76zM114 122h1v1H114zM145 148h2v1H145zM14 154h1v1H14zM176 159h1v1H176zM22 170h1v1H22z"/>
  <path fill="#405078" d="M125 48h1v1H125zM117 56h1v1H117zM107 63h1v1H107zM21 169h1v1H21z"/>
  <path fill="#485070" d="M44 42h1v1H44z"/>
  <path fill="#405878" d="M176 31h1v1H176zM120 65h1v1H120zM76 120h1v1H76zM76 121h1v1H76zM111 130h1v1H111zM162 175h1v1H162z"/>
  <path fill="#485870" d="M47 47h1v1H47zM77 83h1v1H77zM76 123h1v1H76zM100 124h1v1H100z"/>
  <path fill="#485878" d="M154 13h1v1H154zM170 21h1v1H170zM126 35h1v1H126zM14 36h1v1H14zM73 50h1v1H73zM68 55h1v1H68zM126 55h1v1H126zM119 56h1v1H119zM68 80h1v1H68zM122 107h2v1H122zM112 113h1v1H112zM102 114h1v1H102zM76 116h1v1H76zM76 117h1v1H76zM104 117h1v1H104zM76 118h1v1H76zM83 124h1v1H83zM107 141h1v1H107zM149 144h1v1H149zM164 174h1v1H164zM35 177h1v1H35z"/>
  <path fill="#485880" d="M133 36h1v1H133zM123 52h1v1H123zM141 147h1v1H141z"/>
  <path fill="#505878" d="M106 122h1v1H106z"/>
  <path fill="#506080" d="M37 13h1v1H37zM169 20h1v1H169zM46 40h1v1H46zM123 58h1v1H123zM60 72h1v1H60zM101 72h1v1H101zM92 78h1v1H92zM79 82h1v1H79zM70 83h1v1H70zM71 85h1v1H71zM71 102h1v1H71zM70 110h1v1H70zM115 110h1v1H115zM76 115h1v1H76zM79 119h1v1H79zM128 120h1v1H128zM77 122h1v1H77zM113 124h1v1H113zM129 124h1v1H129zM101 129h1v1H101zM137 131h1v1H137zM110 133h1v1H110zM131 133h1v1H131zM78 135h1v1H78zM77 139h1v1H77zM139 146h1v1H139zM23 171h1v1H23zM167 172h1v1H167z"/>
  <path fill="#586080" d="M43 53h1v1H43zM143 141h1v1H143zM76 145h1v1H76z"/>
  <path fill="#586880" d="M18 25h1v1H18zM127 39h1v1H127zM43 42h1v1H43zM42 49h1v1H42zM58 63h1v1H58zM86 112h1v1H86zM101 113h1v1H101zM93 116h1v1H93zM98 119h1v1H98zM86 120h1v1H86zM108 120h1v1H108zM175 162h1v1H175zM20 168h1v1H20z"/>
  <path fill="#586888" d="M159 14h1v1H159zM46 34h1v1H46zM118 67h1v1H118zM85 76h1v1H85zM73 77h1v1H73zM81 90h1v1H81zM80 92h1v1H80zM87 119h1v1H87zM135 122h1v1H135zM79 132h1v1H79zM172 167h1v1H172zM29 175h1v1H29z"/>
  <path fill="#606888" d="M168 19h1v1H168zM50 55h1v1H50zM73 56h1v1H73zM76 114h1v1H76zM120 114h1v1H120z"/>
  <path fill="#607088" d="M48 51h1v1H48zM69 55h1v1H69zM124 57h1v1H124zM116 60h1v1H116zM102 66h1v1H102zM114 68h1v1H114zM92 71h1v1H92zM91 110h1v1H91zM76 113h1v1H76zM99 121h1v1H99zM132 136h1v1H132zM139 137h1v1H139zM149 145h1v1H149zM148 147h1v1H148zM174 164h1v1H174zM27 174h1v1H27z"/>
  <path fill="#607090" d="M171 22h1v1H171zM131 40h1v1H131zM123 41h1v1H123zM134 43h1v1H134zM72 49h1v1H72zM129 49h1v1H129zM125 56h1v1H125zM64 64h1v1H64zM104 65h1v1H104zM115 68h1v1H115zM88 111h1v1H88zM109 118h1v1H109zM177 156h1v1H177z"/>
  <path fill="#687088" d="M109 67h1v1H109z"/>
  <path fill="#687090" d="M155 13h1v1H155zM124 37h1v1H124zM47 45h1v1H47zM94 116h1v1H94zM14 155h1v1H14z"/>
  <path fill="#687890" d="M32 14h1v1H32zM42 38h1v1H42zM129 38h1v1H129zM123 40h1v1H123zM68 51h1v1H68zM63 52h1v1H63zM111 57h1v1H111zM53 59h1v1H53zM117 62h1v1H117zM52 66h1v1H52zM89 73h1v1H89zM77 102h1v1H77zM114 111h1v1H114zM76 112h1v1H76zM113 112h1v1H113zM116 118h1v1H116zM136 127h1v1H136zM15 159h1v1H15z"/>
  <path fill="#707890" d="M175 28h1v1H175zM177 34h1v1H177zM14 35h1v1H14zM46 39h1v1H46zM70 111h1v1H70z"/>
  <path fill="#707898" d="M131 112h1v1H131z"/>
  <path fill="#708090" d="M36 13h1v1H36zM63 54h1v1H63zM66 61h1v1H66zM128 109h1v1H128z"/>
  <path fill="#708098" d="M22 20h1v1H22zM21 21h1v1H21zM15 31h1v1H15zM110 58h1v1H110zM54 60h1v1H54zM48 62h1v1H48zM56 69h1v1H56zM95 110h1v1H95zM98 111h1v1H98zM127 117h1v1H127zM101 128h1v1H101zM130 128h1v1H130zM76 144h1v1H76zM74 148h1v1H74zM160 176h1v1H160z"/>
  <path fill="#788098" d="M49 37h1v1H49zM38 42h1v1H38zM48 44h1v1H48zM113 56h1v1H113zM63 59h1v1H63zM119 66h1v1H119zM96 75h1v1H96zM72 87h1v1H72zM73 92h1v1H73zM72 98h1v1H72zM76 111h1v1H76zM85 121h1v1H85zM109 136h1v1H109zM102 139h1v1H102zM24 172h1v1H24z"/>
  <path fill="#7880a0" d="M130 46h1v1H130zM75 80h1v1H75z"/>
  <path fill="#7888a0" d="M131 41h1v1H131zM100 67h1v1H100zM84 77h1v1H84zM71 103h1v1H71zM92 116h1v1H92zM88 118h1v1H88zM135 142h1v1H135zM147 142h1v1H147zM157 177h1v1H157z"/>
  <path fill="#808898" d="M73 93h1v1H73zM81 127h1v1H81z"/>
  <path fill="#8088a0" d="M174 26h1v1H174zM47 48h1v1H47zM69 51h1v1H69zM72 57h1v1H72zM113 60h1v1H113zM106 64h1v1H106zM94 70h1v1H94zM104 70h1v1H104zM80 81h1v1H80zM87 82h1v1H87zM86 83h1v1H86zM70 112h1v1H70zM31 176h1v1H31z"/>
  <path fill="#8090a0" d="M64 50h1v1H64zM63 53h1v1H63zM51 65h1v1H51zM76 110h1v1H76zM138 135h1v1H138zM34 177h1v1H34z"/>
  <path fill="#8090a8" d="M78 97h1v1H78z"/>
  <path fill="#8890a0" d="M23 19h1v1H23zM70 48h1v1H70zM116 56h1v1H116zM55 61h1v1H55zM73 91h1v1H73zM16 162h1v1H16z"/>
  <path fill="#8890a8" d="M164 16h1v1H164zM128 38h1v1H128zM127 53h1v1H127zM52 58h1v1H52zM46 59h1v1H46zM109 60h1v1H109zM49 63h1v1H49zM88 81h1v1H88zM82 88h1v1H82zM133 116h1v1H133zM129 123h1v1H129zM112 126h1v1H112zM80 129h1v1H80zM131 132h1v1H131zM77 138h1v1H77zM19 167h1v1H19z"/>
  <path fill="#8898a8" d="M42 48h1v1H42z"/>
  <path fill="#9090a8" d="M172 23h1v1H172z"/>
  <path fill="#8898b0" d="M125 36h1v1H125z"/>
  <path fill="#9098a8" d="M162 15h1v1H162zM167 18h1v1H167zM20 22h1v1H20zM50 64h1v1H50zM59 71h1v1H59zM83 78h1v1H83zM82 79h1v1H82zM85 84h1v1H85zM79 94h1v1H79zM92 110h1v1H92zM137 132h1v1H137zM102 138h1v1H102zM166 173h1v1H166z"/>
  <path fill="#9098b0" d="M156 13h1v1H156zM40 35h1v1H40zM39 36h1v1H39zM132 45h1v1H132zM98 68h1v1H98zM99 73h1v1H99zM69 81h1v1H69zM76 109h1v1H76zM130 111h1v1H130zM70 113h1v1H70zM134 119h1v1H134zM135 123h1v1H135zM111 129h1v1H111zM141 140h1v1H141zM176 160h1v1H176zM17 164h1v1H17z"/>
  <path fill="#90a0b0" d="M67 48h1v1H67zM63 67h1v1H63zM72 76h1v1H72zM93 77h1v1H93zM73 94h1v1H73zM77 101h1v1H77zM126 115h1v1H126z"/>
  <path fill="#98a0b0" d="M35 13h1v1H35zM42 34h1v1H42zM131 35h1v1H131zM126 46h1v1H126zM65 49h1v1H65zM128 51h1v1H128zM44 55h1v1H44zM96 69h1v1H96zM81 80h1v1H81zM126 108h1v1H126zM125 114h1v1H125zM132 114h1v1H132zM111 115h1v1H111zM80 118h1v1H80zM100 123h1v1H100zM106 123h1v1H106zM140 139h1v1H140zM76 143h1v1H76zM14 156h1v1H14z"/>
  <path fill="#98a0b8" d="M112 62h1v1H112zM107 68h1v1H107zM94 110h1v1H94zM101 127h1v1H101zM72 148h1v1H72zM173 166h1v1H173z"/>
  <path fill="#a0a0b0" d="M124 51h1v1H124zM102 137h1v1H102z"/>
  <path fill="#a0a0b8" d="M117 61h1v1H117zM108 139h1v1H108z"/>
  <path fill="#a0a8b8" d="M27 16h1v1H27zM16 28h1v1H16zM176 30h1v1H176zM14 34h1v1H14zM38 38h1v1H38zM134 38h1v1H134zM43 52h1v1H43zM64 56h1v1H64zM114 56h1v1H114zM116 64h1v1H116zM89 80h1v1H89zM71 104h1v1H71zM93 110h1v1H93zM129 110h1v1H129zM85 113h1v1H85zM70 114h1v1H70zM105 120h1v1H105zM107 123h1v1H107zM136 128h1v1H136zM110 132h1v1H110zM133 138h1v1H133zM138 145h1v1H138zM177 157h1v1H177z"/>
  <path fill="#a0b0c0" d="M70 58h1v1H70zM73 90h1v1H73z"/>
  <path fill="#a8b0c0" d="M29 15h1v1H29zM177 33h1v1H177zM45 42h1v1H45zM127 42h1v1H127zM129 48h1v1H129zM125 49h1v1H125zM115 56h1v1H115zM45 57h1v1H45zM76 108h1v1H76zM119 108h1v1H119zM70 115h1v1H70zM95 116h1v1H95zM103 116h1v1H103zM128 119h1v1H128zM78 121h1v1H78zM84 122h1v1H84zM82 125h1v1H82zM130 127h1v1H130zM78 134h1v1H78zM102 136h1v1H102zM75 147h1v1H75zM142 147h1v1H142zM73 148h1v1H73z"/>
  <path fill="#b0b0c0" d="M24 18h1v1H24zM46 41h1v1H46zM133 44h1v1H133zM60 63h1v1H60zM120 64h1v1H120zM114 121h1v1H114zM76 124h1v1H76zM70 146h1v1H70zM25 173h1v1H25z"/>
  <path fill="#b0b8c0" d="M17 26h1v1H17zM41 40h1v1H41zM42 47h1v1H42zM66 53h1v1H66zM56 62h1v1H56zM102 71h1v1H102zM72 99h1v1H72zM134 140h1v1H134zM45 178h1v1H45zM48 178h1v1H48zM53 178h3v1H53zM58 178h7v1H58zM67 178h11v1H67zM80 178h1v1H80zM82 178h4v1H82zM88 178h1v1H88zM93 178h4v1H93zM100 178h1v1H100zM102 178h1v1H102zM104 178h4v1H104zM112 178h4v1H112zM118 178h5v1H118zM124 178h2v1H124zM128 178h2v1H128zM135 178h1v1H135zM140 178h2v1H140zM144 178h1v1H144zM148 178h2v1H148zM151 178h1v1H151z"/>
  <path fill="#b0b8c8" d="M45 34h1v1H45zM63 65h1v1H63zM88 74h1v1H88zM65 76h1v1H65zM76 82h1v1H76zM84 85h1v1H84zM117 109h1v1H117zM79 131h1v1H79zM137 144h1v1H137zM40 178h5v1H40zM46 178h2v1H46zM49 178h4v1H49zM56 178h2v1H56zM65 178h2v1H65zM78 178h2v1H78zM81 178h1v1H81zM86 178h2v1H86zM89 178h4v1H89zM97 178h3v1H97zM101 178h1v1H101zM103 178h1v1H103zM108 178h4v1H108zM116 178h2v1H116zM123 178h1v1H123zM126 178h2v1H126zM130 178h5v1H130zM136 178h4v1H136zM142 178h2v1H142zM145 178h3v1H145zM150 178h1v1H150z"/>
  <path fill="#b8b8c8" d="M131 39h1v1H131zM124 43h1v1H124zM71 75h1v1H71zM70 116h1v1H70zM146 142h1v1H146zM136 143h1v1H136z"/>
  <path fill="#b8c0c8" d="M160 14h1v1H160zM69 48h1v1H69zM67 55h1v1H67zM51 57h1v1H51zM109 61h1v1H109zM64 75h1v1H64zM122 113h2v1H122zM91 116h1v1H91zM102 135h1v1H102zM109 135h1v1H109zM132 135h1v1H132zM104 141h1v1H104zM148 143h1v1H148zM163 175h1v1H163zM152 178h1v1H152z"/>
  <path fill="#b8c0d0" d="M127 35h1v1H127zM44 37h1v1H44zM64 58h1v1H64zM117 63h1v1H117zM55 68h1v1H55zM91 72h1v1H91zM73 95h1v1H73zM39 178h1v1H39z"/>
  <path fill="#c0c0d0" d="M157 13h1v1H157zM19 23h1v1H19zM130 38h1v1H130zM38 41h1v1H38zM49 42h1v1H49zM68 48h1v1H68zM47 49h1v1H47zM48 52h1v1H48zM112 61h1v1H112zM113 64h1v1H113zM64 68h1v1H64zM74 79h1v1H74zM77 100h1v1H77zM71 105h1v1H71zM76 107h1v1H76zM70 117h1v1H70zM89 117h1v1H89zM129 122h1v1H129zM77 137h1v1H77zM76 142h1v1H76zM15 160h1v1H15z"/>
  <path fill="#c0c8d0" d="M173 24h1v1H173zM47 35h1v1H47zM41 45h1v1H41zM49 54h1v1H49zM67 59h1v1H67zM65 62h1v1H65zM112 67h1v1H112zM66 77h1v1H66zM71 84h1v1H71zM89 111h1v1H89zM84 114h1v1H84zM99 120h1v1H99zM113 123h1v1H113zM135 124h1v1H135zM131 131h1v1H131zM106 141h1v1H106zM18 166h1v1H18zM158 177h1v1H158z"/>
  <path fill="#c8c8d0" d="M118 57h1v1H118zM65 69h1v1H65zM63 74h1v1H63zM81 117h1v1H81zM104 118h1v1H104z"/>
  <path fill="#c8c8d8" d="M70 118h1v1H70zM153 178h1v1H153z"/>
  <path fill="#c8d0d8" d="M31 14h1v1H31zM166 17h1v1H166zM41 39h1v1H41zM73 51h1v1H73zM121 59h1v1H121zM61 62h1v1H61zM105 69h1v1H105zM80 91h1v1H80zM118 115h1v1H118zM70 119h1v1H70zM115 119h1v1H115zM108 121h1v1H108zM101 126h1v1H101zM142 141h1v1H142zM145 142h1v1H145zM175 163h1v1H175zM28 175h1v1H28zM38 178h1v1H38z"/>
  <path fill="#d0d0d8" d="M34 13h1v1H34zM15 30h1v1H15zM48 36h1v1H48zM43 37h1v1H43zM129 43h1v1H129zM126 45h1v1H126zM122 54h1v1H122zM58 70h1v1H58zM62 73h1v1H62zM97 74h1v1H97zM90 79h1v1H90zM78 84h1v1H78zM82 116h1v1H82zM137 133h1v1H137zM102 134h1v1H102zM140 146h1v1H140z"/>
  <path fill="#d0d0e0" d="M134 42h1v1H134zM42 46h1v1H42zM47 60h1v1H47zM109 119h1v1H109zM70 145h1v1H70zM161 176h1v1H161zM33 177h1v1H33z"/>
  <path fill="#d0d8e0" d="M43 34h1v1H43zM73 55h1v1H73zM69 58h1v1H69zM103 66h1v1H103zM94 76h1v1H94zM77 84h1v1H77zM73 89h1v1H73zM78 96h1v1H78zM117 116h1v1H117zM110 117h1v1H110zM70 120h1v1H70zM14 157h1v1H14z"/>
  <path fill="#d8d8e0" d="M38 39h1v1H38zM178 39h1v1H178zM178 40h1v1H178zM178 41h1v1H178zM42 42h1v1H42zM178 42h1v1H178zM178 43h1v1H178zM178 44h1v1H178zM178 45h1v1H178zM178 46h1v1H178zM126 47h1v1H126zM178 47h1v1H178zM178 48h1v1H178zM178 49h1v1H178zM178 50h1v1H178zM67 51h1v1H67zM178 51h1v1H178zM178 52h1v1H178zM178 53h1v1H178zM178 54h1v1H178zM121 55h1v1H121zM178 55h1v1H178zM178 56h1v1H178zM178 57h1v1H178zM178 58h1v1H178zM178 59h1v1H178zM178 60h1v1H178zM178 61h1v1H178zM109 62h1v1H109zM178 62h1v1H178zM112 63h1v1H112zM178 63h1v1H178zM59 64h1v1H59zM178 64h1v1H178zM178 65h1v1H178zM178 66h1v1H178zM178 67h1v1H178zM178 68h1v1H178zM178 69h1v1H178zM178 70h1v1H178zM178 71h1v1H178zM178 72h1v1H178zM178 73h1v1H178zM70 74h1v1H70zM178 74h1v1H178zM178 75h1v1H178zM178 76h1v1H178zM178 77h1v1H178zM67 78h1v1H67zM178 78h1v1H178zM178 79h1v1H178zM178 80h1v1H178zM178 81h1v1H178zM178 82h1v1H178zM178 83h1v1H178zM178 84h1v1H178zM178 85h1v1H178zM72 86h1v1H72zM178 86h1v1H178zM178 87h1v1H178zM178 88h1v1H178zM178 89h1v1H178zM178 90h1v1H178zM178 91h1v1H178zM178 92h1v1H178zM178 93h1v1H178zM178 94h1v1H178zM178 95h1v1H178zM178 96h1v1H178zM178 97h1v1H178zM178 98h1v1H178zM178 99h1v1H178zM178 100h1v1H178zM178 101h1v1H178zM178 102h1v1H178zM178 103h1v1H178zM178 104h1v1H178zM178 105h1v1H178zM178 106h1v1H178zM178 107h1v1H178zM178 108h1v1H178zM178 109h1v1H178zM178 110h1v1H178zM97 111h1v1H97zM178 111h1v1H178zM178 112h1v1H178zM178 113h1v1H178zM178 114h1v1H178zM83 115h1v1H83zM178 115h1v1H178zM178 116h1v1H178zM97 117h1v1H97zM178 117h1v1H178zM178 118h1v1H178zM178 119h1v1H178zM178 120h1v1H178zM70 121h1v1H70zM178 121h1v1H178zM178 122h1v1H178zM77 123h1v1H77zM178 123h1v1H178zM178 124h1v1H178zM178 125h1v1H178zM178 126h1v1H178zM178 127h1v1H178zM178 128h1v1H178zM178 129h1v1H178zM178 130h1v1H178zM178 131h1v1H178zM178 132h1v1H178zM178 133h1v1H178zM178 134h1v1H178zM178 135h1v1H178zM178 136h1v1H178zM178 137h1v1H178zM139 138h1v1H139zM178 138h1v1H178zM178 139h1v1H178zM178 140h1v1H178zM178 141h1v1H178zM178 142h1v1H178zM178 143h1v1H178zM70 144h1v1H70zM178 144h1v1H178zM178 145h1v1H178zM178 146h1v1H178zM178 147h1v1H178zM178 148h1v1H178zM178 149h1v1H178zM178 150h1v1H178zM178 151h1v1H178z"/>
  <path fill="#d8e0e0" d="M105 65h1v1H105zM110 66h1v1H110zM117 67h1v1H117zM93 71h1v1H93zM69 73h1v1H69zM87 75h1v1H87zM76 106h1v1H76zM99 112h1v1H99zM136 129h1v1H136zM70 142h1v1H70zM70 143h1v1H70zM165 174h1v1H165z"/>
  <path fill="#d8e0e8" d="M108 63h1v1H108zM134 120h1v1H134zM111 128h1v1H111z"/>
  <path fill="#e0e0e0" d="M126 54h1v1H126z"/>
  <path fill="#e0e0e8" d="M25 17h1v1H25zM18 24h1v1H18zM175 27h1v1H175zM14 33h1v1H14zM44 34h1v1H44zM124 38h1v1H124zM38 40h1v1H38zM39 43h1v1H39zM129 47h1v1H129zM43 51h1v1H43zM66 54h1v1H66zM70 55h1v1H70zM50 56h1v1H50zM120 56h1v1H120zM68 58h1v1H68zM120 60h1v1H120zM62 61h1v1H62zM54 67h1v1H54zM101 67h1v1H101zM66 70h1v1H66zM67 71h1v1H67zM70 82h1v1H70zM83 86h1v1H83zM71 106h1v1H71zM87 112h1v1H87zM112 114h1v1H112zM119 114h1v1H119zM127 116h1v1H127zM133 117h1v1H133zM79 120h1v1H79zM70 122h1v1H70zM70 123h1v1H70zM70 124h1v1H70zM106 124h1v1H106zM70 125h1v1H70zM112 125h1v1H112zM70 126h1v1H70zM70 127h1v1H70zM70 128h1v1H70zM70 129h1v1H70zM70 130h1v1H70zM70 131h1v1H70zM70 132h1v1H70zM70 133h1v1H70zM70 134h1v1H70zM70 135h1v1H70zM70 136h1v1H70zM70 137h1v1H70zM70 138h1v1H70zM70 139h1v1H70zM70 140h1v1H70zM70 141h1v1H70zM178 152h1v1H178zM177 158h1v1H177zM171 169h1v1H171zM170 170h1v1H170zM169 171h1v1H169zM30 176h1v1H30zM37 178h1v1H37zM154 178h1v1H154z"/>
  <path fill="#e0e8e8" d="M130 35h1v1H130zM49 38h1v1H49zM178 38h1v1H178zM108 67h1v1H108zM81 89h1v1H81zM83 123h1v1H83zM130 126h1v1H130zM102 133h1v1H102zM138 136h1v1H138zM105 141h1v1H105zM176 161h1v1H176z"/>
  <path fill="#e8e8e8" d="M131 42h1v1H131zM57 63h1v1H57zM108 138h1v1H108zM174 165h1v1H174z"/>
  <path fill="#e8e8f0" d="M133 37h1v1H133zM46 38h1v1H46zM41 41h1v1H41zM128 43h1v1H128zM71 53h1v1H71zM122 58h1v1H122zM68 72h1v1H68zM100 72h1v1H100zM79 83h1v1H79zM79 93h1v1H79zM72 100h1v1H72zM125 108h1v1H125zM121 113h1v1H121zM102 115h1v1H102zM100 122h1v1H100zM80 128h1v1H80zM103 140h1v1H103zM76 141h1v1H76zM143 147h1v1H143zM16 163h1v1H16z"/>
  <path fill="#e8f0f0" d="M177 32h1v1H177zM66 52h1v1H66zM90 73h1v1H90zM73 78h1v1H73zM98 118h1v1H98zM110 131h1v1H110zM178 153h1v1H178zM26 174h1v1H26z"/>
  <path fill="#f0f0f0" d="M163 15h1v1H163zM176 29h1v1H176zM45 37h1v1H45zM178 37h1v1H178zM134 39h1v1H134zM125 44h1v1H125zM128 50h1v1H128zM70 51h1v1H70zM123 53h1v1H123zM44 54h1v1H44zM115 59h1v1H115zM64 63h1v1H64zM120 63h1v1H120zM111 66h1v1H111zM61 72h1v1H61zM95 75h1v1H95zM91 78h1v1H91zM68 79h1v1H68zM75 81h1v1H75zM73 96h1v1H73zM77 99h1v1H77zM120 108h1v1H120zM127 109h1v1H127zM116 110h1v1H116zM124 113h1v1H124zM131 113h1v1H131zM116 117h1v1H116zM105 121h1v1H105zM107 124h1v1H107zM135 125h1v1H135zM78 133h1v1H78zM133 137h1v1H133zM135 141h1v1H135zM20 169h1v1H20zM22 171h1v1H22z"/>
  <path fill="#f0f0f8" d="M158 13h1v1H158zM165 16h1v1H165zM170 20h1v1H170zM128 35h1v1H128zM132 36h1v1H132zM127 38h1v1H127zM40 44h1v1H40zM131 45h1v1H131zM127 52h1v1H127zM114 59h1v1H114zM99 68h1v1H99zM57 69h1v1H57zM97 69h1v1H97zM86 76h1v1H86zM76 105h1v1H76zM129 121h1v1H129zM81 126h1v1H81zM131 130h1v1H131zM109 134h1v1H109zM77 136h1v1H77zM107 140h1v1H107zM144 142h1v1H144zM148 146h1v1H148zM71 147h1v1H71zM21 170h1v1H21zM168 172h1v1H168z"/>
  <path fill="#f0f8f8" d="M71 49h1v1H71zM66 60h1v1H66zM95 70h1v1H95zM103 70h1v1H103zM101 114h1v1H101z"/>
  <path fill="#f8f8f8" d="M38 12h116v1H38zM33 13h1v1H33zM161 14h1v1H161zM28 15h1v1H28zM26 16h1v1H26zM169 19h1v1H169zM171 21h1v1H171zM174 25h1v1H174zM16 27h1v1H16zM41 35h1v1H41zM46 35h1v1H46zM40 36h1v1H40zM39 37h1v1H39zM42 37h1v1H42zM124 39h1v1H124zM126 39h1v1H126zM47 40h1v1H47zM126 40h1v1H126zM134 40h1v1H134zM49 41h1v1H49zM126 41h1v1H126zM134 41h1v1H134zM124 42h1v1H124zM44 43h1v1H44zM48 43h1v1H48zM130 43h1v1H130zM42 45h1v1H42zM46 47h1v1H46zM126 48h1v1H126zM43 49h1v1H43zM66 49h1v1H66zM70 49h1v1H70zM128 49h1v1H128zM47 50h1v1H47zM68 50h1v1H68zM72 50h1v1H72zM125 50h1v1H125zM64 51h1v1H64zM64 52h1v1H64zM71 52h1v1H71zM73 52h1v1H73zM124 52h1v1H124zM48 53h1v1H48zM73 53h1v1H73zM71 54h1v1H71zM73 54h1v1H73zM64 55h1v1H64zM45 56h1v1H45zM68 56h2v1H68zM124 56h1v1H124zM65 57h1v1H65zM71 57h1v1H71zM112 57h1v1H112zM119 57h1v1H119zM123 57h1v1H123zM46 58h1v1H46zM110 59h1v1H110zM63 60h1v1H63zM112 60h1v1H112zM117 60h1v1H117zM48 61h1v1H48zM120 61h1v1H120zM51 64h1v1H51zM107 64h1v1H107zM114 65h1v1H114zM53 66h1v1H53zM109 66h1v1H109zM118 66h1v1H118zM113 67h2v1H113zM116 67h1v1H116zM60 71h1v1H60zM101 71h1v1H101zM98 73h1v1H98zM72 77h1v1H72zM85 77h1v1H85zM92 77h1v1H92zM69 80h1v1H69zM80 82h1v1H80zM76 83h1v1H76zM72 85h1v1H72zM82 87h1v1H82zM73 88h1v1H73zM78 95h1v1H78zM71 107h1v1H71zM122 108h1v1H122zM118 109h1v1H118zM90 111h2v1H90zM96 111h1v1H96zM115 111h1v1H115zM114 112h1v1H114zM130 112h1v1H130zM100 113h1v1H100zM113 113h1v1H113zM132 115h1v1H132zM90 116h1v1H90zM96 116h1v1H96zM111 116h1v1H111zM87 118h1v1H87zM128 118h1v1H128zM86 119h1v1H86zM99 119h1v1H99zM104 119h1v1H104zM75 120h1v1H75zM85 120h1v1H85zM114 120h1v1H114zM134 121h1v1H134zM75 122h1v1H75zM105 122h1v1H105zM108 122h1v1H108zM113 122h1v1H113zM75 123h1v1H75zM82 124h1v1H82zM101 125h1v1H101zM135 126h1v1H135zM79 130h1v1H79zM102 131h1v1H102zM102 132h1v1H102zM132 134h1v1H132zM137 134h1v1H137zM76 139h1v1H76zM143 142h1v1H143zM75 145h1v1H75zM75 146h1v1H75zM145 147h3v1H145zM13 154h1v1H13zM178 154h1v1H178zM178 155h1v1H178zM14 158h1v1H14zM15 161h1v1H15zM17 165h1v1H17zM173 167h1v1H173zM172 168h1v1H172zM23 172h1v1H23zM167 173h1v1H167zM159 177h1v1H159zM36 178h1v1H36zM155 178h2v1H155z"/>
  <path fill="#f8f8ff" d="M154 12h1v1H154zM14 32h1v1H14zM178 35h1v1H178zM13 36h1v1H13zM178 36h1v1H178zM48 37h1v1H48zM49 40h1v1H49zM46 45h1v1H46zM43 50h1v1H43zM125 55h1v1H125zM67 58h1v1H67zM111 58h1v1H111zM52 59h1v1H52zM53 60h1v1H53zM50 63h1v1H50zM117 64h1v1H117zM52 65h1v1H52zM119 65h1v1H119zM106 68h1v1H106zM87 81h1v1H87zM86 82h1v1H86zM71 83h1v1H71zM72 101h1v1H72zM76 103h1v1H76zM71 108h1v1H71zM121 108h1v1H121zM95 111h1v1H95zM94 115h1v1H94zM75 116h1v1H75zM88 117h1v1H88zM75 119h1v1H75zM109 120h1v1H109zM78 122h1v1H78zM111 127h1v1H111zM136 130h1v1H136zM108 137h1v1H108zM134 139h1v1H134zM138 144h1v1H138zM141 146h1v1H141zM13 153h1v1H13zM177 159h1v1H177zM32 177h1v1H32zM35 178h1v1H35z"/>
  <path fill="#fff8f8" d="M128 37h1v1H128zM132 44h1v1H132zM46 48h1v1H46z"/>
  <path fill="#f8ffff" d="M13 37h1v1H13zM13 38h1v1H13zM76 104h1v1H76zM71 109h1v1H71zM75 117h1v1H75zM76 140h1v1H76zM19 168h1v1H19zM164 175h1v1H164z"/>
  <path fill="#fff8ff" d="M30 14h1v1H30zM129 37h1v1H129zM131 38h1v1H131zM133 38h1v1H133zM47 41h1v1H47zM45 43h1v1H45zM69 50h1v1H69zM125 51h1v1H125zM126 53h1v1H126zM122 55h1v1H122zM65 56h1v1H65zM54 61h1v1H54zM65 61h1v1H65zM118 62h1v1H118zM62 65h1v1H62zM106 65h1v1H106zM56 68h1v1H56zM105 68h1v1H105zM104 69h1v1H104zM84 84h1v1H84zM73 98h1v1H73zM105 123h1v1H105zM110 130h1v1H110zM77 135h1v1H77zM104 140h1v1H104zM140 140h1v1H140zM71 146h1v1H71z"/>
  <path fill="#ffffff" d="M0 0h192v1H0zM0 1h192v1H0zM0 2h192v1H0zM0 3h192v1H0zM0 4h192v1H0zM0 5h192v1H0zM0 6h192v1H0zM0 7h192v1H0zM0 8h192v1H0zM0 9h192v1H0zM0 10h192v1H0zM0 11h192v1H0zM0 12h38v1H0zM155 12h37v1H155zM0 13h33v1H0zM159 13h33v1H159zM0 14h30v1H0zM162 14h30v1H162zM0 15h28v1H0zM164 15h28v1H164zM0 16h26v1H0zM166 16h26v1H166zM0 17h25v1H0zM167 17h25v1H167zM0 18h24v1H0zM168 18h24v1H168zM0 19h23v1H0zM170 19h22v1H170zM0 20h22v1H0zM171 20h21v1H171zM0 21h21v1H0zM172 21h20v1H172zM0 22h20v1H0zM172 22h20v1H172zM0 23h19v1H0zM173 23h19v1H173zM0 24h18v1H0zM174 24h18v1H174zM0 25h18v1H0zM175 25h17v1H175zM0 26h17v1H0zM175 26h17v1H175zM0 27h16v1H0zM176 27h16v1H176zM0 28h16v1H0zM176 28h16v1H176zM0 29h16v1H0zM177 29h15v1H177zM0 30h15v1H0zM177 30h15v1H177zM0 31h15v1H0zM177 31h15v1H177zM0 32h14v1H0zM178 32h14v1H178zM0 33h14v1H0zM178 33h14v1H178zM0 34h14v1H0zM178 34h14v1H178zM0 35h14v1H0zM42 35h4v1H42zM129 35h1v1H129zM179 35h13v1H179zM0 36h13v1H0zM41 36h7v1H41zM126 36h6v1H126zM179 36h13v1H179zM0 37h13v1H0zM40 37h2v1H40zM46 37h2v1H46zM125 37h3v1H125zM130 37h3v1H130zM179 37h13v1H179zM0 38h13v1H0zM39 38h3v1H39zM47 38h2v1H47zM125 38h2v1H125zM132 38h1v1H132zM179 38h13v1H179zM0 39h14v1H0zM39 39h2v1H39zM47 39h3v1H47zM125 39h1v1H125zM132 39h2v1H132zM179 39h13v1H179zM0 40h14v1H0zM39 40h2v1H39zM48 40h1v1H48zM124 40h2v1H124zM132 40h2v1H132zM179 40h13v1H179zM0 41h14v1H0zM39 41h2v1H39zM48 41h1v1H48zM124 41h2v1H124zM132 41h2v1H132zM179 41h13v1H179zM0 42h14v1H0zM39 42h3v1H39zM46 42h3v1H46zM125 42h2v1H125zM132 42h2v1H132zM179 42h13v1H179zM0 43h14v1H0zM40 43h4v1H40zM46 43h2v1H46zM125 43h3v1H125zM131 43h3v1H131zM179 43h13v1H179zM0 44h14v1H0zM41 44h7v1H41zM126 44h6v1H126zM179 44h13v1H179zM0 45h14v1H0zM43 45h3v1H43zM127 45h4v1H127zM179 45h13v1H179zM0 46h14v1H0zM43 46h4v1H43zM127 46h3v1H127zM179 46h13v1H179zM0 47h14v1H0zM43 47h3v1H43zM127 47h2v1H127zM179 47h13v1H179zM0 48h14v1H0zM43 48h3v1H43zM127 48h2v1H127zM179 48h13v1H179zM0 49h14v1H0zM44 49h3v1H44zM67 49h3v1H67zM126 49h2v1H126zM179 49h13v1H179zM0 50h14v1H0zM44 50h3v1H44zM65 50h3v1H65zM70 50h2v1H70zM126 50h2v1H126zM179 50h13v1H179zM0 51h14v1H0zM44 51h4v1H44zM65 51h2v1H65zM71 51h2v1H71zM126 51h2v1H126zM179 51h13v1H179zM0 52h14v1H0zM44 52h4v1H44zM65 52h1v1H65zM72 52h1v1H72zM125 52h2v1H125zM179 52h13v1H179zM0 53h14v1H0zM44 53h4v1H44zM64 53h2v1H64zM72 53h1v1H72zM124 53h2v1H124zM179 53h13v1H179zM0 54h14v1H0zM45 54h4v1H45zM64 54h2v1H64zM72 54h1v1H72zM123 54h3v1H123zM179 54h13v1H179zM0 55h14v1H0zM45 55h5v1H45zM65 55h2v1H65zM71 55h2v1H71zM123 55h2v1H123zM179 55h13v1H179zM0 56h14v1H0zM46 56h4v1H46zM66 56h2v1H66zM70 56h3v1H70zM121 56h3v1H121zM179 56h13v1H179zM0 57h14v1H0zM46 57h5v1H46zM66 57h5v1H66zM113 57h5v1H113zM120 57h3v1H120zM179 57h13v1H179zM0 58h14v1H0zM47 58h5v1H47zM65 58h2v1H65zM112 58h10v1H112zM179 58h13v1H179zM0 59h14v1H0zM47 59h5v1H47zM64 59h3v1H64zM111 59h3v1H111zM116 59h5v1H116zM179 59h13v1H179zM0 60h14v1H0zM48 60h5v1H48zM64 60h2v1H64zM110 60h2v1H110zM118 60h2v1H118zM179 60h13v1H179zM0 61h14v1H0zM49 61h5v1H49zM63 61h2v1H63zM110 61h2v1H110zM118 61h2v1H118zM179 61h13v1H179zM0 62h14v1H0zM49 62h7v1H49zM62 62h3v1H62zM110 62h2v1H110zM119 62h2v1H119zM179 62h13v1H179zM0 63h14v1H0zM51 63h6v1H51zM61 63h3v1H61zM109 63h3v1H109zM118 63h2v1H118zM179 63h13v1H179zM0 64h14v1H0zM52 64h7v1H52zM60 64h4v1H60zM108 64h5v1H108zM118 64h2v1H118zM179 64h13v1H179zM0 65h14v1H0zM53 65h9v1H53zM107 65h7v1H107zM115 65h4v1H115zM179 65h13v1H179zM0 66h14v1H0zM54 66h9v1H54zM104 66h5v1H104zM112 66h6v1H112zM179 66h13v1H179zM0 67h14v1H0zM55 67h8v1H55zM102 67h6v1H102zM115 67h1v1H115zM179 67h13v1H179zM0 68h14v1H0zM57 68h7v1H57zM100 68h5v1H100zM179 68h13v1H179zM0 69h14v1H0zM58 69h7v1H58zM98 69h6v1H98zM179 69h13v1H179zM0 70h14v1H0zM59 70h7v1H59zM96 70h7v1H96zM179 70h13v1H179zM0 71h14v1H0zM61 71h6v1H61zM94 71h7v1H94zM179 71h13v1H179zM0 72h14v1H0zM62 72h6v1H62zM92 72h8v1H92zM179 72h13v1H179zM0 73h14v1H0zM63 73h6v1H63zM91 73h7v1H91zM179 73h13v1H179zM0 74h14v1H0zM64 74h6v1H64zM89 74h8v1H89zM179 74h13v1H179zM0 75h14v1H0zM65 75h6v1H65zM88 75h7v1H88zM179 75h13v1H179zM0 76h14v1H0zM66 76h6v1H66zM87 76h7v1H87zM179 76h13v1H179zM0 77h14v1H0zM67 77h5v1H67zM86 77h6v1H86zM179 77h13v1H179zM0 78h14v1H0zM68 78h5v1H68zM84 78h7v1H84zM179 78h13v1H179zM0 79h14v1H0zM69 79h5v1H69zM83 79h7v1H83zM179 79h13v1H179zM0 80h14v1H0zM70 80h5v1H70zM82 80h7v1H82zM179 80h13v1H179zM0 81h14v1H0zM70 81h5v1H70zM81 81h6v1H81zM179 81h13v1H179zM0 82h14v1H0zM71 82h5v1H71zM81 82h5v1H81zM179 82h13v1H179zM0 83h14v1H0zM72 83h4v1H72zM80 83h6v1H80zM179 83h13v1H179zM0 84h14v1H0zM72 84h5v1H72zM79 84h5v1H79zM179 84h13v1H179zM0 85h14v1H0zM73 85h11v1H73zM179 85h13v1H179zM0 86h14v1H0zM73 86h10v1H73zM179 86h13v1H179zM0 87h14v1H0zM73 87h9v1H73zM179 87h13v1H179zM0 88h14v1H0zM74 88h8v1H74zM179 88h13v1H179zM0 89h14v1H0zM74 89h7v1H74zM179 89h13v1H179zM0 90h14v1H0zM74 90h7v1H74zM179 90h13v1H179zM0 91h14v1H0zM74 91h6v1H74zM179 91h13v1H179zM0 92h14v1H0zM74 92h6v1H74zM179 92h13v1H179zM0 93h14v1H0zM74 93h5v1H74zM179 93h13v1H179zM0 94h14v1H0zM74 94h5v1H74zM179 94h13v1H179zM0 95h14v1H0zM74 95h4v1H74zM179 95h13v1H179zM0 96h14v1H0zM74 96h4v1H74zM179 96h13v1H179zM0 97h14v1H0zM73 97h5v1H73zM179 97h13v1H179zM0 98h14v1H0zM74 98h4v1H74zM179 98h13v1H179zM0 99h14v1H0zM73 99h4v1H73zM179 99h13v1H179zM0 100h14v1H0zM73 100h4v1H73zM179 100h13v1H179zM0 101h14v1H0zM73 101h4v1H73zM179 101h13v1H179zM0 102h14v1H0zM72 102h5v1H72zM179 102h13v1H179zM0 103h14v1H0zM72 103h4v1H72zM179 103h13v1H179zM0 104h14v1H0zM72 104h4v1H72zM179 104h13v1H179zM0 105h14v1H0zM72 105h4v1H72zM179 105h13v1H179zM0 106h14v1H0zM72 106h4v1H72zM179 106h13v1H179zM0 107h14v1H0zM72 107h4v1H72zM179 107h13v1H179zM0 108h14v1H0zM72 108h4v1H72zM123 108h2v1H123zM179 108h13v1H179zM0 109h14v1H0zM72 109h4v1H72zM119 109h8v1H119zM179 109h13v1H179zM0 110h14v1H0zM71 110h5v1H71zM117 110h12v1H117zM179 110h13v1H179zM0 111h14v1H0zM71 111h5v1H71zM92 111h3v1H92zM116 111h14v1H116zM179 111h13v1H179zM0 112h14v1H0zM71 112h5v1H71zM88 112h11v1H88zM115 112h15v1H115zM179 112h13v1H179zM0 113h14v1H0zM71 113h5v1H71zM86 113h14v1H86zM114 113h7v1H114zM125 113h6v1H125zM179 113h13v1H179zM0 114h14v1H0zM71 114h5v1H71zM85 114h16v1H85zM113 114h6v1H113zM126 114h6v1H126zM179 114h13v1H179zM0 115h14v1H0zM71 115h5v1H71zM84 115h10v1H84zM95 115h7v1H95zM112 115h6v1H112zM127 115h5v1H127zM179 115h13v1H179zM0 116h14v1H0zM71 116h4v1H71zM83 116h7v1H83zM97 116h6v1H97zM112 116h5v1H112zM128 116h5v1H128zM179 116h13v1H179zM0 117h14v1H0zM71 117h4v1H71zM82 117h6v1H82zM98 117h6v1H98zM111 117h5v1H111zM128 117h5v1H128zM179 117h13v1H179zM0 118h14v1H0zM71 118h5v1H71zM81 118h6v1H81zM99 118h5v1H99zM110 118h6v1H110zM129 118h5v1H129zM179 118h13v1H179zM0 119h14v1H0zM71 119h4v1H71zM80 119h6v1H80zM100 119h4v1H100zM110 119h5v1H110zM129 119h5v1H129zM179 119h13v1H179zM0 120h14v1H0zM71 120h4v1H71zM80 120h5v1H80zM100 120h5v1H100zM110 120h4v1H110zM129 120h5v1H129zM179 120h13v1H179zM0 121h14v1H0zM71 121h5v1H71zM79 121h6v1H79zM100 121h5v1H100zM109 121h5v1H109zM130 121h4v1H130zM179 121h13v1H179zM0 122h14v1H0zM71 122h4v1H71zM79 122h5v1H79zM101 122h4v1H101zM109 122h4v1H109zM130 122h5v1H130zM179 122h13v1H179zM0 123h14v1H0zM71 123h4v1H71zM78 123h5v1H78zM101 123h4v1H101zM108 123h5v1H108zM130 123h5v1H130zM179 123h13v1H179zM0 124h14v1H0zM71 124h5v1H71zM77 124h5v1H77zM101 124h5v1H101zM108 124h5v1H108zM130 124h5v1H130zM179 124h13v1H179zM0 125h14v1H0zM71 125h11v1H71zM102 125h10v1H102zM130 125h5v1H130zM179 125h13v1H179zM0 126h14v1H0zM71 126h10v1H71zM102 126h10v1H102zM131 126h4v1H131zM179 126h13v1H179zM0 127h14v1H0zM71 127h10v1H71zM102 127h9v1H102zM131 127h5v1H131zM179 127h13v1H179zM0 128h14v1H0zM71 128h9v1H71zM102 128h9v1H102zM131 128h5v1H131zM179 128h13v1H179zM0 129h14v1H0zM71 129h9v1H71zM102 129h9v1H102zM131 129h5v1H131zM179 129h13v1H179zM0 130h14v1H0zM71 130h8v1H71zM102 130h8v1H102zM132 130h4v1H132zM179 130h13v1H179zM0 131h14v1H0zM71 131h8v1H71zM103 131h7v1H103zM132 131h5v1H132zM179 131h13v1H179zM0 132h14v1H0zM71 132h8v1H71zM103 132h7v1H103zM132 132h5v1H132zM179 132h13v1H179zM0 133h14v1H0zM71 133h7v1H71zM103 133h7v1H103zM132 133h5v1H132zM179 133h13v1H179zM0 134h14v1H0zM71 134h7v1H71zM103 134h6v1H103zM133 134h4v1H133zM179 134h13v1H179zM0 135h14v1H0zM71 135h6v1H71zM103 135h6v1H103zM133 135h5v1H133zM179 135h13v1H179zM0 136h14v1H0zM71 136h6v1H71zM103 136h6v1H103zM133 136h5v1H133zM179 136h13v1H179zM0 137h14v1H0zM71 137h6v1H71zM103 137h5v1H103zM134 137h5v1H134zM179 137h13v1H179zM0 138h14v1H0zM71 138h6v1H71zM103 138h5v1H103zM134 138h5v1H134zM179 138h13v1H179zM0 139h14v1H0zM71 139h5v1H71zM103 139h5v1H103zM135 139h5v1H135zM179 139h13v1H179zM0 140h14v1H0zM71 140h5v1H71zM105 140h2v1H105zM135 140h5v1H135zM179 140h13v1H179zM0 141h14v1H0zM71 141h5v1H71zM136 141h6v1H136zM179 141h13v1H179zM0 142h14v1H0zM71 142h5v1H71zM136 142h7v1H136zM179 142h13v1H179zM0 143h14v1H0zM71 143h5v1H71zM137 143h11v1H137zM179 143h13v1H179zM0 144h14v1H0zM71 144h5v1H71zM139 144h10v1H139zM179 144h13v1H179zM0 145h14v1H0zM71 145h4v1H71zM139 145h10v1H139zM179 145h13v1H179zM0 146h14v1H0zM72 146h3v1H72zM142 146h6v1H142zM179 146h13v1H179zM0 147h14v1H0zM72 147h3v1H72zM144 147h1v1H144zM179 147h13v1H179zM0 148h14v1H0zM179 148h13v1H179zM0 149h14v1H0zM179 149h13v1H179zM0 150h14v1H0zM179 150h13v1H179zM0 151h14v1H0zM179 151h13v1H179zM0 152h14v1H0zM179 152h13v1H179zM0 153h13v1H0zM179 153h13v1H179zM0 154h13v1H0zM179 154h13v1H179zM0 155h14v1H0zM179 155h13v1H179zM0 156h14v1H0zM178 156h14v1H178zM0 157h14v1H0zM178 157h14v1H178zM0 158h14v1H0zM178 158h14v1H178zM0 159h15v1H0zM178 159h14v1H178zM0 160h15v1H0zM177 160h15v1H177zM0 161h15v1H0zM177 161h15v1H177zM0 162h16v1H0zM176 162h16v1H176zM0 163h16v1H0zM176 163h16v1H176zM0 164h17v1H0zM175 164h17v1H175zM0 165h17v1H0zM175 165h17v1H175zM0 166h18v1H0zM174 166h18v1H174zM0 167h19v1H0zM174 167h18v1H174zM0 168h19v1H0zM173 168h19v1H173zM0 169h20v1H0zM172 169h20v1H172zM0 170h21v1H0zM171 170h21v1H171zM0 171h22v1H0zM170 171h22v1H170zM0 172h23v1H0zM169 172h23v1H169zM0 173h25v1H0zM168 173h24v1H168zM0 174h26v1H0zM166 174h26v1H166zM0 175h28v1H0zM165 175h27v1H165zM0 176h30v1H0zM162 176h30v1H162zM0 177h32v1H0zM160 177h32v1H160zM0 178h35v1H0zM157 178h35v1H157zM0 179h192v1H0zM0 180h192v1H0zM0 181h192v1H0zM0 182h192v1H0zM0 183h192v1H0zM0 184h192v1H0zM0 185h192v1H0zM0 186h192v1H0zM0 187h192v1H0zM0 188h192v1H0zM0 189h192v1H0zM0 190h192v1H0zM0 191h192v1H0z"/>
  <g>
  <path fill="none" stroke="#6fe7f8" stroke-width="4" stroke-linecap="round" stroke-linejoin="round" d="M57 61c19-17 59-17 78 0-19 18-59 18-78 0Z"/>
  <circle cx="96" cy="61" r="8" fill="#6fe7f8"/>
  </g>
</svg>
