<svg xmlns="http://www.w3.org/2000/svg" viewBox="0 0 192 192" role="img">
  <desc>Generated vector SVG from premium.png</desc>
  <path fill="#001838" d="M102 120h1v1H102z"/>
  <path fill="#001840" d="M36 6h5v1H36zM45 6h1v1H45zM26 7h1v1H26zM31 7h2v1H31zM35 7h6v1H35zM45 7h1v1H45zM55 7h1v1H55zM78 7h1v1H78zM95 7h2v1H95zM117 7h4v1H117zM140 7h1v1H140zM146 7h2v1H146zM24 8h3v1H24zM30 8h10v1H30zM55 8h1v1H55zM59 8h1v1H59zM75 8h1v1H75zM77 8h1v1H77zM88 8h1v1H88zM112 8h1v1H112zM118 8h1v1H118zM120 8h1v1H120zM139 8h3v1H139zM163 8h2v1H163zM24 9h3v1H24zM31 9h2v1H31zM34 9h5v1H34zM78 9h2v1H78zM118 9h2v1H118zM140 9h3v1H140zM22 10h6v1H22zM31 10h1v1H31zM35 10h1v1H35zM53 10h1v1H53zM18 11h2v1H18zM22 11h2v1H22zM25 11h2v1H25zM171 11h1v1H171zM17 12h4v1H17zM22 12h1v1H22zM25 12h1v1H25zM28 12h1v1H28zM30 12h1v1H30zM171 12h2v1H171zM17 13h5v1H17zM29 13h2v1H29zM172 13h2v1H172zM18 14h5v1H18zM14 15h2v1H14zM17 15h6v1H17zM32 15h1v1H32zM14 16h2v1H14zM17 16h3v1H17zM21 16h1v1H21zM45 16h1v1H45zM14 17h3v1H14zM75 17h1v1H75zM90 17h2v1H90zM14 18h2v1H14zM89 18h4v1H89zM13 19h3v1H13zM11 20h2v1H11zM89 20h1v1H89zM10 21h2v1H10zM21 21h1v1H21zM55 21h2v1H55zM10 22h2v1H10zM9 23h2v1H9zM8 24h3v1H8zM136 24h1v1H136zM8 25h3v1H8zM8 26h3v1H8zM8 27h1v1H8zM11 27h1v1H11zM9 28h3v1H9zM36 31h3v1H36zM35 32h4v1H35zM37 33h2v1H37zM8 34h1v1H8zM37 34h1v1H37zM105 34h1v1H105zM39 35h1v1H39zM39 37h1v1H39zM39 38h1v1H39zM55 41h1v1H55zM46 44h1v1H46zM46 45h2v1H46zM58 45h1v1H58zM46 46h2v1H46zM45 47h5v1H45zM46 48h4v1H46zM44 49h2v1H44zM47 50h1v1H47zM53 57h2v1H53zM56 58h1v1H56zM57 59h1v1H57zM75 59h1v1H75zM40 65h1v1H40zM70 67h1v1H70zM49 75h1v1H49zM177 77h1v1H177zM142 87h1v1H142zM10 88h1v1H10zM140 88h1v1H140zM10 89h1v1H10zM70 89h1v1H70zM68 96h1v1H68zM69 100h1v1H69zM132 101h1v1H132zM99 112h2v1H99zM102 117h1v1H102zM68 144h1v1H68zM68 145h1v1H68zM68 146h1v1H68zM71 148h1v1H71zM49 154h2v1H49zM8 159h1v1H8zM8 160h1v1H8zM8 161h3v1H8zM9 162h1v1H9zM9 163h2v1H9zM9 164h1v1H9zM164 164h1v1H164zM12 167h1v1H12zM12 168h1v1H12zM14 170h1v1H14zM178 170h1v1H178zM13 171h1v1H13zM26 177h1v1H26zM25 178h2v1H25zM25 179h1v1H25zM28 180h1v1H28z"/>
  <path fill="#002040" d="M43 6h2v1H43zM50 6h1v1H50zM62 6h3v1H62zM78 6h1v1H78zM80 6h1v1H80zM90 6h3v1H90zM96 6h5v1H96zM118 6h2v1H118zM121 6h1v1H121zM123 6h3v1H123zM146 6h1v1H146zM33 7h2v1H33zM41 7h4v1H41zM50 7h2v1H50zM53 7h2v1H53zM60 7h1v1H60zM63 7h1v1H63zM70 7h1v1H70zM79 7h2v1H79zM89 7h2v1H89zM92 7h2v1H92zM97 7h3v1H97zM101 7h1v1H101zM107 7h2v1H107zM121 7h2v1H121zM124 7h4v1H124zM132 7h1v1H132zM134 7h2v1H134zM139 7h1v1H139zM141 7h1v1H141zM148 7h1v1H148zM151 7h2v1H151zM157 7h1v1H157zM163 7h1v1H163zM40 8h2v1H40zM44 8h2v1H44zM50 8h1v1H50zM62 8h1v1H62zM89 8h1v1H89zM101 8h1v1H101zM115 8h2v1H115zM126 8h1v1H126zM133 8h2v1H133zM149 8h1v1H149zM159 8h4v1H159zM42 9h2v1H42zM60 9h1v1H60zM117 9h1v1H117zM146 9h1v1H146zM20 10h2v1H20zM60 10h1v1H60zM172 11h1v1H172zM26 12h1v1H26zM52 12h1v1H52zM170 12h1v1H170zM173 12h1v1H173zM52 13h1v1H52zM31 14h2v1H31zM153 14h1v1H153zM176 14h1v1H176zM130 15h1v1H130zM153 15h1v1H153zM165 15h1v1H165zM20 16h1v1H20zM44 16h1v1H44zM74 16h1v1H74zM117 16h1v1H117zM131 16h1v1H131zM150 16h2v1H150zM153 16h1v1H153zM18 17h1v1H18zM44 17h3v1H44zM82 17h1v1H82zM88 17h2v1H88zM92 17h1v1H92zM151 17h2v1H151zM16 18h1v1H16zM32 18h2v1H32zM44 18h1v1H44zM57 18h1v1H57zM81 18h2v1H81zM93 18h1v1H93zM117 18h1v1H117zM16 19h1v1H16zM32 19h1v1H32zM81 19h1v1H81zM89 19h2v1H89zM19 20h2v1H19zM46 20h1v1H46zM168 20h1v1H168zM180 20h1v1H180zM12 21h1v1H12zM20 21h1v1H20zM22 21h1v1H22zM47 21h1v1H47zM54 21h1v1H54zM167 21h1v1H167zM178 21h1v1H178zM180 21h1v1H180zM20 22h1v1H20zM87 22h1v1H87zM162 22h1v1H162zM164 22h1v1H164zM178 22h1v1H178zM87 23h1v1H87zM137 23h2v1H137zM159 23h1v1H159zM178 23h1v1H178zM137 24h3v1H137zM158 24h1v1H158zM119 25h1v1H119zM137 25h1v1H137zM141 25h1v1H141zM158 25h1v1H158zM115 26h1v1H115zM178 26h1v1H178zM31 27h1v1H31zM75 27h1v1H75zM113 27h1v1H113zM31 28h2v1H31zM119 28h1v1H119zM149 28h1v1H149zM183 28h1v1H183zM99 29h1v1H99zM36 30h2v1H36zM35 31h1v1H35zM40 32h1v1H40zM183 32h1v1H183zM38 34h2v1H38zM52 34h1v1H52zM80 34h1v1H80zM8 35h1v1H8zM10 35h1v1H10zM41 35h1v1H41zM79 35h1v1H79zM97 35h1v1H97zM107 35h2v1H107zM41 36h2v1H41zM107 36h1v1H107zM26 38h1v1H26zM56 39h1v1H56zM183 39h2v1H183zM52 40h2v1H52zM53 41h1v1H53zM94 42h1v1H94zM44 43h2v1H44zM50 44h1v1H50zM183 44h1v1H183zM29 46h1v1H29zM89 47h1v1H89zM87 49h1v1H87zM46 50h1v1H46zM86 50h1v1H86zM85 51h1v1H85zM82 52h2v1H82zM183 52h1v1H183zM81 53h2v1H81zM80 54h3v1H80zM32 55h1v1H32zM79 55h1v1H79zM81 55h2v1H81zM56 59h1v1H56zM56 60h1v1H56zM75 60h2v1H75zM183 60h1v1H183zM70 63h1v1H70zM40 64h2v1H40zM70 64h2v1H70zM68 65h1v1H68zM70 65h1v1H70zM41 66h1v1H41zM68 66h2v1H68zM82 68h1v1H82zM67 70h1v1H67zM49 73h2v1H49zM182 73h1v1H182zM47 74h4v1H47zM53 74h1v1H53zM52 76h2v1H52zM76 76h1v1H76zM53 77h1v1H53zM57 77h1v1H57zM139 77h1v1H139zM55 78h2v1H55zM76 78h1v1H76zM137 78h1v1H137zM136 79h2v1H136zM141 83h1v1H141zM133 84h1v1H133zM184 84h1v1H184zM7 85h1v1H7zM7 86h1v1H7zM142 86h1v1H142zM183 86h1v1H183zM133 87h1v1H133zM143 87h1v1H143zM9 88h1v1H9zM71 89h1v1H71zM129 89h2v1H129zM144 89h1v1H144zM142 90h1v1H142zM144 90h2v1H144zM69 95h1v1H69zM55 99h2v1H55zM58 99h1v1H58zM129 99h1v1H129zM57 100h1v1H57zM70 100h1v1H70zM69 101h1v1H69zM130 101h2v1H130zM81 104h1v1H81zM67 106h1v1H67zM183 109h1v1H183zM183 110h1v1H183zM101 112h1v1H101zM100 113h1v1H100zM69 116h1v1H69zM80 118h1v1H80zM80 119h1v1H80zM74 129h1v1H74zM142 132h1v1H142zM147 137h1v1H147zM147 138h1v1H147zM147 139h1v1H147zM55 143h1v1H55zM69 144h1v1H69zM55 145h1v1H55zM69 145h1v1H69zM70 148h1v1H70zM67 149h2v1H67zM49 153h1v1H49zM177 155h1v1H177zM160 156h2v1H160zM165 163h1v1H165zM164 165h1v1H164zM167 165h1v1H167zM13 168h1v1H13zM180 168h1v1H180zM173 169h1v1H173zM177 170h1v1H177zM175 171h1v1H175zM177 171h1v1H177zM175 172h2v1H175zM175 173h1v1H175zM18 175h1v1H18zM71 176h1v1H71zM25 177h1v1H25zM77 177h1v1H77zM169 177h1v1H169zM24 178h1v1H24zM77 178h1v1H77zM165 178h1v1H165zM27 179h1v1H27zM34 180h1v1H34zM77 180h1v1H77z"/>
  <path fill="#081840" d="M27 7h1v1H27zM29 7h2v1H29zM27 8h2v1H27zM53 8h1v1H53zM76 8h1v1H76zM117 8h1v1H117zM119 8h1v1H119zM146 8h2v1H146zM165 8h2v1H165zM27 9h4v1H27zM33 9h1v1H33zM53 9h1v1H53zM74 9h2v1H74zM77 9h1v1H77zM89 9h1v1H89zM163 9h1v1H163zM19 10h1v1H19zM28 10h3v1H28zM32 10h2v1H32zM36 10h1v1H36zM74 10h1v1H74zM171 10h1v1H171zM20 11h2v1H20zM24 11h1v1H24zM27 11h5v1H27zM53 11h1v1H53zM74 11h1v1H74zM21 12h1v1H21zM24 12h1v1H24zM27 12h1v1H27zM22 13h2v1H22zM28 13h1v1H28zM17 14h1v1H17zM13 16h1v1H13zM16 16h1v1H16zM22 16h1v1H22zM75 16h2v1H75zM12 17h2v1H12zM11 18h1v1H11zM13 18h1v1H13zM11 19h2v1H11zM11 23h2v1H11zM11 24h2v1H11zM11 25h2v1H11zM11 26h1v1H11zM9 27h2v1H9zM149 27h1v1H149zM8 28h1v1H8zM12 28h1v1H12zM9 29h1v1H9zM7 34h1v1H7zM29 35h1v1H29zM106 37h1v1H106zM56 38h1v1H56zM39 39h1v1H39zM56 40h1v1H56zM57 41h1v1H57zM54 42h2v1H54zM44 45h1v1H44zM41 46h1v1H41zM44 46h1v1H44zM58 46h1v1H58zM43 47h2v1H43zM58 47h1v1H58zM43 48h1v1H43zM44 50h1v1H44zM46 51h1v1H46zM46 52h1v1H46zM52 57h1v1H52zM49 67h1v1H49zM52 70h1v1H52zM68 70h1v1H68zM67 72h1v1H67zM139 84h1v1H139zM139 85h1v1H139zM140 89h1v1H140zM142 91h2v1H142zM59 99h1v1H59zM68 101h1v1H68zM80 105h1v1H80zM135 110h1v1H135zM86 114h2v1H86zM100 115h2v1H100zM68 116h1v1H68zM103 117h1v1H103zM145 140h1v1H145zM149 143h1v1H149zM152 145h1v1H152zM9 159h1v1H9zM9 160h1v1H9zM10 162h1v1H10zM10 164h2v1H10zM9 165h2v1H9zM11 167h1v1H11zM11 168h1v1H11zM179 168h1v1H179zM19 175h1v1H19zM26 179h1v1H26zM36 182h1v1H36zM44 182h1v1H44zM76 182h1v1H76zM82 182h1v1H82zM95 182h1v1H95zM97 182h1v1H97zM142 182h1v1H142zM151 182h2v1H151z"/>
  <path fill="#002048" d="M104 15h1v1H104zM108 17h1v1H108zM132 17h1v1H132zM154 17h1v1H154zM163 17h1v1H163zM130 18h1v1H130zM163 18h1v1H163zM33 19h1v1H33zM163 19h1v1H163zM42 20h1v1H42zM45 20h1v1H45zM116 20h1v1H116zM164 21h1v1H164zM181 21h1v1H181zM38 22h1v1H38zM135 23h1v1H135zM164 23h1v1H164zM52 25h2v1H52zM115 25h1v1H115zM52 26h1v1H52zM114 26h1v1H114zM7 28h1v1H7zM116 29h1v1H116zM116 30h1v1H116zM79 36h1v1H79zM110 36h1v1H110zM44 42h1v1H44zM82 44h1v1H82zM84 49h2v1H84zM58 50h1v1H58zM84 50h1v1H84zM79 54h1v1H79zM69 64h1v1H69zM121 64h1v1H121zM63 65h1v1H63zM70 66h1v1H70zM125 69h3v1H125zM124 70h2v1H124zM175 72h1v1H175zM43 73h1v1H43zM42 74h1v1H42zM153 74h1v1H153zM42 76h1v1H42zM76 77h1v1H76zM114 77h1v1H114zM136 77h1v1H136zM138 77h1v1H138zM35 78h1v1H35zM76 83h1v1H76zM134 83h1v1H134zM26 84h1v1H26zM17 86h1v1H17zM143 86h1v1H143zM11 89h2v1H11zM33 91h1v1H33zM69 94h1v1H69zM125 96h1v1H125zM146 101h1v1H146zM67 107h1v1H67zM177 111h1v1H177zM156 112h1v1H156zM113 117h1v1H113zM183 135h1v1H183zM183 136h1v1H183zM148 137h1v1H148zM70 138h1v1H70zM42 145h1v1H42zM155 145h1v1H155zM42 146h1v1H42zM155 146h1v1H155zM156 147h1v1H156zM48 153h1v1H48zM47 154h2v1H47zM47 155h1v1H47zM160 155h1v1H160zM114 160h1v1H114zM148 163h1v1H148zM163 163h1v1H163zM163 164h1v1H163zM84 165h1v1H84zM85 166h1v1H85zM43 171h1v1H43zM158 178h2v1H158zM162 178h1v1H162zM68 179h1v1H68zM82 179h2v1H82zM158 179h2v1H158zM162 179h2v1H162zM69 180h1v1H69zM81 180h3v1H81zM163 180h2v1H163zM81 181h1v1H81z"/>
  <path fill="#082040" d="M28 6h1v1H28zM31 6h5v1H31zM41 6h2v1H41zM46 6h4v1H46zM51 6h7v1H51zM60 6h2v1H60zM65 6h1v1H65zM67 6h11v1H67zM79 6h1v1H79zM81 6h3v1H81zM85 6h5v1H85zM93 6h3v1H93zM101 6h4v1H101zM106 6h9v1H106zM116 6h2v1H116zM120 6h1v1H120zM127 6h4v1H127zM134 6h12v1H134zM147 6h15v1H147zM25 7h1v1H25zM28 7h1v1H28zM46 7h4v1H46zM52 7h1v1H52zM56 7h4v1H56zM61 7h2v1H61zM64 7h6v1H64zM71 7h7v1H71zM81 7h8v1H81zM91 7h1v1H91zM94 7h1v1H94zM100 7h1v1H100zM102 7h5v1H102zM109 7h8v1H109zM123 7h1v1H123zM128 7h4v1H128zM133 7h1v1H133zM136 7h3v1H136zM142 7h4v1H142zM149 7h2v1H149zM153 7h4v1H153zM158 7h5v1H158zM164 7h3v1H164zM29 8h1v1H29zM42 8h2v1H42zM46 8h4v1H46zM51 8h2v1H51zM54 8h1v1H54zM56 8h3v1H56zM60 8h2v1H60zM63 8h12v1H63zM78 8h10v1H78zM90 8h11v1H90zM102 8h7v1H102zM110 8h2v1H110zM113 8h2v1H113zM121 8h1v1H121zM125 8h1v1H125zM127 8h2v1H127zM131 8h2v1H131zM135 8h4v1H135zM142 8h4v1H142zM148 8h1v1H148zM150 8h9v1H150zM167 8h3v1H167zM23 9h1v1H23zM39 9h3v1H39zM44 9h9v1H44zM54 9h6v1H54zM61 9h13v1H61zM76 9h1v1H76zM80 9h2v1H80zM84 9h5v1H84zM90 9h7v1H90zM98 9h4v1H98zM104 9h2v1H104zM110 9h7v1H110zM120 9h3v1H120zM124 9h2v1H124zM127 9h1v1H127zM131 9h9v1H131zM143 9h3v1H143zM147 9h16v1H147zM164 9h7v1H164zM34 10h1v1H34zM37 10h16v1H37zM54 10h5v1H54zM63 10h3v1H63zM68 10h1v1H68zM70 10h4v1H70zM75 10h6v1H75zM82 10h1v1H82zM84 10h1v1H84zM86 10h10v1H86zM98 10h1v1H98zM111 10h2v1H111zM114 10h2v1H114zM117 10h6v1H117zM124 10h2v1H124zM131 10h12v1H131zM145 10h16v1H145zM162 10h9v1H162zM172 10h1v1H172zM32 11h8v1H32zM44 11h9v1H44zM54 11h3v1H54zM69 11h5v1H69zM75 11h5v1H75zM81 11h6v1H81zM90 11h1v1H90zM93 11h2v1H93zM106 11h1v1H106zM110 11h5v1H110zM118 11h3v1H118zM130 11h1v1H130zM132 11h5v1H132zM141 11h1v1H141zM147 11h14v1H147zM162 11h1v1H162zM165 11h6v1H165zM173 11h1v1H173zM23 12h1v1H23zM29 12h1v1H29zM31 12h2v1H31zM46 12h1v1H46zM50 12h2v1H50zM53 12h4v1H53zM69 12h9v1H69zM81 12h3v1H81zM85 12h1v1H85zM87 12h4v1H87zM92 12h3v1H92zM113 12h2v1H113zM133 12h3v1H133zM137 12h1v1H137zM149 12h3v1H149zM154 12h6v1H154zM165 12h5v1H165zM174 12h1v1H174zM16 13h1v1H16zM24 13h4v1H24zM31 13h2v1H31zM43 13h2v1H43zM46 13h1v1H46zM50 13h2v1H50zM53 13h2v1H53zM68 13h11v1H68zM82 13h4v1H82zM88 13h3v1H88zM92 13h3v1H92zM112 13h3v1H112zM130 13h1v1H130zM136 13h1v1H136zM148 13h4v1H148zM155 13h6v1H155zM165 13h7v1H165zM174 13h3v1H174zM14 14h3v1H14zM23 14h8v1H23zM41 14h1v1H41zM45 14h3v1H45zM49 14h7v1H49zM68 14h11v1H68zM82 14h3v1H82zM87 14h8v1H87zM113 14h2v1H113zM130 14h2v1H130zM149 14h4v1H149zM155 14h6v1H155zM164 14h12v1H164zM177 14h1v1H177zM16 15h1v1H16zM23 15h9v1H23zM33 15h1v1H33zM44 15h7v1H44zM56 15h1v1H56zM69 15h1v1H69zM71 15h9v1H71zM82 15h4v1H82zM88 15h1v1H88zM90 15h5v1H90zM118 15h1v1H118zM131 15h1v1H131zM149 15h4v1H149zM158 15h1v1H158zM162 15h1v1H162zM164 15h1v1H164zM166 15h3v1H166zM170 15h8v1H170zM23 16h6v1H23zM31 16h3v1H31zM43 16h1v1H43zM46 16h5v1H46zM55 16h3v1H55zM72 16h2v1H72zM77 16h3v1H77zM81 16h4v1H81zM86 16h9v1H86zM114 16h1v1H114zM118 16h4v1H118zM123 16h1v1H123zM127 16h1v1H127zM144 16h1v1H144zM146 16h1v1H146zM152 16h1v1H152zM160 16h1v1H160zM165 16h1v1H165zM168 16h1v1H168zM170 16h2v1H170zM173 16h6v1H173zM17 17h1v1H17zM19 17h6v1H19zM32 17h2v1H32zM39 17h1v1H39zM41 17h1v1H41zM47 17h3v1H47zM54 17h4v1H54zM61 17h1v1H61zM66 17h2v1H66zM74 17h1v1H74zM76 17h6v1H76zM86 17h1v1H86zM93 17h1v1H93zM117 17h3v1H117zM123 17h2v1H123zM141 17h2v1H141zM149 17h2v1H149zM161 17h2v1H161zM175 17h5v1H175zM12 18h1v1H12zM17 18h2v1H17zM40 18h2v1H40zM43 18h1v1H43zM45 18h5v1H45zM54 18h3v1H54zM58 18h4v1H58zM66 18h1v1H66zM76 18h3v1H76zM80 18h1v1H80zM84 18h1v1H84zM87 18h2v1H87zM118 18h1v1H118zM149 18h1v1H149zM161 18h1v1H161zM168 18h1v1H168zM175 18h5v1H175zM17 19h2v1H17zM24 19h1v1H24zM30 19h2v1H30zM39 19h2v1H39zM46 19h2v1H46zM52 19h1v1H52zM54 19h5v1H54zM80 19h1v1H80zM82 19h3v1H82zM88 19h1v1H88zM91 19h4v1H91zM117 19h2v1H117zM161 19h1v1H161zM176 19h6v1H176zM10 20h1v1H10zM13 20h6v1H13zM21 20h2v1H21zM28 20h5v1H28zM48 20h1v1H48zM54 20h4v1H54zM81 20h4v1H81zM90 20h1v1H90zM178 20h2v1H178zM181 20h1v1H181zM13 21h7v1H13zM28 21h4v1H28zM48 21h1v1H48zM51 21h2v1H51zM57 21h1v1H57zM70 21h1v1H70zM72 21h1v1H72zM76 21h1v1H76zM81 21h4v1H81zM87 21h1v1H87zM89 21h2v1H89zM122 21h2v1H122zM138 21h1v1H138zM168 21h1v1H168zM179 21h1v1H179zM9 22h1v1H9zM12 22h4v1H12zM17 22h2v1H17zM21 22h2v1H21zM29 22h2v1H29zM52 22h1v1H52zM54 22h3v1H54zM70 22h4v1H70zM76 22h1v1H76zM80 22h1v1H80zM88 22h1v1H88zM121 22h2v1H121zM137 22h4v1H137zM166 22h1v1H166zM177 22h1v1H177zM179 22h2v1H179zM13 23h3v1H13zM22 23h1v1H22zM26 23h1v1H26zM51 23h1v1H51zM53 23h2v1H53zM71 23h5v1H71zM80 23h1v1H80zM92 23h2v1H92zM121 23h2v1H121zM136 23h1v1H136zM139 23h2v1H139zM146 23h4v1H146zM155 23h1v1H155zM158 23h1v1H158zM160 23h2v1H160zM165 23h1v1H165zM177 23h1v1H177zM179 23h1v1H179zM183 23h1v1H183zM13 24h2v1H13zM19 24h1v1H19zM21 24h1v1H21zM28 24h1v1H28zM71 24h7v1H71zM80 24h3v1H80zM93 24h2v1H93zM118 24h2v1H118zM121 24h2v1H121zM135 24h1v1H135zM140 24h1v1H140zM145 24h6v1H145zM153 24h5v1H153zM159 24h2v1H159zM162 24h2v1H162zM177 24h3v1H177zM182 24h2v1H182zM13 25h2v1H13zM20 25h1v1H20zM28 25h4v1H28zM72 25h10v1H72zM94 25h1v1H94zM99 25h1v1H99zM116 25h3v1H116zM120 25h2v1H120zM136 25h1v1H136zM138 25h1v1H138zM140 25h1v1H140zM146 25h5v1H146zM152 25h6v1H152zM159 25h3v1H159zM163 25h2v1H163zM178 25h5v1H178zM12 26h3v1H12zM20 26h2v1H20zM26 26h1v1H26zM28 26h4v1H28zM68 26h10v1H68zM94 26h2v1H94zM99 26h1v1H99zM116 26h1v1H116zM118 26h4v1H118zM141 26h5v1H141zM147 26h8v1H147zM159 26h4v1H159zM164 26h1v1H164zM179 26h5v1H179zM12 27h3v1H12zM20 27h2v1H20zM26 27h5v1H26zM56 27h1v1H56zM69 27h6v1H69zM76 27h2v1H76zM95 27h1v1H95zM98 27h1v1H98zM119 27h3v1H119zM142 27h2v1H142zM146 27h3v1H146zM150 27h4v1H150zM159 27h1v1H159zM178 27h3v1H178zM182 27h3v1H182zM13 28h2v1H13zM20 28h3v1H20zM26 28h5v1H26zM37 28h2v1H37zM56 28h3v1H56zM70 28h1v1H70zM72 28h4v1H72zM94 28h4v1H94zM120 28h1v1H120zM140 28h2v1H140zM148 28h1v1H148zM150 28h3v1H150zM182 28h1v1H182zM184 28h1v1H184zM7 29h2v1H7zM10 29h5v1H10zM19 29h1v1H19zM26 29h8v1H26zM37 29h1v1H37zM56 29h1v1H56zM72 29h5v1H72zM78 29h2v1H78zM95 29h4v1H95zM100 29h1v1H100zM140 29h2v1H140zM151 29h1v1H151zM182 29h3v1H182zM8 30h4v1H8zM13 30h3v1H13zM25 30h11v1H25zM38 30h1v1H38zM72 30h4v1H72zM77 30h3v1H77zM97 30h4v1H97zM138 30h4v1H138zM144 30h1v1H144zM146 30h1v1H146zM182 30h3v1H182zM8 31h7v1H8zM20 31h1v1H20zM24 31h11v1H24zM39 31h1v1H39zM41 31h1v1H41zM46 31h6v1H46zM74 31h4v1H74zM80 31h1v1H80zM95 31h11v1H95zM138 31h4v1H138zM145 31h1v1H145zM179 31h6v1H179zM7 32h6v1H7zM14 32h2v1H14zM22 32h1v1H22zM24 32h8v1H24zM33 32h2v1H33zM39 32h1v1H39zM41 32h2v1H41zM45 32h4v1H45zM50 32h1v1H50zM80 32h1v1H80zM95 32h4v1H95zM101 32h3v1H101zM106 32h1v1H106zM180 32h3v1H180zM184 32h1v1H184zM7 33h6v1H7zM18 33h2v1H18zM21 33h2v1H21zM25 33h6v1H25zM35 33h2v1H35zM39 33h2v1H39zM46 33h6v1H46zM79 33h3v1H79zM94 33h6v1H94zM105 33h2v1H105zM147 33h3v1H147zM180 33h1v1H180zM182 33h3v1H182zM9 34h4v1H9zM19 34h1v1H19zM25 34h5v1H25zM36 34h1v1H36zM40 34h3v1H40zM45 34h1v1H45zM47 34h5v1H47zM55 34h2v1H55zM79 34h1v1H79zM95 34h2v1H95zM106 34h1v1H106zM126 34h1v1H126zM149 34h1v1H149zM184 34h1v1H184zM7 35h1v1H7zM9 35h1v1H9zM11 35h2v1H11zM24 35h5v1H24zM37 35h2v1H37zM40 35h1v1H40zM42 35h1v1H42zM47 35h4v1H47zM52 35h1v1H52zM54 35h2v1H54zM96 35h1v1H96zM7 36h5v1H7zM24 36h4v1H24zM38 36h3v1H38zM48 36h3v1H48zM54 36h2v1H54zM97 36h1v1H97zM108 36h1v1H108zM149 36h1v1H149zM7 37h5v1H7zM24 37h4v1H24zM38 37h1v1H38zM40 37h2v1H40zM55 37h3v1H55zM93 37h2v1H93zM97 37h1v1H97zM107 37h1v1H107zM7 38h4v1H7zM24 38h2v1H24zM27 38h2v1H27zM38 38h1v1H38zM40 38h2v1H40zM54 38h2v1H54zM57 38h2v1H57zM93 38h3v1H93zM106 38h1v1H106zM160 38h1v1H160zM184 38h1v1H184zM7 39h3v1H7zM21 39h9v1H21zM38 39h1v1H38zM40 39h2v1H40zM51 39h5v1H51zM57 39h2v1H57zM93 39h3v1H93zM7 40h3v1H7zM21 40h9v1H21zM38 40h4v1H38zM54 40h2v1H54zM57 40h2v1H57zM78 40h1v1H78zM91 40h4v1H91zM108 40h1v1H108zM184 40h1v1H184zM7 41h2v1H7zM24 41h6v1H24zM39 41h5v1H39zM48 41h4v1H48zM54 41h1v1H54zM56 41h1v1H56zM58 41h1v1H58zM91 41h4v1H91zM184 41h1v1H184zM7 42h3v1H7zM27 42h3v1H27zM39 42h5v1H39zM48 42h6v1H48zM57 42h2v1H57zM91 42h3v1H91zM184 42h1v1H184zM7 43h1v1H7zM9 43h1v1H9zM26 43h4v1H26zM40 43h4v1H40zM46 43h7v1H46zM58 43h3v1H58zM90 43h3v1H90zM95 43h1v1H95zM105 43h1v1H105zM184 43h1v1H184zM7 44h1v1H7zM27 44h1v1H27zM29 44h2v1H29zM40 44h6v1H40zM47 44h3v1H47zM51 44h1v1H51zM59 44h2v1H59zM88 44h1v1H88zM92 44h1v1H92zM184 44h1v1H184zM7 45h2v1H7zM28 45h3v1H28zM41 45h3v1H41zM45 45h1v1H45zM48 45h3v1H48zM59 45h2v1H59zM92 45h2v1H92zM184 45h1v1H184zM7 46h1v1H7zM28 46h1v1H28zM30 46h1v1H30zM42 46h2v1H42zM45 46h1v1H45zM48 46h2v1H48zM59 46h1v1H59zM88 46h3v1H88zM93 46h1v1H93zM103 46h1v1H103zM184 46h1v1H184zM7 47h2v1H7zM27 47h4v1H27zM42 47h1v1H42zM59 47h1v1H59zM75 47h1v1H75zM90 47h2v1H90zM7 48h1v1H7zM18 48h1v1H18zM27 48h6v1H27zM44 48h2v1H44zM86 48h6v1H86zM7 49h2v1H7zM29 49h3v1H29zM46 49h4v1H46zM88 49h2v1H88zM91 49h1v1H91zM7 50h2v1H7zM29 50h3v1H29zM45 50h1v1H45zM48 50h1v1H48zM87 50h3v1H87zM7 51h1v1H7zM31 51h3v1H31zM45 51h1v1H45zM47 51h1v1H47zM84 51h1v1H84zM87 51h2v1H87zM100 51h1v1H100zM184 51h1v1H184zM10 52h3v1H10zM30 52h5v1H30zM77 52h1v1H77zM84 52h1v1H84zM101 52h1v1H101zM184 52h1v1H184zM10 53h3v1H10zM32 53h3v1H32zM72 53h1v1H72zM77 53h4v1H77zM83 53h1v1H83zM101 53h1v1H101zM182 53h3v1H182zM32 54h5v1H32zM58 54h1v1H58zM72 54h2v1H72zM85 54h1v1H85zM101 54h1v1H101zM183 54h2v1H183zM33 55h4v1H33zM53 55h5v1H53zM71 55h3v1H71zM80 55h1v1H80zM97 55h1v1H97zM183 55h2v1H183zM33 56h4v1H33zM53 56h6v1H53zM73 56h1v1H73zM79 56h1v1H79zM82 56h1v1H82zM182 56h3v1H182zM7 57h1v1H7zM34 57h3v1H34zM51 57h1v1H51zM55 57h3v1H55zM80 57h2v1H80zM182 57h3v1H182zM7 58h1v1H7zM37 58h1v1H37zM52 58h4v1H52zM57 58h1v1H57zM75 58h2v1H75zM182 58h3v1H182zM7 59h1v1H7zM39 59h2v1H39zM53 59h3v1H53zM58 59h1v1H58zM76 59h1v1H76zM183 59h2v1H183zM7 60h2v1H7zM37 60h2v1H37zM55 60h1v1H55zM57 60h2v1H57zM74 60h1v1H74zM77 60h1v1H77zM184 60h1v1H184zM7 61h1v1H7zM39 61h1v1H39zM56 61h3v1H56zM73 61h2v1H73zM76 61h1v1H76zM94 61h1v1H94zM183 61h2v1H183zM7 62h1v1H7zM11 62h1v1H11zM38 62h3v1H38zM58 62h1v1H58zM74 62h2v1H74zM93 62h1v1H93zM7 63h1v1H7zM11 63h1v1H11zM38 63h7v1H38zM58 63h2v1H58zM62 63h1v1H62zM74 63h1v1H74zM92 63h2v1H92zM7 64h1v1H7zM39 64h1v1H39zM42 64h4v1H42zM86 64h2v1H86zM7 65h2v1H7zM41 65h5v1H41zM64 65h1v1H64zM69 65h1v1H69zM72 65h1v1H72zM7 66h1v1H7zM42 66h7v1H42zM64 66h4v1H64zM84 66h2v1H84zM41 67h2v1H41zM46 67h3v1H46zM65 67h2v1H65zM69 67h1v1H69zM71 67h1v1H71zM86 67h1v1H86zM184 67h1v1H184zM46 68h5v1H46zM64 68h4v1H64zM47 69h5v1H47zM64 69h2v1H64zM67 69h2v1H67zM82 69h1v1H82zM48 70h4v1H48zM84 70h1v1H84zM21 71h1v1H21zM48 71h6v1H48zM66 71h2v1H66zM79 71h2v1H79zM84 71h1v1H84zM183 71h2v1H183zM7 72h1v1H7zM48 72h7v1H48zM78 72h1v1H78zM164 72h1v1H164zM182 72h3v1H182zM7 73h1v1H7zM46 73h3v1H46zM51 73h4v1H51zM153 73h1v1H153zM181 73h1v1H181zM183 73h2v1H183zM51 74h2v1H51zM54 74h3v1H54zM180 74h5v1H180zM7 75h2v1H7zM10 75h1v1H10zM17 75h1v1H17zM47 75h1v1H47zM50 75h7v1H50zM76 75h4v1H76zM168 75h2v1H168zM179 75h6v1H179zM7 76h1v1H7zM41 76h1v1H41zM55 76h3v1H55zM77 76h2v1H77zM139 76h1v1H139zM176 76h9v1H176zM54 77h3v1H54zM58 77h1v1H58zM182 77h3v1H182zM7 78h1v1H7zM54 78h1v1H54zM57 78h2v1H57zM74 78h2v1H74zM138 78h1v1H138zM177 78h1v1H177zM183 78h2v1H183zM7 79h1v1H7zM54 79h2v1H54zM57 79h5v1H57zM134 79h2v1H134zM138 79h1v1H138zM182 79h3v1H182zM57 80h1v1H57zM60 80h2v1H60zM131 80h2v1H131zM134 80h2v1H134zM182 80h3v1H182zM60 81h1v1H60zM134 81h4v1H134zM139 81h1v1H139zM134 82h1v1H134zM136 82h1v1H136zM75 83h1v1H75zM136 83h1v1H136zM140 83h1v1H140zM184 83h1v1H184zM10 84h1v1H10zM72 84h1v1H72zM75 84h1v1H75zM140 84h1v1H140zM8 85h1v1H8zM10 85h2v1H10zM71 85h1v1H71zM75 85h1v1H75zM183 85h2v1H183zM8 86h1v1H8zM12 86h1v1H12zM75 86h1v1H75zM141 86h1v1H141zM184 86h1v1H184zM7 87h3v1H7zM11 87h1v1H11zM73 87h2v1H73zM134 87h1v1H134zM140 87h2v1H140zM184 87h1v1H184zM7 88h2v1H7zM11 88h1v1H11zM70 88h1v1H70zM72 88h1v1H72zM77 88h1v1H77zM141 88h4v1H141zM183 88h2v1H183zM7 89h3v1H7zM72 89h1v1H72zM141 89h1v1H141zM145 89h1v1H145zM184 89h1v1H184zM7 90h4v1H7zM70 90h5v1H70zM128 90h1v1H128zM143 90h1v1H143zM146 90h1v1H146zM183 90h2v1H183zM7 91h1v1H7zM60 91h1v1H60zM70 91h4v1H70zM144 91h1v1H144zM183 91h2v1H183zM7 92h1v1H7zM60 92h1v1H60zM70 92h3v1H70zM143 92h1v1H143zM147 92h1v1H147zM184 92h1v1H184zM7 93h1v1H7zM9 93h1v1H9zM71 93h1v1H71zM145 93h1v1H145zM147 93h1v1H147zM184 93h1v1H184zM7 94h3v1H7zM70 94h2v1H70zM128 94h2v1H128zM146 94h1v1H146zM184 94h1v1H184zM7 95h1v1H7zM57 95h1v1H57zM184 95h1v1H184zM57 96h1v1H57zM69 96h1v1H69zM132 96h1v1H132zM7 97h1v1H7zM11 97h2v1H11zM56 97h4v1H56zM71 97h1v1H71zM7 98h1v1H7zM56 98h4v1H56zM70 98h3v1H70zM74 98h2v1H74zM122 98h1v1H122zM129 98h2v1H129zM7 99h1v1H7zM57 99h1v1H57zM68 99h5v1H68zM121 99h1v1H121zM128 99h1v1H128zM130 99h1v1H130zM7 100h1v1H7zM55 100h2v1H55zM58 100h2v1H58zM68 100h1v1H68zM71 100h2v1H71zM120 100h2v1H120zM126 100h3v1H126zM131 100h1v1H131zM7 101h1v1H7zM56 101h3v1H56zM70 101h1v1H70zM126 101h1v1H126zM7 102h3v1H7zM56 102h2v1H56zM68 102h1v1H68zM72 102h1v1H72zM82 102h1v1H82zM115 102h1v1H115zM7 103h1v1H7zM56 103h2v1H56zM72 103h2v1H72zM82 103h1v1H82zM86 103h3v1H86zM129 103h1v1H129zM136 103h1v1H136zM184 103h1v1H184zM7 104h1v1H7zM72 104h2v1H72zM80 104h1v1H80zM86 104h1v1H86zM112 104h1v1H112zM184 104h1v1H184zM7 105h1v1H7zM84 105h3v1H84zM90 105h2v1H90zM184 105h1v1H184zM7 106h1v1H7zM68 106h1v1H68zM80 106h1v1H80zM91 106h1v1H91zM184 106h1v1H184zM7 107h1v1H7zM68 107h1v1H68zM78 107h1v1H78zM93 107h2v1H93zM109 107h1v1H109zM134 107h2v1H134zM184 107h1v1H184zM7 108h3v1H7zM56 108h2v1H56zM68 108h1v1H68zM78 108h1v1H78zM134 108h1v1H134zM183 108h2v1H183zM7 109h2v1H7zM56 109h2v1H56zM72 109h2v1H72zM96 109h1v1H96zM135 109h1v1H135zM184 109h1v1H184zM7 110h2v1H7zM55 110h3v1H55zM72 110h2v1H72zM97 110h4v1H97zM105 110h1v1H105zM121 110h1v1H121zM184 110h1v1H184zM55 111h2v1H55zM58 111h1v1H58zM68 111h5v1H68zM98 111h4v1H98zM118 111h1v1H118zM120 111h2v1H120zM135 111h1v1H135zM183 111h2v1H183zM67 112h2v1H67zM98 112h1v1H98zM102 112h1v1H102zM117 112h1v1H117zM120 112h1v1H120zM183 112h2v1H183zM67 113h3v1H67zM99 113h1v1H99zM101 113h5v1H101zM183 113h2v1H183zM67 114h3v1H67zM100 114h3v1H100zM116 114h1v1H116zM184 114h1v1H184zM7 115h1v1H7zM67 115h3v1H67zM83 115h1v1H83zM85 115h2v1H85zM184 115h1v1H184zM67 116h1v1H67zM70 116h1v1H70zM90 116h1v1H90zM102 116h2v1H102zM67 117h3v1H67zM91 117h1v1H91zM101 117h1v1H101zM101 118h1v1H101zM138 118h1v1H138zM184 118h1v1H184zM67 119h1v1H67zM79 119h1v1H79zM184 119h1v1H184zM67 120h1v1H67zM78 120h1v1H78zM92 120h1v1H92zM113 120h1v1H113zM138 120h2v1H138zM184 120h1v1H184zM7 121h1v1H7zM21 121h1v1H21zM78 121h1v1H78zM92 121h2v1H92zM139 121h1v1H139zM91 122h2v1H91zM111 122h2v1H111zM139 122h1v1H139zM111 123h3v1H111zM94 124h1v1H94zM113 124h1v1H113zM130 124h1v1H130zM10 125h1v1H10zM130 125h1v1H130zM184 126h1v1H184zM77 127h1v1H77zM184 127h1v1H184zM79 128h1v1H79zM140 128h1v1H140zM184 128h1v1H184zM73 129h1v1H73zM78 129h1v1H78zM108 130h1v1H108zM143 130h1v1H143zM72 131h1v1H72zM141 131h3v1H141zM184 131h1v1H184zM72 132h1v1H72zM96 132h1v1H96zM143 132h1v1H143zM72 133h1v1H72zM71 134h2v1H71zM130 134h3v1H130zM146 134h1v1H146zM94 135h1v1H94zM131 135h1v1H131zM143 135h4v1H143zM94 136h1v1H94zM143 136h3v1H143zM147 136h1v1H147zM95 137h1v1H95zM143 137h2v1H143zM146 138h1v1H146zM148 138h1v1H148zM41 139h1v1H41zM145 139h2v1H145zM148 139h2v1H148zM146 140h4v1H146zM55 141h1v1H55zM97 141h1v1H97zM148 141h2v1H148zM55 142h2v1H55zM134 142h1v1H134zM147 142h1v1H147zM150 142h1v1H150zM7 143h1v1H7zM56 143h1v1H56zM69 143h1v1H69zM136 143h1v1H136zM150 143h1v1H150zM7 144h1v1H7zM53 144h2v1H53zM56 144h2v1H56zM75 144h1v1H75zM136 144h1v1H136zM152 144h2v1H152zM7 145h1v1H7zM54 145h1v1H54zM56 145h2v1H56zM75 145h1v1H75zM135 145h2v1H135zM7 146h1v1H7zM52 146h1v1H52zM55 146h2v1H55zM71 146h2v1H71zM136 146h2v1H136zM154 146h1v1H154zM184 146h1v1H184zM7 147h1v1H7zM54 147h1v1H54zM56 147h3v1H56zM71 147h2v1H71zM136 147h2v1H136zM139 147h1v1H139zM154 147h1v1H154zM183 147h2v1H183zM7 148h1v1H7zM56 148h3v1H56zM67 148h2v1H67zM72 148h2v1H72zM138 148h1v1H138zM153 148h2v1H153zM184 148h1v1H184zM57 149h2v1H57zM71 149h2v1H71zM183 149h2v1H183zM7 150h1v1H7zM57 150h2v1H57zM68 150h1v1H68zM141 150h1v1H141zM184 150h1v1H184zM7 151h1v1H7zM57 151h3v1H57zM68 151h1v1H68zM145 151h1v1H145zM57 152h3v1H57zM66 152h1v1H66zM139 152h2v1H139zM145 152h1v1H145zM149 152h2v1H149zM44 153h1v1H44zM50 153h2v1H50zM57 153h4v1H57zM62 153h1v1H62zM66 153h1v1H66zM72 153h1v1H72zM57 154h4v1H57zM182 154h2v1H182zM48 155h1v1H48zM60 155h1v1H60zM178 155h1v1H178zM182 155h3v1H182zM7 156h3v1H7zM58 156h1v1H58zM177 156h2v1H177zM181 156h4v1H181zM7 157h4v1H7zM57 157h1v1H57zM160 157h1v1H160zM180 157h5v1H180zM7 158h3v1H7zM178 158h7v1H178zM7 159h1v1H7zM75 159h1v1H75zM169 159h2v1H169zM182 159h3v1H182zM10 160h1v1H10zM12 160h1v1H12zM34 160h1v1H34zM74 160h2v1H74zM183 160h1v1H183zM11 161h1v1H11zM32 161h3v1H32zM38 161h5v1H38zM75 161h1v1H75zM163 161h2v1H163zM179 161h1v1H179zM181 161h1v1H181zM183 161h1v1H183zM8 162h1v1H8zM11 162h2v1H11zM32 162h1v1H32zM36 162h1v1H36zM38 162h5v1H38zM73 162h1v1H73zM75 162h1v1H75zM180 162h2v1H180zM11 163h1v1H11zM38 163h1v1H38zM183 163h1v1H183zM12 164h1v1H12zM160 164h1v1H160zM165 164h1v1H165zM179 164h1v1H179zM11 165h1v1H11zM160 165h1v1H160zM162 165h2v1H162zM165 165h2v1H165zM168 165h1v1H168zM177 165h3v1H177zM11 166h2v1H11zM54 166h1v1H54zM81 166h2v1H81zM162 166h5v1H162zM176 166h5v1H176zM10 167h1v1H10zM13 167h1v1H13zM163 167h1v1H163zM176 167h6v1H176zM175 168h4v1H175zM14 169h2v1H14zM174 169h7v1H174zM13 170h1v1H13zM167 170h2v1H167zM170 170h7v1H170zM179 170h1v1H179zM14 171h1v1H14zM149 171h1v1H149zM166 171h3v1H166zM170 171h2v1H170zM174 171h1v1H174zM176 171h1v1H176zM178 171h1v1H178zM19 172h1v1H19zM166 172h3v1H166zM174 172h1v1H174zM177 172h1v1H177zM16 173h2v1H16zM167 173h1v1H167zM174 173h1v1H174zM176 173h1v1H176zM16 174h1v1H16zM18 174h2v1H18zM76 174h2v1H76zM167 174h1v1H167zM172 174h4v1H172zM20 175h2v1H20zM70 175h1v1H70zM136 175h1v1H136zM167 175h1v1H167zM169 175h1v1H169zM173 175h2v1H173zM18 176h5v1H18zM70 176h1v1H70zM72 176h1v1H72zM74 176h1v1H74zM76 176h2v1H76zM166 176h8v1H166zM21 177h2v1H21zM24 177h1v1H24zM27 177h1v1H27zM76 177h1v1H76zM166 177h3v1H166zM170 177h3v1H170zM23 178h1v1H23zM27 178h1v1H27zM80 178h1v1H80zM166 178h5v1H166zM23 179h2v1H23zM28 179h2v1H28zM33 179h1v1H33zM76 179h1v1H76zM79 179h3v1H79zM137 179h1v1H137zM167 179h3v1H167zM25 180h2v1H25zM29 180h2v1H29zM33 180h1v1H33zM72 180h5v1H72zM78 180h3v1H78zM140 180h2v1H140zM166 180h1v1H166zM28 181h2v1H28zM34 181h2v1H34zM74 181h1v1H74zM76 181h1v1H76zM142 181h1v1H142zM164 181h1v1H164zM33 182h3v1H33zM37 182h7v1H37zM45 182h3v1H45zM49 182h9v1H49zM62 182h7v1H62zM72 182h4v1H72zM77 182h5v1H77zM83 182h4v1H83zM90 182h1v1H90zM93 182h2v1H93zM96 182h1v1H96zM105 182h2v1H105zM114 182h2v1H114zM118 182h3v1H118zM132 182h1v1H132zM134 182h1v1H134zM137 182h1v1H137zM139 182h1v1H139zM141 182h1v1H141zM143 182h8v1H143zM153 182h2v1H153zM158 182h2v1H158z"/>
  <path fill="#082048" d="M29 6h2v1H29zM58 6h2v1H58zM66 6h1v1H66zM84 6h1v1H84zM105 6h1v1H105zM115 6h1v1H115zM122 6h1v1H122zM126 6h1v1H126zM131 6h3v1H131zM162 6h2v1H162zM23 8h1v1H23zM109 8h1v1H109zM122 8h3v1H122zM129 8h2v1H129zM21 9h2v1H21zM82 9h2v1H82zM97 9h1v1H97zM102 9h2v1H102zM106 9h4v1H106zM123 9h1v1H123zM126 9h1v1H126zM128 9h3v1H128zM59 10h1v1H59zM61 10h2v1H61zM66 10h2v1H66zM69 10h1v1H69zM81 10h1v1H81zM83 10h1v1H83zM85 10h1v1H85zM96 10h2v1H96zM99 10h12v1H99zM113 10h1v1H113zM116 10h1v1H116zM123 10h1v1H123zM126 10h5v1H126zM143 10h2v1H143zM161 10h1v1H161zM40 11h4v1H40zM57 11h12v1H57zM80 11h1v1H80zM87 11h3v1H87zM91 11h2v1H91zM95 11h11v1H95zM107 11h3v1H107zM115 11h3v1H115zM121 11h9v1H121zM131 11h1v1H131zM137 11h4v1H137zM142 11h5v1H142zM161 11h1v1H161zM163 11h2v1H163zM16 12h1v1H16zM33 12h13v1H33zM47 12h3v1H47zM57 12h12v1H57zM78 12h3v1H78zM84 12h1v1H84zM86 12h1v1H86zM91 12h1v1H91zM95 12h18v1H95zM115 12h18v1H115zM136 12h1v1H136zM138 12h11v1H138zM152 12h2v1H152zM160 12h5v1H160zM175 12h1v1H175zM33 13h10v1H33zM45 13h1v1H45zM47 13h3v1H47zM55 13h13v1H55zM79 13h3v1H79zM86 13h2v1H86zM91 13h1v1H91zM95 13h17v1H95zM115 13h15v1H115zM131 13h5v1H131zM137 13h11v1H137zM152 13h3v1H152zM161 13h4v1H161zM33 14h8v1H33zM42 14h3v1H42zM48 14h1v1H48zM56 14h12v1H56zM79 14h3v1H79zM85 14h2v1H85zM95 14h18v1H95zM115 14h15v1H115zM132 14h17v1H132zM154 14h1v1H154zM161 14h3v1H161zM34 15h10v1H34zM51 15h5v1H51zM57 15h12v1H57zM70 15h1v1H70zM80 15h2v1H80zM86 15h2v1H86zM89 15h1v1H89zM95 15h9v1H95zM105 15h13v1H105zM119 15h11v1H119zM132 15h17v1H132zM154 15h4v1H154zM159 15h3v1H159zM163 15h1v1H163zM169 15h1v1H169zM178 15h1v1H178zM29 16h2v1H29zM34 16h9v1H34zM51 16h4v1H51zM58 16h14v1H58zM80 16h1v1H80zM85 16h1v1H85zM95 16h19v1H95zM115 16h2v1H115zM122 16h1v1H122zM124 16h3v1H124zM128 16h3v1H128zM132 16h12v1H132zM145 16h1v1H145zM147 16h3v1H147zM154 16h6v1H154zM161 16h4v1H161zM166 16h2v1H166zM169 16h1v1H169zM172 16h1v1H172zM179 16h1v1H179zM25 17h7v1H25zM34 17h5v1H34zM40 17h1v1H40zM42 17h2v1H42zM50 17h4v1H50zM58 17h3v1H58zM62 17h4v1H62zM68 17h6v1H68zM83 17h3v1H83zM87 17h1v1H87zM94 17h14v1H94zM109 17h8v1H109zM120 17h3v1H120zM125 17h7v1H125zM133 17h8v1H133zM143 17h6v1H143zM153 17h1v1H153zM155 17h6v1H155zM164 17h11v1H164zM19 18h13v1H19zM34 18h6v1H34zM42 18h1v1H42zM50 18h4v1H50zM62 18h4v1H62zM67 18h9v1H67zM79 18h1v1H79zM83 18h1v1H83zM85 18h2v1H85zM94 18h23v1H94zM119 18h11v1H119zM131 18h18v1H131zM150 18h11v1H150zM162 18h1v1H162zM164 18h4v1H164zM169 18h6v1H169zM180 18h1v1H180zM19 19h5v1H19zM25 19h5v1H25zM34 19h5v1H34zM41 19h5v1H41zM48 19h4v1H48zM53 19h1v1H53zM59 19h21v1H59zM85 19h3v1H85zM95 19h22v1H95zM119 19h42v1H119zM162 19h1v1H162zM164 19h12v1H164zM23 20h5v1H23zM33 20h9v1H33zM43 20h2v1H43zM47 20h1v1H47zM49 20h5v1H49zM58 20h23v1H58zM85 20h4v1H85zM91 20h25v1H91zM117 20h51v1H117zM169 20h9v1H169zM23 21h5v1H23zM32 21h15v1H32zM49 21h2v1H49zM53 21h1v1H53zM58 21h12v1H58zM71 21h1v1H71zM73 21h3v1H73zM77 21h4v1H77zM85 21h2v1H85zM88 21h1v1H88zM91 21h31v1H91zM124 21h14v1H124zM139 21h25v1H139zM165 21h2v1H165zM169 21h9v1H169zM182 21h1v1H182zM16 22h1v1H16zM19 22h1v1H19zM23 22h6v1H23zM31 22h7v1H31zM39 22h13v1H39zM53 22h1v1H53zM57 22h13v1H57zM74 22h2v1H74zM77 22h3v1H77zM81 22h6v1H81zM89 22h32v1H89zM123 22h14v1H123zM141 22h21v1H141zM163 22h1v1H163zM165 22h1v1H165zM167 22h10v1H167zM181 22h2v1H181zM16 23h6v1H16zM23 23h3v1H23zM27 23h24v1H27zM52 23h1v1H52zM55 23h16v1H55zM76 23h4v1H76zM81 23h6v1H81zM88 23h4v1H88zM94 23h27v1H94zM123 23h12v1H123zM141 23h5v1H141zM150 23h5v1H150zM156 23h2v1H156zM162 23h2v1H162zM166 23h11v1H166zM180 23h3v1H180zM15 24h4v1H15zM20 24h1v1H20zM22 24h6v1H22zM29 24h42v1H29zM78 24h2v1H78zM83 24h10v1H83zM95 24h23v1H95zM120 24h1v1H120zM123 24h12v1H123zM141 24h4v1H141zM151 24h2v1H151zM161 24h1v1H161zM164 24h13v1H164zM180 24h2v1H180zM15 25h5v1H15zM21 25h7v1H21zM32 25h20v1H32zM54 25h18v1H54zM82 25h12v1H82zM95 25h4v1H95zM100 25h15v1H100zM122 25h14v1H122zM139 25h1v1H139zM142 25h4v1H142zM151 25h1v1H151zM162 25h1v1H162zM165 25h13v1H165zM183 25h1v1H183zM15 26h5v1H15zM22 26h4v1H22zM27 26h1v1H27zM32 26h20v1H32zM53 26h15v1H53zM78 26h16v1H78zM96 26h3v1H96zM100 26h14v1H100zM117 26h1v1H117zM122 26h19v1H122zM146 26h1v1H146zM155 26h4v1H155zM163 26h1v1H163zM165 26h13v1H165zM7 27h1v1H7zM15 27h5v1H15zM22 27h4v1H22zM32 27h24v1H32zM57 27h12v1H57zM78 27h17v1H78zM96 27h2v1H96zM99 27h14v1H99zM114 27h5v1H114zM122 27h20v1H122zM144 27h2v1H144zM154 27h5v1H154zM160 27h18v1H160zM181 27h1v1H181zM15 28h5v1H15zM23 28h3v1H23zM33 28h4v1H33zM39 28h17v1H39zM59 28h11v1H59zM71 28h1v1H71zM76 28h18v1H76zM98 28h21v1H98zM121 28h19v1H121zM142 28h6v1H142zM153 28h29v1H153zM15 29h4v1H15zM20 29h6v1H20zM34 29h3v1H34zM38 29h18v1H38zM57 29h15v1H57zM77 29h1v1H77zM80 29h15v1H80zM101 29h15v1H101zM117 29h23v1H117zM142 29h9v1H142zM152 29h30v1H152zM7 30h1v1H7zM12 30h1v1H12zM16 30h9v1H16zM39 30h33v1H39zM76 30h1v1H76zM80 30h17v1H80zM101 30h15v1H101zM117 30h21v1H117zM142 30h2v1H142zM145 30h1v1H145zM147 30h35v1H147zM7 31h1v1H7zM15 31h5v1H15zM21 31h3v1H21zM40 31h1v1H40zM42 31h4v1H42zM52 31h22v1H52zM78 31h2v1H78zM81 31h14v1H81zM106 31h32v1H106zM142 31h3v1H142zM146 31h33v1H146zM13 32h1v1H13zM16 32h6v1H16zM23 32h1v1H23zM32 32h1v1H32zM43 32h2v1H43zM49 32h1v1H49zM51 32h29v1H51zM81 32h14v1H81zM99 32h2v1H99zM104 32h2v1H104zM107 32h73v1H107zM13 33h5v1H13zM20 33h1v1H20zM23 33h2v1H23zM41 33h5v1H41zM52 33h27v1H52zM82 33h12v1H82zM104 33h1v1H104zM107 33h40v1H107zM150 33h30v1H150zM181 33h1v1H181zM13 34h6v1H13zM20 34h5v1H20zM43 34h2v1H43zM46 34h1v1H46zM53 34h2v1H53zM57 34h22v1H57zM81 34h14v1H81zM97 34h2v1H97zM107 34h19v1H107zM127 34h22v1H127zM150 34h34v1H150zM13 35h11v1H13zM43 35h4v1H43zM51 35h1v1H51zM53 35h1v1H53zM56 35h23v1H56zM80 35h16v1H80zM106 35h1v1H106zM109 35h76v1H109zM12 36h12v1H12zM28 36h1v1H28zM37 36h1v1H37zM43 36h5v1H43zM51 36h3v1H51zM56 36h23v1H56zM80 36h17v1H80zM106 36h1v1H106zM109 36h1v1H109zM111 36h38v1H111zM150 36h35v1H150zM12 37h12v1H12zM28 37h1v1H28zM42 37h13v1H42zM58 37h35v1H58zM95 37h2v1H95zM108 37h77v1H108zM11 38h13v1H11zM42 38h12v1H42zM59 38h34v1H59zM96 38h1v1H96zM107 38h53v1H107zM161 38h23v1H161zM10 39h11v1H10zM42 39h9v1H42zM59 39h34v1H59zM96 39h1v1H96zM106 39h77v1H106zM10 40h11v1H10zM42 40h10v1H42zM59 40h19v1H59zM79 40h12v1H79zM95 40h2v1H95zM105 40h3v1H105zM109 40h75v1H109zM9 41h15v1H9zM44 41h4v1H44zM52 41h1v1H52zM59 41h32v1H59zM95 41h1v1H95zM105 41h79v1H105zM10 42h17v1H10zM45 42h3v1H45zM56 42h1v1H56zM59 42h32v1H59zM95 42h1v1H95zM105 42h79v1H105zM8 43h1v1H8zM10 43h16v1H10zM30 43h1v1H30zM61 43h29v1H61zM93 43h2v1H93zM104 43h1v1H104zM106 43h78v1H106zM8 44h19v1H8zM28 44h1v1H28zM58 44h1v1H58zM61 44h21v1H61zM83 44h5v1H83zM89 44h3v1H89zM93 44h2v1H93zM104 44h79v1H104zM9 45h19v1H9zM61 45h31v1H61zM104 45h80v1H104zM8 46h20v1H8zM31 46h1v1H31zM50 46h1v1H50zM60 46h28v1H60zM91 46h2v1H91zM104 46h80v1H104zM9 47h18v1H9zM31 47h1v1H31zM50 47h1v1H50zM60 47h15v1H60zM76 47h13v1H76zM92 47h1v1H92zM103 47h82v1H103zM8 48h10v1H8zM19 48h8v1H19zM58 48h28v1H58zM102 48h83v1H102zM9 49h20v1H9zM32 49h1v1H32zM57 49h27v1H57zM86 49h1v1H86zM90 49h1v1H90zM102 49h83v1H102zM9 50h20v1H9zM32 50h2v1H32zM57 50h1v1H57zM59 50h25v1H59zM85 50h1v1H85zM101 50h84v1H101zM8 51h23v1H8zM34 51h1v1H34zM56 51h28v1H56zM86 51h1v1H86zM101 51h83v1H101zM7 52h3v1H7zM13 52h17v1H13zM55 52h22v1H55zM78 52h4v1H78zM85 52h3v1H85zM100 52h1v1H100zM102 52h81v1H102zM7 53h3v1H7zM13 53h19v1H13zM35 53h1v1H35zM55 53h17v1H55zM73 53h4v1H73zM84 53h3v1H84zM99 53h2v1H99zM102 53h80v1H102zM7 54h25v1H7zM54 54h4v1H54zM59 54h13v1H59zM74 54h5v1H74zM83 54h2v1H83zM98 54h3v1H98zM102 54h81v1H102zM7 55h25v1H7zM58 55h13v1H58zM74 55h5v1H74zM83 55h1v1H83zM98 55h85v1H98zM7 56h26v1H7zM37 56h1v1H37zM52 56h1v1H52zM59 56h14v1H59zM74 56h5v1H74zM80 56h2v1H80zM96 56h86v1H96zM8 57h26v1H8zM37 57h2v1H37zM58 57h22v1H58zM95 57h87v1H95zM8 58h29v1H8zM38 58h2v1H38zM58 58h17v1H58zM77 58h3v1H77zM94 58h88v1H94zM8 59h31v1H8zM59 59h16v1H59zM77 59h2v1H77zM93 59h90v1H93zM9 60h28v1H9zM39 60h3v1H39zM59 60h15v1H59zM92 60h91v1H92zM8 61h31v1H8zM40 61h3v1H40zM59 61h14v1H59zM75 61h1v1H75zM90 61h4v1H90zM95 61h88v1H95zM8 62h3v1H8zM12 62h26v1H12zM41 62h3v1H41zM57 62h1v1H57zM59 62h15v1H59zM89 62h4v1H89zM94 62h91v1H94zM8 63h3v1H8zM12 63h26v1H12zM60 63h2v1H60zM63 63h7v1H63zM71 63h3v1H71zM87 63h5v1H87zM94 63h91v1H94zM8 64h31v1H8zM46 64h1v1H46zM59 64h10v1H59zM72 64h2v1H72zM88 64h33v1H88zM122 64h63v1H122zM9 65h31v1H9zM46 65h2v1H46zM60 65h3v1H60zM65 65h3v1H65zM71 65h1v1H71zM85 65h100v1H85zM8 66h33v1H8zM61 66h3v1H61zM71 66h1v1H71zM86 66h99v1H86zM7 67h34v1H7zM43 67h3v1H43zM62 67h3v1H62zM67 67h2v1H67zM83 67h3v1H83zM87 67h97v1H87zM7 68h39v1H7zM63 68h1v1H63zM68 68h3v1H68zM83 68h102v1H83zM7 69h40v1H7zM66 69h1v1H66zM69 69h1v1H69zM81 69h1v1H81zM83 69h42v1H83zM128 69h57v1H128zM7 70h41v1H7zM65 70h2v1H65zM80 70h4v1H80zM85 70h39v1H85zM126 70h59v1H126zM7 71h14v1H7zM22 71h26v1H22zM68 71h1v1H68zM81 71h3v1H81zM85 71h98v1H85zM8 72h40v1H8zM79 72h85v1H79zM165 72h10v1H165zM176 72h6v1H176zM8 73h35v1H8zM44 73h2v1H44zM55 73h1v1H55zM78 73h75v1H78zM154 73h27v1H154zM7 74h35v1H7zM43 74h4v1H43zM77 74h76v1H77zM154 74h26v1H154zM9 75h1v1H9zM11 75h6v1H11zM18 75h29v1H18zM48 75h1v1H48zM57 75h1v1H57zM80 75h88v1H80zM170 75h9v1H170zM8 76h33v1H8zM43 76h9v1H43zM54 76h1v1H54zM58 76h1v1H58zM79 76h60v1H79zM140 76h36v1H140zM7 77h46v1H7zM59 77h1v1H59zM75 77h1v1H75zM77 77h37v1H77zM115 77h21v1H115zM137 77h1v1H137zM140 77h37v1H140zM178 77h4v1H178zM8 78h27v1H8zM36 78h18v1H36zM59 78h2v1H59zM77 78h60v1H77zM139 78h38v1H139zM178 78h5v1H178zM8 79h46v1H8zM56 79h1v1H56zM74 79h60v1H74zM139 79h43v1H139zM7 80h50v1H7zM58 80h2v1H58zM62 80h1v1H62zM73 80h58v1H73zM133 80h1v1H133zM136 80h46v1H136zM7 81h53v1H7zM61 81h3v1H61zM73 81h61v1H73zM138 81h1v1H138zM140 81h45v1H140zM7 82h56v1H7zM72 82h62v1H72zM135 82h1v1H135zM139 82h46v1H139zM7 83h56v1H7zM72 83h3v1H72zM77 83h57v1H77zM135 83h1v1H135zM139 83h1v1H139zM142 83h42v1H142zM7 84h3v1H7zM11 84h15v1H11zM27 84h36v1H27zM73 84h2v1H73zM76 84h57v1H76zM134 84h2v1H134zM141 84h43v1H141zM9 85h1v1H9zM12 85h50v1H12zM72 85h3v1H72zM76 85h60v1H76zM140 85h43v1H140zM9 86h3v1H9zM13 86h4v1H13zM18 86h44v1H18zM71 86h4v1H71zM76 86h59v1H76zM140 86h1v1H140zM144 86h39v1H144zM10 87h1v1H10zM12 87h50v1H12zM70 87h3v1H70zM75 87h58v1H75zM144 87h40v1H144zM12 88h50v1H12zM71 88h1v1H71zM73 88h4v1H73zM78 88h56v1H78zM145 88h38v1H145zM13 89h48v1H13zM73 89h56v1H73zM131 89h2v1H131zM142 89h2v1H142zM146 89h38v1H146zM11 90h50v1H11zM75 90h53v1H75zM129 90h1v1H129zM141 90h1v1H141zM147 90h36v1H147zM8 91h25v1H8zM34 91h26v1H34zM69 91h1v1H69zM74 91h53v1H74zM145 91h38v1H145zM8 92h52v1H8zM69 92h1v1H69zM73 92h54v1H73zM144 92h3v1H144zM148 92h36v1H148zM8 93h1v1H8zM10 93h50v1H10zM69 93h2v1H69zM72 93h57v1H72zM146 93h1v1H146zM148 93h36v1H148zM10 94h50v1H10zM72 94h56v1H72zM130 94h1v1H130zM147 94h37v1H147zM8 95h49v1H8zM58 95h2v1H58zM70 95h62v1H70zM144 95h40v1H144zM7 96h50v1H7zM58 96h2v1H58zM70 96h55v1H70zM126 96h6v1H126zM142 96h43v1H142zM8 97h3v1H8zM13 97h43v1H13zM68 97h3v1H68zM72 97h61v1H72zM139 97h46v1H139zM8 98h48v1H8zM68 98h2v1H68zM73 98h1v1H73zM76 98h46v1H76zM123 98h6v1H123zM131 98h2v1H131zM138 98h47v1H138zM8 99h47v1H8zM73 99h48v1H73zM122 99h6v1H122zM131 99h2v1H131zM138 99h47v1H138zM8 100h47v1H8zM73 100h47v1H73zM122 100h4v1H122zM129 100h2v1H129zM132 100h1v1H132zM137 100h48v1H137zM8 101h48v1H8zM71 101h48v1H71zM127 101h3v1H127zM136 101h10v1H136zM147 101h38v1H147zM10 102h46v1H10zM58 102h1v1H58zM69 102h3v1H69zM73 102h9v1H73zM83 102h32v1H83zM128 102h4v1H128zM136 102h49v1H136zM8 103h48v1H8zM58 103h1v1H58zM68 103h4v1H68zM74 103h8v1H74zM83 103h3v1H83zM89 103h25v1H89zM130 103h1v1H130zM137 103h47v1H137zM8 104h51v1H8zM67 104h5v1H67zM74 104h6v1H74zM82 104h4v1H82zM87 104h25v1H87zM135 104h49v1H135zM8 105h51v1H8zM67 105h13v1H67zM81 105h3v1H81zM87 105h3v1H87zM92 105h20v1H92zM135 105h49v1H135zM8 106h51v1H8zM69 106h11v1H69zM81 106h2v1H81zM92 106h19v1H92zM135 106h49v1H135zM8 107h51v1H8zM69 107h9v1H69zM79 107h1v1H79zM95 107h14v1H95zM136 107h48v1H136zM10 108h46v1H10zM58 108h1v1H58zM67 108h1v1H67zM69 108h9v1H69zM95 108h14v1H95zM135 108h48v1H135zM9 109h47v1H9zM58 109h1v1H58zM67 109h5v1H67zM74 109h3v1H74zM97 109h11v1H97zM134 109h1v1H134zM136 109h47v1H136zM9 110h46v1H9zM58 110h1v1H58zM67 110h5v1H67zM74 110h2v1H74zM101 110h4v1H101zM106 110h2v1H106zM119 110h2v1H119zM122 110h2v1H122zM136 110h47v1H136zM7 111h48v1H7zM57 111h1v1H57zM67 111h1v1H67zM73 111h2v1H73zM102 111h5v1H102zM119 111h1v1H119zM122 111h3v1H122zM136 111h41v1H136zM178 111h5v1H178zM7 112h52v1H7zM69 112h5v1H69zM103 112h4v1H103zM118 112h2v1H118zM121 112h5v1H121zM136 112h20v1H136zM157 112h26v1H157zM7 113h52v1H7zM70 113h3v1H70zM116 113h11v1H116zM136 113h47v1H136zM7 114h52v1H7zM70 114h2v1H70zM103 114h2v1H103zM115 114h1v1H115zM117 114h10v1H117zM136 114h48v1H136zM8 115h51v1H8zM70 115h2v1H70zM84 115h1v1H84zM87 115h2v1H87zM102 115h3v1H102zM114 115h14v1H114zM137 115h47v1H137zM7 116h52v1H7zM82 116h8v1H82zM101 116h1v1H101zM114 116h14v1H114zM137 116h48v1H137zM7 117h52v1H7zM81 117h10v1H81zM114 117h14v1H114zM137 117h48v1H137zM7 118h52v1H7zM67 118h3v1H67zM81 118h11v1H81zM102 118h2v1H102zM113 118h16v1H113zM139 118h45v1H139zM7 119h52v1H7zM68 119h1v1H68zM81 119h12v1H81zM102 119h1v1H102zM112 119h17v1H112zM138 119h46v1H138zM7 120h52v1H7zM79 120h13v1H79zM112 120h1v1H112zM114 120h15v1H114zM140 120h44v1H140zM8 121h13v1H8zM22 121h37v1H22zM67 121h1v1H67zM79 121h13v1H79zM111 121h19v1H111zM138 121h1v1H138zM140 121h45v1H140zM7 122h52v1H7zM77 122h14v1H77zM93 122h1v1H93zM113 122h17v1H113zM140 122h45v1H140zM7 123h52v1H7zM76 123h18v1H76zM110 123h1v1H110zM114 123h16v1H114zM139 123h46v1H139zM7 124h52v1H7zM76 124h18v1H76zM110 124h3v1H110zM114 124h16v1H114zM139 124h46v1H139zM7 125h3v1H7zM11 125h48v1H11zM75 125h20v1H75zM110 125h20v1H110zM140 125h45v1H140zM7 126h52v1H7zM75 126h20v1H75zM109 126h22v1H109zM140 126h44v1H140zM7 127h52v1H7zM74 127h3v1H74zM78 127h17v1H78zM109 127h22v1H109zM140 127h44v1H140zM7 128h52v1H7zM74 128h5v1H74zM80 128h16v1H80zM109 128h23v1H109zM141 128h43v1H141zM7 129h52v1H7zM75 129h3v1H75zM79 129h17v1H79zM108 129h24v1H108zM141 129h44v1H141zM7 130h52v1H7zM73 130h23v1H73zM109 130h23v1H109zM141 130h2v1H141zM144 130h41v1H144zM7 131h52v1H7zM73 131h23v1H73zM108 131h25v1H108zM144 131h40v1H144zM7 132h52v1H7zM73 132h23v1H73zM108 132h25v1H108zM144 132h41v1H144zM7 133h52v1H7zM73 133h24v1H73zM107 133h26v1H107zM142 133h43v1H142zM7 134h52v1H7zM73 134h24v1H73zM107 134h23v1H107zM142 134h4v1H142zM147 134h38v1H147zM7 135h52v1H7zM71 135h23v1H71zM95 135h2v1H95zM107 135h24v1H107zM132 135h2v1H132zM147 135h36v1H147zM184 135h1v1H184zM7 136h52v1H7zM71 136h23v1H71zM95 136h2v1H95zM107 136h27v1H107zM146 136h1v1H146zM148 136h35v1H148zM184 136h1v1H184zM7 137h52v1H7zM70 137h25v1H70zM96 137h1v1H96zM106 137h28v1H106zM145 137h2v1H145zM149 137h36v1H149zM7 138h52v1H7zM71 138h26v1H71zM106 138h29v1H106zM144 138h2v1H144zM149 138h36v1H149zM7 139h34v1H7zM42 139h17v1H42zM70 139h27v1H70zM106 139h29v1H106zM144 139h1v1H144zM150 139h35v1H150zM7 140h52v1H7zM69 140h29v1H69zM106 140h29v1H106zM150 140h35v1H150zM7 141h48v1H7zM56 141h3v1H56zM69 141h28v1H69zM106 141h30v1H106zM146 141h2v1H146zM150 141h35v1H150zM7 142h48v1H7zM57 142h2v1H57zM69 142h29v1H69zM105 142h29v1H105zM135 142h1v1H135zM148 142h2v1H148zM151 142h34v1H151zM8 143h47v1H8zM57 143h2v1H57zM70 143h29v1H70zM104 143h32v1H104zM148 143h1v1H148zM151 143h34v1H151zM8 144h45v1H8zM55 144h1v1H55zM58 144h1v1H58zM70 144h5v1H70zM76 144h60v1H76zM151 144h1v1H151zM154 144h31v1H154zM8 145h34v1H8zM43 145h11v1H43zM58 145h1v1H58zM70 145h5v1H70zM76 145h59v1H76zM137 145h1v1H137zM153 145h2v1H153zM156 145h29v1H156zM8 146h34v1H8zM43 146h9v1H43zM53 146h2v1H53zM57 146h2v1H57zM69 146h2v1H69zM73 146h63v1H73zM138 146h1v1H138zM153 146h1v1H153zM156 146h28v1H156zM8 147h46v1H8zM55 147h1v1H55zM68 147h3v1H68zM73 147h63v1H73zM138 147h1v1H138zM153 147h1v1H153zM155 147h1v1H155zM157 147h26v1H157zM8 148h48v1H8zM69 148h1v1H69zM74 148h64v1H74zM139 148h2v1H139zM155 148h29v1H155zM7 149h50v1H7zM69 149h2v1H69zM73 149h69v1H73zM153 149h30v1H153zM8 150h49v1H8zM67 150h1v1H67zM69 150h72v1H69zM142 150h1v1H142zM153 150h31v1H153zM8 151h49v1H8zM66 151h2v1H66zM69 151h76v1H69zM151 151h34v1H151zM7 152h50v1H7zM60 152h2v1H60zM64 152h2v1H64zM67 152h72v1H67zM141 152h4v1H141zM146 152h3v1H146zM151 152h34v1H151zM7 153h37v1H7zM45 153h3v1H45zM52 153h5v1H52zM61 153h1v1H61zM63 153h3v1H63zM67 153h5v1H67zM73 153h112v1H73zM7 154h40v1H7zM51 154h6v1H51zM61 154h121v1H61zM184 154h1v1H184zM7 155h40v1H7zM49 155h11v1H49zM61 155h99v1H61zM161 155h16v1H161zM179 155h3v1H179zM10 156h48v1H10zM59 156h101v1H59zM162 156h15v1H162zM179 156h2v1H179zM11 157h46v1H11zM58 157h102v1H58zM161 157h19v1H161zM10 158h168v1H10zM10 159h65v1H10zM76 159h93v1H76zM171 159h11v1H171zM11 160h1v1H11zM13 160h21v1H13zM35 160h39v1H35zM76 160h38v1H76zM115 160h68v1H115zM184 160h1v1H184zM12 161h20v1H12zM35 161h3v1H35zM43 161h32v1H43zM76 161h87v1H76zM165 161h14v1H165zM180 161h1v1H180zM182 161h1v1H182zM13 162h19v1H13zM33 162h3v1H33zM37 162h1v1H37zM43 162h30v1H43zM74 162h1v1H74zM76 162h104v1H76zM182 162h2v1H182zM8 163h1v1H8zM12 163h26v1H12zM39 163h109v1H39zM149 163h14v1H149zM164 163h1v1H164zM166 163h17v1H166zM13 164h147v1H13zM161 164h2v1H161zM166 164h13v1H166zM180 164h3v1H180zM12 165h72v1H12zM85 165h75v1H85zM161 165h1v1H161zM169 165h8v1H169zM180 165h3v1H180zM10 166h1v1H10zM13 166h41v1H13zM55 166h26v1H55zM83 166h2v1H83zM86 166h76v1H86zM167 166h9v1H167zM181 166h1v1H181zM14 167h149v1H14zM164 167h12v1H164zM14 168h161v1H14zM12 169h2v1H12zM16 169h157v1H16zM12 170h1v1H12zM15 170h152v1H15zM169 170h1v1H169zM15 171h28v1H15zM44 171h105v1H44zM150 171h16v1H150zM169 171h1v1H169zM172 171h2v1H172zM14 172h5v1H14zM20 172h146v1H20zM169 172h5v1H169zM15 173h1v1H15zM18 173h149v1H18zM168 173h6v1H168zM177 173h1v1H177zM17 174h1v1H17zM20 174h56v1H20zM78 174h89v1H78zM168 174h4v1H168zM176 174h1v1H176zM17 175h1v1H17zM22 175h48v1H22zM71 175h65v1H71zM137 175h30v1H137zM168 175h1v1H168zM170 175h3v1H170zM23 176h47v1H23zM73 176h1v1H73zM75 176h1v1H75zM78 176h88v1H78zM19 177h2v1H19zM23 177h1v1H23zM28 177h48v1H28zM78 177h88v1H78zM21 178h2v1H21zM28 178h49v1H28zM78 178h2v1H78zM81 178h77v1H81zM160 178h2v1H160zM163 178h2v1H163zM30 179h3v1H30zM34 179h34v1H34zM69 179h7v1H69zM77 179h2v1H77zM84 179h53v1H84zM138 179h20v1H138zM160 179h2v1H160zM164 179h3v1H164zM27 180h1v1H27zM31 180h2v1H31zM35 180h34v1H35zM70 180h2v1H70zM84 180h56v1H84zM142 180h21v1H142zM165 180h1v1H165zM27 181h1v1H27zM30 181h4v1H30zM36 181h38v1H36zM75 181h1v1H75zM77 181h4v1H77zM82 181h60v1H82zM143 181h21v1H143zM32 182h1v1H32zM48 182h1v1H48zM58 182h4v1H58zM69 182h3v1H69zM87 182h3v1H87zM91 182h2v1H91zM98 182h7v1H98zM107 182h7v1H107zM116 182h2v1H116zM121 182h11v1H121zM133 182h1v1H133zM135 182h2v1H135zM138 182h1v1H138zM140 182h1v1H140zM155 182h3v1H155z"/>
  <path fill="#102040" d="M31 33h1v1H31zM37 37h1v1H37zM96 41h1v1H96zM57 43h1v1H57zM125 101h1v1H125zM90 106h1v1H90zM68 120h1v1H68zM62 152h1v1H62z"/>
  <path fill="#082050" d="M141 96h1v1H141zM89 115h1v1H89z"/>
  <path fill="#102048" d="M22 8h1v1H22zM171 9h1v1H171zM174 11h1v1H174zM15 13h1v1H15zM10 19h1v1H10zM9 21h1v1H9zM184 26h1v1H184zM94 45h1v1H94zM43 49h1v1H43zM90 50h1v1H90zM89 51h1v1H89zM37 55h1v1H37zM54 60h1v1H54zM55 61h1v1H55zM45 63h1v1H45zM75 76h1v1H75zM185 78h1v1H185zM130 90h1v1H130zM68 95h1v1H68zM134 106h1v1H134zM94 108h1v1H94zM108 109h1v1H108zM121 109h1v1H121zM104 116h1v1H104zM142 135h1v1H142zM70 136h1v1H70zM68 143h1v1H68zM137 144h1v1H137zM59 150h1v1H59zM11 169h1v1H11zM175 175h1v1H175z"/>
  <path fill="#102050" d="M85 114h1v1H85z"/>
  <path fill="#102848" d="M13 15h1v1H13zM39 43h1v1H39zM185 43h1v1H185zM185 44h1v1H185zM185 45h1v1H185zM84 55h1v1H84zM80 58h1v1H80zM79 59h1v1H79zM185 59h1v1H185zM185 60h1v1H185zM72 66h1v1H72zM185 72h1v1H185zM77 73h1v1H77zM185 73h1v1H185zM185 74h1v1H185zM185 75h1v1H185zM185 76h1v1H185zM185 77h1v1H185zM185 79h1v1H185zM185 88h1v1H185zM60 93h1v1H60zM185 93h1v1H185zM67 103h1v1H67zM122 109h1v1H122zM124 110h1v1H124zM134 110h1v1H134zM97 111h1v1H97zM72 114h1v1H72zM128 117h1v1H128zM95 127h1v1H95zM141 132h1v1H141zM97 139h1v1H97zM135 140h1v1H135zM185 147h1v1H185zM152 150h1v1H152zM178 172h1v1H178zM167 180h1v1H167z"/>
  <path fill="#182840" d="M69 70h1v1H69zM102 121h1v1H102z"/>
  <path fill="#102850" d="M164 6h1v1H164zM185 33h1v1H185zM185 34h1v1H185zM185 35h1v1H185zM185 36h1v1H185zM185 37h1v1H185zM185 38h1v1H185zM185 39h1v1H185zM185 40h1v1H185zM185 41h1v1H185zM185 42h1v1H185zM185 46h1v1H185zM185 47h1v1H185zM185 48h1v1H185zM185 49h1v1H185zM185 50h1v1H185zM185 51h1v1H185zM185 52h1v1H185zM185 53h1v1H185zM185 54h1v1H185zM185 55h1v1H185zM185 56h1v1H185zM185 57h1v1H185zM185 58h1v1H185zM91 60h1v1H91zM185 61h1v1H185zM185 62h1v1H185zM185 63h1v1H185zM185 64h1v1H185zM185 65h1v1H185zM185 66h1v1H185zM185 67h1v1H185zM185 68h1v1H185zM185 69h1v1H185zM185 70h1v1H185zM185 71h1v1H185zM185 80h1v1H185zM185 81h1v1H185zM185 82h1v1H185zM185 83h1v1H185zM136 84h1v1H136zM185 84h1v1H185zM185 85h1v1H185zM185 86h1v1H185zM185 87h1v1H185zM185 89h1v1H185zM185 90h1v1H185zM185 91h1v1H185zM185 92h1v1H185zM185 94h1v1H185zM185 95h1v1H185zM185 96h1v1H185zM185 97h1v1H185zM185 98h1v1H185zM133 99h1v1H133zM137 99h1v1H137zM185 99h1v1H185zM185 100h1v1H185zM185 101h1v1H185zM185 102h1v1H185zM185 103h1v1H185zM185 104h1v1H185zM185 105h1v1H185zM185 106h1v1H185zM185 107h1v1H185zM185 108h1v1H185zM185 109h1v1H185zM185 110h1v1H185zM185 111h1v1H185zM135 112h1v1H135zM185 112h1v1H185zM185 113h1v1H185zM185 114h1v1H185zM185 115h1v1H185zM100 116h1v1H100zM185 116h1v1H185zM185 117h1v1H185zM185 118h1v1H185zM185 119h1v1H185zM185 120h1v1H185zM185 121h1v1H185zM185 122h1v1H185zM185 123h1v1H185zM185 124h1v1H185zM185 125h1v1H185zM185 126h1v1H185zM185 127h1v1H185zM185 128h1v1H185zM185 129h1v1H185zM185 130h1v1H185zM185 131h1v1H185zM185 132h1v1H185zM185 133h1v1H185zM185 134h1v1H185zM185 135h1v1H185zM185 136h1v1H185zM185 137h1v1H185zM185 138h1v1H185zM185 139h1v1H185zM185 140h1v1H185zM185 141h1v1H185zM136 142h1v1H136zM185 142h1v1H185zM185 143h1v1H185zM185 144h1v1H185zM185 145h1v1H185zM185 146h1v1H185zM185 148h1v1H185zM185 149h1v1H185zM143 150h1v1H143zM185 150h1v1H185zM185 151h1v1H185zM185 152h1v1H185zM185 153h1v1H185zM182 166h1v1H182zM22 179h1v1H22z"/>
  <path fill="#182848" d="M51 45h1v1H51zM50 48h1v1H50zM38 56h1v1H38zM56 62h1v1H56zM81 68h1v1H81zM80 107h1v1H80zM96 110h1v1H96zM105 114h1v1H105zM96 131h1v1H96z"/>
  <path fill="#182850" d="M185 32h1v1H185zM40 45h1v1H40zM54 53h1v1H54zM44 62h1v1H44zM71 84h1v1H71zM114 103h1v1H114zM99 114h1v1H99zM63 152h1v1H63zM181 168h1v1H181zM15 174h1v1H15z"/>
  <path fill="#183050" d="M167 7h1v1H167zM20 9h1v1H20zM12 16h1v1H12zM8 23h1v1H8zM29 38h1v1H29zM97 38h1v1H97zM92 48h1v1H92zM62 85h1v1H62zM139 86h1v1H139zM143 95h1v1H143zM116 102h1v1H116zM77 109h1v1H77zM117 111h1v1H117zM129 120h1v1H129zM131 127h1v1H131zM14 173h1v1H14zM16 175h1v1H16zM171 178h1v1H171zM160 182h1v1H160z"/>
  <path fill="#203050" d="M17 11h1v1H17zM103 33h1v1H103zM38 41h1v1H38zM42 48h1v1H42zM88 52h1v1H88zM39 57h1v1H39zM41 59h1v1H41zM42 60h1v1H42zM78 60h1v1H78zM43 61h1v1H43zM83 66h1v1H83zM82 67h1v1H82zM137 82h1v1H137zM135 86h1v1H135zM127 91h1v1H127zM59 101h1v1H59zM132 102h1v1H132zM133 108h1v1H133zM95 109h1v1H95zM76 110h1v1H76zM125 111h1v1H125zM116 112h1v1H116zM136 115h1v1H136zM70 117h1v1H70zM130 123h1v1H130zM71 133h1v1H71zM145 141h1v1H145zM146 142h1v1H146zM60 151h1v1H60zM183 164h1v1H183zM24 180h1v1H24z"/>
  <path fill="#203058" d="M27 6h1v1H27zM127 102h1v1H127zM185 154h1v1H185zM179 171h1v1H179zM174 176h1v1H174zM31 182h1v1H31z"/>
  <path fill="#203850" d="M40 58h1v1H40zM57 63h1v1H57zM59 76h1v1H59zM61 89h1v1H61zM94 123h1v1H94zM97 138h1v1H97z"/>
  <path fill="#203858" d="M24 7h1v1H24zM100 33h1v1H100zM67 122h1v1H67zM13 172h1v1H13z"/>
  <path fill="#283850" d="M105 35h1v1H105zM29 36h1v1H29zM101 49h1v1H101zM49 50h1v1H49zM88 62h1v1H88zM73 65h1v1H73zM61 78h1v1H61zM145 94h1v1H145zM67 102h1v1H67zM135 103h1v1H135zM83 106h1v1H83zM73 113h1v1H73zM139 125h1v1H139zM133 134h1v1H133zM134 137h1v1H134zM69 139h1v1H69zM138 145h1v1H138zM67 147h1v1H67z"/>
  <path fill="#283858" d="M180 17h1v1H180zM185 31h1v1H185zM57 48h1v1H57zM58 64h1v1H58zM80 69h1v1H80zM140 96h1v1H140zM131 103h1v1H131zM112 118h1v1H112zM140 129h1v1H140zM107 132h1v1H107z"/>
  <path fill="#284050" d="M63 82h1v1H63z"/>
  <path fill="#303850" d="M109 108h1v1H109zM118 110h1v1H118z"/>
  <path fill="#283860" d="M7 160h1v1H7z"/>
  <path fill="#284058" d="M30 34h1v1H30zM93 47h1v1H93zM60 77h1v1H60zM133 98h1v1H133z"/>
  <path fill="#303858" d="M137 118h1v1H137z"/>
  <path fill="#304050" d="M48 51h1v1H48z"/>
  <path fill="#284060" d="M173 10h1v1H173zM20 178h1v1H20z"/>
  <path fill="#304058" d="M34 33h1v1H34zM30 42h1v1H30zM31 45h1v1H31zM33 49h1v1H33zM56 50h1v1H56zM47 52h1v1H47zM99 52h1v1H99zM87 53h1v1H87zM53 54h1v1H53zM83 56h1v1H83zM92 59h1v1H92zM77 61h1v1H77zM74 64h1v1H74zM59 65h1v1H59zM57 74h1v1H57zM76 74h1v1H76zM58 75h1v1H58zM69 90h1v1H69zM141 91h1v1H141zM144 93h1v1H144zM119 101h1v1H119zM75 111h1v1H75zM74 112h1v1H74zM115 113h1v1H115zM88 114h1v1H88zM113 116h1v1H113zM80 117h1v1H80zM77 121h1v1H77zM106 136h1v1H106zM98 142h1v1H98zM99 143h1v1H99zM150 144h1v1H150z"/>
  <path fill="#304060" d="M7 26h1v1H7zM133 100h1v1H133zM66 150h1v1H66zM185 155h1v1H185zM184 161h1v1H184z"/>
  <path fill="#384058" d="M76 62h1v1H76zM84 65h1v1H84zM72 81h1v1H72zM59 102h1v1H59zM74 126h1v1H74z"/>
  <path fill="#304860" d="M120 109h1v1H120z"/>
  <path fill="#384060" d="M92 107h1v1H92z"/>
  <path fill="#384858" d="M93 120h1v1H93zM132 130h1v1H132zM142 149h1v1H142zM65 151h1v1H65z"/>
  <path fill="#304868" d="M9 166h1v1H9zM165 181h1v1H165z"/>
  <path fill="#384860" d="M98 35h1v1H98zM37 38h1v1H37zM105 39h1v1H105zM103 45h1v1H103zM55 72h1v1H55zM60 94h1v1H60zM113 104h1v1H113zM73 128h1v1H73zM108 128h1v1H108z"/>
  <path fill="#404858" d="M129 93h1v1H129zM107 111h1v1H107z"/>
  <path fill="#384868" d="M35 5h7v1H35zM43 5h3v1H43zM51 5h2v1H51zM54 5h2v1H54zM62 5h1v1H62zM65 5h2v1H65zM71 5h2v1H71zM76 5h3v1H76zM88 5h1v1H88zM90 5h8v1H90zM101 5h5v1H101zM109 5h3v1H109zM116 5h3v1H116zM122 5h3v1H122zM128 5h1v1H128zM135 5h3v1H135zM140 5h2v1H140zM146 5h2v1H146zM150 5h1v1H150zM153 5h3v1H153zM10 168h1v1H10zM17 176h1v1H17z"/>
  <path fill="#404860" d="M32 47h1v1H32zM35 52h1v1H35zM60 66h1v1H60zM56 73h1v1H56zM62 79h1v1H62zM68 94h1v1H68zM67 101h1v1H67zM124 101h1v1H124zM81 116h1v1H81zM111 120h1v1H111zM97 137h1v1H97z"/>
  <path fill="#385068" d="M42 5h1v1H42zM49 5h1v1H49zM56 5h1v1H56zM73 5h2v1H73zM89 5h1v1H89zM106 5h1v1H106zM121 5h1v1H121zM129 5h1v1H129zM134 5h1v1H134zM139 5h1v1H139zM185 30h1v1H185z"/>
  <path fill="#404868" d="M79 5h1v1H79zM142 5h1v1H142z"/>
  <path fill="#405060" d="M29 37h1v1H29zM102 47h1v1H102zM75 63h1v1H75zM70 69h1v1H70zM79 70h1v1H79zM68 72h1v1H68zM73 79h1v1H73zM139 87h1v1H139zM127 92h1v1H127zM92 118h1v1H92zM109 125h1v1H109zM72 130h1v1H72zM105 141h1v1H105z"/>
  <path fill="#385070" d="M125 5h1v1H125z"/>
  <path fill="#405068" d="M46 5h3v1H46zM50 5h1v1H50zM53 5h1v1H53zM57 5h5v1H57zM64 5h1v1H64zM67 5h4v1H67zM75 5h1v1H75zM80 5h4v1H80zM87 5h1v1H87zM98 5h3v1H98zM107 5h2v1H107zM112 5h1v1H112zM119 5h2v1H119zM127 5h1v1H127zM130 5h1v1H130zM138 5h1v1H138zM143 5h3v1H143zM149 5h1v1H149zM151 5h2v1H151zM156 5h1v1H156z"/>
  <path fill="#485060" d="M64 70h1v1H64zM110 107h1v1H110zM96 130h1v1H96zM146 151h1v1H146z"/>
  <path fill="#405070" d="M34 5h1v1H34zM63 5h1v1H63zM84 5h3v1H84zM113 5h3v1H113zM126 5h1v1H126zM131 5h3v1H131zM148 5h1v1H148zM157 5h1v1H157zM18 10h1v1H18zM11 17h1v1H11zM184 25h1v1H184zM12 171h1v1H12zM161 182h1v1H161z"/>
  <path fill="#485068" d="M61 67h1v1H61zM101 119h1v1H101zM143 138h1v1H143z"/>
  <path fill="#485860" d="M98 53h1v1H98z"/>
  <path fill="#485070" d="M6 33h1v1H6zM185 156h1v1H185zM173 177h1v1H173z"/>
  <path fill="#485868" d="M85 64h1v1H85zM59 103h1v1H59zM138 122h1v1H138zM68 142h1v1H68z"/>
  <path fill="#505860" d="M54 71h1v1H54zM66 72h1v1H66zM89 106h1v1H89z"/>
  <path fill="#485870" d="M33 5h1v1H33zM182 20h1v1H182zM6 34h1v1H6zM6 35h1v1H6zM6 36h1v1H6zM6 37h1v1H6zM6 39h1v1H6zM6 40h1v1H6zM6 41h1v1H6zM6 44h1v1H6zM6 45h1v1H6zM6 46h1v1H6zM6 47h1v1H6zM6 57h1v1H6zM6 58h1v1H6zM6 59h1v1H6zM6 60h1v1H6zM6 61h1v1H6zM6 64h1v1H6zM6 65h1v1H6zM6 79h1v1H6zM6 94h1v1H6zM6 96h1v1H6zM6 103h1v1H6zM6 104h1v1H6zM6 105h1v1H6zM6 106h1v1H6zM6 107h1v1H6zM6 108h1v1H6zM6 109h1v1H6zM6 110h1v1H6zM6 115h1v1H6zM6 121h1v1H6zM6 132h1v1H6zM6 139h1v1H6zM6 140h1v1H6zM6 143h1v1H6zM6 144h1v1H6zM6 145h1v1H6zM6 146h1v1H6zM6 147h1v1H6zM6 148h1v1H6zM6 152h1v1H6zM26 181h1v1H26zM30 182h1v1H30z"/>
  <path fill="#505868" d="M32 33h1v1H32zM104 34h1v1H104zM104 42h1v1H104zM41 47h1v1H41zM62 68h1v1H62zM63 69h1v1H63zM74 77h1v1H74zM70 86h1v1H70zM142 95h1v1H142zM79 108h1v1H79zM126 112h1v1H126zM98 113h1v1H98zM84 114h1v1H84zM127 114h1v1H127zM103 119h1v1H103zM75 124h1v1H75zM95 126h1v1H95zM141 133h1v1H141zM147 143h1v1H147zM152 146h1v1H152z"/>
  <path fill="#585860" d="M102 33h1v1H102z"/>
  <path fill="#485878" d="M158 5h1v1H158zM183 22h1v1H183zM6 38h1v1H6zM6 42h1v1H6zM6 43h1v1H6zM6 48h1v1H6zM6 49h1v1H6zM6 50h1v1H6zM6 51h1v1H6zM6 52h1v1H6zM6 53h1v1H6zM6 54h1v1H6zM6 55h1v1H6zM6 56h1v1H6zM6 62h1v1H6zM6 63h1v1H6zM6 66h1v1H6zM6 67h1v1H6zM6 68h1v1H6zM6 69h1v1H6zM6 70h1v1H6zM6 71h1v1H6zM6 72h1v1H6zM6 73h1v1H6zM6 74h1v1H6zM6 75h1v1H6zM6 76h1v1H6zM6 77h1v1H6zM6 78h1v1H6zM6 80h1v1H6zM6 81h1v1H6zM6 82h1v1H6zM6 83h1v1H6zM6 84h1v1H6zM6 85h1v1H6zM6 86h1v1H6zM6 87h1v1H6zM6 88h1v1H6zM6 89h1v1H6zM6 90h1v1H6zM6 91h1v1H6zM6 92h1v1H6zM6 93h1v1H6zM6 95h1v1H6zM6 97h1v1H6zM6 98h1v1H6zM6 99h1v1H6zM6 100h1v1H6zM6 101h1v1H6zM6 102h1v1H6zM6 111h1v1H6zM6 112h1v1H6zM6 113h1v1H6zM6 114h1v1H6zM6 116h1v1H6zM6 117h1v1H6zM6 120h1v1H6zM6 122h1v1H6zM6 123h1v1H6zM6 124h1v1H6zM6 125h1v1H6zM6 126h1v1H6zM6 127h1v1H6zM6 128h1v1H6zM6 129h1v1H6zM6 130h1v1H6zM6 131h1v1H6zM6 133h1v1H6zM6 134h1v1H6zM6 135h1v1H6zM6 136h1v1H6zM6 137h1v1H6zM6 138h1v1H6zM6 141h1v1H6zM6 142h1v1H6zM6 149h1v1H6zM6 150h1v1H6zM6 151h1v1H6zM6 153h1v1H6z"/>
  <path fill="#506068" d="M97 39h1v1H97zM89 61h1v1H89zM63 80h1v1H63zM67 100h1v1H67zM131 126h1v1H131z"/>
  <path fill="#585868" d="M136 100h1v1H136z"/>
  <path fill="#586060" d="M142 92h1v1H142z"/>
  <path fill="#505878" d="M6 118h1v1H6zM6 119h1v1H6z"/>
  <path fill="#586068" d="M36 35h1v1H36zM95 44h1v1H95zM53 70h1v1H53zM140 90h1v1H140zM110 122h1v1H110zM144 140h1v1H144zM67 146h1v1H67z"/>
  <path fill="#506078" d="M32 5h1v1H32zM159 5h1v1H159zM6 32h1v1H6z"/>
  <path fill="#586070" d="M101 33h1v1H101zM52 55h1v1H52zM65 71h1v1H65zM111 106h1v1H111zM123 109h1v1H123zM97 136h1v1H97z"/>
  <path fill="#606068" d="M50 49h1v1H50zM120 101h1v1H120zM84 106h1v1H84z"/>
  <path fill="#506080" d="M8 164h1v1H8z"/>
  <path fill="#606070" d="M138 82h1v1H138zM62 86h1v1H62zM59 104h1v1H59zM112 105h1v1H112zM79 118h1v1H79zM70 135h1v1H70zM142 136h1v1H142zM139 146h1v1H139z"/>
  <path fill="#586080" d="M165 6h1v1H165zM170 8h1v1H170zM180 170h1v1H180z"/>
  <path fill="#606870" d="M33 33h1v1H33zM96 42h1v1H96zM82 57h1v1H82zM93 58h1v1H93zM52 69h1v1H52zM71 83h1v1H71zM61 90h1v1H61zM131 90h1v1H131zM60 95h1v1H60zM134 105h1v1H134zM135 113h1v1H135zM82 115h1v1H82zM69 119h1v1H69zM129 119h1v1H129zM139 126h1v1H139zM107 131h1v1H107zM135 139h1v1H135zM59 149h1v1H59z"/>
  <path fill="#586880" d="M185 29h1v1H185zM6 154h1v1H6z"/>
  <path fill="#686870" d="M99 34h1v1H99zM86 54h1v1H86zM67 73h1v1H67zM71 116h1v1H71zM104 117h1v1H104zM106 135h1v1H106zM152 149h1v1H152z"/>
  <path fill="#687070" d="M105 38h1v1H105zM51 46h1v1H51zM78 71h1v1H78zM128 91h1v1H128zM59 105h1v1H59zM133 133h1v1H133zM69 138h1v1H69z"/>
  <path fill="#607080" d="M7 161h1v1H7z"/>
  <path fill="#687078" d="M123 101h1v1H123zM100 117h1v1H100z"/>
  <path fill="#707070" d="M94 46h1v1H94zM51 68h1v1H51zM134 88h1v1H134zM69 89h1v1H69zM140 130h1v1H140zM103 143h1v1H103zM140 147h1v1H140z"/>
  <path fill="#607088" d="M31 5h1v1H31zM160 5h1v1H160zM181 18h1v1H181zM6 31h1v1H6zM185 157h1v1H185zM170 179h1v1H170z"/>
  <path fill="#707078" d="M30 41h1v1H30zM36 53h1v1H36zM51 56h1v1H51zM133 97h1v1H133zM67 99h1v1H67zM81 107h1v1H81zM106 113h1v1H106zM90 115h1v1H90zM128 116h1v1H128zM137 119h1v1H137zM130 122h1v1H130zM71 132h1v1H71zM141 148h1v1H141z"/>
  <path fill="#687088" d="M26 6h1v1H26zM168 180h1v1H168z"/>
  <path fill="#707878" d="M97 54h1v1H97zM136 85h1v1H136zM114 114h1v1H114zM94 122h1v1H94z"/>
  <path fill="#787870" d="M139 88h1v1H139zM68 121h1v1H68z"/>
  <path fill="#687090" d="M6 155h1v1H6z"/>
  <path fill="#787878" d="M53 43h1v1H53zM39 44h1v1H39zM55 51h1v1H55zM63 83h1v1H63zM68 93h1v1H68zM121 101h2v1H121zM128 103h1v1H128zM134 111h1v1H134zM99 115h1v1H99zM136 116h1v1H136zM76 122h1v1H76zM97 135h1v1H97zM137 143h1v1H137zM149 144h1v1H149zM151 145h1v1H151zM150 151h1v1H150z"/>
  <path fill="#687890" d="M168 7h1v1H168zM7 25h1v1H7zM18 177h1v1H18zM162 182h1v1H162z"/>
  <path fill="#787880" d="M37 39h1v1H37zM105 140h1v1H105z"/>
  <path fill="#707890" d="M9 20h1v1H9zM184 162h1v1H184z"/>
  <path fill="#788080" d="M105 36h1v1H105zM86 63h1v1H86zM135 102h1v1H135zM59 106h1v1H59zM105 115h1v1H105z"/>
  <path fill="#808078" d="M71 68h1v1H71zM133 101h1v1H133zM88 106h1v1H88zM91 116h1v1H91zM132 129h1v1H132z"/>
  <path fill="#708090" d="M21 8h1v1H21z"/>
  <path fill="#808080" d="M38 42h1v1H38zM52 44h1v1H52zM100 50h1v1H100zM50 67h1v1H50zM75 75h1v1H75zM137 83h1v1H137zM130 104h1v1H130zM59 107h1v1H59zM133 107h1v1H133zM133 109h1v1H133zM96 129h1v1H96zM134 136h1v1H134zM136 141h1v1H136zM144 150h1v1H144z"/>
  <path fill="#888080" d="M45 52h1v1H45zM115 103h1v1H115zM85 106h1v1H85zM108 127h1v1H108z"/>
  <path fill="#788098" d="M177 13h1v1H177zM6 30h1v1H6zM6 156h1v1H6zM23 180h1v1H23zM29 182h1v1H29z"/>
  <path fill="#888880" d="M31 44h1v1H31zM34 50h1v1H34zM96 55h1v1H96zM95 56h1v1H95zM94 57h1v1H94zM49 66h1v1H49zM133 89h1v1H133zM132 95h1v1H132zM60 96h1v1H60zM117 102h1v1H117zM119 109h1v1H119zM78 119h1v1H78zM67 123h1v1H67zM67 145h1v1H67z"/>
  <path fill="#788898" d="M161 5h1v1H161zM172 9h1v1H172z"/>
  <path fill="#888888" d="M35 34h1v1H35zM138 97h1v1H138z"/>
  <path fill="#908880" d="M57 44h1v1H57zM67 98h1v1H67zM93 108h1v1H93z"/>
  <path fill="#7888a0" d="M182 167h1v1H182z"/>
  <path fill="#808898" d="M8 22h1v1H8z"/>
  <path fill="#908888" d="M105 37h1v1H105zM59 108h1v1H59zM108 110h1v1H108zM95 125h1v1H95zM68 141h1v1H68z"/>
  <path fill="#909080" d="M137 98h1v1H137zM147 151h1v1H147z"/>
  <path fill="#8088a0" d="M23 7h1v1H23zM178 14h1v1H178zM185 28h1v1H185zM11 170h1v1H11z"/>
  <path fill="#909088" d="M103 44h1v1H103zM44 51h1v1H44zM138 123h1v1H138zM109 124h1v1H109zM131 125h1v1H131z"/>
  <path fill="#989080" d="M51 58h1v1H51zM126 102h1v1H126z"/>
  <path fill="#8090a0" d="M30 5h1v1H30zM176 12h1v1H176zM183 165h1v1H183zM21 179h1v1H21z"/>
  <path fill="#909090" d="M131 94h1v1H131z"/>
  <path fill="#989088" d="M56 43h1v1H56zM57 47h1v1H57zM46 53h1v1H46zM81 58h1v1H81zM48 65h1v1H48zM69 71h1v1H69zM61 91h1v1H61zM87 106h1v1H87zM59 109h1v1H59zM112 117h1v1H112zM97 134h1v1H97zM59 144h1v1H59zM59 148h1v1H59z"/>
  <path fill="#8890a0" d="M184 24h1v1H184zM185 158h1v1H185z"/>
  <path fill="#989090" d="M101 120h1v1H101z"/>
  <path fill="#989888" d="M90 60h1v1H90zM77 72h1v1H77zM86 106h1v1H86z"/>
  <path fill="#a09088" d="M59 147h1v1H59z"/>
  <path fill="#989890" d="M97 40h1v1H97zM47 64h1v1H47zM62 87h1v1H62z"/>
  <path fill="#a09888" d="M98 36h1v1H98zM40 46h1v1H40zM37 54h1v1H37zM59 110h1v1H59zM59 111h1v1H59zM59 112h1v1H59zM59 113h1v1H59zM59 114h1v1H59zM59 115h1v1H59zM59 118h1v1H59zM59 119h1v1H59zM59 120h1v1H59zM59 121h1v1H59zM59 122h1v1H59zM59 123h1v1H59zM59 124h1v1H59zM59 125h1v1H59zM59 126h1v1H59zM59 127h1v1H59zM59 129h1v1H59zM59 130h1v1H59zM107 130h1v1H107zM59 131h1v1H59zM59 132h1v1H59zM59 133h1v1H59zM59 134h1v1H59zM141 134h1v1H141zM59 135h1v1H59zM59 136h1v1H59zM59 137h1v1H59zM59 138h1v1H59zM59 139h1v1H59zM105 139h1v1H105zM59 140h1v1H59zM59 141h1v1H59zM59 142h1v1H59zM59 143h1v1H59zM59 145h1v1H59zM59 146h1v1H59zM152 148h1v1H152z"/>
  <path fill="#a09890" d="M104 41h1v1H104zM52 59h1v1H52zM138 83h1v1H138zM70 85h1v1H70zM91 107h1v1H91zM78 109h1v1H78zM97 112h1v1H97zM89 114h1v1H89zM59 116h1v1H59zM59 117h1v1H59zM139 127h1v1H139zM59 128h1v1H59zM106 134h1v1H106zM152 147h1v1H152z"/>
  <path fill="#a89888" d="M103 120h1v1H103z"/>
  <path fill="#9098a8" d="M10 18h1v1H10zM166 181h1v1H166z"/>
  <path fill="#a0a090" d="M85 55h1v1H85zM100 143h1v1H100z"/>
  <path fill="#9098b0" d="M6 29h1v1H6z"/>
  <path fill="#a8a090" d="M30 40h1v1H30zM101 48h1v1H101zM56 49h1v1H56zM43 50h1v1H43zM53 60h1v1H53zM46 63h1v1H46zM135 87h1v1H135zM69 88h1v1H69zM141 95h1v1H141zM60 97h1v1H60zM72 115h1v1H72zM111 119h1v1H111zM102 122h1v1H102zM73 127h1v1H73zM133 132h1v1H133zM104 142h1v1H104zM66 149h1v1H66z"/>
  <path fill="#90a0b0" d="M19 9h1v1H19z"/>
  <path fill="#a8a098" d="M61 151h1v1H61z"/>
  <path fill="#b0a090" d="M33 48h1v1H33zM68 92h1v1H68zM67 97h1v1H67zM129 104h1v1H129zM129 118h1v1H129zM69 137h1v1H69z"/>
  <path fill="#98a0b0" d="M175 11h1v1H175zM6 157h1v1H6zM172 178h1v1H172z"/>
  <path fill="#b0a890" d="M91 50h1v1H91zM90 51h1v1H90zM66 115h1v1H66zM93 119h1v1H93zM66 123h1v1H66zM98 141h1v1H98z"/>
  <path fill="#a0a0b0" d="M163 182h1v1H163z"/>
  <path fill="#b0a898" d="M54 52h1v1H54zM50 57h1v1H50zM54 61h1v1H54zM72 67h1v1H72zM72 80h1v1H72zM129 91h1v1H129zM66 110h1v1H66zM66 111h1v1H66zM66 112h1v1H66zM66 113h1v1H66zM66 114h1v1H66zM66 116h1v1H66zM66 117h1v1H66zM66 118h1v1H66zM66 119h1v1H66zM66 120h1v1H66zM137 120h1v1H137zM66 121h1v1H66zM66 122h1v1H66zM140 131h1v1H140zM70 134h1v1H70z"/>
  <path fill="#b8a898" d="M73 78h1v1H73zM66 109h1v1H66z"/>
  <path fill="#b8b090" d="M70 118h1v1H70z"/>
  <path fill="#a0a8b8" d="M162 5h1v1H162zM179 15h1v1H179zM7 162h1v1H7zM177 174h1v1H177zM25 181h1v1H25z"/>
  <path fill="#b8b098" d="M37 40h1v1H37zM32 46h1v1H32zM51 47h1v1H51zM92 49h1v1H92zM139 96h1v1H139zM83 114h1v1H83zM135 114h1v1H135zM130 121h1v1H130zM72 129h1v1H72zM97 133h1v1H97z"/>
  <path fill="#b8b0a0" d="M128 92h1v1H128z"/>
  <path fill="#c0b098" d="M102 46h1v1H102zM45 62h1v1H45zM55 62h1v1H55zM87 62h1v1H87zM71 82h1v1H71zM138 84h1v1H138zM66 108h1v1H66zM127 113h1v1H127zM77 120h1v1H77zM74 125h1v1H74zM96 128h1v1H96zM132 128h1v1H132zM135 138h1v1H135zM67 144h1v1H67z"/>
  <path fill="#a8b0b8" d="M166 6h1v1H166zM14 13h1v1H14zM181 169h1v1H181z"/>
  <path fill="#c0b0a0" d="M30 35h1v1H30zM89 52h1v1H89zM143 93h1v1H143zM110 121h1v1H110zM143 139h1v1H143zM151 150h1v1H151z"/>
  <path fill="#c0b898" d="M99 51h1v1H99zM60 98h1v1H60z"/>
  <path fill="#a8b0c0" d="M29 5h1v1H29zM9 167h1v1H9zM178 173h1v1H178zM176 175h1v1H176zM28 182h1v1H28z"/>
  <path fill="#c0b8a0" d="M38 55h1v1H38zM80 59h1v1H80zM63 84h1v1H63zM134 104h1v1H134zM92 117h1v1H92zM105 138h1v1H105zM102 143h1v1H102zM149 151h1v1H149z"/>
  <path fill="#b0b0c0" d="M15 12h1v1H15zM13 14h1v1H13z"/>
  <path fill="#c8b8a0" d="M36 36h1v1H36zM39 56h1v1H39zM79 60h1v1H79zM139 89h1v1H139zM82 107h1v1H82zM94 109h1v1H94zM109 109h1v1H109zM125 110h1v1H125zM96 111h1v1H96zM73 114h1v1H73zM113 115h1v1H113zM94 121h1v1H94zM66 124h1v1H66zM142 137h1v1H142zM138 144h1v1H138zM148 144h1v1H148zM148 151h1v1H148z"/>
  <path fill="#d0b898" d="M130 93h1v1H130z"/>
  <path fill="#b0b8c0" d="M7 24h1v1H7zM185 159h1v1H185zM19 178h1v1H19z"/>
  <path fill="#c8c0a0" d="M42 49h1v1H42zM116 111h1v1H116zM64 151h1v1H64z"/>
  <path fill="#d0b8a0" d="M64 81h1v1H64z"/>
  <path fill="#d0c0a0" d="M98 37h1v1H98zM35 51h1v1H35zM84 56h1v1H84zM43 60h1v1H43zM44 61h1v1H44zM73 66h1v1H73zM82 66h1v1H82zM81 67h1v1H81zM80 68h1v1H80zM68 73h1v1H68zM76 73h1v1H76zM132 90h1v1H132zM61 92h1v1H61zM144 94h1v1H144zM67 96h1v1H67zM133 96h1v1H133zM66 107h1v1H66zM124 109h1v1H124zM107 112h1v1H107zM136 117h1v1H136zM75 123h1v1H75zM95 124h1v1H95zM131 124h1v1H131zM71 131h1v1H71zM134 135h1v1H134zM60 150h1v1H60z"/>
  <path fill="#b8b8c8" d="M185 27h1v1H185z"/>
  <path fill="#d0c0a8" d="M95 45h1v1H95zM56 63h1v1H56zM77 110h1v1H77zM95 110h1v1H95zM86 113h1v1H86zM101 143h1v1H101z"/>
  <path fill="#d8c0a0" d="M41 58h1v1H41zM62 88h1v1H62zM115 112h1v1H115zM100 118h1v1H100zM143 149h1v1H143z"/>
  <path fill="#b8c0c8" d="M25 6h1v1H25zM16 11h1v1H16zM6 28h1v1H6zM6 158h1v1H6zM184 163h1v1H184zM8 165h1v1H8z"/>
  <path fill="#d0c8a8" d="M135 101h1v1H135z"/>
  <path fill="#d8c0a8" d="M68 140h1v1H68z"/>
  <path fill="#d8c8a0" d="M50 50h1v1H50zM53 53h1v1H53zM126 111h1v1H126z"/>
  <path fill="#b8c0d0" d="M180 16h1v1H180z"/>
  <path fill="#d0c8b0" d="M145 142h1v1H145z"/>
  <path fill="#d8c8a8" d="M30 39h1v1H30zM54 43h1v1H54zM96 43h1v1H96zM93 48h1v1H93zM88 53h1v1H88zM91 59h1v1H91zM60 76h1v1H60zM136 99h1v1H136zM132 103h1v1H132zM66 106h1v1H66zM117 110h1v1H117zM128 115h1v1H128zM104 118h1v1H104zM69 120h1v1H69zM138 124h1v1H138zM139 128h1v1H139zM146 143h1v1H146z"/>
  <path fill="#e0c8a0" d="M61 77h1v1H61zM144 141h1v1H144z"/>
  <path fill="#c0c0d0" d="M183 21h1v1H183zM175 176h1v1H175z"/>
  <path fill="#e0c8a8" d="M31 34h1v1H31zM31 43h1v1H31zM40 57h1v1H40zM42 59h1v1H42zM58 65h1v1H58zM83 65h1v1H83zM59 75h1v1H59zM138 85h1v1H138zM114 104h1v1H114zM76 111h1v1H76zM105 116h1v1H105zM107 129h1v1H107zM106 133h1v1H106zM145 150h1v1H145z"/>
  <path fill="#c0c8d0" d="M182 19h1v1H182z"/>
  <path fill="#e0d0a8" d="M97 41h1v1H97zM103 43h1v1H103zM41 48h1v1H41zM49 51h1v1H49zM48 52h1v1H48zM47 53h1v1H47zM78 61h1v1H78zM77 62h1v1H77zM57 64h1v1H57zM74 65h1v1H74zM70 70h1v1H70zM57 73h1v1H57zM58 74h1v1H58zM74 76h1v1H74zM62 78h1v1H62zM137 84h1v1H137zM60 99h1v1H60zM118 102h1v1H118zM74 113h1v1H74zM87 113h1v1H87zM80 116h1v1H80zM99 116h1v1H99zM101 121h1v1H101zM108 126h1v1H108zM133 131h1v1H133zM97 132h1v1H97z"/>
  <path fill="#c8c8d0" d="M15 175h1v1H15zM35 183h2v1H35zM53 183h1v1H53zM95 183h3v1H95zM100 183h1v1H100zM141 183h2v1H141zM148 183h2v1H148zM152 183h1v1H152z"/>
  <path fill="#e0d0b0" d="M39 45h1v1H39zM57 45h1v1H57zM57 46h1v1H57zM79 69h1v1H79zM80 108h1v1H80zM75 112h1v1H75zM98 114h1v1H98zM109 123h1v1H109z"/>
  <path fill="#e8d0a8" d="M94 47h1v1H94zM136 86h1v1H136zM141 92h1v1H141zM125 102h1v1H125zM106 114h1v1H106zM67 124h1v1H67zM137 142h1v1H137z"/>
  <path fill="#c8c8d8" d="M37 183h2v1H37zM41 183h1v1H41zM43 183h4v1H43zM48 183h1v1H48zM51 183h2v1H51zM54 183h1v1H54zM57 183h2v1H57zM65 183h2v1H65zM70 183h1v1H70zM73 183h1v1H73zM78 183h1v1H78zM80 183h1v1H80zM83 183h1v1H83zM85 183h1v1H85zM87 183h2v1H87zM90 183h2v1H90zM98 183h2v1H98zM101 183h2v1H101zM104 183h2v1H104zM107 183h2v1H107zM110 183h1v1H110zM112 183h4v1H112zM119 183h2v1H119zM124 183h2v1H124zM131 183h2v1H131zM134 183h1v1H134zM137 183h4v1H137zM147 183h1v1H147zM151 183h1v1H151zM153 183h2v1H153z"/>
  <path fill="#e8d0b0" d="M38 43h1v1H38zM55 43h1v1H55zM56 72h1v1H56zM69 87h1v1H69zM68 91h1v1H68zM66 105h1v1H66zM141 135h1v1H141zM136 140h1v1H136zM66 148h1v1H66z"/>
  <path fill="#c8d0d8" d="M12 15h1v1H12zM179 172h1v1H179zM13 173h1v1H13zM14 174h1v1H14zM39 183h2v1H39zM42 183h1v1H42zM47 183h1v1H47zM49 183h2v1H49zM55 183h2v1H55zM59 183h6v1H59zM67 183h3v1H67zM71 183h2v1H71zM74 183h4v1H74zM79 183h1v1H79zM81 183h2v1H81zM84 183h1v1H84zM86 183h1v1H86zM89 183h1v1H89zM92 183h3v1H92zM103 183h1v1H103zM106 183h1v1H106zM109 183h1v1H109zM111 183h1v1H111zM116 183h3v1H116zM121 183h3v1H121zM126 183h5v1H126zM133 183h1v1H133zM135 183h2v1H135zM143 183h4v1H143zM150 183h1v1H150zM155 183h2v1H155z"/>
  <path fill="#e8d8b0" d="M104 40h1v1H104zM98 52h1v1H98zM52 54h1v1H52zM88 61h1v1H88zM75 64h1v1H75zM60 67h1v1H60zM133 102h1v1H133zM116 103h1v1H116zM133 106h1v1H133zM90 107h1v1H90zM133 110h1v1H133zM134 112h1v1H134zM71 117h1v1H71zM105 137h1v1H105zM99 142h1v1H99zM65 150h1v1H65z"/>
  <path fill="#d0d0d8" d="M163 5h1v1H163zM169 7h1v1H169zM174 10h1v1H174zM10 169h1v1H10zM169 180h1v1H169zM34 183h1v1H34zM157 183h1v1H157z"/>
  <path fill="#f0d8b0" d="M104 35h1v1H104zM36 37h1v1H36zM52 45h1v1H52zM55 50h1v1H55zM87 54h1v1H87zM83 57h1v1H83zM92 58h1v1H92zM76 63h1v1H76zM84 64h1v1H84zM59 66h1v1H59zM62 69h1v1H62zM71 69h1v1H71zM63 70h1v1H63zM55 71h1v1H55zM63 79h1v1H63zM70 84h1v1H70zM131 104h1v1H131zM113 105h1v1H113zM111 107h1v1H111zM110 108h1v1H110zM118 109h1v1H118zM114 113h1v1H114zM81 115h1v1H81zM112 116h1v1H112zM79 117h1v1H79zM129 117h1v1H129zM103 121h1v1H103zM137 121h1v1H137zM96 127h1v1H96zM69 136h1v1H69zM98 140h1v1H98zM67 143h1v1H67zM139 145h1v1H139zM142 148h1v1H142zM62 151h1v1H62z"/>
  <path fill="#f8d8a8" d="M32 34h1v1H32z"/>
  <path fill="#f0d8b8" d="M103 34h1v1H103zM130 91h1v1H130zM140 91h1v1H140zM127 103h1v1H127zM68 122h1v1H68z"/>
  <path fill="#f0e0b0" d="M37 41h1v1H37zM100 49h1v1H100zM36 52h1v1H36zM61 68h1v1H61zM54 70h1v1H54zM66 73h1v1H66zM75 74h1v1H75zM67 95h1v1H67zM60 100h1v1H60zM108 111h1v1H108zM111 118h1v1H111zM130 120h1v1H130zM76 121h1v1H76zM70 133h1v1H70z"/>
  <path fill="#f0e0b8" d="M99 35h1v1H99zM51 48h1v1H51zM64 71h1v1H64zM65 72h1v1H65zM140 95h1v1H140zM66 104h1v1H66zM85 113h1v1H85zM135 115h1v1H135zM140 132h1v1H140zM150 145h1v1H150z"/>
  <path fill="#f8e0b0" d="M33 34h1v1H33zM100 34h1v1H100zM32 35h3v1H32zM100 35h2v1H100zM103 35h1v1H103zM30 36h6v1H30zM99 36h6v1H99zM30 37h6v1H30zM99 37h5v1H99zM31 38h5v1H31zM99 38h6v1H99zM31 39h5v1H31zM98 39h7v1H98zM31 40h6v1H31zM98 40h6v1H98zM32 41h5v1H32zM98 41h6v1H98zM31 42h6v1H31zM97 42h7v1H97zM32 43h6v1H32zM97 43h6v1H97zM32 44h7v1H32zM53 44h1v1H53zM56 44h1v1H56zM96 44h7v1H96zM33 45h6v1H33zM53 45h4v1H53zM96 45h7v1H96zM33 46h7v1H33zM52 46h4v1H52zM95 46h7v1H95zM33 47h8v1H33zM52 47h5v1H52zM95 47h6v1H95zM34 48h7v1H34zM52 48h5v1H52zM94 48h7v1H94zM34 49h8v1H34zM51 49h5v1H51zM93 49h7v1H93zM35 50h8v1H35zM51 50h4v1H51zM92 50h8v1H92zM36 51h8v1H36zM50 51h5v1H50zM91 51h8v1H91zM37 52h7v1H37zM49 52h5v1H49zM90 52h8v1H90zM37 53h9v1H37zM48 53h5v1H48zM89 53h9v1H89zM38 54h8v1H38zM47 54h5v1H47zM88 54h9v1H88zM39 55h13v1H39zM86 55h10v1H86zM40 56h10v1H40zM85 56h10v1H85zM41 57h9v1H41zM84 57h9v1H84zM42 58h9v1H42zM82 58h10v1H82zM43 59h9v1H43zM81 59h10v1H81zM44 60h9v1H44zM80 60h10v1H80zM45 61h9v1H45zM79 61h9v1H79zM46 62h9v1H46zM78 62h8v1H78zM47 63h9v1H47zM77 63h7v1H77zM85 63h1v1H85zM48 64h9v1H48zM76 64h8v1H76zM49 65h9v1H49zM75 65h8v1H75zM50 66h9v1H50zM74 66h7v1H74zM52 67h8v1H52zM73 67h8v1H73zM52 68h9v1H52zM72 68h8v1H72zM53 69h9v1H53zM72 69h7v1H72zM55 70h8v1H55zM71 70h8v1H71zM56 71h8v1H56zM70 71h7v1H70zM57 72h8v1H57zM70 72h7v1H70zM58 73h8v1H58zM69 73h7v1H69zM59 74h16v1H59zM60 75h15v1H60zM61 76h13v1H61zM62 77h12v1H62zM63 78h10v1H63zM64 79h8v1H64zM64 80h8v1H64zM65 81h7v1H65zM64 82h7v1H64zM64 83h7v1H64zM64 84h6v1H64zM63 85h7v1H63zM63 86h7v1H63zM137 86h1v1H137zM63 87h6v1H63zM136 87h2v1H136zM63 88h6v1H63zM135 88h4v1H135zM62 89h7v1H62zM134 89h5v1H134zM62 90h7v1H62zM133 90h7v1H133zM62 91h6v1H62zM131 91h8v1H131zM62 92h6v1H62zM130 92h9v1H130zM61 93h7v1H61zM131 93h11v1H131zM61 94h7v1H61zM133 94h9v1H133zM61 95h6v1H61zM133 95h6v1H133zM61 96h6v1H61zM134 96h2v1H134zM61 97h6v1H61zM134 97h3v1H134zM61 98h6v1H61zM136 98h1v1H136zM61 99h6v1H61zM61 100h5v1H61zM135 100h1v1H135zM60 101h6v1H60zM60 102h7v1H60zM119 102h6v1H119zM134 102h1v1H134zM60 103h6v1H60zM117 103h9v1H117zM60 104h6v1H60zM115 104h14v1H115zM132 104h2v1H132zM60 105h6v1H60zM114 105h15v1H114zM131 105h1v1H131zM133 105h1v1H133zM60 106h5v1H60zM112 106h20v1H112zM60 107h6v1H60zM83 107h7v1H83zM112 107h20v1H112zM60 108h6v1H60zM81 108h10v1H81zM92 108h1v1H92zM111 108h9v1H111zM122 108h10v1H122zM60 109h6v1H60zM79 109h15v1H79zM110 109h8v1H110zM125 109h8v1H125zM60 110h6v1H60zM78 110h16v1H78zM109 110h8v1H109zM126 110h7v1H126zM60 111h6v1H60zM77 111h19v1H77zM109 111h7v1H109zM127 111h7v1H127zM60 112h6v1H60zM76 112h21v1H76zM108 112h7v1H108zM127 112h7v1H127zM60 113h6v1H60zM75 113h10v1H75zM88 113h10v1H88zM107 113h7v1H107zM128 113h7v1H128zM60 114h6v1H60zM74 114h8v1H74zM91 114h7v1H91zM107 114h7v1H107zM128 114h7v1H128zM60 115h6v1H60zM73 115h8v1H73zM91 115h8v1H91zM106 115h7v1H106zM129 115h6v1H129zM60 116h6v1H60zM72 116h8v1H72zM92 116h7v1H92zM106 116h6v1H106zM129 116h7v1H129zM60 117h6v1H60zM72 117h7v1H72zM93 117h6v1H93zM105 117h7v1H105zM130 117h6v1H130zM60 118h6v1H60zM71 118h7v1H71zM94 118h6v1H94zM105 118h6v1H105zM130 118h6v1H130zM60 119h6v1H60zM70 119h8v1H70zM94 119h7v1H94zM105 119h6v1H105zM130 119h7v1H130zM60 120h6v1H60zM71 120h6v1H71zM94 120h6v1H94zM104 120h7v1H104zM131 120h6v1H131zM60 121h6v1H60zM69 121h7v1H69zM95 121h5v1H95zM104 121h6v1H104zM131 121h6v1H131zM60 122h6v1H60zM69 122h7v1H69zM95 122h7v1H95zM103 122h7v1H103zM131 122h7v1H131zM60 123h6v1H60zM69 123h6v1H69zM95 123h14v1H95zM131 123h7v1H131zM60 124h5v1H60zM68 124h7v1H68zM96 124h13v1H96zM132 124h6v1H132zM60 125h14v1H60zM96 125h13v1H96zM132 125h6v1H132zM60 126h14v1H60zM96 126h12v1H96zM132 126h7v1H132zM60 127h13v1H60zM97 127h11v1H97zM132 127h7v1H132zM60 128h13v1H60zM97 128h11v1H97zM133 128h6v1H133zM60 129h11v1H60zM97 129h10v1H97zM133 129h6v1H133zM60 130h12v1H60zM97 130h10v1H97zM133 130h7v1H133zM60 131h11v1H60zM97 131h10v1H97zM134 131h6v1H134zM60 132h11v1H60zM98 132h9v1H98zM134 132h6v1H134zM60 133h10v1H60zM98 133h8v1H98zM134 133h7v1H134zM60 134h10v1H60zM98 134h8v1H98zM135 134h6v1H135zM60 135h10v1H60zM98 135h8v1H98zM135 135h6v1H135zM60 136h9v1H60zM98 136h8v1H98zM135 136h6v1H135zM60 137h9v1H60zM98 137h7v1H98zM135 137h7v1H135zM60 138h9v1H60zM98 138h7v1H98zM136 138h7v1H136zM60 139h8v1H60zM98 139h7v1H98zM136 139h7v1H136zM60 140h8v1H60zM99 140h6v1H99zM137 140h6v1H137zM60 141h8v1H60zM100 141h5v1H100zM137 141h7v1H137zM60 142h8v1H60zM100 142h4v1H100zM138 142h7v1H138zM60 143h7v1H60zM138 143h8v1H138zM60 144h7v1H60zM139 144h8v1H139zM60 145h7v1H60zM140 145h9v1H140zM60 146h7v1H60zM140 146h12v1H140zM60 147h7v1H60zM142 147h9v1H142zM60 148h6v1H60zM143 148h8v1H143zM60 149h5v1H60zM146 149h4v1H146zM62 150h3v1H62zM146 150h3v1H146z"/>
  <path fill="#d8d8e0" d="M28 5h1v1H28zM11 16h1v1H11zM184 23h1v1H184z"/>
  <path fill="#f8e0b8" d="M34 34h1v1H34zM101 34h2v1H101zM31 35h1v1H31zM35 35h1v1H35zM102 35h1v1H102zM104 37h1v1H104zM30 38h1v1H30zM36 38h1v1H36zM98 38h1v1H98zM36 39h1v1H36zM31 41h1v1H31zM37 42h1v1H37zM54 44h2v1H54zM32 45h1v1H32zM56 46h1v1H56zM101 47h1v1H101zM44 52h1v1H44zM46 54h1v1H46zM50 56h1v1H50zM93 57h1v1H93zM86 62h1v1H86zM84 63h1v1H84zM81 66h1v1H81zM51 67h1v1H51zM77 71h1v1H77zM69 72h1v1H69zM72 79h1v1H72zM137 85h1v1H137zM138 87h1v1H138zM139 91h1v1H139zM129 92h1v1H129zM139 92h2v1H139zM142 93h1v1H142zM132 94h1v1H132zM142 94h1v1H142zM139 95h1v1H139zM136 96h3v1H136zM137 97h1v1H137zM135 98h1v1H135zM134 99h2v1H134zM66 100h1v1H66zM134 100h1v1H134zM66 101h1v1H66zM134 101h1v1H134zM66 103h1v1H66zM126 103h1v1H126zM133 103h2v1H133zM129 105h2v1H129zM132 105h1v1H132zM65 106h1v1H65zM132 106h1v1H132zM132 107h1v1H132zM91 108h1v1H91zM120 108h2v1H120zM132 108h1v1H132zM94 110h1v1H94zM82 114h1v1H82zM90 114h1v1H90zM99 117h1v1H99zM78 118h1v1H78zM93 118h1v1H93zM136 118h1v1H136zM104 119h1v1H104zM70 120h1v1H70zM100 120h1v1H100zM100 121h1v1H100zM68 123h1v1H68zM65 124h1v1H65zM138 125h1v1H138zM71 129h1v1H71zM139 129h1v1H139zM134 134h1v1H134zM141 136h1v1H141zM68 139h1v1H68zM143 140h1v1H143zM99 141h1v1H99zM147 144h1v1H147zM149 145h1v1H149zM141 147h1v1H141zM151 147h1v1H151zM151 148h1v1H151zM65 149h1v1H65zM144 149h2v1H144zM150 149h2v1H150zM61 150h1v1H61zM149 150h2v1H149zM63 151h1v1H63z"/>
  <path fill="#d8e0e0" d="M171 8h1v1H171zM16 176h1v1H16zM164 182h1v1H164z"/>
  <path fill="#f8e0c0" d="M138 86h1v1H138zM143 94h1v1H143zM134 98h1v1H134z"/>
  <path fill="#e0e0e8" d="M22 7h1v1H22zM9 19h1v1H9zM22 180h1v1H22zM33 183h1v1H33zM158 183h1v1H158z"/>
  <path fill="#e0e8e8" d="M7 163h1v1H7zM180 171h1v1H180z"/>
  <path fill="#e8e8e8" d="M17 10h1v1H17zM12 172h1v1H12zM171 179h1v1H171z"/>
  <path fill="#e8e8f0" d="M8 21h1v1H8zM6 159h1v1H6zM185 160h1v1H185zM174 177h1v1H174zM27 182h1v1H27z"/>
  <path fill="#e8f0f0" d="M20 8h1v1H20zM6 27h1v1H6zM182 168h1v1H182zM167 181h1v1H167z"/>
  <path fill="#f0f0f0" d="M173 9h1v1H173zM181 17h1v1H181zM185 26h1v1H185zM183 166h1v1H183zM32 183h1v1H32zM159 183h1v1H159z"/>
  <path fill="#f0f0f8" d="M167 6h1v1H167zM20 179h1v1H20zM24 181h1v1H24z"/>
  <path fill="#f8f8f8" d="M33 4h126v1H33zM27 5h1v1H27zM164 5h1v1H164zM24 6h1v1H24zM18 9h1v1H18zM10 17h1v1H10zM7 23h1v1H7zM6 26h1v1H6zM186 30h1v1H186zM5 32h1v1H5zM5 33h1v1H5zM5 34h1v1H5zM5 35h1v1H5zM5 36h1v1H5zM5 37h1v1H5zM5 38h1v1H5zM5 39h1v1H5zM5 40h1v1H5zM5 41h1v1H5zM5 42h1v1H5zM5 43h1v1H5zM5 44h1v1H5zM5 45h1v1H5zM5 46h1v1H5zM5 47h1v1H5zM5 48h1v1H5zM5 49h1v1H5zM5 50h1v1H5zM5 51h1v1H5zM5 52h1v1H5zM5 53h1v1H5zM5 54h1v1H5zM5 55h1v1H5zM5 56h1v1H5zM5 57h1v1H5zM5 58h1v1H5zM5 59h1v1H5zM5 60h1v1H5zM5 61h1v1H5zM5 62h1v1H5zM5 63h1v1H5zM5 64h1v1H5zM5 65h1v1H5zM5 66h1v1H5zM5 67h1v1H5zM5 68h1v1H5zM5 69h1v1H5zM5 70h1v1H5zM5 71h1v1H5zM5 72h1v1H5zM5 73h1v1H5zM5 74h1v1H5zM5 75h1v1H5zM5 76h1v1H5zM5 77h1v1H5zM5 78h1v1H5zM5 79h1v1H5zM5 80h1v1H5zM5 81h1v1H5zM5 82h1v1H5zM5 83h1v1H5zM5 84h1v1H5zM5 85h1v1H5zM5 86h1v1H5zM5 87h1v1H5zM5 88h1v1H5zM5 89h1v1H5zM5 90h1v1H5zM5 91h1v1H5zM5 92h1v1H5zM5 93h1v1H5zM5 94h1v1H5zM5 95h1v1H5zM5 96h1v1H5zM5 97h1v1H5zM5 98h1v1H5zM5 99h1v1H5zM5 100h1v1H5zM5 101h1v1H5zM5 102h1v1H5zM5 103h1v1H5zM5 104h1v1H5zM5 105h1v1H5zM5 106h1v1H5zM5 107h1v1H5zM5 108h1v1H5zM5 109h1v1H5zM5 110h1v1H5zM5 111h1v1H5zM5 112h1v1H5zM5 113h1v1H5zM5 114h1v1H5zM5 115h1v1H5zM5 116h1v1H5zM5 117h1v1H5zM5 118h1v1H5zM5 119h1v1H5zM5 120h1v1H5zM5 121h1v1H5zM5 122h1v1H5zM5 123h1v1H5zM5 124h1v1H5zM5 125h1v1H5zM5 126h1v1H5zM5 127h1v1H5zM5 128h1v1H5zM5 129h1v1H5zM5 130h1v1H5zM5 131h1v1H5zM5 132h1v1H5zM5 133h1v1H5zM5 134h1v1H5zM5 135h1v1H5zM5 136h1v1H5zM5 137h1v1H5zM5 138h1v1H5zM5 139h1v1H5zM5 140h1v1H5zM5 141h1v1H5zM5 142h1v1H5zM5 143h1v1H5zM5 144h1v1H5zM5 145h1v1H5zM5 146h1v1H5zM5 147h1v1H5zM5 148h1v1H5zM5 149h1v1H5zM5 150h1v1H5zM5 151h1v1H5zM5 152h1v1H5zM5 153h1v1H5zM186 156h1v1H186zM6 160h1v1H6zM185 161h1v1H185zM184 164h1v1H184zM9 168h1v1H9zM11 171h1v1H11zM17 177h1v1H17zM173 178h1v1H173zM165 182h1v1H165zM160 183h1v1H160z"/>
  <path fill="#f8f8ff" d="M165 5h1v1H165zM178 13h1v1H178zM183 20h1v1H183zM185 25h1v1H185zM186 29h1v1H186zM5 154h1v1H5zM8 166h1v1H8zM181 170h1v1H181zM26 182h1v1H26zM30 183h2v1H30zM161 183h1v1H161z"/>
  <path fill="#fff8ff" d="M186 157h1v1H186zM170 180h1v1H170zM168 181h1v1H168z"/>
  <path fill="#ffffff" d="M0 0h192v1H0zM0 1h192v1H0zM0 2h192v1H0zM0 3h192v1H0zM0 4h33v1H0zM159 4h33v1H159zM0 5h27v1H0zM166 5h26v1H166zM0 6h24v1H0zM168 6h24v1H168zM0 7h22v1H0zM170 7h22v1H170zM0 8h20v1H0zM172 8h20v1H172zM0 9h18v1H0zM174 9h18v1H174zM0 10h17v1H0zM175 10h17v1H175zM0 11h16v1H0zM176 11h16v1H176zM0 12h15v1H0zM177 12h15v1H177zM0 13h14v1H0zM179 13h13v1H179zM0 14h13v1H0zM179 14h13v1H179zM0 15h12v1H0zM180 15h12v1H180zM0 16h11v1H0zM181 16h11v1H181zM0 17h10v1H0zM182 17h10v1H182zM0 18h10v1H0zM182 18h10v1H182zM0 19h9v1H0zM183 19h9v1H183zM0 20h9v1H0zM184 20h8v1H184zM0 21h8v1H0zM184 21h8v1H184zM0 22h8v1H0zM184 22h8v1H184zM0 23h7v1H0zM185 23h7v1H185zM0 24h7v1H0zM185 24h7v1H185zM0 25h7v1H0zM186 25h6v1H186zM0 26h6v1H0zM186 26h6v1H186zM0 27h6v1H0zM186 27h6v1H186zM0 28h6v1H0zM186 28h6v1H186zM0 29h6v1H0zM187 29h5v1H187zM0 30h6v1H0zM187 30h5v1H187zM0 31h6v1H0zM186 31h6v1H186zM0 32h5v1H0zM186 32h6v1H186zM0 33h5v1H0zM186 33h6v1H186zM0 34h5v1H0zM186 34h6v1H186zM0 35h5v1H0zM186 35h6v1H186zM0 36h5v1H0zM186 36h6v1H186zM0 37h5v1H0zM186 37h6v1H186zM0 38h5v1H0zM186 38h6v1H186zM0 39h5v1H0zM186 39h6v1H186zM0 40h5v1H0zM186 40h6v1H186zM0 41h5v1H0zM186 41h6v1H186zM0 42h5v1H0zM186 42h6v1H186zM0 43h5v1H0zM186 43h6v1H186zM0 44h5v1H0zM186 44h6v1H186zM0 45h5v1H0zM186 45h6v1H186zM0 46h5v1H0zM186 46h6v1H186zM0 47h5v1H0zM186 47h6v1H186zM0 48h5v1H0zM186 48h6v1H186zM0 49h5v1H0zM186 49h6v1H186zM0 50h5v1H0zM186 50h6v1H186zM0 51h5v1H0zM186 51h6v1H186zM0 52h5v1H0zM186 52h6v1H186zM0 53h5v1H0zM186 53h6v1H186zM0 54h5v1H0zM186 54h6v1H186zM0 55h5v1H0zM186 55h6v1H186zM0 56h5v1H0zM186 56h6v1H186zM0 57h5v1H0zM186 57h6v1H186zM0 58h5v1H0zM186 58h6v1H186zM0 59h5v1H0zM186 59h6v1H186zM0 60h5v1H0zM186 60h6v1H186zM0 61h5v1H0zM186 61h6v1H186zM0 62h5v1H0zM186 62h6v1H186zM0 63h5v1H0zM186 63h6v1H186zM0 64h5v1H0zM186 64h6v1H186zM0 65h5v1H0zM186 65h6v1H186zM0 66h5v1H0zM186 66h6v1H186zM0 67h5v1H0zM186 67h6v1H186zM0 68h5v1H0zM186 68h6v1H186zM0 69h5v1H0zM186 69h6v1H186zM0 70h5v1H0zM186 70h6v1H186zM0 71h5v1H0zM186 71h6v1H186zM0 72h5v1H0zM186 72h6v1H186zM0 73h5v1H0zM186 73h6v1H186zM0 74h5v1H0zM186 74h6v1H186zM0 75h5v1H0zM186 75h6v1H186zM0 76h5v1H0zM186 76h6v1H186zM0 77h5v1H0zM186 77h6v1H186zM0 78h5v1H0zM186 78h6v1H186zM0 79h5v1H0zM186 79h6v1H186zM0 80h5v1H0zM186 80h6v1H186zM0 81h5v1H0zM186 81h6v1H186zM0 82h5v1H0zM186 82h6v1H186zM0 83h5v1H0zM186 83h6v1H186zM0 84h5v1H0zM186 84h6v1H186zM0 85h5v1H0zM186 85h6v1H186zM0 86h5v1H0zM186 86h6v1H186zM0 87h5v1H0zM186 87h6v1H186zM0 88h5v1H0zM186 88h6v1H186zM0 89h5v1H0zM186 89h6v1H186zM0 90h5v1H0zM186 90h6v1H186zM0 91h5v1H0zM186 91h6v1H186zM0 92h5v1H0zM186 92h6v1H186zM0 93h5v1H0zM186 93h6v1H186zM0 94h5v1H0zM186 94h6v1H186zM0 95h5v1H0zM186 95h6v1H186zM0 96h5v1H0zM186 96h6v1H186zM0 97h5v1H0zM186 97h6v1H186zM0 98h5v1H0zM186 98h6v1H186zM0 99h5v1H0zM186 99h6v1H186zM0 100h5v1H0zM186 100h6v1H186zM0 101h5v1H0zM186 101h6v1H186zM0 102h5v1H0zM186 102h6v1H186zM0 103h5v1H0zM186 103h6v1H186zM0 104h5v1H0zM186 104h6v1H186zM0 105h5v1H0zM186 105h6v1H186zM0 106h5v1H0zM186 106h6v1H186zM0 107h5v1H0zM186 107h6v1H186zM0 108h5v1H0zM186 108h6v1H186zM0 109h5v1H0zM186 109h6v1H186zM0 110h5v1H0zM186 110h6v1H186zM0 111h5v1H0zM186 111h6v1H186zM0 112h5v1H0zM186 112h6v1H186zM0 113h5v1H0zM186 113h6v1H186zM0 114h5v1H0zM186 114h6v1H186zM0 115h5v1H0zM186 115h6v1H186zM0 116h5v1H0zM186 116h6v1H186zM0 117h5v1H0zM186 117h6v1H186zM0 118h5v1H0zM186 118h6v1H186zM0 119h5v1H0zM186 119h6v1H186zM0 120h5v1H0zM186 120h6v1H186zM0 121h5v1H0zM186 121h6v1H186zM0 122h5v1H0zM186 122h6v1H186zM0 123h5v1H0zM186 123h6v1H186zM0 124h5v1H0zM186 124h6v1H186zM0 125h5v1H0zM186 125h6v1H186zM0 126h5v1H0zM186 126h6v1H186zM0 127h5v1H0zM186 127h6v1H186zM0 128h5v1H0zM186 128h6v1H186zM0 129h5v1H0zM186 129h6v1H186zM0 130h5v1H0zM186 130h6v1H186zM0 131h5v1H0zM186 131h6v1H186zM0 132h5v1H0zM186 132h6v1H186zM0 133h5v1H0zM186 133h6v1H186zM0 134h5v1H0zM186 134h6v1H186zM0 135h5v1H0zM186 135h6v1H186zM0 136h5v1H0zM186 136h6v1H186zM0 137h5v1H0zM186 137h6v1H186zM0 138h5v1H0zM186 138h6v1H186zM0 139h5v1H0zM186 139h6v1H186zM0 140h5v1H0zM186 140h6v1H186zM0 141h5v1H0zM186 141h6v1H186zM0 142h5v1H0zM186 142h6v1H186zM0 143h5v1H0zM186 143h6v1H186zM0 144h5v1H0zM186 144h6v1H186zM0 145h5v1H0zM186 145h6v1H186zM0 146h5v1H0zM186 146h6v1H186zM0 147h5v1H0zM186 147h6v1H186zM0 148h5v1H0zM186 148h6v1H186zM0 149h5v1H0zM186 149h6v1H186zM0 150h5v1H0zM186 150h6v1H186zM0 151h5v1H0zM186 151h6v1H186zM0 152h5v1H0zM186 152h6v1H186zM0 153h5v1H0zM186 153h6v1H186zM0 154h5v1H0zM186 154h6v1H186zM0 155h6v1H0zM186 155h6v1H186zM0 156h6v1H0zM187 156h5v1H187zM0 157h6v1H0zM187 157h5v1H187zM0 158h6v1H0zM186 158h6v1H186zM0 159h6v1H0zM186 159h6v1H186zM0 160h6v1H0zM186 160h6v1H186zM0 161h7v1H0zM186 161h6v1H186zM0 162h7v1H0zM185 162h7v1H185zM0 163h7v1H0zM185 163h7v1H185zM0 164h8v1H0zM185 164h7v1H185zM0 165h8v1H0zM184 165h8v1H184zM0 166h8v1H0zM184 166h8v1H184zM0 167h9v1H0zM183 167h9v1H183zM0 168h9v1H0zM183 168h9v1H183zM0 169h10v1H0zM182 169h10v1H182zM0 170h11v1H0zM182 170h10v1H182zM0 171h11v1H0zM181 171h11v1H181zM0 172h12v1H0zM180 172h12v1H180zM0 173h13v1H0zM179 173h13v1H179zM0 174h14v1H0zM178 174h14v1H178zM0 175h15v1H0zM177 175h15v1H177zM0 176h16v1H0zM176 176h16v1H176zM0 177h17v1H0zM175 177h17v1H175zM0 178h19v1H0zM174 178h18v1H174zM0 179h20v1H0zM172 179h20v1H172zM0 180h22v1H0zM171 180h21v1H171zM0 181h24v1H0zM169 181h23v1H169zM0 182h26v1H0zM166 182h26v1H166zM0 183h30v1H0zM162 183h30v1H162zM0 184h192v1H0zM0 185h192v1H0zM0 186h192v1H0zM0 187h192v1H0zM0 188h192v1H0zM0 189h192v1H0zM0 190h192v1H0zM0 191h192v1H0z"/>
</svg>
