<svg xmlns="http://www.w3.org/2000/svg" viewBox="0 0 192 192" role="img">
  <desc>Generated vector SVG from data_analystic.png</desc>
  <path fill="#081840" d="M120 38h1v1H120zM49 44h1v1H49zM112 46h1v1H112zM113 47h2v1H113zM87 49h1v1H87zM87 50h1v1H87zM87 51h1v1H87zM105 51h1v1H105zM117 51h2v1H117zM108 53h1v1H108zM56 57h1v1H56zM101 58h1v1H101zM108 61h1v1H108zM100 62h1v1H100zM64 65h1v1H64zM66 67h1v1H66zM55 68h1v1H55zM19 84h1v1H19zM83 87h1v1H83zM71 99h1v1H71zM131 106h1v1H131zM70 108h1v1H70zM137 114h1v1H137zM128 115h1v1H128zM106 116h1v1H106zM19 117h1v1H19zM108 120h1v1H108zM141 126h1v1H141zM104 140h1v1H104zM148 142h1v1H148zM105 143h1v1H105zM70 145h1v1H70zM70 146h1v1H70zM154 148h1v1H154zM172 153h1v1H172z"/>
  <path fill="#082040" d="M91 17h1v1H91zM91 18h3v1H91zM147 18h1v1H147zM34 21h1v1H34zM158 21h2v1H158zM31 22h1v1H31zM34 22h2v1H34zM158 22h2v1H158zM30 23h4v1H30zM35 23h1v1H35zM161 23h1v1H161zM28 24h9v1H28zM162 24h2v1H162zM28 25h8v1H28zM37 25h1v1H37zM163 25h2v1H163zM26 26h9v1H26zM163 26h2v1H163zM26 27h3v1H26zM32 27h1v1H32zM24 28h6v1H24zM24 29h4v1H24zM24 30h3v1H24zM22 31h5v1H22zM22 32h3v1H22zM169 32h1v1H169zM22 33h4v1H22zM40 33h1v1H40zM122 33h3v1H122zM126 33h1v1H126zM21 34h3v1H21zM41 34h1v1H41zM119 34h8v1H119zM21 35h3v1H21zM39 35h1v1H39zM41 35h1v1H41zM112 35h1v1H112zM114 35h2v1H114zM118 35h9v1H118zM128 35h1v1H128zM21 36h3v1H21zM40 36h3v1H40zM110 36h6v1H110zM118 36h9v1H118zM168 36h1v1H168zM20 37h4v1H20zM40 37h4v1H40zM109 37h7v1H109zM118 37h6v1H118zM21 38h2v1H21zM39 38h4v1H39zM48 38h1v1H48zM108 38h8v1H108zM118 38h2v1H118zM125 38h2v1H125zM172 38h1v1H172zM21 39h2v1H21zM40 39h1v1H40zM45 39h2v1H45zM48 39h1v1H48zM109 39h1v1H109zM111 39h4v1H111zM125 39h2v1H125zM20 40h3v1H20zM25 40h1v1H25zM48 40h2v1H48zM100 40h1v1H100zM111 40h1v1H111zM125 40h1v1H125zM20 41h3v1H20zM24 41h1v1H24zM46 41h3v1H46zM50 41h1v1H50zM108 41h1v1H108zM20 42h3v1H20zM41 42h1v1H41zM48 42h3v1H48zM104 42h1v1H104zM127 42h1v1H127zM49 43h4v1H49zM83 43h1v1H83zM105 43h1v1H105zM126 43h1v1H126zM40 44h1v1H40zM50 44h2v1H50zM116 44h1v1H116zM125 44h2v1H125zM39 45h2v1H39zM49 45h3v1H49zM82 45h2v1H82zM113 45h1v1H113zM116 45h3v1H116zM125 45h1v1H125zM38 46h2v1H38zM49 46h2v1H49zM80 46h1v1H80zM87 46h2v1H87zM111 46h1v1H111zM113 46h1v1H113zM117 46h3v1H117zM125 46h1v1H125zM38 47h3v1H38zM49 47h1v1H49zM72 47h1v1H72zM79 47h1v1H79zM87 47h1v1H87zM101 47h1v1H101zM112 47h1v1H112zM118 47h2v1H118zM39 48h3v1H39zM52 48h1v1H52zM89 48h1v1H89zM108 48h2v1H108zM112 48h1v1H112zM117 48h1v1H117zM126 48h1v1H126zM40 49h1v1H40zM51 49h1v1H51zM74 49h1v1H74zM88 49h1v1H88zM99 49h1v1H99zM108 49h4v1H108zM39 50h2v1H39zM53 50h1v1H53zM75 50h1v1H75zM77 50h2v1H77zM88 50h1v1H88zM99 50h1v1H99zM109 50h2v1H109zM118 50h2v1H118zM124 50h2v1H124zM41 51h1v1H41zM51 51h3v1H51zM75 51h4v1H75zM106 51h1v1H106zM124 51h2v1H124zM54 52h2v1H54zM75 52h2v1H75zM87 52h2v1H87zM105 52h3v1H105zM117 52h1v1H117zM124 52h2v1H124zM19 53h1v1H19zM41 53h1v1H41zM54 53h2v1H54zM74 53h1v1H74zM76 53h2v1H76zM88 53h1v1H88zM106 53h2v1H106zM118 53h1v1H118zM125 53h1v1H125zM40 54h2v1H40zM54 54h2v1H54zM74 54h1v1H74zM76 54h1v1H76zM104 54h1v1H104zM117 54h1v1H117zM19 55h1v1H19zM40 55h1v1H40zM54 55h1v1H54zM74 55h1v1H74zM98 55h1v1H98zM103 55h3v1H103zM123 55h1v1H123zM19 56h2v1H19zM42 56h1v1H42zM56 56h2v1H56zM72 56h1v1H72zM104 56h2v1H104zM114 56h1v1H114zM123 56h1v1H123zM19 57h2v1H19zM40 57h2v1H40zM57 57h1v1H57zM70 57h1v1H70zM72 57h1v1H72zM104 57h1v1H104zM115 57h1v1H115zM122 57h3v1H122zM19 58h3v1H19zM64 58h1v1H64zM68 58h4v1H68zM102 58h1v1H102zM112 58h1v1H112zM122 58h2v1H122zM19 59h3v1H19zM58 59h2v1H58zM63 59h1v1H63zM66 59h5v1H66zM101 59h2v1H101zM110 59h1v1H110zM112 59h2v1H112zM121 59h3v1H121zM19 60h2v1H19zM62 60h3v1H62zM66 60h3v1H66zM99 60h2v1H99zM120 60h2v1H120zM123 60h1v1H123zM19 61h2v1H19zM47 61h2v1H47zM63 61h1v1H63zM65 61h5v1H65zM81 61h2v1H81zM97 61h1v1H97zM99 61h2v1H99zM121 61h3v1H121zM19 62h2v1H19zM47 62h1v1H47zM64 62h3v1H64zM68 62h1v1H68zM97 62h2v1H97zM120 62h1v1H120zM122 62h1v1H122zM20 63h1v1H20zM46 63h2v1H46zM63 63h1v1H63zM65 63h2v1H65zM97 63h1v1H97zM122 63h1v1H122zM19 64h2v1H19zM49 64h3v1H49zM64 64h1v1H64zM67 64h1v1H67zM78 64h2v1H78zM81 64h1v1H81zM95 64h1v1H95zM117 64h1v1H117zM120 64h3v1H120zM19 65h2v1H19zM49 65h3v1H49zM79 65h3v1H79zM115 65h1v1H115zM118 65h2v1H118zM19 66h2v1H19zM42 66h1v1H42zM48 66h4v1H48zM66 66h1v1H66zM76 66h2v1H76zM80 66h1v1H80zM83 66h1v1H83zM89 66h1v1H89zM92 66h1v1H92zM110 66h2v1H110zM114 66h1v1H114zM120 66h1v1H120zM19 67h2v1H19zM47 67h3v1H47zM53 67h1v1H53zM76 67h3v1H76zM82 67h2v1H82zM86 67h2v1H86zM90 67h1v1H90zM105 67h2v1H105zM110 67h2v1H110zM113 67h2v1H113zM53 68h2v1H53zM77 68h7v1H77zM85 68h1v1H85zM107 68h3v1H107zM112 68h1v1H112zM53 69h3v1H53zM74 69h4v1H74zM79 69h8v1H79zM107 69h3v1H107zM19 70h1v1H19zM52 70h1v1H52zM54 70h4v1H54zM75 70h3v1H75zM79 70h9v1H79zM103 70h2v1H103zM19 71h1v1H19zM54 71h4v1H54zM75 71h12v1H75zM102 71h4v1H102zM19 72h2v1H19zM54 72h1v1H54zM56 72h4v1H56zM74 72h10v1H74zM104 72h3v1H104zM49 73h1v1H49zM56 73h4v1H56zM75 73h9v1H75zM19 74h1v1H19zM53 74h1v1H53zM56 74h1v1H56zM58 74h2v1H58zM61 74h1v1H61zM75 74h8v1H75zM19 75h2v1H19zM53 75h1v1H53zM59 75h4v1H59zM75 75h6v1H75zM95 75h2v1H95zM19 76h1v1H19zM60 76h3v1H60zM77 76h4v1H77zM94 76h3v1H94zM19 77h1v1H19zM60 77h5v1H60zM76 77h5v1H76zM94 77h2v1H94zM19 78h1v1H19zM63 78h2v1H63zM92 78h2v1H92zM63 79h2v1H63zM78 79h1v1H78zM63 80h2v1H63zM66 80h2v1H66zM19 81h1v1H19zM66 81h2v1H66zM88 81h2v1H88zM19 82h1v1H19zM65 82h5v1H65zM88 82h2v1H88zM19 83h1v1H19zM68 83h1v1H68zM88 83h1v1H88zM20 84h1v1H20zM70 84h2v1H70zM85 84h3v1H85zM19 85h2v1H19zM70 85h1v1H70zM85 85h2v1H85zM19 86h3v1H19zM85 86h2v1H85zM19 87h3v1H19zM70 87h2v1H70zM73 87h1v1H73zM87 87h1v1H87zM19 88h3v1H19zM71 88h3v1H71zM83 88h2v1H83zM87 88h1v1H87zM19 89h3v1H19zM70 89h4v1H70zM83 89h2v1H83zM19 90h2v1H19zM69 90h3v1H69zM83 90h2v1H83zM19 91h3v1H19zM72 91h1v1H72zM83 91h2v1H83zM19 92h3v1H19zM72 92h1v1H72zM82 92h1v1H82zM19 93h3v1H19zM71 93h2v1H71zM19 94h3v1H19zM72 94h1v1H72zM19 95h3v1H19zM19 96h3v1H19zM81 96h1v1H81zM19 97h1v1H19zM80 97h1v1H80zM19 98h1v1H19zM66 98h1v1H66zM70 98h1v1H70zM81 98h1v1H81zM19 99h1v1H19zM69 99h2v1H69zM81 99h2v1H81zM19 100h2v1H19zM67 100h1v1H67zM69 100h2v1H69zM79 100h4v1H79zM19 101h3v1H19zM67 101h4v1H67zM80 101h1v1H80zM19 102h2v1H19zM67 102h3v1H67zM79 102h3v1H79zM19 103h1v1H19zM69 103h1v1H69zM80 103h1v1H80zM19 104h1v1H19zM70 104h1v1H70zM80 104h3v1H80zM122 104h1v1H122zM126 104h1v1H126zM19 105h1v1H19zM81 105h1v1H81zM133 105h1v1H133zM19 106h1v1H19zM78 106h2v1H78zM132 106h2v1H132zM19 107h2v1H19zM70 107h1v1H70zM79 107h1v1H79zM82 107h1v1H82zM94 107h1v1H94zM135 107h2v1H135zM19 108h2v1H19zM82 108h1v1H82zM84 108h6v1H84zM92 108h3v1H92zM98 108h1v1H98zM133 108h5v1H133zM19 109h3v1H19zM80 109h1v1H80zM84 109h10v1H84zM100 109h3v1H100zM112 109h2v1H112zM136 109h2v1H136zM19 110h2v1H19zM66 110h1v1H66zM79 110h13v1H79zM99 110h4v1H99zM112 110h2v1H112zM135 110h2v1H135zM138 110h1v1H138zM19 111h3v1H19zM32 111h1v1H32zM34 111h1v1H34zM52 111h1v1H52zM78 111h3v1H78zM82 111h6v1H82zM101 111h1v1H101zM104 111h1v1H104zM106 111h2v1H106zM111 111h3v1H111zM138 111h2v1H138zM19 112h2v1H19zM31 112h1v1H31zM78 112h10v1H78zM104 112h3v1H104zM110 112h2v1H110zM113 112h1v1H113zM138 112h1v1H138zM19 113h3v1H19zM78 113h5v1H78zM85 113h2v1H85zM103 113h3v1H103zM110 113h4v1H110zM125 113h1v1H125zM19 114h3v1H19zM78 114h7v1H78zM108 114h3v1H108zM125 114h1v1H125zM139 114h3v1H139zM19 115h3v1H19zM78 115h7v1H78zM106 115h4v1H106zM111 115h1v1H111zM127 115h1v1H127zM140 115h2v1H140zM19 116h3v1H19zM79 116h4v1H79zM107 116h1v1H107zM111 116h1v1H111zM122 116h2v1H122zM127 116h2v1H127zM139 116h4v1H139zM20 117h2v1H20zM78 117h5v1H78zM108 117h3v1H108zM122 117h1v1H122zM125 117h3v1H125zM139 117h4v1H139zM19 118h2v1H19zM78 118h2v1H78zM108 118h3v1H108zM120 118h3v1H120zM125 118h2v1H125zM139 118h3v1H139zM143 118h1v1H143zM19 119h1v1H19zM79 119h3v1H79zM93 119h2v1H93zM96 119h2v1H96zM107 119h3v1H107zM121 119h2v1H121zM140 119h3v1H140zM21 120h1v1H21zM69 120h1v1H69zM78 120h3v1H78zM91 120h1v1H91zM95 120h2v1H95zM119 120h1v1H119zM140 120h2v1H140zM19 121h1v1H19zM21 121h1v1H21zM67 121h1v1H67zM78 121h1v1H78zM90 121h3v1H90zM94 121h3v1H94zM98 121h1v1H98zM120 121h1v1H120zM131 121h1v1H131zM140 121h2v1H140zM19 122h1v1H19zM90 122h3v1H90zM94 122h2v1H94zM98 122h2v1H98zM109 122h1v1H109zM120 122h1v1H120zM131 122h1v1H131zM142 122h1v1H142zM19 123h1v1H19zM88 123h1v1H88zM90 123h1v1H90zM92 123h2v1H92zM98 123h2v1H98zM141 123h2v1H141zM19 124h3v1H19zM88 124h2v1H88zM93 124h1v1H93zM97 124h2v1H97zM119 124h1v1H119zM141 124h3v1H141zM19 125h3v1H19zM87 125h3v1H87zM96 125h1v1H96zM100 125h1v1H100zM132 125h1v1H132zM141 125h2v1H141zM19 126h3v1H19zM87 126h2v1H87zM100 126h1v1H100zM19 127h2v1H19zM69 127h1v1H69zM86 127h1v1H86zM19 128h2v1H19zM86 128h2v1H86zM133 128h1v1H133zM145 128h1v1H145zM19 129h2v1H19zM68 129h2v1H68zM85 129h4v1H85zM102 129h1v1H102zM143 129h1v1H143zM19 130h3v1H19zM84 130h4v1H84zM101 130h2v1H101zM142 130h3v1H142zM19 131h3v1H19zM85 131h2v1H85zM101 131h2v1H101zM115 131h2v1H115zM143 131h1v1H143zM145 131h1v1H145zM19 132h3v1H19zM83 132h3v1H83zM114 132h3v1H114zM144 132h2v1H144zM19 133h3v1H19zM83 133h2v1H83zM102 133h1v1H102zM116 133h1v1H116zM144 133h3v1H144zM19 134h2v1H19zM83 134h1v1H83zM103 134h1v1H103zM144 134h3v1H144zM19 135h1v1H19zM115 135h1v1H115zM146 135h2v1H146zM19 136h2v1H19zM146 136h2v1H146zM19 137h1v1H19zM145 137h4v1H145zM19 138h2v1H19zM103 138h1v1H103zM135 138h1v1H135zM145 138h4v1H145zM19 139h2v1H19zM148 139h2v1H148zM19 140h2v1H19zM80 140h1v1H80zM102 140h2v1H102zM149 140h1v1H149zM19 141h1v1H19zM70 141h1v1H70zM102 141h2v1H102zM136 141h1v1H136zM148 141h2v1H148zM19 142h1v1H19zM70 142h1v1H70zM112 142h1v1H112zM151 142h1v1H151zM70 143h1v1H70zM104 143h1v1H104zM150 143h2v1H150zM70 144h1v1H70zM104 144h2v1H104zM108 144h2v1H108zM152 144h2v1H152zM104 145h1v1H104zM107 145h2v1H107zM79 146h1v1H79zM107 146h2v1H107zM69 147h2v1H69zM154 147h1v1H154zM69 148h1v1H69zM142 148h1v1H142zM142 149h2v1H142zM172 149h1v1H172zM172 150h1v1H172zM146 151h1v1H146zM172 151h1v1H172zM75 152h1v1H75zM171 152h1v1H171zM171 153h1v1H171zM21 155h1v1H21zM171 156h1v1H171zM22 160h3v1H22zM24 163h2v1H24zM160 166h1v1H160zM162 167h2v1H162zM160 170h1v1H160zM149 174h1v1H149z"/>
  <path fill="#082048" d="M42 17h49v1H42zM92 17h58v1H92zM38 18h53v1H38zM94 18h53v1H94zM148 18h6v1H148zM35 19h122v1H35zM33 20h126v1H33zM32 21h2v1H32zM35 21h123v1H35zM160 21h1v1H160zM30 22h1v1H30zM32 22h2v1H32zM36 22h122v1H36zM160 22h2v1H160zM29 23h1v1H29zM34 23h1v1H34zM36 23h125v1H36zM162 23h1v1H162zM37 24h125v1H37zM27 25h1v1H27zM36 25h1v1H36zM38 25h125v1H38zM35 26h128v1H35zM165 26h1v1H165zM25 27h1v1H25zM29 27h3v1H29zM33 27h134v1H33zM30 28h138v1H30zM23 29h1v1H23zM28 29h141v1H28zM23 30h1v1H23zM27 30h142v1H27zM27 31h143v1H27zM25 32h144v1H25zM170 32h1v1H170zM21 33h1v1H21zM26 33h14v1H26zM41 33h81v1H41zM125 33h1v1H125zM127 33h44v1H127zM24 34h17v1H24zM42 34h77v1H42zM127 34h44v1H127zM24 35h15v1H24zM40 35h1v1H40zM42 35h70v1H42zM113 35h1v1H113zM116 35h2v1H116zM127 35h1v1H127zM129 35h43v1H129zM20 36h1v1H20zM24 36h16v1H24zM43 36h67v1H43zM116 36h2v1H116zM127 36h41v1H127zM169 36h3v1H169zM24 37h16v1H24zM44 37h65v1H44zM116 37h2v1H116zM124 37h48v1H124zM20 38h1v1H20zM23 38h16v1H23zM43 38h5v1H43zM49 38h59v1H49zM116 38h2v1H116zM121 38h1v1H121zM124 38h1v1H124zM127 38h45v1H127zM20 39h1v1H20zM23 39h17v1H23zM41 39h4v1H41zM47 39h1v1H47zM49 39h60v1H49zM110 39h1v1H110zM127 39h46v1H127zM19 40h1v1H19zM23 40h2v1H23zM26 40h22v1H26zM50 40h50v1H50zM101 40h10v1H101zM126 40h47v1H126zM19 41h1v1H19zM23 41h1v1H23zM25 41h18v1H25zM49 41h1v1H49zM51 41h57v1H51zM109 41h1v1H109zM125 41h48v1H125zM19 42h1v1H19zM23 42h18v1H23zM51 42h53v1H51zM105 42h3v1H105zM125 42h2v1H125zM128 42h45v1H128zM19 43h22v1H19zM48 43h1v1H48zM53 43h30v1H53zM84 43h21v1H84zM125 43h1v1H125zM127 43h46v1H127zM19 44h21v1H19zM52 44h53v1H52zM117 44h3v1H117zM127 44h46v1H127zM19 45h20v1H19zM52 45h30v1H52zM84 45h20v1H84zM114 45h2v1H114zM119 45h1v1H119zM126 45h47v1H126zM19 46h19v1H19zM40 46h1v1H40zM51 46h29v1H51zM86 46h1v1H86zM89 46h14v1H89zM114 46h3v1H114zM126 46h47v1H126zM19 47h19v1H19zM50 47h22v1H50zM73 47h6v1H73zM88 47h13v1H88zM109 47h3v1H109zM115 47h3v1H115zM125 47h48v1H125zM19 48h20v1H19zM50 48h2v1H50zM53 48h27v1H53zM87 48h2v1H87zM90 48h11v1H90zM110 48h2v1H110zM118 48h2v1H118zM125 48h1v1H125zM127 48h46v1H127zM19 49h21v1H19zM41 49h1v1H41zM50 49h1v1H50zM52 49h22v1H52zM75 49h5v1H75zM89 49h10v1H89zM100 49h1v1H100zM107 49h1v1H107zM117 49h3v1H117zM125 49h48v1H125zM19 50h20v1H19zM41 50h1v1H41zM51 50h2v1H51zM54 50h21v1H54zM76 50h1v1H76zM89 50h10v1H89zM106 50h3v1H106zM117 50h1v1H117zM126 50h47v1H126zM19 51h22v1H19zM42 51h1v1H42zM54 51h21v1H54zM88 51h12v1H88zM107 51h3v1H107zM126 51h47v1H126zM19 52h24v1H19zM52 52h2v1H52zM56 52h19v1H56zM77 52h1v1H77zM89 52h10v1H89zM108 52h1v1H108zM116 52h1v1H116zM118 52h1v1H118zM126 52h47v1H126zM20 53h21v1H20zM42 53h2v1H42zM53 53h1v1H53zM56 53h18v1H56zM75 53h1v1H75zM86 53h2v1H86zM89 53h10v1H89zM104 53h2v1H104zM115 53h3v1H115zM124 53h1v1H124zM126 53h47v1H126zM19 54h21v1H19zM42 54h2v1H42zM53 54h1v1H53zM56 54h18v1H56zM75 54h1v1H75zM86 54h13v1H86zM105 54h3v1H105zM114 54h3v1H114zM123 54h50v1H123zM20 55h20v1H20zM41 55h4v1H41zM55 55h19v1H55zM75 55h1v1H75zM85 55h13v1H85zM106 55h1v1H106zM113 55h5v1H113zM124 55h49v1H124zM21 56h21v1H21zM43 56h2v1H43zM55 56h1v1H55zM58 56h14v1H58zM73 56h2v1H73zM85 56h13v1H85zM103 56h1v1H103zM112 56h2v1H112zM115 56h2v1H115zM124 56h49v1H124zM21 57h19v1H21zM42 57h4v1H42zM58 57h12v1H58zM71 57h1v1H71zM73 57h1v1H73zM84 57h14v1H84zM103 57h1v1H103zM112 57h3v1H112zM125 57h48v1H125zM22 58h25v1H22zM57 58h7v1H57zM65 58h3v1H65zM83 58h16v1H83zM103 58h1v1H103zM111 58h1v1H111zM113 58h2v1H113zM121 58h1v1H121zM124 58h49v1H124zM22 59h25v1H22zM60 59h3v1H60zM64 59h2v1H64zM82 59h19v1H82zM103 59h1v1H103zM111 59h1v1H111zM124 59h49v1H124zM21 60h27v1H21zM59 60h3v1H59zM65 60h1v1H65zM69 60h2v1H69zM81 60h18v1H81zM101 60h2v1H101zM109 60h4v1H109zM122 60h1v1H122zM124 60h49v1H124zM21 61h26v1H21zM60 61h3v1H60zM64 61h1v1H64zM80 61h1v1H80zM83 61h14v1H83zM98 61h1v1H98zM101 61h1v1H101zM109 61h2v1H109zM119 61h2v1H119zM124 61h49v1H124zM21 62h26v1H21zM48 62h2v1H48zM61 62h3v1H61zM67 62h1v1H67zM79 62h18v1H79zM99 62h1v1H99zM119 62h1v1H119zM121 62h1v1H121zM123 62h50v1H123zM19 63h1v1H19zM21 63h25v1H21zM48 63h2v1H48zM62 63h1v1H62zM64 63h1v1H64zM67 63h2v1H67zM78 63h19v1H78zM117 63h5v1H117zM123 63h50v1H123zM21 64h28v1H21zM63 64h1v1H63zM65 64h2v1H65zM77 64h1v1H77zM80 64h1v1H80zM82 64h13v1H82zM96 64h1v1H96zM116 64h1v1H116zM118 64h2v1H118zM123 64h50v1H123zM21 65h28v1H21zM65 65h3v1H65zM76 65h3v1H76zM82 65h13v1H82zM114 65h1v1H114zM116 65h2v1H116zM120 65h53v1H120zM21 66h21v1H21zM43 66h5v1H43zM52 66h2v1H52zM65 66h1v1H65zM78 66h2v1H78zM81 66h2v1H81zM84 66h5v1H84zM90 66h2v1H90zM112 66h2v1H112zM115 66h5v1H115zM121 66h52v1H121zM21 67h26v1H21zM50 67h3v1H50zM54 67h1v1H54zM75 67h1v1H75zM79 67h3v1H79zM84 67h2v1H84zM88 67h2v1H88zM91 67h1v1H91zM107 67h3v1H107zM112 67h1v1H112zM115 67h58v1H115zM19 68h34v1H19zM75 68h2v1H75zM84 68h1v1H84zM86 68h4v1H86zM105 68h2v1H105zM110 68h2v1H110zM113 68h60v1H113zM19 69h34v1H19zM56 69h1v1H56zM78 69h1v1H78zM87 69h2v1H87zM104 69h3v1H104zM110 69h63v1H110zM20 70h32v1H20zM53 70h1v1H53zM74 70h1v1H74zM78 70h1v1H78zM105 70h68v1H105zM20 71h34v1H20zM58 71h1v1H58zM74 71h1v1H74zM101 71h1v1H101zM106 71h67v1H106zM21 72h33v1H21zM55 72h1v1H55zM84 72h2v1H84zM99 72h5v1H99zM107 72h66v1H107zM19 73h30v1H19zM50 73h6v1H50zM60 73h1v1H60zM74 73h1v1H74zM97 73h76v1H97zM20 74h33v1H20zM54 74h2v1H54zM57 74h1v1H57zM60 74h1v1H60zM83 74h1v1H83zM96 74h77v1H96zM21 75h32v1H21zM54 75h5v1H54zM81 75h1v1H81zM94 75h1v1H94zM97 75h76v1H97zM20 76h40v1H20zM63 76h1v1H63zM76 76h1v1H76zM81 76h1v1H81zM93 76h1v1H93zM97 76h76v1H97zM20 77h40v1H20zM92 77h2v1H92zM96 77h77v1H96zM20 78h43v1H20zM65 78h1v1H65zM77 78h3v1H77zM91 78h1v1H91zM94 78h79v1H94zM19 79h44v1H19zM65 79h2v1H65zM90 79h83v1H90zM19 80h44v1H19zM65 80h1v1H65zM89 80h84v1H89zM20 81h46v1H20zM68 81h1v1H68zM90 81h83v1H90zM20 82h45v1H20zM87 82h1v1H87zM90 82h83v1H90zM20 83h48v1H20zM69 83h2v1H69zM86 83h2v1H86zM89 83h84v1H89zM21 84h49v1H21zM88 84h85v1H88zM21 85h49v1H21zM71 85h2v1H71zM87 85h86v1H87zM22 86h52v1H22zM84 86h1v1H84zM87 86h86v1H87zM22 87h48v1H22zM72 87h1v1H72zM84 87h3v1H84zM88 87h85v1H88zM22 88h49v1H22zM85 88h2v1H85zM88 88h85v1H88zM22 89h48v1H22zM82 89h1v1H82zM85 89h88v1H85zM21 90h48v1H21zM72 90h2v1H72zM82 90h1v1H82zM85 90h88v1H85zM22 91h50v1H22zM82 91h1v1H82zM85 91h88v1H85zM22 92h50v1H22zM81 92h1v1H81zM83 92h90v1H83zM22 93h49v1H22zM81 93h92v1H81zM22 94h50v1H22zM81 94h92v1H81zM22 95h50v1H22zM80 95h93v1H80zM22 96h50v1H22zM80 96h1v1H80zM82 96h91v1H82zM20 97h52v1H20zM81 97h92v1H81zM20 98h46v1H20zM67 98h3v1H67zM71 98h1v1H71zM80 98h1v1H80zM82 98h91v1H82zM20 99h49v1H20zM80 99h1v1H80zM83 99h90v1H83zM21 100h46v1H21zM68 100h1v1H68zM83 100h90v1H83zM22 101h45v1H22zM79 101h1v1H79zM81 101h92v1H81zM21 102h46v1H21zM70 102h1v1H70zM82 102h91v1H82zM20 103h49v1H20zM70 103h1v1H70zM79 103h1v1H79zM81 103h92v1H81zM20 104h50v1H20zM79 104h1v1H79zM83 104h39v1H83zM123 104h3v1H123zM127 104h46v1H127zM20 105h51v1H20zM79 105h2v1H79zM82 105h41v1H82zM129 105h4v1H129zM134 105h39v1H134zM20 106h51v1H20zM80 106h41v1H80zM134 106h39v1H134zM21 107h49v1H21zM78 107h1v1H78zM80 107h2v1H80zM83 107h11v1H83zM95 107h24v1H95zM132 107h3v1H132zM137 107h36v1H137zM21 108h49v1H21zM78 108h4v1H78zM83 108h1v1H83zM90 108h2v1H90zM95 108h3v1H95zM99 108h19v1H99zM138 108h35v1H138zM22 109h48v1H22zM78 109h2v1H78zM81 109h3v1H81zM94 109h6v1H94zM103 109h9v1H103zM114 109h3v1H114zM134 109h2v1H134zM138 109h35v1H138zM21 110h45v1H21zM67 110h3v1H67zM78 110h1v1H78zM92 110h1v1H92zM98 110h1v1H98zM103 110h9v1H103zM114 110h2v1H114zM137 110h1v1H137zM139 110h34v1H139zM22 111h10v1H22zM33 111h1v1H33zM35 111h17v1H35zM53 111h17v1H53zM81 111h1v1H81zM88 111h2v1H88zM102 111h2v1H102zM105 111h1v1H105zM108 111h3v1H108zM114 111h2v1H114zM136 111h2v1H136zM140 111h33v1H140zM21 112h10v1H21zM32 112h38v1H32zM102 112h2v1H102zM107 112h3v1H107zM112 112h1v1H112zM114 112h1v1H114zM136 112h2v1H136zM139 112h34v1H139zM22 113h48v1H22zM83 113h2v1H83zM106 113h4v1H106zM126 113h1v1H126zM137 113h36v1H137zM22 114h48v1H22zM85 114h1v1H85zM104 114h4v1H104zM111 114h2v1H111zM123 114h2v1H123zM126 114h2v1H126zM138 114h1v1H138zM142 114h31v1H142zM22 115h48v1H22zM105 115h1v1H105zM110 115h1v1H110zM112 115h1v1H112zM122 115h5v1H122zM138 115h2v1H138zM142 115h31v1H142zM22 116h48v1H22zM78 116h1v1H78zM83 116h1v1H83zM108 116h3v1H108zM121 116h1v1H121zM124 116h3v1H124zM138 116h1v1H138zM143 116h30v1H143zM22 117h48v1H22zM106 117h2v1H106zM111 117h1v1H111zM121 117h1v1H121zM123 117h2v1H123zM128 117h2v1H128zM143 117h30v1H143zM21 118h49v1H21zM80 118h2v1H80zM94 118h3v1H94zM107 118h1v1H107zM123 118h2v1H123zM127 118h3v1H127zM142 118h1v1H142zM144 118h29v1H144zM20 119h50v1H20zM78 119h1v1H78zM92 119h1v1H92zM95 119h1v1H95zM110 119h1v1H110zM120 119h1v1H120zM123 119h8v1H123zM139 119h1v1H139zM143 119h30v1H143zM19 120h2v1H19zM22 120h47v1H22zM92 120h3v1H92zM97 120h2v1H97zM109 120h1v1H109zM120 120h11v1H120zM142 120h31v1H142zM20 121h1v1H20zM22 121h45v1H22zM68 121h2v1H68zM79 121h1v1H79zM93 121h1v1H93zM97 121h1v1H97zM108 121h2v1H108zM119 121h1v1H119zM121 121h10v1H121zM142 121h31v1H142zM20 122h50v1H20zM78 122h2v1H78zM89 122h1v1H89zM93 122h1v1H93zM96 122h2v1H96zM118 122h2v1H118zM121 122h10v1H121zM140 122h2v1H140zM143 122h30v1H143zM20 123h50v1H20zM89 123h1v1H89zM91 123h1v1H91zM94 123h4v1H94zM118 123h14v1H118zM140 123h1v1H140zM143 123h30v1H143zM22 124h48v1H22zM90 124h3v1H90zM94 124h3v1H94zM99 124h2v1H99zM117 124h2v1H117zM120 124h13v1H120zM144 124h29v1H144zM22 125h48v1H22zM90 125h6v1H90zM97 125h3v1H97zM117 125h15v1H117zM143 125h30v1H143zM22 126h48v1H22zM86 126h1v1H86zM89 126h11v1H89zM101 126h1v1H101zM116 126h17v1H116zM142 126h31v1H142zM21 127h48v1H21zM87 127h15v1H87zM116 127h17v1H116zM142 127h31v1H142zM21 128h49v1H21zM85 128h1v1H85zM88 128h14v1H88zM116 128h17v1H116zM142 128h3v1H142zM146 128h27v1H146zM21 129h47v1H21zM89 129h13v1H89zM115 129h19v1H115zM142 129h1v1H142zM144 129h29v1H144zM22 130h48v1H22zM88 130h13v1H88zM115 130h19v1H115zM145 130h28v1H145zM22 131h48v1H22zM84 131h1v1H84zM87 131h14v1H87zM117 131h18v1H117zM144 131h1v1H144zM146 131h27v1H146zM22 132h48v1H22zM86 132h17v1H86zM117 132h18v1H117zM143 132h1v1H143zM146 132h27v1H146zM22 133h48v1H22zM85 133h17v1H85zM114 133h2v1H114zM117 133h18v1H117zM143 133h1v1H143zM147 133h26v1H147zM21 134h49v1H21zM82 134h1v1H82zM84 134h19v1H84zM114 134h21v1H114zM147 134h26v1H147zM20 135h50v1H20zM82 135h22v1H82zM114 135h1v1H114zM116 135h20v1H116zM144 135h2v1H144zM148 135h25v1H148zM21 136h49v1H21zM82 136h22v1H82zM113 136h23v1H113zM144 136h2v1H144zM148 136h25v1H148zM20 137h50v1H20zM81 137h23v1H81zM113 137h23v1H113zM149 137h24v1H149zM21 138h49v1H21zM81 138h22v1H81zM113 138h22v1H113zM136 138h1v1H136zM149 138h24v1H149zM21 139h49v1H21zM81 139h23v1H81zM113 139h24v1H113zM146 139h2v1H146zM150 139h23v1H150zM21 140h50v1H21zM81 140h21v1H81zM113 140h24v1H113zM146 140h3v1H146zM150 140h23v1H150zM20 141h50v1H20zM80 141h22v1H80zM104 141h1v1H104zM112 141h24v1H112zM137 141h1v1H137zM147 141h1v1H147zM150 141h23v1H150zM20 142h50v1H20zM80 142h25v1H80zM113 142h25v1H113zM149 142h2v1H149zM152 142h21v1H152zM19 143h51v1H19zM80 143h24v1H80zM111 143h28v1H111zM152 143h21v1H152zM19 144h51v1H19zM79 144h25v1H79zM106 144h2v1H106zM110 144h30v1H110zM154 144h19v1H154zM19 145h51v1H19zM79 145h25v1H79zM105 145h2v1H105zM109 145h31v1H109zM153 145h20v1H153zM19 146h51v1H19zM80 146h27v1H80zM109 146h32v1H109zM154 146h19v1H154zM19 147h50v1H19zM79 147h63v1H79zM155 147h18v1H155zM19 148h50v1H19zM70 148h1v1H70zM79 148h63v1H79zM155 148h18v1H155zM19 149h52v1H19zM78 149h64v1H78zM154 149h18v1H154zM19 150h52v1H19zM78 150h67v1H78zM153 150h19v1H153zM19 151h54v1H19zM77 151h69v1H77zM147 151h1v1H147zM152 151h20v1H152zM19 152h56v1H19zM76 152h95v1H76zM172 152h1v1H172zM20 153h151v1H20zM20 154h152v1H20zM20 155h1v1H20zM22 155h150v1H22zM21 156h150v1H21zM21 157h150v1H21zM21 158h150v1H21zM22 159h149v1H22zM25 160h145v1H25zM23 161h146v1H23zM23 162h146v1H23zM26 163h142v1H26zM25 164h142v1H25zM26 165h141v1H26zM27 166h133v1H27zM161 166h5v1H161zM28 167h134v1H28zM164 167h1v1H164zM29 168h135v1H29zM30 169h132v1H30zM31 170h129v1H31zM33 171h126v1H33zM35 172h122v1H35zM38 173h117v1H38zM41 174h108v1H41zM150 174h1v1H150z"/>
  <path fill="#102040" d="M98 63h1v1H98zM74 87h1v1H74z"/>
  <path fill="#082050" d="M110 120h1v1H110zM78 123h1v1H78zM78 124h1v1H78z"/>
  <path fill="#082848" d="M102 57h1v1H102zM118 62h1v1H118z"/>
  <path fill="#102048" d="M150 17h1v1H150zM164 24h1v1H164zM165 25h1v1H165zM19 39h1v1H19zM43 41h1v1H43zM47 42h1v1H47zM110 51h1v1H110zM71 59h1v1H71zM50 63h1v1H50zM52 65h1v1H52zM93 66h1v1H93zM90 68h1v1H90zM102 70h1v1H102zM84 73h1v1H84zM95 74h1v1H95zM82 75h1v1H82zM90 78h1v1H90zM88 80h1v1H88zM87 81h1v1H87zM74 88h1v1H74zM81 91h1v1H81zM79 99h1v1H79zM78 105h1v1H78zM123 105h1v1H123zM128 105h1v1H128zM119 107h1v1H119zM70 109h1v1H70zM97 110h1v1H97zM100 111h1v1H100zM113 114h1v1H113zM138 117h1v1H138zM130 118h1v1H130zM99 121h1v1H99zM87 124h1v1H87zM70 139h1v1H70zM137 140h1v1H137zM138 142h1v1H138zM149 143h1v1H149zM145 150h1v1H145zM20 156h1v1H20zM157 172h1v1H157zM37 173h1v1H37zM151 174h1v1H151z"/>
  <path fill="#102050" d="M89 79h1v1H89zM93 110h1v1H93zM76 151h1v1H76z"/>
  <path fill="#102848" d="M115 39h1v1H115zM101 48h1v1H101zM42 50h1v1H42zM98 56h1v1H98zM122 56h1v1H122zM104 58h1v1H104zM115 58h1v1H115zM70 138h1v1H70z"/>
  <path fill="#102850" d="M41 17h1v1H41zM31 21h1v1H31zM166 26h1v1H166zM20 35h1v1H20zM123 38h1v1H123zM48 44h1v1H48zM115 44h1v1H115zM109 52h1v1H109zM72 58h1v1H72zM109 66h1v1H109zM84 85h1v1H84zM73 91h1v1H73zM72 95h1v1H72zM124 113h1v1H124zM119 119h1v1H119zM118 121h1v1H118zM108 122h1v1H108zM100 123h1v1H100zM117 123h1v1H117zM113 135h1v1H113zM104 139h1v1H104zM78 148h1v1H78zM169 161h1v1H169zM167 164h1v1H167zM26 166h1v1H26zM27 167h1v1H27z"/>
  <path fill="#103050" d="M106 43h1v1H106zM112 45h1v1H112zM110 46h1v1H110zM113 48h1v1H113zM124 49h1v1H124zM111 50h1v1H111zM116 51h1v1H116zM99 52h1v1H99zM104 52h1v1H104zM123 53h1v1H123zM111 57h1v1H111zM110 58h1v1H110zM114 59h1v1H114zM115 64h1v1H115zM113 65h1v1H113zM105 66h2v1H105z"/>
  <path fill="#182850" d="M81 46h1v1H81zM57 59h1v1H57zM130 106h1v1H130zM88 112h1v1H88zM93 118h1v1H93zM111 118h1v1H111zM115 128h1v1H115zM103 133h1v1H103zM70 137h1v1H70zM112 140h1v1H112zM40 174h1v1H40z"/>
  <path fill="#103850" d="M112 40h1v1H112z"/>
  <path fill="#183050" d="M154 18h1v1H154zM163 23h1v1H163zM91 77h1v1H91zM79 79h1v1H79zM80 94h1v1H80zM116 110h1v1H116zM90 111h1v1H90zM70 136h1v1H70zM81 136h1v1H81zM171 157h1v1H171zM25 165h1v1H25zM28 168h1v1H28z"/>
  <path fill="#183058" d="M52 53h1v1H52zM100 71h1v1H100zM129 116h1v1H129z"/>
  <path fill="#183850" d="M100 50h1v1H100zM98 57h1v1H98zM116 57h1v1H116z"/>
  <path fill="#203050" d="M80 47h1v1H80zM67 66h1v1H67zM71 100h1v1H71zM121 106h1v1H121zM70 110h1v1H70zM112 116h1v1H112zM139 120h1v1H139zM109 123h1v1H109zM85 127h1v1H85zM84 129h1v1H84zM70 135h1v1H70zM71 150h1v1H71zM34 172h1v1H34z"/>
  <path fill="#183858" d="M112 49h1v1H112zM100 58h1v1H100zM107 66h2v1H107z"/>
  <path fill="#184050" d="M122 38h1v1H122zM120 44h1v1H120zM107 48h1v1H107z"/>
  <path fill="#203058" d="M169 30h1v1H169zM45 41h1v1H45zM78 52h1v1H78zM55 57h1v1H55zM98 72h1v1H98zM118 108h1v1H118zM133 127h1v1H133zM83 131h1v1H83zM136 137h1v1H136zM140 145h1v1H140zM162 169h1v1H162zM159 171h1v1H159z"/>
  <path fill="#184058" d="M102 47h1v1H102zM103 54h1v1H103zM105 57h1v1H105z"/>
  <path fill="#203858" d="M167 27h1v1H167zM21 32h1v1H21zM171 34h1v1H171zM173 51h1v1H173zM86 52h1v1H86zM173 52h1v1H173zM173 54h1v1H173zM173 55h1v1H173zM84 56h1v1H84zM173 56h1v1H173zM173 57h1v1H173zM56 58h1v1H56zM58 60h1v1H58zM173 61h1v1H173zM173 62h1v1H173zM173 63h1v1H173zM173 64h1v1H173zM173 65h1v1H173zM173 66h1v1H173zM173 67h1v1H173zM173 68h1v1H173zM173 69h1v1H173zM173 72h1v1H173zM173 73h1v1H173zM173 78h1v1H173zM173 79h1v1H173zM68 80h1v1H68zM173 80h1v1H173zM69 81h1v1H69zM173 81h1v1H173zM173 82h1v1H173zM173 83h1v1H173zM173 84h1v1H173zM173 89h1v1H173zM173 90h1v1H173zM173 91h1v1H173zM173 92h1v1H173zM173 93h1v1H173zM173 94h1v1H173zM173 98h1v1H173zM173 100h1v1H173zM117 109h1v1H117zM135 111h1v1H135zM173 112h1v1H173zM173 113h1v1H173zM173 115h1v1H173zM173 122h1v1H173zM173 123h1v1H173zM173 124h1v1H173zM173 125h1v1H173zM173 129h1v1H173zM70 134h1v1H70zM173 136h1v1H173zM173 137h1v1H173zM21 159h1v1H21z"/>
  <path fill="#184060" d="M116 48h1v1H116zM106 49h1v1H106z"/>
  <path fill="#203860" d="M59 61h1v1H59zM86 82h1v1H86z"/>
  <path fill="#283858" d="M37 18h1v1H37zM27 24h1v1H27zM26 25h1v1H26zM41 47h1v1H41zM173 48h1v1H173zM173 49h1v1H173zM173 50h1v1H173zM173 53h1v1H173zM173 58h1v1H173zM173 59h1v1H173zM173 60h1v1H173zM173 70h1v1H173zM173 71h1v1H173zM173 74h1v1H173zM173 75h1v1H173zM173 76h1v1H173zM173 77h1v1H173zM173 85h1v1H173zM173 86h1v1H173zM173 87h1v1H173zM173 88h1v1H173zM173 95h1v1H173zM173 96h1v1H173zM173 97h1v1H173zM173 99h1v1H173zM173 101h1v1H173zM173 102h1v1H173zM173 106h1v1H173zM173 107h1v1H173zM173 108h1v1H173zM173 109h1v1H173zM173 110h1v1H173zM70 111h1v1H70zM173 111h1v1H173zM173 114h1v1H173zM173 116h1v1H173zM173 117h1v1H173zM82 118h1v1H82zM173 119h1v1H173zM173 120h1v1H173zM173 121h1v1H173zM173 126h1v1H173zM173 127h1v1H173zM173 128h1v1H173zM173 130h1v1H173zM173 131h1v1H173zM70 132h1v1H70zM173 132h1v1H173zM70 133h1v1H70zM135 134h1v1H135zM173 134h1v1H173zM173 135h1v1H173zM173 138h1v1H173zM173 139h1v1H173zM173 140h1v1H173zM173 141h1v1H173zM173 143h1v1H173zM173 144h1v1H173zM151 151h1v1H151z"/>
  <path fill="#204858" d="M119 51h1v1H119z"/>
  <path fill="#283860" d="M85 46h1v1H85zM173 47h1v1H173zM45 56h1v1H45zM47 59h1v1H47zM89 69h1v1H89zM70 82h1v1H70zM173 103h1v1H173zM78 104h1v1H78zM173 104h1v1H173zM173 105h1v1H173zM173 118h1v1H173zM173 133h1v1H173zM80 139h1v1H80zM173 142h1v1H173zM79 143h1v1H79zM77 150h1v1H77zM148 151h1v1H148zM19 153h1v1H19zM172 154h1v1H172z"/>
  <path fill="#303858" d="M96 110h1v1H96z"/>
  <path fill="#204860" d="M105 44h1v1H105zM109 59h1v1H109zM111 61h1v1H111z"/>
  <path fill="#205058" d="M113 60h1v1H113z"/>
  <path fill="#284060" d="M75 76h1v1H75zM70 131h1v1H70zM114 131h1v1H114z"/>
  <path fill="#205060" d="M116 39h1v1H116zM124 39h1v1H124zM108 42h1v1H108zM120 45h1v1H120zM124 48h1v1H124zM115 52h1v1H115zM120 59h1v1H120z"/>
  <path fill="#304060" d="M151 17h1v1H151zM157 19h1v1H157zM25 26h1v1H25zM172 37h1v1H172zM44 41h1v1H44zM173 46h1v1H173zM75 66h1v1H75zM74 74h1v1H74zM66 78h1v1H66zM67 79h1v1H67zM71 83h1v1H71zM79 98h1v1H79zM127 105h1v1H127zM70 112h1v1H70zM87 113h1v1H87zM105 116h1v1H105zM120 117h1v1H120zM90 120h1v1H90zM141 127h1v1H141zM70 128h1v1H70zM70 130h1v1H70zM173 145h1v1H173zM153 149h1v1H153zM22 161h1v1H22zM24 164h1v1H24zM32 171h1v1H32zM49 175h95v1H49z"/>
  <path fill="#205860" d="M104 45h1v1H104zM105 50h1v1H105zM106 56h1v1H106z"/>
  <path fill="#304068" d="M19 38h1v1H19zM44 54h1v1H44zM104 68h1v1H104zM64 76h1v1H64zM92 76h1v1H92zM124 105h1v1H124zM94 110h1v1H94zM80 121h1v1H80zM89 121h1v1H89zM70 129h1v1H70zM104 138h1v1H104zM168 163h1v1H168z"/>
  <path fill="#205868" d="M102 61h1v1H102z"/>
  <path fill="#285860" d="M119 43h1v1H119zM103 46h1v1H103z"/>
  <path fill="#304868" d="M85 54h1v1H85zM102 128h1v1H102z"/>
  <path fill="#305060" d="M101 62h1v1H101z"/>
  <path fill="#384068" d="M48 175h1v1H48z"/>
  <path fill="#384860" d="M86 47h1v1H86zM79 50h1v1H79zM69 62h1v1H69zM70 127h1v1H70z"/>
  <path fill="#384868" d="M162 22h1v1H162zM28 23h1v1H28zM41 43h1v1H41zM173 45h1v1H173zM43 52h1v1H43zM60 62h1v1H60zM95 65h1v1H95zM62 74h1v1H62zM65 77h1v1H65zM85 83h1v1H85zM70 113h1v1H70zM137 115h1v1H137zM132 123h1v1H132zM101 125h1v1H101zM70 126h1v1H70zM145 139h1v1H145zM173 146h1v1H173zM29 169h1v1H29zM155 173h1v1H155zM144 175h1v1H144z"/>
  <path fill="#286068" d="M110 41h1v1H110zM114 44h1v1H114zM120 46h1v1H120zM118 54h1v1H118zM122 55h1v1H122zM116 63h1v1H116z"/>
  <path fill="#384870" d="M153 146h1v1H153z"/>
  <path fill="#385070" d="M78 147h1v1H78z"/>
  <path fill="#405068" d="M70 114h1v1H70zM128 114h1v1H128zM83 117h1v1H83z"/>
  <path fill="#286870" d="M114 53h1v1H114z"/>
  <path fill="#306868" d="M99 53h1v1H99zM117 56h1v1H117z"/>
  <path fill="#405070" d="M40 17h1v1H40zM159 20h1v1H159zM22 30h1v1H22zM173 44h1v1H173zM54 56h1v1H54zM74 68h1v1H74zM61 73h1v1H61zM63 75h1v1H63zM72 84h1v1H72zM71 101h1v1H71zM95 110h1v1H95zM136 113h1v1H136zM70 115h1v1H70zM91 119h1v1H91zM98 119h1v1H98zM131 120h1v1H131zM70 124h1v1H70zM140 124h1v1H140zM70 125h1v1H70zM116 125h1v1H116zM134 130h1v1H134zM142 131h1v1H142zM103 132h1v1H103zM82 133h1v1H82zM143 134h1v1H143zM112 139h1v1H112zM151 144h1v1H151zM173 147h1v1H173zM144 149h1v1H144zM152 174h1v1H152zM47 175h1v1H47z"/>
  <path fill="#306870" d="M108 47h1v1H108zM124 47h1v1H124zM123 52h1v1H123zM108 60h1v1H108z"/>
  <path fill="#405870" d="M92 67h1v1H92z"/>
  <path fill="#485070" d="M50 50h1v1H50zM107 120h1v1H107z"/>
  <path fill="#307070" d="M117 39h1v1H117zM113 40h1v1H113zM120 43h1v1H120zM120 47h1v1H120zM121 57h1v1H121zM112 65h1v1H112z"/>
  <path fill="#485870" d="M34 19h1v1H34zM48 45h1v1H48zM68 64h1v1H68zM60 72h1v1H60zM83 86h1v1H83zM82 88h1v1H82zM70 116h1v1H70zM70 117h1v1H70zM70 119h1v1H70zM70 120h1v1H70zM70 121h1v1H70zM70 122h1v1H70zM70 123h1v1H70zM79 123h1v1H79zM161 170h1v1H161zM145 175h1v1H145z"/>
  <path fill="#485878" d="M24 27h1v1H24zM168 28h1v1H168zM88 70h1v1H88zM96 73h1v1H96zM73 92h1v1H73zM72 96h1v1H72zM78 103h1v1H78zM127 113h1v1H127zM70 118h1v1H70zM110 121h1v1H110zM113 134h1v1H113zM36 173h1v1H36zM46 175h1v1H46z"/>
  <path fill="#307878" d="M118 43h1v1H118zM107 55h1v1H107z"/>
  <path fill="#387870" d="M99 58h1v1H99z"/>
  <path fill="#505878" d="M42 42h1v1H42zM20 157h1v1H20z"/>
  <path fill="#387878" d="M124 46h1v1H124zM113 54h1v1H113z"/>
  <path fill="#506078" d="M55 16h2v1H55zM58 16h2v1H58zM65 16h3v1H65zM74 16h1v1H74zM77 16h2v1H77zM90 16h11v1H90zM104 16h1v1H104zM121 16h1v1H121zM123 16h1v1H123zM127 16h1v1H127zM130 16h2v1H130zM140 16h1v1H140zM76 55h1v1H76zM83 57h1v1H83zM80 78h1v1H80zM114 113h1v1H114zM97 118h1v1H97zM78 125h1v1H78zM86 125h1v1H86zM144 137h1v1H144zM147 142h1v1H147zM106 143h1v1H106zM173 148h1v1H173zM75 151h1v1H75zM39 174h1v1H39z"/>
  <path fill="#388078" d="M111 45h1v1H111zM119 52h1v1H119zM103 53h1v1H103zM103 60h1v1H103zM119 60h1v1H119zM107 61h1v1H107z"/>
  <path fill="#506080" d="M49 16h6v1H49zM57 16h1v1H57zM60 16h5v1H60zM68 16h6v1H68zM75 16h2v1H75zM79 16h11v1H79zM101 16h3v1H101zM105 16h16v1H105zM122 16h1v1H122zM124 16h3v1H124zM128 16h2v1H128zM132 16h8v1H132zM141 16h2v1H141zM20 34h1v1H20zM49 48h1v1H49zM61 63h1v1H61zM97 64h1v1H97zM103 69h1v1H103zM73 85h1v1H73zM125 105h2v1H125zM106 118h1v1H106zM104 137h1v1H104zM105 142h1v1H105zM141 146h1v1H141zM73 151h1v1H73z"/>
  <path fill="#388878" d="M108 54h1v1H108z"/>
  <path fill="#586080" d="M143 16h1v1H143zM173 43h1v1H173zM51 52h1v1H51zM77 63h1v1H77zM67 67h1v1H67zM59 71h1v1H59zM108 123h1v1H108z"/>
  <path fill="#388880" d="M116 50h1v1H116z"/>
  <path fill="#586880" d="M48 16h1v1H48zM32 20h1v1H32zM74 89h1v1H74zM81 90h1v1H81zM80 93h1v1H80zM86 114h1v1H86zM138 118h1v1H138zM170 160h1v1H170zM45 175h1v1H45zM146 175h1v1H146z"/>
  <path fill="#408880" d="M118 39h1v1H118zM124 45h1v1H124zM101 49h1v1H101zM112 55h1v1H112zM114 64h1v1H114z"/>
  <path fill="#586888" d="M134 110h1v1H134zM88 122h1v1H88z"/>
  <path fill="#606880" d="M144 16h1v1H144zM18 47h1v1H18zM18 48h1v1H18zM18 49h1v1H18zM18 50h1v1H18zM18 51h1v1H18zM18 52h1v1H18zM18 53h1v1H18zM18 54h1v1H18zM18 55h1v1H18zM18 56h1v1H18zM18 57h1v1H18zM18 58h1v1H18zM18 59h1v1H18zM18 60h1v1H18zM18 61h1v1H18zM18 62h1v1H18zM18 63h1v1H18zM18 64h1v1H18zM18 65h1v1H18zM18 66h1v1H18zM18 67h1v1H18zM18 68h1v1H18zM18 69h1v1H18zM18 70h1v1H18zM18 71h1v1H18zM18 72h1v1H18zM18 73h1v1H18zM18 74h1v1H18zM18 75h1v1H18zM93 75h1v1H93zM18 76h1v1H18zM18 77h1v1H18zM18 78h1v1H18zM18 79h1v1H18zM18 80h1v1H18zM18 81h1v1H18zM18 82h1v1H18zM18 83h1v1H18zM18 84h1v1H18zM18 85h1v1H18zM18 86h1v1H18zM18 87h1v1H18zM18 88h1v1H18zM18 89h1v1H18zM18 90h1v1H18zM18 91h1v1H18zM18 92h1v1H18zM18 93h1v1H18zM18 94h1v1H18zM18 95h1v1H18zM18 96h1v1H18zM18 97h1v1H18zM18 98h1v1H18zM18 99h1v1H18zM18 100h1v1H18zM18 101h1v1H18zM18 102h1v1H18zM18 103h1v1H18zM18 104h1v1H18zM18 105h1v1H18zM18 106h1v1H18zM18 107h1v1H18zM18 108h1v1H18zM18 109h1v1H18zM18 110h1v1H18zM18 111h1v1H18zM18 112h1v1H18zM18 113h1v1H18zM18 114h1v1H18zM18 115h1v1H18zM18 116h1v1H18zM84 116h1v1H84zM18 117h1v1H18zM18 118h1v1H18zM18 119h1v1H18zM18 120h1v1H18zM18 121h1v1H18zM18 122h1v1H18zM18 123h1v1H18zM18 124h1v1H18zM18 125h1v1H18zM18 126h1v1H18zM18 127h1v1H18zM18 128h1v1H18zM18 129h1v1H18zM18 130h1v1H18zM18 131h1v1H18zM18 132h1v1H18zM18 133h1v1H18zM18 134h1v1H18zM18 135h1v1H18zM18 136h1v1H18zM18 137h1v1H18zM18 138h1v1H18zM18 139h1v1H18zM18 140h1v1H18zM18 141h1v1H18zM18 142h1v1H18zM111 142h1v1H111zM18 143h1v1H18zM18 144h1v1H18zM143 148h1v1H143z"/>
  <path fill="#409080" d="M124 40h1v1H124zM117 43h1v1H117zM114 48h1v1H114zM120 48h1v1H120zM116 49h1v1H116zM104 51h1v1H104zM102 56h1v1H102zM101 57h1v1H101zM118 61h1v1H118zM108 62h1v1H108zM117 62h1v1H117z"/>
  <path fill="#606888" d="M48 60h1v1H48z"/>
  <path fill="#409880" d="M100 51h1v1H100z"/>
  <path fill="#607088" d="M47 16h1v1H47zM155 18h1v1H155zM29 22h1v1H29zM170 31h1v1H170zM18 46h1v1H18zM53 55h1v1H53zM75 56h1v1H75zM62 64h1v1H62zM63 65h1v1H63zM58 70h1v1H58zM79 97h1v1H79zM71 102h1v1H71zM101 112h1v1H101zM85 115h1v1H85zM139 121h1v1H139zM133 126h1v1H133zM137 139h1v1H137zM79 142h1v1H79zM110 143h1v1H110zM18 145h1v1H18zM173 149h1v1H173zM19 154h1v1H19z"/>
  <path fill="#409888" d="M124 41h1v1H124zM113 44h1v1H113zM123 51h1v1H123z"/>
  <path fill="#489088" d="M124 44h1v1H124z"/>
  <path fill="#687088" d="M145 16h1v1H145zM42 49h1v1H42zM77 54h1v1H77zM131 107h1v1H131zM18 146h1v1H18zM142 147h1v1H142zM23 163h1v1H23z"/>
  <path fill="#489888" d="M107 43h1v1H107zM124 43h1v1H124zM99 54h1v1H99z"/>
  <path fill="#687090" d="M173 42h1v1H173zM146 150h1v1H146zM149 151h1v1H149z"/>
  <path fill="#48a088" d="M111 41h1v1H111zM124 42h1v1H124zM109 46h1v1H109zM109 53h1v1H109zM112 61h1v1H112zM109 62h1v1H109z"/>
  <path fill="#687890" d="M19 37h1v1H19zM18 45h1v1H18zM78 62h1v1H78zM99 63h1v1H99zM64 66h1v1H64zM99 111h1v1H99zM122 114h1v1H122zM141 128h1v1H141zM112 138h1v1H112zM150 151h1v1H150zM172 155h1v1H172zM171 158h1v1H171zM147 175h1v1H147z"/>
  <path fill="#48a090" d="M122 54h1v1H122zM111 56h1v1H111zM111 65h1v1H111z"/>
  <path fill="#48a888" d="M104 59h1v1H104z"/>
  <path fill="#707890" d="M46 16h1v1H46zM152 17h1v1H152zM41 46h1v1H41zM57 69h1v1H57zM81 77h1v1H81zM78 102h1v1H78zM91 111h1v1H91zM104 115h1v1H104zM100 122h1v1H100zM109 124h1v1H109zM115 127h1v1H115zM114 130h1v1H114zM135 133h1v1H135zM81 135h1v1H81zM80 138h1v1H80zM139 143h1v1H139zM30 170h1v1H30zM44 175h1v1H44z"/>
  <path fill="#48a890" d="M107 62h1v1H107z"/>
  <path fill="#708090" d="M172 36h1v1H172zM86 51h1v1H86zM111 119h1v1H111zM81 120h1v1H81zM118 120h1v1H118zM78 146h1v1H78z"/>
  <path fill="#50a890" d="M119 39h1v1H119zM114 40h1v1H114zM115 48h1v1H115zM120 49h1v1H120zM110 52h1v1H110z"/>
  <path fill="#708098" d="M36 18h1v1H36zM46 57h1v1H46zM76 64h1v1H76zM65 67h1v1H65zM87 71h1v1H87zM103 131h1v1H103zM18 147h1v1H18zM152 150h1v1H152z"/>
  <path fill="#50b090" d="M116 43h1v1H116zM111 51h1v1H111zM118 55h1v1H118zM116 58h1v1H116zM115 59h1v1H115z"/>
  <path fill="#788098" d="M146 16h1v1H146zM161 21h1v1H161zM18 44h1v1H18zM130 117h1v1H130zM117 122h1v1H117zM136 136h1v1H136zM138 141h1v1H138zM152 145h1v1H152zM74 151h1v1H74zM158 172h1v1H158z"/>
  <path fill="#788898" d="M82 58h1v1H82zM104 136h1v1H104z"/>
  <path fill="#50b898" d="M120 58h1v1H120z"/>
  <path fill="#808898" d="M173 150h1v1H173z"/>
  <path fill="#58b898" d="M109 42h1v1H109zM112 50h1v1H112zM110 57h1v1H110zM105 58h1v1H105zM114 60h1v1H114z"/>
  <path fill="#8088a0" d="M45 16h1v1H45zM39 17h1v1H39zM171 33h1v1H171zM82 46h1v1H82zM79 61h1v1H79zM56 68h1v1H56zM101 70h1v1H101zM72 97h1v1H72zM99 120h1v1H99zM146 141h1v1H146zM148 143h1v1H148zM153 148h1v1H153zM169 162h1v1H169zM148 175h1v1H148z"/>
  <path fill="#58c098" d="M120 39h1v1H120zM102 48h1v1H102zM109 58h1v1H109zM110 62h1v1H110z"/>
  <path fill="#8090a0" d="M23 28h1v1H23zM173 41h1v1H173zM80 60h1v1H80zM70 61h1v1H70zM71 103h1v1H71zM120 107h1v1H120zM113 115h1v1H113zM102 127h1v1H102zM18 148h1v1H18zM153 174h1v1H153z"/>
  <path fill="#58c0a0" d="M106 48h1v1H106zM119 53h1v1H119zM115 63h1v1H115zM110 65h1v1H110z"/>
  <path fill="#8890a0" d="M49 61h1v1H49zM94 66h1v1H94zM91 68h1v1H91zM84 84h1v1H84zM73 93h1v1H73zM133 109h1v1H133zM123 113h1v1H123zM119 118h1v1H119zM132 122h1v1H132zM140 125h1v1H140zM153 147h1v1H153z"/>
  <path fill="#58c8a0" d="M107 47h1v1H107zM123 50h1v1H123zM102 55h1v1H102z"/>
  <path fill="#60c0a0" d="M113 49h1v1H113zM99 55h1v1H99z"/>
  <path fill="#8890a8" d="M18 43h1v1H18zM74 57h1v1H74zM81 59h1v1H81zM55 67h1v1H55zM99 71h1v1H99zM89 112h1v1H89zM102 113h1v1H102zM121 115h1v1H121zM129 115h1v1H129zM92 118h1v1H92zM84 128h1v1H84zM83 130h1v1H83z"/>
  <path fill="#58d0a0" d="M113 64h1v1H113z"/>
  <path fill="#60c8a0" d="M106 44h1v1H106zM105 45h1v1H105zM110 45h1v1H110zM103 47h1v1H103zM105 49h1v1H105zM120 50h1v1H120zM115 51h1v1H115zM103 52h1v1H103zM121 56h1v1H121zM117 57h1v1H117zM102 62h1v1H102z"/>
  <path fill="#9090a8" d="M41 44h1v1H41z"/>
  <path fill="#60d0a0" d="M121 39h1v1H121zM115 40h1v1H115zM117 40h5v1H117zM123 40h1v1H123zM113 41h2v1H113zM121 41h3v1H121zM110 42h2v1H110zM121 42h3v1H121zM108 43h1v1H108zM110 43h4v1H110zM122 43h2v1H122zM108 44h1v1H108zM110 44h1v1H110zM112 44h1v1H112zM121 44h2v1H121zM121 45h2v1H121zM104 46h3v1H104zM121 46h2v1H121zM104 47h3v1H104zM122 47h2v1H122zM103 48h1v1H103zM121 48h3v1H121zM102 49h3v1H102zM121 49h2v1H121zM101 50h4v1H101zM121 50h2v1H121zM101 51h1v1H101zM120 51h2v1H120zM101 52h2v1H101zM111 52h1v1H111zM114 52h1v1H114zM120 52h2v1H120zM102 53h1v1H102zM120 53h2v1H120zM100 54h1v1H100zM102 54h1v1H102zM109 54h1v1H109zM100 55h2v1H100zM109 55h1v1H109zM119 55h2v1H119zM100 56h2v1H100zM107 56h1v1H107zM118 56h2v1H118zM106 57h2v1H106zM118 57h2v1H118zM117 58h3v1H117zM105 59h1v1H105zM116 59h4v1H116zM104 60h4v1H104zM115 60h4v1H115zM103 61h4v1H103zM113 61h5v1H113zM103 62h4v1H103zM111 62h6v1H111zM102 63h13v1H102zM103 64h2v1H103zM107 64h6v1H107z"/>
  <path fill="#9098a8" d="M147 16h1v1H147zM48 46h1v1H48zM79 51h1v1H79zM74 86h1v1H74zM129 106h1v1H129zM77 113h1v1H77zM77 114h1v1H77zM103 114h1v1H103zM77 115h1v1H77zM77 116h1v1H77zM77 117h1v1H77zM77 118h1v1H77zM77 119h1v1H77zM101 124h1v1H101zM134 129h1v1H134zM113 133h1v1H113zM143 135h1v1H143zM150 144h1v1H150zM165 167h1v1H165zM156 173h1v1H156zM43 175h1v1H43z"/>
  <path fill="#60d0a8" d="M116 40h1v1H116zM122 40h1v1H122zM112 41h1v1H112zM115 41h6v1H115zM112 42h8v1H112zM109 43h1v1H109zM114 43h2v1H114zM121 43h1v1H121zM107 44h1v1H107zM109 44h1v1H109zM111 44h1v1H111zM123 44h1v1H123zM107 45h3v1H107zM107 46h1v1H107zM123 46h1v1H123zM104 48h2v1H104zM114 49h2v1H114zM123 49h1v1H123zM113 50h3v1H113zM102 51h2v1H102zM113 51h2v1H113zM122 51h1v1H122zM100 52h1v1H100zM112 52h2v1H112zM122 52h1v1H122zM100 53h2v1H100zM111 53h3v1H111zM122 53h1v1H122zM101 54h1v1H101zM110 54h3v1H110zM119 54h3v1H119zM108 55h1v1H108zM110 55h2v1H110zM121 55h1v1H121zM108 56h3v1H108zM120 56h1v1H120zM100 57h1v1H100zM108 57h2v1H108zM120 57h1v1H120zM106 58h3v1H106zM106 59h2v1H106zM105 64h2v1H105zM104 65h1v1H104zM106 65h4v1H106z"/>
  <path fill="#68d0a0" d="M106 45h1v1H106z"/>
  <path fill="#9098b0" d="M74 75h1v1H74zM79 96h1v1H79zM122 106h1v1H122zM132 108h1v1H132zM77 112h1v1H77zM77 120h1v1H77zM142 132h1v1H142zM71 149h1v1H71z"/>
  <path fill="#68d0a8" d="M122 39h2v1H122zM120 42h1v1H120zM123 45h1v1H123zM108 46h1v1H108zM121 47h1v1H121zM112 51h1v1H112zM110 53h1v1H110zM108 59h1v1H108z"/>
  <path fill="#90a0b0" d="M84 46h1v1H84zM77 79h1v1H77zM112 117h1v1H112zM166 166h1v1H166z"/>
  <path fill="#9898b0" d="M77 121h1v1H77z"/>
  <path fill="#68d8a8" d="M99 56h1v1H99zM99 57h1v1H99zM105 65h1v1H105z"/>
  <path fill="#98a0b0" d="M44 16h1v1H44zM169 29h1v1H169zM43 51h1v1H43zM54 66h1v1H54zM66 68h1v1H66zM86 72h1v1H86zM82 76h1v1H82zM78 101h1v1H78zM77 111h1v1H77zM115 112h1v1H115zM137 116h1v1H137zM131 119h1v1H131zM87 123h1v1H87zM116 124h1v1H116zM112 137h1v1H112zM79 141h1v1H79zM18 149h1v1H18zM173 151h1v1H173zM21 160h1v1H21zM160 171h1v1H160zM33 172h1v1H33zM38 174h1v1H38z"/>
  <path fill="#a0a0b0" d="M18 42h1v1H18zM41 45h1v1H41zM80 48h1v1H80zM51 63h1v1H51zM125 112h1v1H125zM95 117h1v1H95zM77 122h1v1H77zM82 132h1v1H82zM164 168h1v1H164z"/>
  <path fill="#a0a0b8" d="M71 104h1v1H71z"/>
  <path fill="#a0a8b0" d="M108 124h1v1H108z"/>
  <path fill="#78d8b0" d="M102 64h1v1H102zM103 65h1v1H103z"/>
  <path fill="#a0a8b8" d="M30 21h1v1H30zM21 31h1v1H21zM173 40h1v1H173zM46 42h1v1H46zM47 43h1v1H47zM45 55h1v1H45zM84 55h1v1H84zM50 62h1v1H50zM52 64h1v1H52zM53 65h1v1H53zM104 67h1v1H104zM94 74h1v1H94zM76 78h1v1H76zM80 92h1v1H80zM77 110h1v1H77zM107 121h1v1H107zM139 122h1v1H139zM77 123h1v1H77zM77 124h1v1H77zM133 125h1v1H133zM19 155h1v1H19zM20 158h1v1H20zM35 173h1v1H35zM149 175h1v1H149z"/>
  <path fill="#a0b0b8" d="M52 54h1v1H52z"/>
  <path fill="#a8a8b8" d="M104 135h1v1H104z"/>
  <path fill="#a8b0b8" d="M158 19h1v1H158z"/>
  <path fill="#a8b0c0" d="M148 16h1v1H148zM78 53h1v1H78zM73 58h1v1H73zM74 67h1v1H74zM97 72h1v1H97zM85 73h1v1H85zM83 75h1v1H83zM87 80h1v1H87zM135 112h1v1H135zM77 125h1v1H77zM141 129h1v1H141zM103 130h1v1H103zM78 145h1v1H78zM167 165h1v1H167z"/>
  <path fill="#b0b0c0" d="M20 33h1v1H20zM19 36h1v1H19zM85 53h1v1H85zM71 60h1v1H71zM84 74h1v1H84zM88 79h1v1H88zM74 90h1v1H74zM77 109h1v1H77zM126 112h1v1H126zM110 122h1v1H110zM18 150h1v1H18zM42 175h1v1H42z"/>
  <path fill="#b0b8c0" d="M43 16h1v1H43zM165 24h1v1H165zM68 65h1v1H68zM75 65h1v1H75zM72 98h1v1H72zM135 132h1v1H135zM144 138h1v1H144zM31 171h1v1H31z"/>
  <path fill="#b0b8c8" d="M153 17h1v1H153zM18 41h1v1H18zM86 48h1v1H86zM71 105h1v1H71zM85 126h1v1H85zM80 137h1v1H80zM77 149h1v1H77z"/>
  <path fill="#b8b8c8" d="M44 53h1v1H44zM82 87h1v1H82zM94 117h1v1H94zM105 117h1v1H105zM80 122h1v1H80zM114 129h1v1H114zM172 156h1v1H172zM22 162h1v1H22z"/>
  <path fill="#b8c0c8" d="M156 18h1v1H156zM166 25h1v1H166zM83 46h1v1H83zM47 58h1v1H47zM96 65h1v1H96zM75 77h1v1H75zM89 78h1v1H89zM78 80h1v1H78zM92 111h1v1H92zM116 111h1v1H116zM82 119h1v1H82zM138 119h1v1H138zM137 138h1v1H137zM173 152h1v1H173zM26 167h1v1H26zM163 169h1v1H163z"/>
  <path fill="#c0c0c8" d="M73 71h1v1H73z"/>
  <path fill="#c0c0d0" d="M173 39h1v1H173zM86 50h1v1H86zM50 51h1v1H50zM90 77h1v1H90zM77 108h1v1H77zM98 111h1v1H98zM136 114h1v1H136zM120 116h1v1H120zM140 144h1v1H140z"/>
  <path fill="#c0c8d0" d="M33 19h1v1H33zM172 35h1v1H172zM42 48h1v1H42zM72 59h1v1H72zM69 63h1v1H69zM67 68h1v1H67zM90 69h1v1H90zM73 72h1v1H73zM86 81h1v1H86zM73 94h1v1H73zM78 100h1v1H78zM79 124h1v1H79zM105 141h1v1H105z"/>
  <path fill="#c0d0d0" d="M104 66h1v1H104z"/>
  <path fill="#c8c8d0" d="M149 16h1v1H149zM160 20h1v1H160zM164 23h1v1H164zM167 26h1v1H167zM79 80h1v1H79zM81 89h1v1H81zM107 143h1v1H107zM72 150h1v1H72zM25 166h1v1H25z"/>
  <path fill="#c8c8d8" d="M49 49h1v1H49z"/>
  <path fill="#c8d0d0" d="M112 136h1v1H112z"/>
  <path fill="#c8d0d8" d="M38 17h1v1H38zM22 29h1v1H22zM79 95h1v1H79zM71 106h1v1H71zM119 108h1v1H119zM145 140h1v1H145zM109 143h1v1H109zM147 150h1v1H147zM18 151h1v1H18zM27 168h1v1H27zM150 175h1v1H150z"/>
  <path fill="#d0d0d8" d="M35 18h1v1H35zM56 59h1v1H56zM57 60h1v1H57zM73 70h1v1H73zM96 117h1v1H96zM106 119h1v1H106zM140 126h1v1H140zM81 134h1v1H81zM136 135h1v1H136z"/>
  <path fill="#d0d0e0" d="M71 148h1v1H71z"/>
  <path fill="#d0d8e0" d="M42 16h1v1H42zM18 40h1v1H18zM93 67h1v1H93zM95 73h1v1H95zM77 107h1v1H77zM118 109h1v1H118zM88 113h1v1H88zM115 126h1v1H115zM134 128h1v1H134zM113 132h1v1H113zM104 134h1v1H104zM111 141h1v1H111zM76 150h1v1H76zM171 159h1v1H171z"/>
  <path fill="#d8d8e0" d="M31 20h1v1H31zM163 22h1v1H163zM26 24h1v1H26zM55 58h1v1H55zM100 63h1v1H100zM69 80h1v1H69zM117 110h1v1H117zM114 114h1v1H114zM111 120h1v1H111zM86 124h1v1H86zM79 140h1v1H79zM145 149h1v1H145zM168 164h1v1H168zM24 165h1v1H24zM28 169h1v1H28zM154 174h1v1H154zM41 175h1v1H41z"/>
  <path fill="#d8e0e0" d="M171 32h1v1H171zM48 47h1v1H48zM81 47h1v1H81zM58 61h1v1H58zM98 64h1v1H98zM83 85h1v1H83zM78 126h1v1H78zM71 147h1v1H71z"/>
  <path fill="#e0e0e0" d="M91 76h1v1H91zM124 112h1v1H124zM132 121h1v1H132z"/>
  <path fill="#e0e0e8" d="M25 25h1v1H25zM43 42h1v1H43zM80 49h1v1H80zM59 62h1v1H59zM102 69h1v1H102zM68 79h1v1H68zM80 79h1v1H80zM70 81h1v1H70zM71 82h1v1H71zM85 82h1v1H85zM71 107h1v1H71zM118 119h1v1H118zM133 124h1v1H133zM109 125h1v1H109zM77 126h1v1H77zM102 126h1v1H102zM142 133h1v1H142zM139 142h1v1H139zM78 144h1v1H78zM149 144h1v1H149zM71 146h1v1H71zM170 161h1v1H170z"/>
  <path fill="#e0e8e8" d="M86 49h1v1H86zM67 78h1v1H67zM72 99h1v1H72zM100 112h1v1H100zM89 120h1v1H89zM103 129h1v1H103zM143 136h1v1H143zM71 145h1v1H71zM37 174h1v1H37z"/>
  <path fill="#e0f0e8" d="M101 63h1v1H101z"/>
  <path fill="#e8e8e8" d="M54 57h1v1H54z"/>
  <path fill="#e8e8f0" d="M27 23h1v1H27zM24 26h1v1H24zM170 30h1v1H170zM173 38h1v1H173zM51 53h1v1H51zM83 56h1v1H83zM62 73h1v1H62zM73 73h1v1H73zM92 75h1v1H92zM65 76h1v1H65zM66 77h1v1H66zM80 91h1v1H80zM77 106h1v1H77zM83 118h1v1H83zM131 118h1v1H131zM90 119h1v1H90zM100 121h1v1H100zM101 123h1v1H101zM139 123h1v1H139zM141 130h1v1H141zM138 140h1v1H138zM71 144h1v1H71zM141 145h1v1H141zM173 153h1v1H173zM19 156h1v1H19zM162 170h1v1H162zM157 173h1v1H157z"/>
  <path fill="#e0f8f0" d="M102 65h1v1H102z"/>
  <path fill="#e8f0f0" d="M168 27h1v1H168zM123 106h1v1H123zM130 107h1v1H130zM137 117h1v1H137zM98 118h1v1H98zM117 121h1v1H117zM135 131h1v1H135zM105 140h1v1H105z"/>
  <path fill="#f0f0f0" d="M150 16h1v1H150zM28 22h1v1H28zM19 35h1v1H19zM18 39h1v1H18zM85 47h1v1H85zM43 50h1v1H43zM79 52h1v1H79zM46 56h1v1H46zM48 59h1v1H48zM60 63h1v1H60zM73 69h1v1H73zM89 70h1v1H89zM100 70h1v1H100zM60 71h1v1H60zM98 71h1v1H98zM63 74h1v1H63zM64 75h1v1H64zM72 83h1v1H72zM73 84h1v1H73zM75 87h1v1H75zM75 88h1v1H75zM78 99h1v1H78zM128 106h1v1H128zM71 108h1v1H71zM134 111h1v1H134zM90 112h1v1H90zM128 113h1v1H128zM87 114h1v1H87zM104 116h1v1H104zM113 116h1v1H113zM130 116h1v1H130zM112 118h1v1H112zM88 121h1v1H88zM107 122h1v1H107zM116 123h1v1H116zM84 127h1v1H84zM83 129h1v1H83zM82 131h1v1H82zM71 143h1v1H71zM108 143h1v1H108zM18 152h1v1H18zM169 163h1v1H169zM159 172h1v1H159z"/>
  <path fill="#f0f0f8" d="M154 17h1v1H154zM61 72h1v1H61zM74 91h1v1H74zM121 107h1v1H121zM93 111h1v1H93zM97 111h1v1H97zM129 114h1v1H129zM84 117h1v1H84zM108 125h1v1H108zM77 148h1v1H77zM144 148h1v1H144zM34 173h1v1H34zM151 175h1v1H151z"/>
  <path fill="#f0f8f8" d="M93 117h1v1H93zM112 135h1v1H112zM80 136h1v1H80zM71 142h1v1H71z"/>
  <path fill="#f8f8f8" d="M41 16h1v1H41zM37 17h1v1H37zM157 18h1v1H157zM159 19h1v1H159zM162 21h1v1H162zM169 28h1v1H169zM21 30h1v1H21zM20 32h1v1H20zM172 34h1v1H172zM44 42h2v1H44zM42 43h1v1H42zM47 44h1v1H47zM174 44h1v1H174zM42 46h1v1H42zM42 47h1v1H42zM17 48h1v1H17zM17 49h1v1H17zM17 51h1v1H17zM85 52h1v1H85zM45 54h1v1H45zM84 54h1v1H84zM77 55h1v1H77zM53 56h1v1H53zM76 56h1v1H76zM82 57h1v1H82zM49 60h1v1H49zM70 62h1v1H70zM77 62h1v1H77zM52 63h1v1H52zM76 63h1v1H76zM61 64h1v1H61zM62 65h1v1H62zM17 66h1v1H17zM63 66h1v1H63zM68 66h1v1H68zM74 66h1v1H74zM95 66h1v1H95zM56 67h1v1H56zM65 68h1v1H65zM92 68h1v1H92zM103 68h1v1H103zM58 69h1v1H58zM59 70h1v1H59zM88 71h1v1H88zM73 74h1v1H73zM74 76h1v1H74zM81 78h1v1H81zM17 81h1v1H17zM84 83h1v1H84zM82 86h1v1H82zM79 94h1v1H79zM73 95h1v1H73zM78 98h1v1H78zM72 100h1v1H72zM17 101h1v1H17zM77 105h1v1H77zM124 106h2v1H124zM71 109h1v1H71zM132 109h1v1H132zM71 111h1v1H71zM95 111h2v1H95zM17 112h1v1H17zM127 112h1v1H127zM122 113h1v1H122zM135 113h1v1H135zM86 115h1v1H86zM85 116h1v1H85zM119 117h1v1H119zM91 118h1v1H91zM99 119h1v1H99zM106 120h1v1H106zM138 120h1v1H138zM81 121h1v1H81zM87 122h1v1H87zM80 123h1v1H80zM110 123h1v1H110zM134 127h1v1H134zM140 127h1v1H140zM114 128h1v1H114zM113 131h1v1H113zM104 133h1v1H104zM136 134h1v1H136zM137 137h1v1H137zM71 138h1v1H71zM71 139h1v1H71zM105 139h1v1H105zM144 139h1v1H144zM71 140h1v1H71zM111 140h1v1H111zM71 141h1v1H71zM17 142h1v1H17zM106 142h1v1H106zM146 142h1v1H146zM147 143h1v1H147zM142 146h1v1H142zM152 146h1v1H152zM143 147h1v1H143zM174 147h1v1H174zM174 148h1v1H174zM152 149h1v1H152zM148 150h1v1H148zM151 150h1v1H151zM172 157h1v1H172zM20 159h1v1H20zM21 161h1v1H21zM23 164h1v1H23zM29 170h1v1H29zM161 171h1v1H161zM32 172h1v1H32zM40 175h1v1H40z"/>
  <path fill="#f8f8ff" d="M151 16h1v1H151zM23 27h1v1H23zM46 43h1v1H46zM174 43h1v1H174zM17 46h1v1H17zM17 47h1v1H17zM80 50h1v1H80zM17 52h1v1H17zM44 52h1v1H44zM50 52h1v1H50zM17 53h1v1H17zM17 54h1v1H17zM75 57h1v1H75zM17 58h1v1H17zM17 59h1v1H17zM17 60h1v1H17zM17 63h1v1H17zM17 64h1v1H17zM99 64h1v1H99zM17 67h1v1H17zM73 68h1v1H73zM17 69h1v1H17zM101 69h1v1H101zM17 70h1v1H17zM17 71h1v1H17zM17 73h1v1H17zM17 75h1v1H17zM17 76h1v1H17zM17 77h1v1H17zM82 77h1v1H82zM17 78h1v1H17zM17 79h1v1H17zM76 79h1v1H76zM17 80h1v1H17zM17 82h1v1H17zM17 83h1v1H17zM17 85h1v1H17zM17 86h1v1H17zM17 87h1v1H17zM17 88h1v1H17zM17 89h1v1H17zM17 90h1v1H17zM17 93h1v1H17zM17 94h1v1H17zM17 96h1v1H17zM17 99h1v1H17zM17 100h1v1H17zM17 102h1v1H17zM17 105h1v1H17zM126 106h1v1H126zM17 108h1v1H17zM17 109h1v1H17zM71 112h1v1H71zM123 112h1v1H123zM71 113h1v1H71zM101 113h1v1H101zM102 114h1v1H102zM17 115h1v1H17zM136 115h1v1H136zM17 116h1v1H17zM17 117h1v1H17zM92 117h1v1H92zM17 118h1v1H17zM17 119h1v1H17zM17 120h1v1H17zM100 120h1v1H100zM17 121h1v1H17zM111 121h1v1H111zM17 122h1v1H17zM17 124h1v1H17zM17 125h1v1H17zM71 126h1v1H71zM17 128h1v1H17zM17 129h1v1H17zM71 129h1v1H71zM17 130h1v1H17zM71 130h1v1H71zM17 131h1v1H17zM71 131h1v1H71zM141 131h1v1H141zM71 132h1v1H71zM17 133h1v1H17zM71 133h1v1H71zM71 134h1v1H71zM112 134h1v1H112zM17 135h1v1H17zM71 135h1v1H71zM17 136h1v1H17zM71 137h1v1H71zM17 138h1v1H17zM79 139h1v1H79zM111 139h1v1H111zM78 143h1v1H78zM17 144h1v1H17zM151 145h1v1H151zM77 147h1v1H77zM75 150h1v1H75zM173 154h1v1H173zM19 157h1v1H19zM152 175h1v1H152z"/>
  <path fill="#f8fff8" d="M101 64h1v1H101z"/>
  <path fill="#f8ffff" d="M103 66h1v1H103zM17 68h1v1H17zM96 72h1v1H96zM17 74h1v1H17zM74 92h1v1H74zM17 95h1v1H17zM17 98h1v1H17zM17 106h1v1H17zM71 110h1v1H71zM71 115h1v1H71zM107 123h1v1H107zM17 126h1v1H17zM17 127h1v1H17zM71 127h1v1H71zM71 128h1v1H71zM17 132h1v1H17zM104 132h1v1H104zM71 136h1v1H71zM17 137h1v1H17zM17 139h1v1H17zM36 174h1v1H36zM51 176h1v1H51zM72 176h1v1H72zM92 176h1v1H92zM101 176h1v1H101zM107 176h1v1H107zM110 176h1v1H110zM130 176h1v1H130zM137 176h1v1H137z"/>
  <path fill="#fff8ff" d="M48 48h1v1H48zM17 50h1v1H17zM17 56h1v1H17zM17 61h1v1H17zM55 66h1v1H55zM17 84h1v1H17zM17 92h1v1H17zM129 107h1v1H129zM17 110h1v1H17zM17 113h1v1H17zM71 114h1v1H71zM131 117h1v1H131zM132 120h1v1H132zM17 123h1v1H17zM133 123h1v1H133zM107 124h1v1H107zM71 125h1v1H71zM17 140h1v1H17zM17 141h1v1H17z"/>
  <path fill="#ffffff" d="M0 0h192v1H0zM0 1h192v1H0zM0 2h192v1H0zM0 3h192v1H0zM0 4h192v1H0zM0 5h192v1H0zM0 6h192v1H0zM0 7h192v1H0zM0 8h192v1H0zM0 9h192v1H0zM0 10h192v1H0zM0 11h192v1H0zM0 12h192v1H0zM0 13h192v1H0zM0 14h192v1H0zM0 15h192v1H0zM0 16h41v1H0zM152 16h40v1H152zM0 17h37v1H0zM155 17h37v1H155zM0 18h35v1H0zM158 18h34v1H158zM0 19h33v1H0zM160 19h32v1H160zM0 20h31v1H0zM161 20h31v1H161zM0 21h30v1H0zM163 21h29v1H163zM0 22h28v1H0zM164 22h28v1H164zM0 23h27v1H0zM165 23h27v1H165zM0 24h26v1H0zM166 24h26v1H166zM0 25h25v1H0zM167 25h25v1H167zM0 26h24v1H0zM168 26h24v1H168zM0 27h23v1H0zM169 27h23v1H169zM0 28h23v1H0zM170 28h22v1H170zM0 29h22v1H0zM170 29h22v1H170zM0 30h21v1H0zM171 30h21v1H171zM0 31h21v1H0zM171 31h21v1H171zM0 32h20v1H0zM172 32h20v1H172zM0 33h20v1H0zM172 33h20v1H172zM0 34h20v1H0zM173 34h19v1H173zM0 35h19v1H0zM173 35h19v1H173zM0 36h19v1H0zM173 36h19v1H173zM0 37h19v1H0zM173 37h19v1H173zM0 38h19v1H0zM174 38h18v1H174zM0 39h18v1H0zM174 39h18v1H174zM0 40h18v1H0zM174 40h18v1H174zM0 41h18v1H0zM174 41h18v1H174zM0 42h18v1H0zM174 42h18v1H174zM0 43h18v1H0zM43 43h3v1H43zM175 43h17v1H175zM0 44h18v1H0zM42 44h5v1H42zM175 44h17v1H175zM0 45h18v1H0zM42 45h6v1H42zM174 45h18v1H174zM0 46h17v1H0zM43 46h5v1H43zM174 46h18v1H174zM0 47h17v1H0zM43 47h5v1H43zM82 47h3v1H82zM174 47h18v1H174zM0 48h17v1H0zM43 48h5v1H43zM81 48h5v1H81zM174 48h18v1H174zM0 49h17v1H0zM43 49h6v1H43zM81 49h5v1H81zM174 49h18v1H174zM0 50h17v1H0zM44 50h6v1H44zM81 50h5v1H81zM174 50h18v1H174zM0 51h17v1H0zM44 51h6v1H44zM80 51h6v1H80zM174 51h18v1H174zM0 52h17v1H0zM45 52h5v1H45zM80 52h5v1H80zM174 52h18v1H174zM0 53h17v1H0zM45 53h6v1H45zM79 53h6v1H79zM174 53h18v1H174zM0 54h17v1H0zM46 54h6v1H46zM78 54h6v1H78zM174 54h18v1H174zM0 55h18v1H0zM46 55h7v1H46zM78 55h6v1H78zM174 55h18v1H174zM0 56h17v1H0zM47 56h6v1H47zM77 56h6v1H77zM174 56h18v1H174zM0 57h18v1H0zM47 57h7v1H47zM76 57h6v1H76zM174 57h18v1H174zM0 58h17v1H0zM48 58h7v1H48zM74 58h8v1H74zM174 58h18v1H174zM0 59h17v1H0zM49 59h7v1H49zM73 59h8v1H73zM174 59h18v1H174zM0 60h17v1H0zM50 60h7v1H50zM72 60h8v1H72zM174 60h18v1H174zM0 61h17v1H0zM50 61h8v1H50zM71 61h8v1H71zM174 61h18v1H174zM0 62h18v1H0zM51 62h8v1H51zM71 62h6v1H71zM174 62h18v1H174zM0 63h17v1H0zM53 63h7v1H53zM70 63h6v1H70zM174 63h18v1H174zM0 64h17v1H0zM53 64h8v1H53zM69 64h7v1H69zM100 64h1v1H100zM174 64h18v1H174zM0 65h18v1H0zM54 65h8v1H54zM69 65h6v1H69zM97 65h5v1H97zM174 65h18v1H174zM0 66h17v1H0zM56 66h7v1H56zM69 66h5v1H69zM96 66h7v1H96zM174 66h18v1H174zM0 67h17v1H0zM57 67h8v1H57zM68 67h6v1H68zM94 67h10v1H94zM174 67h18v1H174zM0 68h17v1H0zM57 68h8v1H57zM68 68h5v1H68zM93 68h10v1H93zM174 68h18v1H174zM0 69h17v1H0zM59 69h14v1H59zM91 69h10v1H91zM174 69h18v1H174zM0 70h17v1H0zM60 70h13v1H60zM90 70h10v1H90zM174 70h18v1H174zM0 71h17v1H0zM61 71h12v1H61zM89 71h9v1H89zM174 71h18v1H174zM0 72h18v1H0zM62 72h11v1H62zM87 72h9v1H87zM174 72h18v1H174zM0 73h17v1H0zM63 73h10v1H63zM86 73h9v1H86zM174 73h18v1H174zM0 74h17v1H0zM64 74h9v1H64zM85 74h9v1H85zM174 74h18v1H174zM0 75h17v1H0zM65 75h9v1H65zM84 75h8v1H84zM174 75h18v1H174zM0 76h17v1H0zM66 76h8v1H66zM83 76h8v1H83zM174 76h18v1H174zM0 77h17v1H0zM67 77h8v1H67zM83 77h7v1H83zM174 77h18v1H174zM0 78h17v1H0zM68 78h8v1H68zM82 78h7v1H82zM174 78h18v1H174zM0 79h17v1H0zM69 79h7v1H69zM81 79h7v1H81zM174 79h18v1H174zM0 80h17v1H0zM70 80h8v1H70zM80 80h7v1H80zM174 80h18v1H174zM0 81h17v1H0zM71 81h15v1H71zM174 81h18v1H174zM0 82h17v1H0zM72 82h13v1H72zM174 82h18v1H174zM0 83h17v1H0zM73 83h11v1H73zM174 83h18v1H174zM0 84h17v1H0zM74 84h10v1H74zM174 84h18v1H174zM0 85h17v1H0zM74 85h9v1H74zM174 85h18v1H174zM0 86h17v1H0zM75 86h7v1H75zM174 86h18v1H174zM0 87h17v1H0zM76 87h6v1H76zM174 87h18v1H174zM0 88h17v1H0zM76 88h6v1H76zM174 88h18v1H174zM0 89h17v1H0zM75 89h6v1H75zM174 89h18v1H174zM0 90h17v1H0zM75 90h6v1H75zM174 90h18v1H174zM0 91h18v1H0zM75 91h5v1H75zM174 91h18v1H174zM0 92h17v1H0zM75 92h5v1H75zM174 92h18v1H174zM0 93h17v1H0zM74 93h6v1H74zM174 93h18v1H174zM0 94h17v1H0zM74 94h5v1H74zM174 94h18v1H174zM0 95h17v1H0zM74 95h5v1H74zM174 95h18v1H174zM0 96h17v1H0zM73 96h6v1H73zM174 96h18v1H174zM0 97h18v1H0zM73 97h6v1H73zM174 97h18v1H174zM0 98h17v1H0zM73 98h5v1H73zM174 98h18v1H174zM0 99h17v1H0zM73 99h5v1H73zM174 99h18v1H174zM0 100h17v1H0zM73 100h5v1H73zM174 100h18v1H174zM0 101h17v1H0zM72 101h6v1H72zM174 101h18v1H174zM0 102h17v1H0zM72 102h6v1H72zM174 102h18v1H174zM0 103h18v1H0zM72 103h6v1H72zM174 103h18v1H174zM0 104h18v1H0zM72 104h6v1H72zM174 104h18v1H174zM0 105h17v1H0zM72 105h5v1H72zM174 105h18v1H174zM0 106h17v1H0zM72 106h5v1H72zM127 106h1v1H127zM174 106h18v1H174zM0 107h18v1H0zM72 107h5v1H72zM122 107h7v1H122zM174 107h18v1H174zM0 108h17v1H0zM72 108h5v1H72zM120 108h12v1H120zM174 108h18v1H174zM0 109h17v1H0zM72 109h5v1H72zM119 109h13v1H119zM174 109h18v1H174zM0 110h17v1H0zM72 110h5v1H72zM118 110h16v1H118zM174 110h18v1H174zM0 111h18v1H0zM72 111h5v1H72zM94 111h1v1H94zM117 111h17v1H117zM174 111h18v1H174zM0 112h17v1H0zM72 112h5v1H72zM91 112h9v1H91zM116 112h7v1H116zM128 112h7v1H128zM174 112h18v1H174zM0 113h17v1H0zM72 113h5v1H72zM89 113h12v1H89zM115 113h7v1H115zM129 113h6v1H129zM174 113h18v1H174zM0 114h18v1H0zM72 114h5v1H72zM88 114h14v1H88zM115 114h7v1H115zM130 114h6v1H130zM174 114h18v1H174zM0 115h17v1H0zM72 115h5v1H72zM87 115h17v1H87zM114 115h7v1H114zM130 115h6v1H130zM174 115h18v1H174zM0 116h17v1H0zM71 116h6v1H71zM86 116h18v1H86zM114 116h6v1H114zM131 116h6v1H131zM174 116h18v1H174zM0 117h17v1H0zM71 117h6v1H71zM85 117h7v1H85zM97 117h8v1H97zM113 117h6v1H113zM132 117h5v1H132zM174 117h18v1H174zM0 118h17v1H0zM71 118h6v1H71zM84 118h7v1H84zM99 118h7v1H99zM113 118h6v1H113zM132 118h6v1H132zM174 118h18v1H174zM0 119h17v1H0zM71 119h6v1H71zM83 119h7v1H83zM100 119h6v1H100zM112 119h6v1H112zM132 119h6v1H132zM174 119h18v1H174zM0 120h17v1H0zM71 120h6v1H71zM82 120h7v1H82zM101 120h5v1H101zM112 120h6v1H112zM133 120h5v1H133zM174 120h18v1H174zM0 121h17v1H0zM71 121h6v1H71zM82 121h6v1H82zM101 121h6v1H101zM112 121h5v1H112zM133 121h6v1H133zM174 121h18v1H174zM0 122h17v1H0zM71 122h6v1H71zM81 122h6v1H81zM101 122h6v1H101zM111 122h6v1H111zM133 122h6v1H133zM174 122h18v1H174zM0 123h17v1H0zM71 123h6v1H71zM81 123h6v1H81zM102 123h5v1H102zM111 123h5v1H111zM134 123h5v1H134zM174 123h18v1H174zM0 124h17v1H0zM71 124h6v1H71zM80 124h6v1H80zM102 124h5v1H102zM110 124h6v1H110zM134 124h6v1H134zM174 124h18v1H174zM0 125h17v1H0zM72 125h5v1H72zM79 125h7v1H79zM102 125h6v1H102zM110 125h6v1H110zM134 125h6v1H134zM174 125h18v1H174zM0 126h17v1H0zM72 126h5v1H72zM79 126h6v1H79zM103 126h12v1H103zM134 126h6v1H134zM174 126h18v1H174zM0 127h17v1H0zM72 127h12v1H72zM103 127h12v1H103zM135 127h5v1H135zM174 127h18v1H174zM0 128h17v1H0zM72 128h12v1H72zM103 128h11v1H103zM135 128h6v1H135zM174 128h18v1H174zM0 129h17v1H0zM72 129h11v1H72zM104 129h10v1H104zM135 129h6v1H135zM174 129h18v1H174zM0 130h17v1H0zM72 130h11v1H72zM104 130h10v1H104zM135 130h6v1H135zM174 130h18v1H174zM0 131h17v1H0zM72 131h10v1H72zM104 131h9v1H104zM136 131h5v1H136zM174 131h18v1H174zM0 132h17v1H0zM72 132h10v1H72zM105 132h8v1H105zM136 132h6v1H136zM174 132h18v1H174zM0 133h17v1H0zM72 133h10v1H72zM105 133h8v1H105zM136 133h6v1H136zM174 133h18v1H174zM0 134h18v1H0zM72 134h9v1H72zM105 134h7v1H105zM137 134h6v1H137zM174 134h18v1H174zM0 135h17v1H0zM72 135h9v1H72zM105 135h7v1H105zM137 135h6v1H137zM174 135h18v1H174zM0 136h17v1H0zM72 136h8v1H72zM105 136h7v1H105zM137 136h6v1H137zM174 136h18v1H174zM0 137h17v1H0zM72 137h8v1H72zM105 137h7v1H105zM138 137h6v1H138zM174 137h18v1H174zM0 138h17v1H0zM72 138h8v1H72zM105 138h7v1H105zM138 138h6v1H138zM174 138h18v1H174zM0 139h17v1H0zM72 139h7v1H72zM106 139h5v1H106zM138 139h6v1H138zM174 139h18v1H174zM0 140h17v1H0zM72 140h7v1H72zM106 140h5v1H106zM139 140h6v1H139zM174 140h18v1H174zM0 141h17v1H0zM72 141h7v1H72zM106 141h5v1H106zM139 141h7v1H139zM174 141h18v1H174zM0 142h17v1H0zM72 142h7v1H72zM107 142h4v1H107zM140 142h6v1H140zM174 142h18v1H174zM0 143h18v1H0zM72 143h6v1H72zM140 143h7v1H140zM174 143h18v1H174zM0 144h17v1H0zM72 144h6v1H72zM141 144h8v1H141zM174 144h18v1H174zM0 145h18v1H0zM72 145h6v1H72zM142 145h9v1H142zM174 145h18v1H174zM0 146h18v1H0zM72 146h6v1H72zM143 146h9v1H143zM174 146h18v1H174zM0 147h18v1H0zM72 147h5v1H72zM144 147h9v1H144zM175 147h17v1H175zM0 148h18v1H0zM72 148h5v1H72zM145 148h8v1H145zM175 148h17v1H175zM0 149h18v1H0zM72 149h5v1H72zM146 149h6v1H146zM174 149h18v1H174zM0 150h18v1H0zM73 150h2v1H73zM149 150h2v1H149zM174 150h18v1H174zM0 151h18v1H0zM174 151h18v1H174zM0 152h18v1H0zM174 152h18v1H174zM0 153h19v1H0zM174 153h18v1H174zM0 154h19v1H0zM174 154h18v1H174zM0 155h19v1H0zM173 155h19v1H173zM0 156h19v1H0zM173 156h19v1H173zM0 157h19v1H0zM173 157h19v1H173zM0 158h20v1H0zM172 158h20v1H172zM0 159h20v1H0zM172 159h20v1H172zM0 160h21v1H0zM171 160h21v1H171zM0 161h21v1H0zM171 161h21v1H171zM0 162h22v1H0zM170 162h22v1H170zM0 163h23v1H0zM170 163h22v1H170zM0 164h23v1H0zM169 164h23v1H169zM0 165h24v1H0zM168 165h24v1H168zM0 166h25v1H0zM167 166h25v1H167zM0 167h26v1H0zM166 167h26v1H166zM0 168h27v1H0zM165 168h27v1H165zM0 169h28v1H0zM164 169h28v1H164zM0 170h29v1H0zM163 170h29v1H163zM0 171h31v1H0zM162 171h30v1H162zM0 172h32v1H0zM160 172h32v1H160zM0 173h34v1H0zM158 173h34v1H158zM0 174h36v1H0zM155 174h37v1H155zM0 175h40v1H0zM153 175h39v1H153zM0 176h51v1H0zM52 176h20v1H52zM73 176h19v1H73zM93 176h8v1H93zM102 176h5v1H102zM108 176h2v1H108zM111 176h19v1H111zM131 176h6v1H131zM138 176h54v1H138zM0 177h192v1H0zM0 178h192v1H0zM0 179h192v1H0zM0 180h192v1H0zM0 181h192v1H0zM0 182h192v1H0zM0 183h192v1H0zM0 184h192v1H0zM0 185h192v1H0zM0 186h192v1H0zM0 187h192v1H0zM0 188h192v1H0zM0 189h192v1H0zM0 190h192v1H0zM0 191h192v1H0z"/>
</svg>
