<svg xmlns="http://www.w3.org/2000/svg" width="512" height="512" viewBox="0 0 512 512" fill="none">

<rect x="16" y="16" width="480" height="480" rx="72" fill="#042A6B"/>
<path d="M168 160 L245 235" fill="none" stroke="#FFFFFF" stroke-width="24" stroke-linecap="round" stroke-linejoin="round"/>
<path d="M245 235 C255 190 282 155 318 138" fill="none" stroke="#FFFFFF" stroke-width="24" stroke-linecap="round" stroke-linejoin="round"/>
<path d="M245 235 L245 365" fill="none" stroke="#FFFFFF" stroke-width="24" stroke-linecap="round" stroke-linejoin="round"/>
<path d="M245 315 C258 270 298 248 330 278 C344 292 349 320 356 338 C366 305 382 245 420 252 C452 261 449 352 478 382" fill="none" stroke="#FFFFFF" stroke-width="24" stroke-linecap="round" stroke-linejoin="round"/>
<path d="M186 150 L170 132" fill="none" stroke="#FFFFFF" stroke-width="8" stroke-linecap="round"/><path d="M 320 150 C 336.0 128.0, 364.0 132.0, 374.0 156.0 C 358.0 174.0, 332.0 176.0, 320 150 Z" fill="none" stroke="#61E5B2" stroke-width="8" stroke-linejoin="round"/><path d="M 330.0 166.0 C 340.0 154.0, 350.0 144.0, 362.0 144.0" fill="none" stroke="#61E5B2" stroke-width="6" stroke-linecap="round"/>
</svg>
