<svg xmlns="http://www.w3.org/2000/svg" width="512" height="512" viewBox="0 0 512 512" fill="none">
<defs><linearGradient id="g_game" x1="120" y1="120" x2="420" y2="390" gradientUnits="userSpaceOnUse"><stop offset="0" stop-color="#B089FF"/><stop offset="1" stop-color="#FF5ACD"/></linearGradient></defs>
<rect x="16" y="16" width="480" height="480" rx="72" fill="#042A6B"/>
<path d="M168 160 L245 235" fill="none" stroke="url(#g_game)" stroke-width="24" stroke-linecap="round" stroke-linejoin="round"/>
<path d="M245 235 C255 190 282 155 318 138" fill="none" stroke="url(#g_game)" stroke-width="24" stroke-linecap="round" stroke-linejoin="round"/>
<path d="M245 235 L245 365" fill="none" stroke="url(#g_game)" stroke-width="24" stroke-linecap="round" stroke-linejoin="round"/>
<path d="M245 315 C258 270 298 248 330 278 C344 292 349 320 356 338 C366 305 382 245 420 252 C452 261 449 352 478 382" fill="none" stroke="url(#g_game)" stroke-width="24" stroke-linecap="round" stroke-linejoin="round"/>
<path d="M186 150 L170 132" fill="none" stroke="#B089FF" stroke-width="8" stroke-linecap="round"/><path d="M300 162 L326 136" fill="none" stroke="#FF5ACD" stroke-width="8" stroke-linecap="round"/><path d="M 258 240 C 240 238, 232 264, 240 280 L 270 280 C 280 268, 292 264, 302 264" fill="none" stroke="#B089FF" stroke-width="8" stroke-linecap="round" stroke-linejoin="round"/><path d="M 250 252 L 250 268" fill="none" stroke="#B089FF" stroke-width="6" stroke-linecap="round"/><path d="M 242 260 L 258 260" fill="none" stroke="#B089FF" stroke-width="6" stroke-linecap="round"/>
</svg>
