<svg xmlns="http://www.w3.org/2000/svg" width="512" height="512" viewBox="0 0 512 512" fill="none">
<defs><linearGradient id="g_green" x1="120" y1="120" x2="420" y2="390" gradientUnits="userSpaceOnUse"><stop offset="0" stop-color="#69E7B6"/><stop offset="1" stop-color="#4BD678"/></linearGradient></defs>
<rect x="16" y="16" width="480" height="480" rx="72" fill="#042A6B"/>
<path d="M168 160 L245 235" fill="none" stroke="url(#g_green)" stroke-width="24" stroke-linecap="round" stroke-linejoin="round"/>
<path d="M245 235 C255 190 282 155 318 138" fill="none" stroke="url(#g_green)" stroke-width="24" stroke-linecap="round" stroke-linejoin="round"/>
<path d="M245 235 L245 365" fill="none" stroke="url(#g_green)" stroke-width="24" stroke-linecap="round" stroke-linejoin="round"/>
<path d="M245 315 C258 270 298 248 330 278 C344 292 349 320 356 338 C366 305 382 245 420 252 C452 261 449 352 478 382" fill="none" stroke="url(#g_green)" stroke-width="24" stroke-linecap="round" stroke-linejoin="round"/>
<path d="M 318 150 C 334.0 128.0, 362.0 132.0, 372.0 156.0 C 356.0 174.0, 330.0 176.0, 318 150 Z" fill="none" stroke="#67E8B7" stroke-width="8" stroke-linejoin="round"/><path d="M 328.0 166.0 C 338.0 154.0, 348.0 144.0, 360.0 144.0" fill="none" stroke="#67E8B7" stroke-width="6" stroke-linecap="round"/>
</svg>
